<?xml version="1.0" encoding="UTF-8" standalone="no"?>
<!DOCTYPE svg PUBLIC "-//W3C//DTD SVG 1.1//EN"
 "http://www.w3.org/Graphics/SVG/1.1/DTD/svg11.dtd">
<!-- Generated by graphviz version 2.43.0 (0)
 -->
<!-- Title: ConfirmClaimTx Pages: 1 -->
<svg width="2604pt" height="897pt"
 viewBox="0.00 0.00 2603.57 897.00" xmlns="http://www.w3.org/2000/svg" xmlns:xlink="http://www.w3.org/1999/xlink">
<g id="graph0" class="graph" transform="scale(1 1) rotate(0) translate(4 893)">
<title>ConfirmClaimTx</title>
<polygon fill="white" stroke="transparent" points="-4,4 -4,-893 2599.57,-893 2599.57,4 -4,4"/>
<text text-anchor="middle" x="1297.78" y="-37.8" font-family="Times-Roman" font-size="14.00">Boxes are UTxOs.</text>
<text text-anchor="middle" x="1297.78" y="-22.8" font-family="Times-Roman" font-size="14.00">Ovals are transactions.</text>
<text text-anchor="middle" x="1297.78" y="-7.8" font-family="Times-Roman" font-size="14.00">ADA values are rounded to one decimal place.</text>
<g id="clust1" class="cluster">
<title>cluster_0</title>
</g>
<g id="clust2" class="cluster">
<title>cluster_0s</title>
</g>
<g id="clust3" class="cluster">
<title>cluster_0b</title>
</g>
<g id="clust4" class="cluster">
<title>cluster_0m</title>
</g>
<g id="clust5" class="cluster">
<title>cluster_2</title>
</g>
<g id="clust6" class="cluster">
<title>cluster_4</title>
</g>
<g id="clust7" class="cluster">
<title>cluster_5</title>
</g>
<g id="clust8" class="cluster">
<title>cluster_5p</title>
</g>
<g id="clust9" class="cluster">
<title>cluster_x</title>
</g>
<g id="clust10" class="cluster">
<title>cluster_3</title>
</g>
<g id="clust11" class="cluster">
<title>cluster_6</title>
</g>
<g id="clust12" class="cluster">
<title>cluster_7</title>
</g>
<!-- Tx0SellerAda -->
<g id="node1" class="node">
<title>Tx0SellerAda</title>
<polygon fill="none" stroke="black" points="34,-748.5 34,-809.5 175,-809.5 175,-748.5 34,-748.5"/>
<text text-anchor="middle" x="104.5" y="-794.3" font-family="Times-Roman" font-size="14.00">Francis Beaumont</text>
<text text-anchor="middle" x="104.5" y="-779.3" font-family="Times-Roman" font-size="14.00">(the seller)</text>
<polyline fill="none" stroke="black" points="34,-771.5 175,-771.5 "/>
<text text-anchor="middle" x="104.5" y="-756.3" font-family="Times-Roman" font-size="14.00">3003.6 ADA</text>
</g>
<!-- Tx4 -->
<g id="node19" class="node">
<title>Tx4</title>
<ellipse fill="none" stroke="black" cx="1560.83" cy="-741" rx="30.59" ry="18"/>
<text text-anchor="middle" x="1560.83" y="-737.3" font-family="Times-Roman" font-size="14.00">Tx 4</text>
</g>
<!-- Tx0SellerAda&#45;&gt;Tx4 -->
<g id="edge18" class="edge">
<title>Tx0SellerAda&#45;&gt;Tx4</title>
<path fill="none" stroke="black" d="M175.14,-779C201.02,-779 230.62,-779 257.55,-779 257.55,-779 257.55,-779 1283.78,-779 1385.9,-779 1412.11,-774.84 1512.28,-755 1516.16,-754.23 1520.18,-753.29 1524.16,-752.26"/>
<polygon fill="black" stroke="black" points="1525.18,-755.61 1533.88,-749.57 1523.31,-748.86 1525.18,-755.61"/>
</g>
<!-- Tx0SellerToken -->
<g id="node2" class="node">
<title>Tx0SellerToken</title>
<polygon fill="none" stroke="black" points="34,-668.5 34,-729.5 175,-729.5 175,-668.5 34,-668.5"/>
<text text-anchor="middle" x="104.5" y="-714.3" font-family="Times-Roman" font-size="14.00">Francis Beaumont</text>
<text text-anchor="middle" x="104.5" y="-699.3" font-family="Times-Roman" font-size="14.00">(the seller)</text>
<polyline fill="none" stroke="black" points="34,-691.5 175,-691.5 "/>
<text text-anchor="middle" x="104.5" y="-676.3" font-family="Times-Roman" font-size="14.00">2 ADA + 1 FB</text>
</g>
<!-- Tx0SellerToken&#45;&gt;Tx4 -->
<g id="edge19" class="edge">
<title>Tx0SellerToken&#45;&gt;Tx4</title>
<path fill="none" stroke="black" d="M175.18,-726.66C200.68,-734.53 230.02,-741 257.55,-741 257.55,-741 257.55,-741 1283.78,-741 1367.8,-741 1466.2,-741 1519.89,-741"/>
<polygon fill="black" stroke="black" points="1520.01,-744.5 1530.01,-741 1520.01,-737.5 1520.01,-744.5"/>
</g>
<!-- Tx0BuyerAda -->
<g id="node3" class="node">
<title>Tx0BuyerAda</title>
<polygon fill="none" stroke="black" points="32.5,-582.5 32.5,-643.5 176.5,-643.5 176.5,-582.5 32.5,-582.5"/>
<text text-anchor="middle" x="104.5" y="-628.3" font-family="Times-Roman" font-size="14.00">Thomas Middleton</text>
<text text-anchor="middle" x="104.5" y="-613.3" font-family="Times-Roman" font-size="14.00">(the buyer)</text>
<polyline fill="none" stroke="black" points="32.5,-605.5 176.5,-605.5 "/>
<text text-anchor="middle" x="104.5" y="-590.3" font-family="Times-Roman" font-size="14.00">2954.4 ADA</text>
</g>
<!-- Tx2 -->
<g id="node11" class="node">
<title>Tx2</title>
<ellipse fill="none" stroke="black" cx="644.64" cy="-548" rx="30.59" ry="18"/>
<text text-anchor="middle" x="644.64" y="-544.3" font-family="Times-Roman" font-size="14.00">Tx 2</text>
</g>
<!-- Tx0BuyerAda&#45;&gt;Tx2 -->
<g id="edge6" class="edge">
<title>Tx0BuyerAda&#45;&gt;Tx2</title>
<path fill="none" stroke="black" d="M176.82,-612.67C273.24,-610.8 449.94,-602.27 596.09,-567 600.81,-565.86 605.69,-564.34 610.43,-562.66"/>
<polygon fill="black" stroke="black" points="611.8,-565.88 619.89,-559.04 609.3,-559.34 611.8,-565.88"/>
</g>
<!-- Tx0BuyerToken -->
<g id="node4" class="node">
<title>Tx0BuyerToken</title>
<polygon fill="none" stroke="black" points="32.5,-502.5 32.5,-563.5 176.5,-563.5 176.5,-502.5 32.5,-502.5"/>
<text text-anchor="middle" x="104.5" y="-548.3" font-family="Times-Roman" font-size="14.00">Thomas Middleton</text>
<text text-anchor="middle" x="104.5" y="-533.3" font-family="Times-Roman" font-size="14.00">(the buyer)</text>
<polyline fill="none" stroke="black" points="32.5,-525.5 176.5,-525.5 "/>
<text text-anchor="middle" x="104.5" y="-510.3" font-family="Times-Roman" font-size="14.00">2 ADA + 1 TM</text>
</g>
<!-- Tx0BuyerToken&#45;&gt;Tx2 -->
<g id="edge7" class="edge">
<title>Tx0BuyerToken&#45;&gt;Tx2</title>
<path fill="none" stroke="black" d="M176.73,-541.57C224.78,-546.91 289.65,-553.27 347.09,-556 426.12,-559.75 446.01,-558.23 525.09,-556 551.38,-555.26 580.88,-553.27 603.88,-551.47"/>
<polygon fill="black" stroke="black" points="604.27,-554.95 613.95,-550.65 603.7,-547.97 604.27,-554.95"/>
</g>
<!-- Tx0MediatorAda -->
<g id="node5" class="node">
<title>Tx0MediatorAda</title>
<polygon fill="none" stroke="black" points="24,-416.5 24,-477.5 185,-477.5 185,-416.5 24,-416.5"/>
<text text-anchor="middle" x="104.5" y="-462.3" font-family="Times-Roman" font-size="14.00">Christopher Marlowe</text>
<text text-anchor="middle" x="104.5" y="-447.3" font-family="Times-Roman" font-size="14.00">(the mediator)</text>
<polyline fill="none" stroke="black" points="24,-439.5 185,-439.5 "/>
<text text-anchor="middle" x="104.5" y="-424.3" font-family="Times-Roman" font-size="14.00">1965.7 ADA</text>
</g>
<!-- Tx1 -->
<g id="node7" class="node">
<title>Tx1</title>
<ellipse fill="none" stroke="black" cx="258.55" cy="-424" rx="30.59" ry="18"/>
<text text-anchor="middle" x="258.55" y="-420.3" font-family="Times-Roman" font-size="14.00">Tx 1</text>
</g>
<!-- Tx0MediatorAda&#45;&gt;Tx1 -->
<g id="edge1" class="edge">
<title>Tx0MediatorAda&#45;&gt;Tx1</title>
<path fill="none" stroke="black" d="M185.09,-434.96C196.83,-433.18 208.47,-431.42 218.86,-429.85"/>
<polygon fill="black" stroke="black" points="219.44,-433.3 228.8,-428.35 218.39,-426.38 219.44,-433.3"/>
</g>
<!-- Tx0MediatorToken -->
<g id="node6" class="node">
<title>Tx0MediatorToken</title>
<polygon fill="none" stroke="black" points="24,-336.5 24,-397.5 185,-397.5 185,-336.5 24,-336.5"/>
<text text-anchor="middle" x="104.5" y="-382.3" font-family="Times-Roman" font-size="14.00">Christopher Marlowe</text>
<text text-anchor="middle" x="104.5" y="-367.3" font-family="Times-Roman" font-size="14.00">(the mediator)</text>
<polyline fill="none" stroke="black" points="24,-359.5 185,-359.5 "/>
<text text-anchor="middle" x="104.5" y="-344.3" font-family="Times-Roman" font-size="14.00">2 ADA + 1 CM</text>
</g>
<!-- Tx5 -->
<g id="node24" class="node">
<title>Tx5</title>
<ellipse fill="none" stroke="black" cx="2004.93" cy="-293" rx="30.59" ry="18"/>
<text text-anchor="middle" x="2004.93" y="-289.3" font-family="Times-Roman" font-size="14.00">Tx 5</text>
</g>
<!-- Tx0MediatorToken&#45;&gt;Tx5 -->
<g id="edge26" class="edge">
<title>Tx0MediatorToken&#45;&gt;Tx5</title>
<path fill="none" stroke="black" d="M130.61,-336.4C158.26,-306.35 205.74,-265 257.55,-265 257.55,-265 257.55,-265 1746.88,-265 1824.83,-265 1915.3,-277.88 1965.44,-286.17"/>
<polygon fill="black" stroke="black" points="1965.07,-289.66 1975.51,-287.86 1966.23,-282.75 1965.07,-289.66"/>
</g>
<!-- Tx1_0 -->
<g id="node8" class="node">
<title>Tx1_0</title>
<polygon fill="none" stroke="black" points="385.59,-351.5 385.59,-412.5 486.59,-412.5 486.59,-351.5 385.59,-351.5"/>
<text text-anchor="middle" x="436.09" y="-397.3" font-family="Times-Roman" font-size="14.00">Christopher</text>
<text text-anchor="middle" x="436.09" y="-382.3" font-family="Times-Roman" font-size="14.00">Marlowe</text>
<polyline fill="none" stroke="black" points="385.59,-374.5 486.59,-374.5 "/>
<text text-anchor="middle" x="436.09" y="-359.3" font-family="Times-Roman" font-size="14.00">1962.5 ADA</text>
</g>
<!-- Tx1&#45;&gt;Tx1_0 -->
<g id="edge2" class="edge">
<title>Tx1&#45;&gt;Tx1_0</title>
<path fill="none" stroke="black" d="M287.36,-417.34C310.99,-411.69 345.72,-403.38 375.57,-396.24"/>
<polygon fill="black" stroke="black" points="376.57,-399.6 385.48,-393.87 374.94,-392.79 376.57,-399.6"/>
<text text-anchor="middle" x="318.09" y="-414.8" font-family="Times-Roman" font-size="14.00">#0</text>
</g>
<!-- Tx1_1 -->
<g id="node9" class="node">
<title>Tx1_1</title>
<polygon fill="none" stroke="black" points="347.09,-431.5 347.09,-546.5 525.09,-546.5 525.09,-431.5 347.09,-431.5"/>
<text text-anchor="middle" x="436.09" y="-531.3" font-family="Times-Roman" font-size="14.00">Marlowe Script</text>
<polyline fill="none" stroke="black" points="347.09,-523.5 525.09,-523.5 "/>
<text text-anchor="middle" x="436.09" y="-508.3" font-family="Times-Roman" font-size="14.00">3 ADA</text>
<polyline fill="none" stroke="black" points="347.09,-500.5 525.09,-500.5 "/>
<text text-anchor="middle" x="373.59" y="-462.3" font-family="Times-Roman" font-size="14.00">State</text>
<polyline fill="none" stroke="black" points="400.09,-431.5 400.09,-500.5 "/>
<text text-anchor="middle" x="462.59" y="-485.3" font-family="Times-Roman" font-size="14.00">F.B. has 0 ADA</text>
<polyline fill="none" stroke="black" points="400.09,-477.5 525.09,-477.5 "/>
<text text-anchor="middle" x="462.59" y="-462.3" font-family="Times-Roman" font-size="14.00">T.M. has 0 ADA</text>
<polyline fill="none" stroke="black" points="400.09,-454.5 525.09,-454.5 "/>
<text text-anchor="middle" x="462.59" y="-439.3" font-family="Times-Roman" font-size="14.00">C.M. has 3 ADA</text>
</g>
<!-- Tx1&#45;&gt;Tx1_1 -->
<g id="edge3" class="edge">
<title>Tx1&#45;&gt;Tx1_1</title>
<path fill="none" stroke="black" d="M284.7,-433.31C298.96,-438.59 317.81,-445.57 337.34,-452.8"/>
<polygon fill="black" stroke="black" points="336.37,-456.18 346.96,-456.37 338.8,-449.61 336.37,-456.18"/>
<text text-anchor="middle" x="318.09" y="-451.8" font-family="Times-Roman" font-size="14.00">#1</text>
</g>
<!-- Tx1_Fee -->
<g id="node10" class="node">
<title>Tx1_Fee</title>
<polygon fill="none" stroke="black" points="399.09,-294 399.09,-332 473.09,-332 473.09,-294 399.09,-294"/>
<text text-anchor="middle" x="436.09" y="-316.8" font-family="Times-Roman" font-size="14.00">Fee</text>
<text text-anchor="middle" x="436.09" y="-301.8" font-family="Times-Roman" font-size="14.00">0.2 ADA</text>
</g>
<!-- Tx1&#45;&gt;Tx1_Fee -->
<g id="edge4" class="edge">
<title>Tx1&#45;&gt;Tx1_Fee</title>
<path fill="none" stroke="black" d="M272.8,-407.92C288.71,-389.59 317.01,-359.85 347.09,-342 359.9,-334.4 374.94,-328.51 388.94,-324.08"/>
<polygon fill="black" stroke="black" points="390.31,-327.32 398.89,-321.11 388.31,-320.62 390.31,-327.32"/>
</g>
<!-- Tx1_0&#45;&gt;Tx5 -->
<g id="edge25" class="edge">
<title>Tx1_0&#45;&gt;Tx5</title>
<path fill="none" stroke="black" d="M486.62,-361.05C527.86,-345.51 588.54,-327 643.64,-327 643.64,-327 643.64,-327 1746.88,-327 1825.26,-327 1915.93,-311.27 1965.91,-301.21"/>
<polygon fill="black" stroke="black" points="1966.84,-304.59 1975.94,-299.16 1965.44,-297.73 1966.84,-304.59"/>
</g>
<!-- Tx1_1&#45;&gt;Tx2 -->
<g id="edge5" class="edge">
<title>Tx1_1&#45;&gt;Tx2</title>
<path fill="none" stroke="black" d="M525.29,-514.19C554,-522.39 584.31,-531.05 607.06,-537.55"/>
<polygon fill="black" stroke="black" points="606.38,-541 616.96,-540.38 608.3,-534.26 606.38,-541"/>
<text text-anchor="middle" x="569.59" y="-536.8" font-family="Times-Roman" font-size="14.00">Deposit</text>
</g>
<!-- Tx2_0 -->
<g id="node12" class="node">
<title>Tx2_0</title>
<polygon fill="none" stroke="black" points="777.69,-517.5 777.69,-578.5 878.69,-578.5 878.69,-517.5 777.69,-517.5"/>
<text text-anchor="middle" x="828.19" y="-563.3" font-family="Times-Roman" font-size="14.00">Thomas</text>
<text text-anchor="middle" x="828.19" y="-548.3" font-family="Times-Roman" font-size="14.00">Middleton</text>
<polyline fill="none" stroke="black" points="777.69,-540.5 878.69,-540.5 "/>
<text text-anchor="middle" x="828.19" y="-525.3" font-family="Times-Roman" font-size="14.00">2696.0 ADA</text>
</g>
<!-- Tx2&#45;&gt;Tx2_0 -->
<g id="edge8" class="edge">
<title>Tx2&#45;&gt;Tx2_0</title>
<path fill="none" stroke="black" d="M675.21,-548C700.04,-548 736.29,-548 767.17,-548"/>
<polygon fill="black" stroke="black" points="767.41,-551.5 777.41,-548 767.41,-544.5 767.41,-551.5"/>
<text text-anchor="middle" x="704.19" y="-551.8" font-family="Times-Roman" font-size="14.00">#0</text>
</g>
<!-- Tx2_2 -->
<g id="node13" class="node">
<title>Tx2_2</title>
<polygon fill="none" stroke="black" points="770.69,-437.5 770.69,-498.5 885.69,-498.5 885.69,-437.5 770.69,-437.5"/>
<text text-anchor="middle" x="828.19" y="-483.3" font-family="Times-Roman" font-size="14.00">Thomas</text>
<text text-anchor="middle" x="828.19" y="-468.3" font-family="Times-Roman" font-size="14.00">Midddleton</text>
<polyline fill="none" stroke="black" points="770.69,-460.5 885.69,-460.5 "/>
<text text-anchor="middle" x="828.19" y="-445.3" font-family="Times-Roman" font-size="14.00">3 ADA + 1 TM</text>
</g>
<!-- Tx2&#45;&gt;Tx2_2 -->
<g id="edge9" class="edge">
<title>Tx2&#45;&gt;Tx2_2</title>
<path fill="none" stroke="black" d="M669.35,-536.97C686.92,-528.84 711.48,-517.58 733.19,-508 742.2,-504.03 751.71,-499.9 761.1,-495.86"/>
<polygon fill="black" stroke="black" points="762.6,-499.03 770.42,-491.87 759.85,-492.59 762.6,-499.03"/>
<text text-anchor="middle" x="704.19" y="-528.8" font-family="Times-Roman" font-size="14.00">#2</text>
</g>
<!-- Tx2_1 -->
<g id="node14" class="node">
<title>Tx2_1</title>
<polygon fill="none" stroke="black" points="733.19,-597.5 733.19,-712.5 923.19,-712.5 923.19,-597.5 733.19,-597.5"/>
<text text-anchor="middle" x="828.19" y="-697.3" font-family="Times-Roman" font-size="14.00">Marlowe Script</text>
<polyline fill="none" stroke="black" points="733.19,-689.5 923.19,-689.5 "/>
<text text-anchor="middle" x="828.19" y="-674.3" font-family="Times-Roman" font-size="14.00">259 ADA</text>
<polyline fill="none" stroke="black" points="733.19,-666.5 923.19,-666.5 "/>
<text text-anchor="middle" x="759.69" y="-628.3" font-family="Times-Roman" font-size="14.00">State</text>
<polyline fill="none" stroke="black" points="786.19,-597.5 786.19,-666.5 "/>
<text text-anchor="middle" x="854.69" y="-651.3" font-family="Times-Roman" font-size="14.00">F.B. has 256 ADA</text>
<polyline fill="none" stroke="black" points="786.19,-643.5 923.19,-643.5 "/>
<text text-anchor="middle" x="854.69" y="-628.3" font-family="Times-Roman" font-size="14.00">T.M. has 0 ADA</text>
<polyline fill="none" stroke="black" points="786.19,-620.5 923.19,-620.5 "/>
<text text-anchor="middle" x="854.69" y="-605.3" font-family="Times-Roman" font-size="14.00">C.M. has 3 ADA</text>
</g>
<!-- Tx2&#45;&gt;Tx2_1 -->
<g id="edge10" class="edge">
<title>Tx2&#45;&gt;Tx2_1</title>
<path fill="none" stroke="black" d="M666.82,-560.48C681.6,-569.2 702.54,-581.53 724.42,-594.43"/>
<polygon fill="black" stroke="black" points="722.78,-597.52 733.17,-599.59 726.33,-591.49 722.78,-597.52"/>
<text text-anchor="middle" x="704.19" y="-591.8" font-family="Times-Roman" font-size="14.00">#1</text>
</g>
<!-- Tx2_Fee -->
<g id="node15" class="node">
<title>Tx2_Fee</title>
<polygon fill="none" stroke="black" points="791.19,-380 791.19,-418 865.19,-418 865.19,-380 791.19,-380"/>
<text text-anchor="middle" x="828.19" y="-402.8" font-family="Times-Roman" font-size="14.00">Fee</text>
<text text-anchor="middle" x="828.19" y="-387.8" font-family="Times-Roman" font-size="14.00">1.3 ADA</text>
</g>
<!-- Tx2&#45;&gt;Tx2_Fee -->
<g id="edge11" class="edge">
<title>Tx2&#45;&gt;Tx2_Fee</title>
<path fill="none" stroke="black" d="M653.35,-530.41C666.05,-503.55 693.9,-452.52 733.19,-425 747.2,-415.19 764.79,-409.07 780.96,-405.26"/>
<polygon fill="black" stroke="black" points="781.74,-408.67 790.79,-403.17 780.29,-401.82 781.74,-408.67"/>
</g>
<!-- Tx3 -->
<g id="node16" class="node">
<title>Tx3</title>
<ellipse fill="none" stroke="black" cx="1097.74" cy="-548" rx="30.59" ry="18"/>
<text text-anchor="middle" x="1097.74" y="-544.3" font-family="Times-Roman" font-size="14.00">Tx 3</text>
</g>
<!-- Tx2_0&#45;&gt;Tx3 -->
<g id="edge13" class="edge">
<title>Tx2_0&#45;&gt;Tx3</title>
<path fill="none" stroke="black" d="M878.89,-548C930.31,-548 1009.6,-548 1057.01,-548"/>
<polygon fill="black" stroke="black" points="1057.19,-551.5 1067.19,-548 1057.19,-544.5 1057.19,-551.5"/>
</g>
<!-- Tx2_2&#45;&gt;Tx3 -->
<g id="edge14" class="edge">
<title>Tx2_2&#45;&gt;Tx3</title>
<path fill="none" stroke="black" d="M885.93,-484.97C938.69,-500.74 1015.71,-523.77 1060.58,-537.19"/>
<polygon fill="black" stroke="black" points="1059.6,-540.55 1070.18,-540.06 1061.6,-533.84 1059.6,-540.55"/>
</g>
<!-- Tx2_1&#45;&gt;Tx3 -->
<g id="edge12" class="edge">
<title>Tx2_1&#45;&gt;Tx3</title>
<path fill="none" stroke="black" d="M923.52,-617.28C971.72,-598 1027.42,-575.72 1062.36,-561.75"/>
<polygon fill="black" stroke="black" points="1064.09,-564.83 1072.08,-557.86 1061.49,-558.33 1064.09,-564.83"/>
<text text-anchor="middle" x="995.19" y="-610.8" font-family="Times-Roman" font-size="14.00">Report problem</text>
</g>
<!-- Tx3_1 -->
<g id="node17" class="node">
<title>Tx3_1</title>
<polygon fill="none" stroke="black" points="1186.28,-597.5 1186.28,-712.5 1379.28,-712.5 1379.28,-597.5 1186.28,-597.5"/>
<text text-anchor="middle" x="1282.78" y="-697.3" font-family="Times-Roman" font-size="14.00">Marlowe Script</text>
<polyline fill="none" stroke="black" points="1186.28,-689.5 1379.28,-689.5 "/>
<text text-anchor="middle" x="1282.78" y="-674.3" font-family="Times-Roman" font-size="14.00">259 ADA</text>
<polyline fill="none" stroke="black" points="1186.28,-666.5 1379.28,-666.5 "/>
<text text-anchor="middle" x="1212.78" y="-628.3" font-family="Times-Roman" font-size="14.00">State</text>
<polyline fill="none" stroke="black" points="1239.28,-597.5 1239.28,-666.5 "/>
<text text-anchor="middle" x="1309.28" y="-651.3" font-family="Times-Roman" font-size="14.00">F.B. has 0 ADA</text>
<polyline fill="none" stroke="black" points="1239.28,-643.5 1379.28,-643.5 "/>
<text text-anchor="middle" x="1309.28" y="-628.3" font-family="Times-Roman" font-size="14.00">T.M. has 256 ADA</text>
<polyline fill="none" stroke="black" points="1239.28,-620.5 1379.28,-620.5 "/>
<text text-anchor="middle" x="1309.28" y="-605.3" font-family="Times-Roman" font-size="14.00">C.M. has 3 ADA</text>
</g>
<!-- Tx3&#45;&gt;Tx3_1 -->
<g id="edge15" class="edge">
<title>Tx3&#45;&gt;Tx3_1</title>
<path fill="none" stroke="black" d="M1120.09,-560.48C1134.83,-569.1 1155.63,-581.26 1177.42,-594"/>
<polygon fill="black" stroke="black" points="1175.74,-597.07 1186.14,-599.09 1179.27,-591.02 1175.74,-597.07"/>
<text text-anchor="middle" x="1157.28" y="-588.8" font-family="Times-Roman" font-size="14.00">#1</text>
</g>
<!-- Tx3_Fee -->
<g id="node18" class="node">
<title>Tx3_Fee</title>
<polygon fill="none" stroke="black" points="1245.78,-540 1245.78,-578 1319.78,-578 1319.78,-540 1245.78,-540"/>
<text text-anchor="middle" x="1282.78" y="-562.8" font-family="Times-Roman" font-size="14.00">Fee</text>
<text text-anchor="middle" x="1282.78" y="-547.8" font-family="Times-Roman" font-size="14.00">1.4 ADA</text>
</g>
<!-- Tx3&#45;&gt;Tx3_Fee -->
<g id="edge16" class="edge">
<title>Tx3&#45;&gt;Tx3_Fee</title>
<path fill="none" stroke="black" d="M1128.15,-549.77C1157.09,-551.51 1201.72,-554.19 1235.43,-556.21"/>
<polygon fill="black" stroke="black" points="1235.32,-559.71 1245.52,-556.82 1235.74,-552.73 1235.32,-559.71"/>
</g>
<!-- Tx3_0 -->
<g id="node34" class="node">
<title>Tx3_0</title>
<polygon fill="none" stroke="black" points="2463.07,-482.5 2463.07,-543.5 2564.07,-543.5 2564.07,-482.5 2463.07,-482.5"/>
<text text-anchor="middle" x="2513.57" y="-528.3" font-family="Times-Roman" font-size="14.00">Thomas</text>
<text text-anchor="middle" x="2513.57" y="-513.3" font-family="Times-Roman" font-size="14.00">Middleton</text>
<polyline fill="none" stroke="black" points="2463.07,-505.5 2564.07,-505.5 "/>
<text text-anchor="middle" x="2513.57" y="-490.3" font-family="Times-Roman" font-size="14.00">2694.6 ADA</text>
</g>
<!-- Tx3&#45;&gt;Tx3_0 -->
<g id="edge40" class="edge">
<title>Tx3&#45;&gt;Tx3_0</title>
<path fill="none" stroke="black" d="M1124.77,-539.33C1159.97,-528.39 1224.88,-511 1281.78,-511 1281.78,-511 1281.78,-511 1909.38,-511 2108.47,-511 2344.53,-512.1 2452.84,-512.67"/>
<polygon fill="black" stroke="black" points="2452.9,-516.17 2462.92,-512.72 2452.93,-509.17 2452.9,-516.17"/>
<text text-anchor="middle" x="1908.38" y="-514.8" font-family="Times-Roman" font-size="14.00">#0</text>
</g>
<!-- Tx3_2 -->
<g id="node35" class="node">
<title>Tx3_2</title>
<polygon fill="none" stroke="black" points="2456.07,-402.5 2456.07,-463.5 2571.07,-463.5 2571.07,-402.5 2456.07,-402.5"/>
<text text-anchor="middle" x="2513.57" y="-448.3" font-family="Times-Roman" font-size="14.00">Thomas</text>
<text text-anchor="middle" x="2513.57" y="-433.3" font-family="Times-Roman" font-size="14.00">Middleton</text>
<polyline fill="none" stroke="black" points="2456.07,-425.5 2571.07,-425.5 "/>
<text text-anchor="middle" x="2513.57" y="-410.3" font-family="Times-Roman" font-size="14.00">3 ADA + 1 TM</text>
</g>
<!-- Tx3&#45;&gt;Tx3_2 -->
<g id="edge41" class="edge">
<title>Tx3&#45;&gt;Tx3_2</title>
<path fill="none" stroke="black" d="M1117.98,-534.24C1150.22,-512.59 1217.91,-473 1281.78,-473 1281.78,-473 1281.78,-473 2065.47,-473 2200.97,-473 2358.64,-454.55 2445.87,-442.71"/>
<polygon fill="black" stroke="black" points="2446.47,-446.16 2455.9,-441.34 2445.52,-439.23 2446.47,-446.16"/>
<text text-anchor="middle" x="1908.38" y="-476.8" font-family="Times-Roman" font-size="14.00">#2</text>
</g>
<!-- Tx3_1&#45;&gt;Tx4 -->
<g id="edge17" class="edge">
<title>Tx3_1&#45;&gt;Tx4</title>
<path fill="none" stroke="black" d="M1379.52,-672.11C1421.24,-681.27 1470.13,-694.37 1512.28,-712 1518.88,-714.76 1525.63,-718.34 1531.89,-722.04"/>
<polygon fill="black" stroke="black" points="1530.31,-725.18 1540.65,-727.47 1533.99,-719.22 1530.31,-725.18"/>
<text text-anchor="middle" x="1454.78" y="-715.8" font-family="Times-Roman" font-size="14.00">Dispute problem</text>
</g>
<!-- Tx4_0 -->
<g id="node20" class="node">
<title>Tx4_0</title>
<polygon fill="none" stroke="black" points="1695.38,-731.5 1695.38,-792.5 1796.38,-792.5 1796.38,-731.5 1695.38,-731.5"/>
<text text-anchor="middle" x="1745.88" y="-777.3" font-family="Times-Roman" font-size="14.00">Francis</text>
<text text-anchor="middle" x="1745.88" y="-762.3" font-family="Times-Roman" font-size="14.00">Beaumont</text>
<polyline fill="none" stroke="black" points="1695.38,-754.5 1796.38,-754.5 "/>
<text text-anchor="middle" x="1745.88" y="-739.3" font-family="Times-Roman" font-size="14.00">3001.3 ADA</text>
</g>
<!-- Tx4&#45;&gt;Tx4_0 -->
<g id="edge20" class="edge">
<title>Tx4&#45;&gt;Tx4_0</title>
<path fill="none" stroke="black" d="M1591.24,-744.37C1616.5,-747.27 1653.71,-751.54 1685.19,-755.15"/>
<polygon fill="black" stroke="black" points="1684.85,-758.64 1695.18,-756.3 1685.65,-751.68 1684.85,-758.64"/>
<text text-anchor="middle" x="1620.38" y="-751.8" font-family="Times-Roman" font-size="14.00">#0</text>
</g>
<!-- Tx4_2 -->
<g id="node21" class="node">
<title>Tx4_2</title>
<polygon fill="none" stroke="black" points="1689.38,-811.5 1689.38,-872.5 1802.38,-872.5 1802.38,-811.5 1689.38,-811.5"/>
<text text-anchor="middle" x="1745.88" y="-857.3" font-family="Times-Roman" font-size="14.00">Francis</text>
<text text-anchor="middle" x="1745.88" y="-842.3" font-family="Times-Roman" font-size="14.00">Beaumont</text>
<polyline fill="none" stroke="black" points="1689.38,-834.5 1802.38,-834.5 "/>
<text text-anchor="middle" x="1745.88" y="-819.3" font-family="Times-Roman" font-size="14.00">3 ADA + 1 FB</text>
</g>
<!-- Tx4&#45;&gt;Tx4_2 -->
<g id="edge21" class="edge">
<title>Tx4&#45;&gt;Tx4_2</title>
<path fill="none" stroke="black" d="M1579.88,-755.28C1597.08,-768.47 1624.05,-788.08 1649.38,-802 1658.97,-807.27 1669.39,-812.3 1679.72,-816.89"/>
<polygon fill="black" stroke="black" points="1678.58,-820.22 1689.15,-820.99 1681.37,-813.8 1678.58,-820.22"/>
<text text-anchor="middle" x="1620.38" y="-793.8" font-family="Times-Roman" font-size="14.00">#2</text>
</g>
<!-- Tx4_1 -->
<g id="node22" class="node">
<title>Tx4_1</title>
<polygon fill="none" stroke="black" points="1649.38,-539.5 1649.38,-654.5 1842.38,-654.5 1842.38,-539.5 1649.38,-539.5"/>
<text text-anchor="middle" x="1745.88" y="-639.3" font-family="Times-Roman" font-size="14.00">Marlowe Script</text>
<polyline fill="none" stroke="black" points="1649.38,-631.5 1842.38,-631.5 "/>
<text text-anchor="middle" x="1745.88" y="-616.3" font-family="Times-Roman" font-size="14.00">259 ADA</text>
<polyline fill="none" stroke="black" points="1649.38,-608.5 1842.38,-608.5 "/>
<text text-anchor="middle" x="1675.88" y="-570.3" font-family="Times-Roman" font-size="14.00">State</text>
<polyline fill="none" stroke="black" points="1702.38,-539.5 1702.38,-608.5 "/>
<text text-anchor="middle" x="1772.38" y="-593.3" font-family="Times-Roman" font-size="14.00">F.B. has 0 ADA</text>
<polyline fill="none" stroke="black" points="1702.38,-585.5 1842.38,-585.5 "/>
<text text-anchor="middle" x="1772.38" y="-570.3" font-family="Times-Roman" font-size="14.00">T.M. has 256 ADA</text>
<polyline fill="none" stroke="black" points="1702.38,-562.5 1842.38,-562.5 "/>
<text text-anchor="middle" x="1772.38" y="-547.3" font-family="Times-Roman" font-size="14.00">C.M. has 3 ADA</text>
</g>
<!-- Tx4&#45;&gt;Tx4_1 -->
<g id="edge22" class="edge">
<title>Tx4&#45;&gt;Tx4_1</title>
<path fill="none" stroke="black" d="M1578.21,-725.94C1595.5,-710.24 1623.76,-685.17 1649.38,-665 1651.17,-663.59 1652.98,-662.18 1654.81,-660.76"/>
<polygon fill="black" stroke="black" points="1657.14,-663.39 1662.96,-654.54 1652.89,-657.83 1657.14,-663.39"/>
<text text-anchor="middle" x="1620.38" y="-700.8" font-family="Times-Roman" font-size="14.00">#1</text>
</g>
<!-- Tx4_Fee -->
<g id="node23" class="node">
<title>Tx4_Fee</title>
<polygon fill="none" stroke="black" points="1708.88,-674 1708.88,-712 1782.88,-712 1782.88,-674 1708.88,-674"/>
<text text-anchor="middle" x="1745.88" y="-696.8" font-family="Times-Roman" font-size="14.00">Fee</text>
<text text-anchor="middle" x="1745.88" y="-681.8" font-family="Times-Roman" font-size="14.00">1.3 ADA</text>
</g>
<!-- Tx4&#45;&gt;Tx4_Fee -->
<g id="edge23" class="edge">
<title>Tx4&#45;&gt;Tx4_Fee</title>
<path fill="none" stroke="black" d="M1589.24,-733.81C1618.19,-726.22 1664.36,-714.11 1698.9,-705.06"/>
<polygon fill="black" stroke="black" points="1699.98,-708.39 1708.77,-702.47 1698.21,-701.62 1699.98,-708.39"/>
</g>
<!-- Tx6 -->
<g id="node30" class="node">
<title>Tx6</title>
<ellipse fill="none" stroke="black" cx="2361.02" cy="-759" rx="30.59" ry="18"/>
<text text-anchor="middle" x="2361.02" y="-755.3" font-family="Times-Roman" font-size="14.00">Tx 6</text>
</g>
<!-- Tx4_0&#45;&gt;Tx6 -->
<g id="edge32" class="edge">
<title>Tx4_0&#45;&gt;Tx6</title>
<path fill="none" stroke="black" d="M1796.53,-761.76C1915.04,-761.18 2212.51,-759.72 2320.26,-759.19"/>
<polygon fill="black" stroke="black" points="2320.4,-762.69 2330.38,-759.15 2320.36,-755.69 2320.4,-762.69"/>
</g>
<!-- Tx4_2&#45;&gt;Tx6 -->
<g id="edge33" class="edge">
<title>Tx4_2&#45;&gt;Tx6</title>
<path fill="none" stroke="black" d="M1802.77,-838.25C1904.84,-830.73 2127.93,-811.15 2312.47,-773 2316.34,-772.2 2320.36,-771.24 2324.34,-770.19"/>
<polygon fill="black" stroke="black" points="2325.36,-773.54 2334.06,-767.49 2323.48,-766.8 2325.36,-773.54"/>
</g>
<!-- Tx4_1&#45;&gt;Tx5 -->
<g id="edge24" class="edge">
<title>Tx4_1&#45;&gt;Tx5</title>
<path fill="none" stroke="black" d="M1842.5,-587.86C1883.03,-579.14 1927.49,-562.31 1956.38,-530 1983.72,-499.43 1997.03,-377.37 2001.79,-321.36"/>
<polygon fill="black" stroke="black" points="2005.31,-321.33 2002.63,-311.08 1998.33,-320.76 2005.31,-321.33"/>
<text text-anchor="middle" x="1908.38" y="-585.8" font-family="Times-Roman" font-size="14.00">Dismiss claim</text>
</g>
<!-- Tx5_0 -->
<g id="node25" class="node">
<title>Tx5_0</title>
<polygon fill="none" stroke="black" points="2142.97,-69.5 2142.97,-130.5 2243.97,-130.5 2243.97,-69.5 2142.97,-69.5"/>
<text text-anchor="middle" x="2193.47" y="-115.3" font-family="Times-Roman" font-size="14.00">Christopher</text>
<text text-anchor="middle" x="2193.47" y="-100.3" font-family="Times-Roman" font-size="14.00">Marlowe</text>
<polyline fill="none" stroke="black" points="2142.97,-92.5 2243.97,-92.5 "/>
<text text-anchor="middle" x="2193.47" y="-77.3" font-family="Times-Roman" font-size="14.00">1960.1 ADA</text>
</g>
<!-- Tx5&#45;&gt;Tx5_0 -->
<g id="edge27" class="edge">
<title>Tx5&#45;&gt;Tx5_0</title>
<path fill="none" stroke="black" d="M2010.57,-275.25C2019.69,-243.72 2042.88,-177.7 2085.47,-140 2098.94,-128.08 2116.3,-119.58 2133.1,-113.58"/>
<polygon fill="black" stroke="black" points="2134.5,-116.8 2142.89,-110.33 2132.3,-110.16 2134.5,-116.8"/>
<text text-anchor="middle" x="2064.47" y="-179.8" font-family="Times-Roman" font-size="14.00">#0</text>
</g>
<!-- Tx5_3 -->
<g id="node26" class="node">
<title>Tx5_3</title>
<polygon fill="none" stroke="black" points="2135.47,-149.5 2135.47,-210.5 2251.47,-210.5 2251.47,-149.5 2135.47,-149.5"/>
<text text-anchor="middle" x="2193.47" y="-195.3" font-family="Times-Roman" font-size="14.00">Christopher</text>
<text text-anchor="middle" x="2193.47" y="-180.3" font-family="Times-Roman" font-size="14.00">Marlowe</text>
<polyline fill="none" stroke="black" points="2135.47,-172.5 2251.47,-172.5 "/>
<text text-anchor="middle" x="2193.47" y="-157.3" font-family="Times-Roman" font-size="14.00">3 ADA + 1 CM</text>
</g>
<!-- Tx5&#45;&gt;Tx5_3 -->
<g id="edge28" class="edge">
<title>Tx5&#45;&gt;Tx5_3</title>
<path fill="none" stroke="black" d="M2020.1,-277.1C2035.04,-261.13 2059.92,-236.7 2085.47,-221 2097.94,-213.34 2112.07,-206.7 2125.88,-201.13"/>
<polygon fill="black" stroke="black" points="2127.32,-204.32 2135.37,-197.44 2124.78,-197.8 2127.32,-204.32"/>
<text text-anchor="middle" x="2064.47" y="-246.8" font-family="Times-Roman" font-size="14.00">#3</text>
</g>
<!-- Tx5_1 -->
<g id="node27" class="node">
<title>Tx5_1</title>
<polygon fill="none" stroke="black" points="2099.47,-287.5 2099.47,-356.5 2287.47,-356.5 2287.47,-287.5 2099.47,-287.5"/>
<text text-anchor="middle" x="2193.47" y="-341.3" font-family="Times-Roman" font-size="14.00">Payout Script</text>
<polyline fill="none" stroke="black" points="2099.47,-333.5 2287.47,-333.5 "/>
<text text-anchor="middle" x="2193.47" y="-318.3" font-family="Times-Roman" font-size="14.00">3 ADA</text>
<polyline fill="none" stroke="black" points="2099.47,-310.5 2287.47,-310.5 "/>
<text text-anchor="middle" x="2130.97" y="-295.3" font-family="Times-Roman" font-size="14.00">Payout</text>
<polyline fill="none" stroke="black" points="2162.47,-287.5 2162.47,-310.5 "/>
<text text-anchor="middle" x="2224.97" y="-295.3" font-family="Times-Roman" font-size="14.00">C.M. has 3 ADA</text>
</g>
<!-- Tx5&#45;&gt;Tx5_1 -->
<g id="edge29" class="edge">
<title>Tx5&#45;&gt;Tx5_1</title>
<path fill="none" stroke="black" d="M2034.66,-297.47C2049.77,-299.82 2069.31,-302.85 2089.46,-305.99"/>
<polygon fill="black" stroke="black" points="2088.96,-309.45 2099.38,-307.53 2090.04,-302.53 2088.96,-309.45"/>
<text text-anchor="middle" x="2064.47" y="-306.8" font-family="Times-Roman" font-size="14.00">#1</text>
</g>
<!-- Tx5_2 -->
<g id="node28" class="node">
<title>Tx5_2</title>
<polygon fill="none" stroke="black" points="2093.47,-375.5 2093.47,-444.5 2293.47,-444.5 2293.47,-375.5 2093.47,-375.5"/>
<text text-anchor="middle" x="2193.47" y="-429.3" font-family="Times-Roman" font-size="14.00">Payout Script</text>
<polyline fill="none" stroke="black" points="2093.47,-421.5 2293.47,-421.5 "/>
<text text-anchor="middle" x="2193.47" y="-406.3" font-family="Times-Roman" font-size="14.00">256 ADA</text>
<polyline fill="none" stroke="black" points="2093.47,-398.5 2293.47,-398.5 "/>
<text text-anchor="middle" x="2124.97" y="-383.3" font-family="Times-Roman" font-size="14.00">Payout</text>
<polyline fill="none" stroke="black" points="2156.47,-375.5 2156.47,-398.5 "/>
<text text-anchor="middle" x="2224.97" y="-383.3" font-family="Times-Roman" font-size="14.00">F.B. has 256 ADA</text>
</g>
<!-- Tx5&#45;&gt;Tx5_2 -->
<g id="edge30" class="edge">
<title>Tx5&#45;&gt;Tx5_2</title>
<path fill="none" stroke="black" d="M2019.86,-308.71C2034.8,-324.8 2059.85,-349.71 2085.47,-366 2087.9,-367.54 2090.38,-369.05 2092.92,-370.52"/>
<polygon fill="black" stroke="black" points="2091.26,-373.6 2101.7,-375.38 2094.65,-367.47 2091.26,-373.6"/>
<text text-anchor="middle" x="2064.47" y="-360.8" font-family="Times-Roman" font-size="14.00">#2</text>
</g>
<!-- Tx5_Fee -->
<g id="node29" class="node">
<title>Tx5_Fee</title>
<polygon fill="none" stroke="black" points="2156.47,-230 2156.47,-268 2230.47,-268 2230.47,-230 2156.47,-230"/>
<text text-anchor="middle" x="2193.47" y="-252.8" font-family="Times-Roman" font-size="14.00">Fee</text>
<text text-anchor="middle" x="2193.47" y="-237.8" font-family="Times-Roman" font-size="14.00">1.4 ADA</text>
</g>
<!-- Tx5&#45;&gt;Tx5_Fee -->
<g id="edge31" class="edge">
<title>Tx5&#45;&gt;Tx5_Fee</title>
<path fill="none" stroke="black" d="M2033.45,-286.51C2063.06,-279.52 2110.66,-268.3 2146.07,-259.94"/>
<polygon fill="black" stroke="black" points="2147.25,-263.26 2156.18,-257.56 2145.64,-256.45 2147.25,-263.26"/>
</g>
<!-- Tx7 -->
<g id="node32" class="node">
<title>Tx7</title>
<ellipse fill="none" stroke="black" cx="2361.02" cy="-187" rx="30.59" ry="18"/>
<text text-anchor="middle" x="2361.02" y="-183.3" font-family="Times-Roman" font-size="14.00">Tx 7</text>
</g>
<!-- Tx5_0&#45;&gt;Tx7 -->
<g id="edge36" class="edge">
<title>Tx5_0&#45;&gt;Tx7</title>
<path fill="none" stroke="black" d="M2244.15,-114.87C2262.73,-121.37 2283.63,-129.85 2301.47,-140 2313.81,-147.02 2326.25,-156.57 2336.46,-165.23"/>
<polygon fill="black" stroke="black" points="2334.3,-167.98 2344.14,-171.92 2338.9,-162.71 2334.3,-167.98"/>
</g>
<!-- Tx5_3&#45;&gt;Tx7 -->
<g id="edge37" class="edge">
<title>Tx5_3&#45;&gt;Tx7</title>
<path fill="none" stroke="black" d="M2251.91,-182.43C2274.33,-183.38 2299.51,-184.44 2319.92,-185.3"/>
<polygon fill="black" stroke="black" points="2319.98,-188.81 2330.11,-185.74 2320.27,-181.82 2319.98,-188.81"/>
</g>
<!-- Tx5_1&#45;&gt;Tx7 -->
<g id="edge38" class="edge">
<title>Tx5_1&#45;&gt;Tx7</title>
<path fill="none" stroke="black" d="M2287.63,-288.03C2292.5,-284.94 2297.15,-281.6 2301.47,-278 2322.43,-260.54 2338.46,-233.6 2348.4,-213.56"/>
<polygon fill="black" stroke="black" points="2351.64,-214.88 2352.78,-204.35 2345.32,-211.87 2351.64,-214.88"/>
</g>
<!-- Tx5_2&#45;&gt;Tx6 -->
<g id="edge34" class="edge">
<title>Tx5_2&#45;&gt;Tx6</title>
<path fill="none" stroke="black" d="M2210.95,-444.74C2244.02,-514.46 2317.84,-670.07 2347.41,-732.42"/>
<polygon fill="black" stroke="black" points="2344.32,-734.06 2351.76,-741.6 2350.64,-731.06 2344.32,-734.06"/>
</g>
<!-- Tx6_Fee -->
<g id="node31" class="node">
<title>Tx6_Fee</title>
<polygon fill="none" stroke="black" points="2476.57,-815 2476.57,-853 2550.57,-853 2550.57,-815 2476.57,-815"/>
<text text-anchor="middle" x="2513.57" y="-837.8" font-family="Times-Roman" font-size="14.00">Fee</text>
<text text-anchor="middle" x="2513.57" y="-822.8" font-family="Times-Roman" font-size="14.00">0.5 ADA</text>
</g>
<!-- Tx6&#45;&gt;Tx6_Fee -->
<g id="edge35" class="edge">
<title>Tx6&#45;&gt;Tx6_Fee</title>
<path fill="none" stroke="black" d="M2383.46,-771.6C2398.87,-780.47 2420.25,-792.44 2439.57,-802 2448.31,-806.33 2457.78,-810.7 2466.9,-814.76"/>
<polygon fill="black" stroke="black" points="2465.68,-818.05 2476.24,-818.87 2468.5,-811.64 2465.68,-818.05"/>
</g>
<!-- Tx6_0 -->
<g id="node36" class="node">
<title>Tx6_0</title>
<polygon fill="none" stroke="black" points="2463.07,-728.5 2463.07,-789.5 2564.07,-789.5 2564.07,-728.5 2463.07,-728.5"/>
<text text-anchor="middle" x="2513.57" y="-774.3" font-family="Times-Roman" font-size="14.00">Francis</text>
<text text-anchor="middle" x="2513.57" y="-759.3" font-family="Times-Roman" font-size="14.00">Beaumont</text>
<polyline fill="none" stroke="black" points="2463.07,-751.5 2564.07,-751.5 "/>
<text text-anchor="middle" x="2513.57" y="-736.3" font-family="Times-Roman" font-size="14.00">3000.9 ADA</text>
</g>
<!-- Tx6&#45;&gt;Tx6_0 -->
<g id="edge42" class="edge">
<title>Tx6&#45;&gt;Tx6_0</title>
<path fill="none" stroke="black" d="M2391.76,-759C2409.22,-759 2431.9,-759 2452.89,-759"/>
<polygon fill="black" stroke="black" points="2453.03,-762.5 2463.03,-759 2453.03,-755.5 2453.03,-762.5"/>
<text text-anchor="middle" x="2420.57" y="-762.8" font-family="Times-Roman" font-size="14.00">#0</text>
</g>
<!-- Tx6_1 -->
<g id="node37" class="node">
<title>Tx6_1</title>
<polygon fill="none" stroke="black" points="2469.57,-648.5 2469.57,-709.5 2557.57,-709.5 2557.57,-648.5 2469.57,-648.5"/>
<text text-anchor="middle" x="2513.57" y="-694.3" font-family="Times-Roman" font-size="14.00">Francis</text>
<text text-anchor="middle" x="2513.57" y="-679.3" font-family="Times-Roman" font-size="14.00">Beaumont</text>
<polyline fill="none" stroke="black" points="2469.57,-671.5 2557.57,-671.5 "/>
<text text-anchor="middle" x="2513.57" y="-656.3" font-family="Times-Roman" font-size="14.00">256 ADA</text>
</g>
<!-- Tx6&#45;&gt;Tx6_1 -->
<g id="edge43" class="edge">
<title>Tx6&#45;&gt;Tx6_1</title>
<path fill="none" stroke="black" d="M2384.23,-747.2C2404.21,-736.58 2434.32,-720.58 2460.36,-706.74"/>
<polygon fill="black" stroke="black" points="2462.19,-709.73 2469.38,-701.95 2458.91,-703.55 2462.19,-709.73"/>
<text text-anchor="middle" x="2420.57" y="-736.8" font-family="Times-Roman" font-size="14.00">#1</text>
</g>
<!-- Tx6_2 -->
<g id="node38" class="node">
<title>Tx6_2</title>
<polygon fill="none" stroke="black" points="2457.07,-568.5 2457.07,-629.5 2570.07,-629.5 2570.07,-568.5 2457.07,-568.5"/>
<text text-anchor="middle" x="2513.57" y="-614.3" font-family="Times-Roman" font-size="14.00">Francis</text>
<text text-anchor="middle" x="2513.57" y="-599.3" font-family="Times-Roman" font-size="14.00">Beaumont</text>
<polyline fill="none" stroke="black" points="2457.07,-591.5 2570.07,-591.5 "/>
<text text-anchor="middle" x="2513.57" y="-576.3" font-family="Times-Roman" font-size="14.00">3 ADA + 1 FB</text>
</g>
<!-- Tx6&#45;&gt;Tx6_2 -->
<g id="edge44" class="edge">
<title>Tx6&#45;&gt;Tx6_2</title>
<path fill="none" stroke="black" d="M2369.82,-741.59C2381.82,-716.38 2406.87,-669.41 2439.57,-639 2442.32,-636.44 2445.27,-633.98 2448.35,-631.64"/>
<polygon fill="black" stroke="black" points="2450.6,-634.34 2456.74,-625.71 2446.55,-628.62 2450.6,-634.34"/>
<text text-anchor="middle" x="2420.57" y="-674.8" font-family="Times-Roman" font-size="14.00">#2</text>
</g>
<!-- Tx7_Fee -->
<g id="node33" class="node">
<title>Tx7_Fee</title>
<polygon fill="none" stroke="black" points="2476.57,-93 2476.57,-131 2550.57,-131 2550.57,-93 2476.57,-93"/>
<text text-anchor="middle" x="2513.57" y="-115.8" font-family="Times-Roman" font-size="14.00">Fee</text>
<text text-anchor="middle" x="2513.57" y="-100.8" font-family="Times-Roman" font-size="14.00">0.5 ADA</text>
</g>
<!-- Tx7&#45;&gt;Tx7_Fee -->
<g id="edge39" class="edge">
<title>Tx7&#45;&gt;Tx7_Fee</title>
<path fill="none" stroke="black" d="M2383.46,-174.4C2398.87,-165.53 2420.25,-153.56 2439.57,-144 2448.31,-139.67 2457.78,-135.3 2466.9,-131.24"/>
<polygon fill="black" stroke="black" points="2468.5,-134.36 2476.24,-127.13 2465.68,-127.95 2468.5,-134.36"/>
</g>
<!-- Tx7_0 -->
<g id="node39" class="node">
<title>Tx7_0</title>
<polygon fill="none" stroke="black" points="2463.07,-236.5 2463.07,-297.5 2564.07,-297.5 2564.07,-236.5 2463.07,-236.5"/>
<text text-anchor="middle" x="2513.57" y="-282.3" font-family="Times-Roman" font-size="14.00">Christopher</text>
<text text-anchor="middle" x="2513.57" y="-267.3" font-family="Times-Roman" font-size="14.00">Marlowe</text>
<polyline fill="none" stroke="black" points="2463.07,-259.5 2564.07,-259.5 "/>
<text text-anchor="middle" x="2513.57" y="-244.3" font-family="Times-Roman" font-size="14.00">1959.7 ADA</text>
</g>
<!-- Tx7&#45;&gt;Tx7_0 -->
<g id="edge45" class="edge">
<title>Tx7&#45;&gt;Tx7_0</title>
<path fill="none" stroke="black" d="M2384.23,-198.8C2402.59,-208.56 2429.51,-222.87 2453.97,-235.86"/>
<polygon fill="black" stroke="black" points="2452.37,-238.97 2462.84,-240.58 2455.65,-232.79 2452.37,-238.97"/>
<text text-anchor="middle" x="2420.57" y="-225.8" font-family="Times-Roman" font-size="14.00">#0</text>
</g>
<!-- Tx7_1 -->
<g id="node40" class="node">
<title>Tx7_1</title>
<polygon fill="none" stroke="black" points="2464.57,-156.5 2464.57,-217.5 2562.57,-217.5 2562.57,-156.5 2464.57,-156.5"/>
<text text-anchor="middle" x="2513.57" y="-202.3" font-family="Times-Roman" font-size="14.00">Christopher</text>
<text text-anchor="middle" x="2513.57" y="-187.3" font-family="Times-Roman" font-size="14.00">Marlowe</text>
<polyline fill="none" stroke="black" points="2464.57,-179.5 2562.57,-179.5 "/>
<text text-anchor="middle" x="2513.57" y="-164.3" font-family="Times-Roman" font-size="14.00">3 ADA</text>
</g>
<!-- Tx7&#45;&gt;Tx7_1 -->
<g id="edge46" class="edge">
<title>Tx7&#45;&gt;Tx7_1</title>
<path fill="none" stroke="black" d="M2391.76,-187C2409.67,-187 2433.07,-187 2454.51,-187"/>
<polygon fill="black" stroke="black" points="2454.52,-190.5 2464.52,-187 2454.52,-183.5 2454.52,-190.5"/>
<text text-anchor="middle" x="2420.57" y="-190.8" font-family="Times-Roman" font-size="14.00">#1</text>
</g>
<!-- Tx7_2 -->
<g id="node41" class="node">
<title>Tx7_2</title>
<polygon fill="none" stroke="black" points="2455.57,-316.5 2455.57,-377.5 2571.57,-377.5 2571.57,-316.5 2455.57,-316.5"/>
<text text-anchor="middle" x="2513.57" y="-362.3" font-family="Times-Roman" font-size="14.00">Christopher</text>
<text text-anchor="middle" x="2513.57" y="-347.3" font-family="Times-Roman" font-size="14.00">Marlowe</text>
<polyline fill="none" stroke="black" points="2455.57,-339.5 2571.57,-339.5 "/>
<text text-anchor="middle" x="2513.57" y="-324.3" font-family="Times-Roman" font-size="14.00">3 ADA + 1 CM</text>
</g>
<!-- Tx7&#45;&gt;Tx7_2 -->
<g id="edge47" class="edge">
<title>Tx7&#45;&gt;Tx7_2</title>
<path fill="none" stroke="black" d="M2369.82,-204.41C2381.82,-229.62 2406.87,-276.59 2439.57,-307 2441.95,-309.21 2444.47,-311.35 2447.1,-313.4"/>
<polygon fill="black" stroke="black" points="2445.09,-316.27 2455.25,-319.3 2449.2,-310.6 2445.09,-316.27"/>
<text text-anchor="middle" x="2420.57" y="-301.8" font-family="Times-Roman" font-size="14.00">#2</text>
</g>
</g>
</svg>
