<?xml version="1.0" encoding="UTF-8" standalone="no"?>
<!DOCTYPE svg PUBLIC "-//W3C//DTD SVG 1.1//EN"
 "http://www.w3.org/Graphics/SVG/1.1/DTD/svg11.dtd">
<!-- Generated by graphviz version 2.43.0 (0)
 -->
<!-- Title: escrow Pages: 1 -->
<svg width="756pt" height="549pt"
 viewBox="0.00 0.00 755.72 548.74" xmlns="http://www.w3.org/2000/svg" xmlns:xlink="http://www.w3.org/1999/xlink">
<g id="graph0" class="graph" transform="scale(1 1) rotate(0) translate(4 544.74)">
<title>escrow</title>
<polygon fill="white" stroke="transparent" points="-4,4 -4,-544.74 751.72,-544.74 751.72,4 -4,4"/>
<!-- minAda -->
<g id="node1" class="node">
<title>minAda</title>
<ellipse fill="lightgray" stroke="black" stroke-width="3" cx="481.36" cy="-522.74" rx="161.67" ry="18"/>
<text text-anchor="middle" x="481.36" y="-519.04" font-family="Times-Roman" font-size="14.00">Mediator deposits minimum ADA.</text>
</g>
<!-- deposit -->
<g id="node2" class="node">
<title>deposit</title>
<polygon fill="lightgray" stroke="black" stroke-width="3" points="566.36,-467.74 396.36,-467.74 396.36,-431.74 566.36,-431.74 566.36,-467.74"/>
<text text-anchor="middle" x="481.36" y="-446.04" font-family="Times-Roman" font-size="14.00">Buyer deposits funds.</text>
</g>
<!-- minAda&#45;&gt;deposit -->
<g id="edge1" class="edge">
<title>minAda&#45;&gt;deposit</title>
<path fill="none" stroke="black" stroke-width="3" d="M481.36,-504.55C481.36,-496.53 481.36,-486.79 481.36,-477.81"/>
<polygon fill="black" stroke="black" stroke-width="3" points="484.86,-477.77 481.36,-467.77 477.86,-477.77 484.86,-477.77"/>
</g>
<!-- problem -->
<g id="node3" class="node">
<title>problem</title>
<polygon fill="lightgray" stroke="black" stroke-width="3" points="481.36,-394.74 341.36,-356.74 481.36,-318.74 621.36,-356.74 481.36,-394.74"/>
<text text-anchor="middle" x="481.36" y="-360.54" font-family="Times-Roman" font-size="14.00">Does the buyer</text>
<text text-anchor="middle" x="481.36" y="-345.54" font-family="Times-Roman" font-size="14.00">report a problem?</text>
</g>
<!-- deposit&#45;&gt;problem -->
<g id="edge2" class="edge">
<title>deposit&#45;&gt;problem</title>
<path fill="none" stroke="black" stroke-width="3" d="M481.36,-431.62C481.36,-423.99 481.36,-414.57 481.36,-405.05"/>
<polygon fill="black" stroke="black" stroke-width="3" points="484.86,-404.76 481.36,-394.76 477.86,-404.76 484.86,-404.76"/>
</g>
<!-- dispute -->
<g id="node4" class="node">
<title>dispute</title>
<polygon fill="lightgray" stroke="black" stroke-width="3" points="376.36,-267.74 194.36,-229.74 376.36,-191.74 558.36,-229.74 376.36,-267.74"/>
<text text-anchor="middle" x="376.36" y="-233.54" font-family="Times-Roman" font-size="14.00">Does the seller dispute</text>
<text text-anchor="middle" x="376.36" y="-218.54" font-family="Times-Roman" font-size="14.00">that there is a problem?</text>
</g>
<!-- problem&#45;&gt;dispute -->
<g id="edge4" class="edge">
<title>problem&#45;&gt;dispute</title>
<path fill="none" stroke="black" stroke-width="3" d="M455.94,-325.48C442.05,-308.94 424.67,-288.25 409.7,-270.43"/>
<polygon fill="black" stroke="black" stroke-width="3" points="412.12,-267.87 403.01,-262.46 406.76,-272.37 412.12,-267.87"/>
<text text-anchor="middle" x="490.36" y="-289.54" font-family="Times-Roman" font-size="14.00">Report problem.</text>
</g>
<!-- sale -->
<g id="node6" class="node">
<title>sale</title>
<ellipse fill="lightgray" stroke="black" stroke-width="3" cx="572.36" cy="-26.87" rx="175.23" ry="26.74"/>
<text text-anchor="middle" x="572.36" y="-30.67" font-family="Times-Roman" font-size="14.00">Seller receives purchase price.</text>
<text text-anchor="middle" x="572.36" y="-15.67" font-family="Times-Roman" font-size="14.00">Mediator receives minimum ADA.</text>
</g>
<!-- problem&#45;&gt;sale -->
<g id="edge3" class="edge">
<title>problem&#45;&gt;sale</title>
<path fill="none" stroke="black" d="M522.05,-329.4C541.04,-314.15 560.87,-292.98 567.36,-267.74 585.44,-197.42 581.22,-111.65 576.68,-64.07"/>
<polygon fill="black" stroke="black" points="580.15,-63.55 575.66,-53.95 573.18,-64.26 580.15,-63.55"/>
<text text-anchor="middle" x="653.36" y="-162.54" font-family="Times-Roman" font-size="14.00">Everything is alright.</text>
</g>
<!-- mediate -->
<g id="node5" class="node">
<title>mediate</title>
<polygon fill="lightgray" stroke="black" stroke-width="3" points="429.36,-140.74 300.5,-122.74 429.36,-104.74 558.23,-122.74 429.36,-140.74"/>
<text text-anchor="middle" x="429.36" y="-119.04" font-family="Times-Roman" font-size="14.00">Mediator decides.</text>
</g>
<!-- dispute&#45;&gt;mediate -->
<g id="edge6" class="edge">
<title>dispute&#45;&gt;mediate</title>
<path fill="none" stroke="black" stroke-width="3" d="M393.28,-195.23C400.91,-180.11 409.76,-162.57 416.79,-148.64"/>
<polygon fill="black" stroke="black" stroke-width="3" points="419.95,-150.16 421.33,-139.65 413.7,-147 419.95,-150.16"/>
<text text-anchor="middle" x="470.36" y="-162.54" font-family="Times-Roman" font-size="14.00">Dispute problem.</text>
</g>
<!-- refund -->
<g id="node7" class="node">
<title>refund</title>
<ellipse fill="none" stroke="black" cx="175.36" cy="-26.87" rx="175.23" ry="26.74"/>
<text text-anchor="middle" x="175.36" y="-30.67" font-family="Times-Roman" font-size="14.00">Buyer receives refund.</text>
<text text-anchor="middle" x="175.36" y="-15.67" font-family="Times-Roman" font-size="14.00">Mediator receives minimum ADA.</text>
</g>
<!-- dispute&#45;&gt;refund -->
<g id="edge5" class="edge">
<title>dispute&#45;&gt;refund</title>
<path fill="none" stroke="black" d="M279.62,-211.86C238.69,-199.42 194.9,-177.9 170.36,-140.74 155.52,-118.25 158.04,-87.4 163.57,-63.63"/>
<polygon fill="black" stroke="black" points="166.97,-64.48 166.09,-53.92 160.19,-62.73 166.97,-64.48"/>
<text text-anchor="middle" x="230.86" y="-119.04" font-family="Times-Roman" font-size="14.00">Confirm problem.</text>
</g>
<!-- mediate&#45;&gt;sale -->
<g id="edge7" class="edge">
<title>mediate&#45;&gt;sale</title>
<path fill="none" stroke="black" stroke-width="3" d="M439.91,-106.12C447.82,-95.33 459.48,-81.27 472.36,-71.74 480,-66.09 488.47,-60.97 497.17,-56.39"/>
<polygon fill="black" stroke="black" stroke-width="3" points="498.92,-59.43 506.29,-51.82 495.78,-53.18 498.92,-59.43"/>
<text text-anchor="middle" x="522.36" y="-75.54" font-family="Times-Roman" font-size="14.00">Dismiss claim.</text>
</g>
<!-- mediate&#45;&gt;refund -->
<g id="edge8" class="edge">
<title>mediate&#45;&gt;refund</title>
<path fill="none" stroke="black" d="M395.9,-109.37C358.89,-95.7 298.12,-73.24 249.73,-55.35"/>
<polygon fill="black" stroke="black" points="250.82,-52.03 240.23,-51.84 248.39,-58.59 250.82,-52.03"/>
<text text-anchor="middle" x="382.86" y="-75.54" font-family="Times-Roman" font-size="14.00">Confirm claim.</text>
</g>
</g>
</svg>
