<?xml version="1.0" encoding="UTF-8" standalone="no"?>
<!DOCTYPE svg PUBLIC "-//W3C//DTD SVG 1.1//EN"
 "http://www.w3.org/Graphics/SVG/1.1/DTD/svg11.dtd">
<!-- Generated by graphviz version 2.43.0 (0)
 -->
<!-- Title: ConfirmClaimTx Pages: 1 -->
<svg width="2590pt" height="757pt"
 viewBox="0.00 0.00 2589.57 757.00" xmlns="http://www.w3.org/2000/svg" xmlns:xlink="http://www.w3.org/1999/xlink">
<g id="graph0" class="graph" transform="scale(1 1) rotate(0) translate(4 753)">
<title>ConfirmClaimTx</title>
<polygon fill="white" stroke="transparent" points="-4,4 -4,-753 2585.57,-753 2585.57,4 -4,4"/>
<text text-anchor="middle" x="1290.78" y="-37.8" font-family="Times-Roman" font-size="14.00">Boxes are UTxOs.</text>
<text text-anchor="middle" x="1290.78" y="-22.8" font-family="Times-Roman" font-size="14.00">Ovals are transactions.</text>
<text text-anchor="middle" x="1290.78" y="-7.8" font-family="Times-Roman" font-size="14.00">ADA values are rounded to one decimal place.</text>
<g id="clust1" class="cluster">
<title>cluster_0</title>
</g>
<g id="clust2" class="cluster">
<title>cluster_0s</title>
</g>
<g id="clust3" class="cluster">
<title>cluster_0b</title>
</g>
<g id="clust4" class="cluster">
<title>cluster_0m</title>
</g>
<g id="clust5" class="cluster">
<title>cluster_2</title>
</g>
<g id="clust6" class="cluster">
<title>cluster_3</title>
</g>
<g id="clust7" class="cluster">
<title>cluster_4</title>
</g>
<g id="clust8" class="cluster">
<title>cluster_5</title>
</g>
<g id="clust9" class="cluster">
<title>cluster_5p</title>
</g>
<g id="clust10" class="cluster">
<title>cluster_6</title>
</g>
<g id="clust11" class="cluster">
<title>cluster_7</title>
</g>
<!-- Tx0SellerAda -->
<g id="node1" class="node">
<title>Tx0SellerAda</title>
<polygon fill="none" stroke="black" points="34,-583.5 34,-644.5 175,-644.5 175,-583.5 34,-583.5"/>
<text text-anchor="middle" x="104.5" y="-629.3" font-family="Times-Roman" font-size="14.00">Francis Beaumont</text>
<text text-anchor="middle" x="104.5" y="-614.3" font-family="Times-Roman" font-size="14.00">(the seller)</text>
<polyline fill="none" stroke="black" points="34,-606.5 175,-606.5 "/>
<text text-anchor="middle" x="104.5" y="-591.3" font-family="Times-Roman" font-size="14.00">3003.6 ADA</text>
</g>
<!-- Tx4 -->
<g id="node21" class="node">
<title>Tx4</title>
<ellipse fill="none" stroke="black" cx="1560.83" cy="-544" rx="30.59" ry="18"/>
<text text-anchor="middle" x="1560.83" y="-540.3" font-family="Times-Roman" font-size="14.00">Tx 4</text>
</g>
<!-- Tx0SellerAda&#45;&gt;Tx4 -->
<g id="edge20" class="edge">
<title>Tx0SellerAda&#45;&gt;Tx4</title>
<path fill="none" stroke="black" d="M175.36,-624.45C201.13,-627.48 230.61,-630 257.55,-630 257.55,-630 257.55,-630 1283.78,-630 1376.21,-630 1478.49,-585.51 1528.63,-560.53"/>
<polygon fill="black" stroke="black" points="1530.32,-563.6 1537.66,-555.96 1527.16,-557.35 1530.32,-563.6"/>
</g>
<!-- Tx0SellerToken -->
<g id="node2" class="node">
<title>Tx0SellerToken</title>
<polygon fill="none" stroke="black" points="34,-663.5 34,-724.5 175,-724.5 175,-663.5 34,-663.5"/>
<text text-anchor="middle" x="104.5" y="-709.3" font-family="Times-Roman" font-size="14.00">Francis Beaumont</text>
<text text-anchor="middle" x="104.5" y="-694.3" font-family="Times-Roman" font-size="14.00">(the seller)</text>
<polyline fill="none" stroke="black" points="34,-686.5 175,-686.5 "/>
<text text-anchor="middle" x="104.5" y="-671.3" font-family="Times-Roman" font-size="14.00">2 ADA + 1 FB</text>
</g>
<!-- Tx0SellerToken&#45;&gt;Tx4 -->
<g id="edge21" class="edge">
<title>Tx0SellerToken&#45;&gt;Tx4</title>
<path fill="none" stroke="black" d="M175.34,-682.9C201.1,-679.67 230.59,-677 257.55,-677 257.55,-677 257.55,-677 1283.78,-677 1390.4,-677 1424.59,-664.63 1512.28,-604 1525.18,-595.09 1536.28,-581.65 1544.51,-569.75"/>
<polygon fill="black" stroke="black" points="1547.66,-571.33 1550.22,-561.05 1541.81,-567.49 1547.66,-571.33"/>
</g>
<!-- Tx0BuyerAda -->
<g id="node3" class="node">
<title>Tx0BuyerAda</title>
<polygon fill="none" stroke="black" points="32.5,-497.5 32.5,-558.5 176.5,-558.5 176.5,-497.5 32.5,-497.5"/>
<text text-anchor="middle" x="104.5" y="-543.3" font-family="Times-Roman" font-size="14.00">Thomas Middleton</text>
<text text-anchor="middle" x="104.5" y="-528.3" font-family="Times-Roman" font-size="14.00">(the buyer)</text>
<polyline fill="none" stroke="black" points="32.5,-520.5 176.5,-520.5 "/>
<text text-anchor="middle" x="104.5" y="-505.3" font-family="Times-Roman" font-size="14.00">2954.4 ADA</text>
</g>
<!-- Tx2 -->
<g id="node11" class="node">
<title>Tx2</title>
<ellipse fill="none" stroke="black" cx="644.64" cy="-437" rx="30.59" ry="18"/>
<text text-anchor="middle" x="644.64" y="-433.3" font-family="Times-Roman" font-size="14.00">Tx 2</text>
</g>
<!-- Tx0BuyerAda&#45;&gt;Tx2 -->
<g id="edge6" class="edge">
<title>Tx0BuyerAda&#45;&gt;Tx2</title>
<path fill="none" stroke="black" d="M176.66,-523.61C260.34,-517.93 403.27,-506.63 525.09,-489 556.93,-484.39 566.92,-488.54 596.09,-475 604.64,-471.04 613,-465.23 620.26,-459.34"/>
<polygon fill="black" stroke="black" points="622.93,-461.66 628.23,-452.49 618.37,-456.35 622.93,-461.66"/>
</g>
<!-- Tx0BuyerToken -->
<g id="node4" class="node">
<title>Tx0BuyerToken</title>
<polygon fill="none" stroke="black" points="32.5,-417.5 32.5,-478.5 176.5,-478.5 176.5,-417.5 32.5,-417.5"/>
<text text-anchor="middle" x="104.5" y="-463.3" font-family="Times-Roman" font-size="14.00">Thomas Middleton</text>
<text text-anchor="middle" x="104.5" y="-448.3" font-family="Times-Roman" font-size="14.00">(the buyer)</text>
<polyline fill="none" stroke="black" points="32.5,-440.5 176.5,-440.5 "/>
<text text-anchor="middle" x="104.5" y="-425.3" font-family="Times-Roman" font-size="14.00">2 ADA + 1 TM</text>
</g>
<!-- Tx0BuyerToken&#45;&gt;Tx2 -->
<g id="edge7" class="edge">
<title>Tx0BuyerToken&#45;&gt;Tx2</title>
<path fill="none" stroke="black" d="M176.77,-460.72C260.56,-473.67 403.59,-489.56 525.09,-472 554.09,-467.81 585.86,-458.14 609.21,-450.02"/>
<polygon fill="black" stroke="black" points="610.42,-453.31 618.67,-446.66 608.08,-446.71 610.42,-453.31"/>
</g>
<!-- Tx0MediatorAda -->
<g id="node5" class="node">
<title>Tx0MediatorAda</title>
<polygon fill="none" stroke="black" points="24,-331.5 24,-392.5 185,-392.5 185,-331.5 24,-331.5"/>
<text text-anchor="middle" x="104.5" y="-377.3" font-family="Times-Roman" font-size="14.00">Christopher Marlowe</text>
<text text-anchor="middle" x="104.5" y="-362.3" font-family="Times-Roman" font-size="14.00">(the mediator)</text>
<polyline fill="none" stroke="black" points="24,-354.5 185,-354.5 "/>
<text text-anchor="middle" x="104.5" y="-339.3" font-family="Times-Roman" font-size="14.00">1965.7 ADA</text>
</g>
<!-- Tx1 -->
<g id="node7" class="node">
<title>Tx1</title>
<ellipse fill="none" stroke="black" cx="258.55" cy="-353" rx="30.59" ry="18"/>
<text text-anchor="middle" x="258.55" y="-349.3" font-family="Times-Roman" font-size="14.00">Tx 1</text>
</g>
<!-- Tx0MediatorAda&#45;&gt;Tx1 -->
<g id="edge1" class="edge">
<title>Tx0MediatorAda&#45;&gt;Tx1</title>
<path fill="none" stroke="black" d="M185.09,-357.29C196.5,-356.61 207.8,-355.94 217.97,-355.34"/>
<polygon fill="black" stroke="black" points="218.33,-358.83 228.11,-354.74 217.92,-351.84 218.33,-358.83"/>
</g>
<!-- Tx0MediatorToken -->
<g id="node6" class="node">
<title>Tx0MediatorToken</title>
<polygon fill="none" stroke="black" points="24,-251.5 24,-312.5 185,-312.5 185,-251.5 24,-251.5"/>
<text text-anchor="middle" x="104.5" y="-297.3" font-family="Times-Roman" font-size="14.00">Christopher Marlowe</text>
<text text-anchor="middle" x="104.5" y="-282.3" font-family="Times-Roman" font-size="14.00">(the mediator)</text>
<polyline fill="none" stroke="black" points="24,-274.5 185,-274.5 "/>
<text text-anchor="middle" x="104.5" y="-259.3" font-family="Times-Roman" font-size="14.00">2 ADA + 1 CM</text>
</g>
<!-- Tx5 -->
<g id="node26" class="node">
<title>Tx5</title>
<ellipse fill="none" stroke="black" cx="2004.93" cy="-255" rx="30.59" ry="18"/>
<text text-anchor="middle" x="2004.93" y="-251.3" font-family="Times-Roman" font-size="14.00">Tx 5</text>
</g>
<!-- Tx0MediatorToken&#45;&gt;Tx5 -->
<g id="edge28" class="edge">
<title>Tx0MediatorToken&#45;&gt;Tx5</title>
<path fill="none" stroke="black" d="M130.92,-251.42C158.67,-221.7 206.05,-181 257.55,-181 257.55,-181 257.55,-181 1746.88,-181 1830.51,-181 1923.69,-217.62 1971.59,-239.34"/>
<polygon fill="black" stroke="black" points="1970.28,-242.59 1980.83,-243.6 1973.21,-236.23 1970.28,-242.59"/>
</g>
<!-- Tx1_0 -->
<g id="node8" class="node">
<title>Tx1_0</title>
<polygon fill="none" stroke="black" points="385.59,-209.5 385.59,-270.5 486.59,-270.5 486.59,-209.5 385.59,-209.5"/>
<text text-anchor="middle" x="436.09" y="-255.3" font-family="Times-Roman" font-size="14.00">Christopher</text>
<text text-anchor="middle" x="436.09" y="-240.3" font-family="Times-Roman" font-size="14.00">Marlowe</text>
<polyline fill="none" stroke="black" points="385.59,-232.5 486.59,-232.5 "/>
<text text-anchor="middle" x="436.09" y="-217.3" font-family="Times-Roman" font-size="14.00">1962.5 ADA</text>
</g>
<!-- Tx1&#45;&gt;Tx1_0 -->
<g id="edge2" class="edge">
<title>Tx1&#45;&gt;Tx1_0</title>
<path fill="none" stroke="black" d="M275.31,-337.6C292.1,-321.76 319.95,-297.05 347.09,-280 356.23,-274.26 366.34,-268.88 376.34,-264.04"/>
<polygon fill="black" stroke="black" points="377.9,-267.17 385.47,-259.75 374.93,-260.84 377.9,-267.17"/>
<text text-anchor="middle" x="318.09" y="-310.8" font-family="Times-Roman" font-size="14.00">#0</text>
</g>
<!-- Tx1_1 -->
<g id="node9" class="node">
<title>Tx1_1</title>
<polygon fill="none" stroke="black" points="347.09,-289.5 347.09,-404.5 525.09,-404.5 525.09,-289.5 347.09,-289.5"/>
<text text-anchor="middle" x="436.09" y="-389.3" font-family="Times-Roman" font-size="14.00">Marlowe Script</text>
<polyline fill="none" stroke="black" points="347.09,-381.5 525.09,-381.5 "/>
<text text-anchor="middle" x="436.09" y="-366.3" font-family="Times-Roman" font-size="14.00">3 ADA</text>
<polyline fill="none" stroke="black" points="347.09,-358.5 525.09,-358.5 "/>
<text text-anchor="middle" x="373.59" y="-320.3" font-family="Times-Roman" font-size="14.00">State</text>
<polyline fill="none" stroke="black" points="400.09,-289.5 400.09,-358.5 "/>
<text text-anchor="middle" x="462.59" y="-343.3" font-family="Times-Roman" font-size="14.00">F.B. has 0 ADA</text>
<polyline fill="none" stroke="black" points="400.09,-335.5 525.09,-335.5 "/>
<text text-anchor="middle" x="462.59" y="-320.3" font-family="Times-Roman" font-size="14.00">T.M. has 0 ADA</text>
<polyline fill="none" stroke="black" points="400.09,-312.5 525.09,-312.5 "/>
<text text-anchor="middle" x="462.59" y="-297.3" font-family="Times-Roman" font-size="14.00">C.M. has 3 ADA</text>
</g>
<!-- Tx1&#45;&gt;Tx1_1 -->
<g id="edge3" class="edge">
<title>Tx1&#45;&gt;Tx1_1</title>
<path fill="none" stroke="black" d="M289.33,-351.98C302.74,-351.52 319.42,-350.95 336.65,-350.36"/>
<polygon fill="black" stroke="black" points="336.97,-353.86 346.85,-350.02 336.73,-346.86 336.97,-353.86"/>
<text text-anchor="middle" x="318.09" y="-354.8" font-family="Times-Roman" font-size="14.00">#1</text>
</g>
<!-- Tx1_Fee -->
<g id="node10" class="node">
<title>Tx1_Fee</title>
<polygon fill="none" stroke="black" points="399.09,-424 399.09,-462 473.09,-462 473.09,-424 399.09,-424"/>
<text text-anchor="middle" x="436.09" y="-446.8" font-family="Times-Roman" font-size="14.00">Fee</text>
<text text-anchor="middle" x="436.09" y="-431.8" font-family="Times-Roman" font-size="14.00">0.2 ADA</text>
</g>
<!-- Tx1&#45;&gt;Tx1_Fee -->
<g id="edge4" class="edge">
<title>Tx1&#45;&gt;Tx1_Fee</title>
<path fill="none" stroke="black" d="M277.03,-367.48C294.04,-381 321.08,-401 347.09,-414 360.29,-420.6 375.33,-426.19 389.2,-430.65"/>
<polygon fill="black" stroke="black" points="388.46,-434.08 399.05,-433.7 390.53,-427.4 388.46,-434.08"/>
</g>
<!-- Tx1_0&#45;&gt;Tx5 -->
<g id="edge27" class="edge">
<title>Tx1_0&#45;&gt;Tx5</title>
<path fill="none" stroke="black" d="M486.76,-240C528.6,-240 590.03,-240 643.64,-240 643.64,-240 643.64,-240 1746.88,-240 1824.09,-240 1914.12,-246.83 1964.52,-251.27"/>
<polygon fill="black" stroke="black" points="1964.39,-254.77 1974.66,-252.18 1965.01,-247.8 1964.39,-254.77"/>
</g>
<!-- Tx1_1&#45;&gt;Tx2 -->
<g id="edge5" class="edge">
<title>Tx1_1&#45;&gt;Tx2</title>
<path fill="none" stroke="black" d="M525.29,-385.43C555.41,-398.56 587.29,-412.44 610.36,-422.5"/>
<polygon fill="black" stroke="black" points="609.11,-425.77 619.68,-426.56 611.91,-419.36 609.11,-425.77"/>
<text text-anchor="middle" x="569.59" y="-418.8" font-family="Times-Roman" font-size="14.00">Deposit</text>
</g>
<!-- Tx2_0 -->
<g id="node12" class="node">
<title>Tx2_0</title>
<polygon fill="none" stroke="black" points="777.69,-326.5 777.69,-387.5 878.69,-387.5 878.69,-326.5 777.69,-326.5"/>
<text text-anchor="middle" x="828.19" y="-372.3" font-family="Times-Roman" font-size="14.00">Thomas</text>
<text text-anchor="middle" x="828.19" y="-357.3" font-family="Times-Roman" font-size="14.00">Middleton</text>
<polyline fill="none" stroke="black" points="777.69,-349.5 878.69,-349.5 "/>
<text text-anchor="middle" x="828.19" y="-334.3" font-family="Times-Roman" font-size="14.00">2696.0 ADA</text>
</g>
<!-- Tx2&#45;&gt;Tx2_0 -->
<g id="edge8" class="edge">
<title>Tx2&#45;&gt;Tx2_0</title>
<path fill="none" stroke="black" d="M669.35,-425.97C686.92,-417.84 711.48,-406.58 733.19,-397 744.35,-392.08 756.29,-386.92 767.79,-382"/>
<polygon fill="black" stroke="black" points="769.5,-385.07 777.32,-377.93 766.75,-378.63 769.5,-385.07"/>
<text text-anchor="middle" x="704.19" y="-417.8" font-family="Times-Roman" font-size="14.00">#0</text>
</g>
<!-- Tx2_2 -->
<g id="node13" class="node">
<title>Tx2_2</title>
<polygon fill="none" stroke="black" points="770.69,-406.5 770.69,-467.5 885.69,-467.5 885.69,-406.5 770.69,-406.5"/>
<text text-anchor="middle" x="828.19" y="-452.3" font-family="Times-Roman" font-size="14.00">Thomas</text>
<text text-anchor="middle" x="828.19" y="-437.3" font-family="Times-Roman" font-size="14.00">Midddleton</text>
<polyline fill="none" stroke="black" points="770.69,-429.5 885.69,-429.5 "/>
<text text-anchor="middle" x="828.19" y="-414.3" font-family="Times-Roman" font-size="14.00">3 ADA + 1 TM</text>
</g>
<!-- Tx2&#45;&gt;Tx2_2 -->
<g id="edge9" class="edge">
<title>Tx2&#45;&gt;Tx2_2</title>
<path fill="none" stroke="black" d="M675.21,-437C698.22,-437 731.05,-437 760.31,-437"/>
<polygon fill="black" stroke="black" points="760.49,-440.5 770.49,-437 760.49,-433.5 760.49,-440.5"/>
<text text-anchor="middle" x="704.19" y="-440.8" font-family="Times-Roman" font-size="14.00">#2</text>
</g>
<!-- Tx2_1 -->
<g id="node14" class="node">
<title>Tx2_1</title>
<polygon fill="none" stroke="black" points="733.19,-486.5 733.19,-601.5 923.19,-601.5 923.19,-486.5 733.19,-486.5"/>
<text text-anchor="middle" x="828.19" y="-586.3" font-family="Times-Roman" font-size="14.00">Marlowe Script</text>
<polyline fill="none" stroke="black" points="733.19,-578.5 923.19,-578.5 "/>
<text text-anchor="middle" x="828.19" y="-563.3" font-family="Times-Roman" font-size="14.00">259 ADA</text>
<polyline fill="none" stroke="black" points="733.19,-555.5 923.19,-555.5 "/>
<text text-anchor="middle" x="759.69" y="-517.3" font-family="Times-Roman" font-size="14.00">State</text>
<polyline fill="none" stroke="black" points="786.19,-486.5 786.19,-555.5 "/>
<text text-anchor="middle" x="854.69" y="-540.3" font-family="Times-Roman" font-size="14.00">F.B. has 256 ADA</text>
<polyline fill="none" stroke="black" points="786.19,-532.5 923.19,-532.5 "/>
<text text-anchor="middle" x="854.69" y="-517.3" font-family="Times-Roman" font-size="14.00">T.M. has 0 ADA</text>
<polyline fill="none" stroke="black" points="786.19,-509.5 923.19,-509.5 "/>
<text text-anchor="middle" x="854.69" y="-494.3" font-family="Times-Roman" font-size="14.00">C.M. has 3 ADA</text>
</g>
<!-- Tx2&#45;&gt;Tx2_1 -->
<g id="edge10" class="edge">
<title>Tx2&#45;&gt;Tx2_1</title>
<path fill="none" stroke="black" d="M666.82,-449.48C681.6,-458.2 702.54,-470.53 724.42,-483.43"/>
<polygon fill="black" stroke="black" points="722.78,-486.52 733.17,-488.59 726.33,-480.49 722.78,-486.52"/>
<text text-anchor="middle" x="704.19" y="-480.8" font-family="Times-Roman" font-size="14.00">#1</text>
</g>
<!-- Tx2_Fee -->
<g id="node15" class="node">
<title>Tx2_Fee</title>
<polygon fill="none" stroke="black" points="791.19,-269 791.19,-307 865.19,-307 865.19,-269 791.19,-269"/>
<text text-anchor="middle" x="828.19" y="-291.8" font-family="Times-Roman" font-size="14.00">Fee</text>
<text text-anchor="middle" x="828.19" y="-276.8" font-family="Times-Roman" font-size="14.00">1.3 ADA</text>
</g>
<!-- Tx2&#45;&gt;Tx2_Fee -->
<g id="edge11" class="edge">
<title>Tx2&#45;&gt;Tx2_Fee</title>
<path fill="none" stroke="black" d="M653.35,-419.41C666.05,-392.55 693.9,-341.52 733.19,-314 747.2,-304.19 764.79,-298.07 780.96,-294.26"/>
<polygon fill="black" stroke="black" points="781.74,-297.67 790.79,-292.17 780.29,-290.82 781.74,-297.67"/>
</g>
<!-- Tx3 -->
<g id="node16" class="node">
<title>Tx3</title>
<ellipse fill="none" stroke="black" cx="1097.74" cy="-437" rx="30.59" ry="18"/>
<text text-anchor="middle" x="1097.74" y="-433.3" font-family="Times-Roman" font-size="14.00">Tx 3</text>
</g>
<!-- Tx2_0&#45;&gt;Tx3 -->
<g id="edge13" class="edge">
<title>Tx2_0&#45;&gt;Tx3</title>
<path fill="none" stroke="black" d="M878.89,-371.86C931.54,-387.6 1013.42,-412.09 1060.36,-426.12"/>
<polygon fill="black" stroke="black" points="1059.52,-429.53 1070.11,-429.04 1061.53,-422.82 1059.52,-429.53"/>
</g>
<!-- Tx2_2&#45;&gt;Tx3 -->
<g id="edge14" class="edge">
<title>Tx2_2&#45;&gt;Tx3</title>
<path fill="none" stroke="black" d="M885.93,-437C937.3,-437 1011.67,-437 1056.96,-437"/>
<polygon fill="black" stroke="black" points="1056.99,-440.5 1066.99,-437 1056.99,-433.5 1056.99,-440.5"/>
</g>
<!-- Tx2_1&#45;&gt;Tx3 -->
<g id="edge12" class="edge">
<title>Tx2_1&#45;&gt;Tx3</title>
<path fill="none" stroke="black" d="M923.52,-506.28C971.72,-487 1027.42,-464.72 1062.36,-450.75"/>
<polygon fill="black" stroke="black" points="1064.09,-453.83 1072.08,-446.86 1061.49,-447.33 1064.09,-453.83"/>
<text text-anchor="middle" x="995.19" y="-499.8" font-family="Times-Roman" font-size="14.00">Report problem</text>
</g>
<!-- Tx3_0 -->
<g id="node17" class="node">
<title>Tx3_0</title>
<polygon fill="none" stroke="black" points="1232.28,-406.5 1232.28,-467.5 1333.28,-467.5 1333.28,-406.5 1232.28,-406.5"/>
<text text-anchor="middle" x="1282.78" y="-452.3" font-family="Times-Roman" font-size="14.00">Thomas</text>
<text text-anchor="middle" x="1282.78" y="-437.3" font-family="Times-Roman" font-size="14.00">Middleton</text>
<polyline fill="none" stroke="black" points="1232.28,-429.5 1333.28,-429.5 "/>
<text text-anchor="middle" x="1282.78" y="-414.3" font-family="Times-Roman" font-size="14.00">2694.6 ADA</text>
</g>
<!-- Tx3&#45;&gt;Tx3_0 -->
<g id="edge15" class="edge">
<title>Tx3&#45;&gt;Tx3_0</title>
<path fill="none" stroke="black" d="M1128.55,-437C1153.67,-437 1190.4,-437 1221.61,-437"/>
<polygon fill="black" stroke="black" points="1221.95,-440.5 1231.95,-437 1221.95,-433.5 1221.95,-440.5"/>
<text text-anchor="middle" x="1157.28" y="-440.8" font-family="Times-Roman" font-size="14.00">#0</text>
</g>
<!-- Tx3_2 -->
<g id="node18" class="node">
<title>Tx3_2</title>
<polygon fill="none" stroke="black" points="1225.28,-326.5 1225.28,-387.5 1340.28,-387.5 1340.28,-326.5 1225.28,-326.5"/>
<text text-anchor="middle" x="1282.78" y="-372.3" font-family="Times-Roman" font-size="14.00">Thomas</text>
<text text-anchor="middle" x="1282.78" y="-357.3" font-family="Times-Roman" font-size="14.00">Middleton</text>
<polyline fill="none" stroke="black" points="1225.28,-349.5 1340.28,-349.5 "/>
<text text-anchor="middle" x="1282.78" y="-334.3" font-family="Times-Roman" font-size="14.00">3 ADA + 1 TM</text>
</g>
<!-- Tx3&#45;&gt;Tx3_2 -->
<g id="edge16" class="edge">
<title>Tx3&#45;&gt;Tx3_2</title>
<path fill="none" stroke="black" d="M1122.06,-426.1C1139.64,-417.94 1164.39,-406.58 1186.28,-397 1195.77,-392.85 1205.82,-388.54 1215.7,-384.36"/>
<polygon fill="black" stroke="black" points="1217.24,-387.5 1225.1,-380.39 1214.52,-381.05 1217.24,-387.5"/>
<text text-anchor="middle" x="1157.28" y="-417.8" font-family="Times-Roman" font-size="14.00">#2</text>
</g>
<!-- Tx3_1 -->
<g id="node19" class="node">
<title>Tx3_1</title>
<polygon fill="none" stroke="black" points="1186.28,-486.5 1186.28,-601.5 1379.28,-601.5 1379.28,-486.5 1186.28,-486.5"/>
<text text-anchor="middle" x="1282.78" y="-586.3" font-family="Times-Roman" font-size="14.00">Marlowe Script</text>
<polyline fill="none" stroke="black" points="1186.28,-578.5 1379.28,-578.5 "/>
<text text-anchor="middle" x="1282.78" y="-563.3" font-family="Times-Roman" font-size="14.00">259 ADA</text>
<polyline fill="none" stroke="black" points="1186.28,-555.5 1379.28,-555.5 "/>
<text text-anchor="middle" x="1212.78" y="-517.3" font-family="Times-Roman" font-size="14.00">State</text>
<polyline fill="none" stroke="black" points="1239.28,-486.5 1239.28,-555.5 "/>
<text text-anchor="middle" x="1309.28" y="-540.3" font-family="Times-Roman" font-size="14.00">F.B. has 0 ADA</text>
<polyline fill="none" stroke="black" points="1239.28,-532.5 1379.28,-532.5 "/>
<text text-anchor="middle" x="1309.28" y="-517.3" font-family="Times-Roman" font-size="14.00">T.M. has 256 ADA</text>
<polyline fill="none" stroke="black" points="1239.28,-509.5 1379.28,-509.5 "/>
<text text-anchor="middle" x="1309.28" y="-494.3" font-family="Times-Roman" font-size="14.00">C.M. has 3 ADA</text>
</g>
<!-- Tx3&#45;&gt;Tx3_1 -->
<g id="edge17" class="edge">
<title>Tx3&#45;&gt;Tx3_1</title>
<path fill="none" stroke="black" d="M1120.09,-449.48C1134.83,-458.1 1155.63,-470.26 1177.42,-483"/>
<polygon fill="black" stroke="black" points="1175.74,-486.07 1186.14,-488.09 1179.27,-480.02 1175.74,-486.07"/>
<text text-anchor="middle" x="1157.28" y="-477.8" font-family="Times-Roman" font-size="14.00">#1</text>
</g>
<!-- Tx3_Fee -->
<g id="node20" class="node">
<title>Tx3_Fee</title>
<polygon fill="none" stroke="black" points="1245.78,-269 1245.78,-307 1319.78,-307 1319.78,-269 1245.78,-269"/>
<text text-anchor="middle" x="1282.78" y="-291.8" font-family="Times-Roman" font-size="14.00">Fee</text>
<text text-anchor="middle" x="1282.78" y="-276.8" font-family="Times-Roman" font-size="14.00">1.4 ADA</text>
</g>
<!-- Tx3&#45;&gt;Tx3_Fee -->
<g id="edge18" class="edge">
<title>Tx3&#45;&gt;Tx3_Fee</title>
<path fill="none" stroke="black" d="M1106.44,-419.39C1119.11,-392.5 1146.94,-341.44 1186.28,-314 1200.76,-303.91 1218.98,-297.73 1235.63,-293.95"/>
<polygon fill="black" stroke="black" points="1236.63,-297.31 1245.74,-291.89 1235.24,-290.45 1236.63,-297.31"/>
</g>
<!-- Tx3_1&#45;&gt;Tx4 -->
<g id="edge19" class="edge">
<title>Tx3_1&#45;&gt;Tx4</title>
<path fill="none" stroke="black" d="M1379.56,-544C1427.6,-544 1483.21,-544 1519.82,-544"/>
<polygon fill="black" stroke="black" points="1520.08,-547.5 1530.08,-544 1520.08,-540.5 1520.08,-547.5"/>
<text text-anchor="middle" x="1454.78" y="-547.8" font-family="Times-Roman" font-size="14.00">Dispute problem</text>
</g>
<!-- Tx4_0 -->
<g id="node22" class="node">
<title>Tx4_0</title>
<polygon fill="none" stroke="black" points="1695.38,-548.5 1695.38,-609.5 1796.38,-609.5 1796.38,-548.5 1695.38,-548.5"/>
<text text-anchor="middle" x="1745.88" y="-594.3" font-family="Times-Roman" font-size="14.00">Francis</text>
<text text-anchor="middle" x="1745.88" y="-579.3" font-family="Times-Roman" font-size="14.00">Beaumont</text>
<polyline fill="none" stroke="black" points="1695.38,-571.5 1796.38,-571.5 "/>
<text text-anchor="middle" x="1745.88" y="-556.3" font-family="Times-Roman" font-size="14.00">3001.3 ADA</text>
</g>
<!-- Tx4&#45;&gt;Tx4_0 -->
<g id="edge22" class="edge">
<title>Tx4&#45;&gt;Tx4_0</title>
<path fill="none" stroke="black" d="M1590.03,-549.39C1615.28,-554.22 1653.14,-561.46 1685.1,-567.57"/>
<polygon fill="black" stroke="black" points="1684.76,-571.07 1695.24,-569.51 1686.08,-564.19 1684.76,-571.07"/>
<text text-anchor="middle" x="1620.38" y="-559.8" font-family="Times-Roman" font-size="14.00">#0</text>
</g>
<!-- Tx4_2 -->
<g id="node23" class="node">
<title>Tx4_2</title>
<polygon fill="none" stroke="black" points="1689.38,-468.5 1689.38,-529.5 1802.38,-529.5 1802.38,-468.5 1689.38,-468.5"/>
<text text-anchor="middle" x="1745.88" y="-514.3" font-family="Times-Roman" font-size="14.00">Francis</text>
<text text-anchor="middle" x="1745.88" y="-499.3" font-family="Times-Roman" font-size="14.00">Beaumont</text>
<polyline fill="none" stroke="black" points="1689.38,-491.5 1802.38,-491.5 "/>
<text text-anchor="middle" x="1745.88" y="-476.3" font-family="Times-Roman" font-size="14.00">3 ADA + 1 FB</text>
</g>
<!-- Tx4&#45;&gt;Tx4_2 -->
<g id="edge23" class="edge">
<title>Tx4&#45;&gt;Tx4_2</title>
<path fill="none" stroke="black" d="M1589.24,-537.26C1612.99,-531.42 1648.34,-522.73 1679.34,-515.11"/>
<polygon fill="black" stroke="black" points="1680.36,-518.47 1689.24,-512.68 1678.69,-511.67 1680.36,-518.47"/>
<text text-anchor="middle" x="1620.38" y="-534.8" font-family="Times-Roman" font-size="14.00">#2</text>
</g>
<!-- Tx4_1 -->
<g id="node24" class="node">
<title>Tx4_1</title>
<polygon fill="none" stroke="black" points="1649.38,-271.5 1649.38,-386.5 1842.38,-386.5 1842.38,-271.5 1649.38,-271.5"/>
<text text-anchor="middle" x="1745.88" y="-371.3" font-family="Times-Roman" font-size="14.00">Marlowe Script</text>
<polyline fill="none" stroke="black" points="1649.38,-363.5 1842.38,-363.5 "/>
<text text-anchor="middle" x="1745.88" y="-348.3" font-family="Times-Roman" font-size="14.00">259 ADA</text>
<polyline fill="none" stroke="black" points="1649.38,-340.5 1842.38,-340.5 "/>
<text text-anchor="middle" x="1675.88" y="-302.3" font-family="Times-Roman" font-size="14.00">State</text>
<polyline fill="none" stroke="black" points="1702.38,-271.5 1702.38,-340.5 "/>
<text text-anchor="middle" x="1772.38" y="-325.3" font-family="Times-Roman" font-size="14.00">F.B. has 0 ADA</text>
<polyline fill="none" stroke="black" points="1702.38,-317.5 1842.38,-317.5 "/>
<text text-anchor="middle" x="1772.38" y="-302.3" font-family="Times-Roman" font-size="14.00">T.M. has 256 ADA</text>
<polyline fill="none" stroke="black" points="1702.38,-294.5 1842.38,-294.5 "/>
<text text-anchor="middle" x="1772.38" y="-279.3" font-family="Times-Roman" font-size="14.00">C.M. has 3 ADA</text>
</g>
<!-- Tx4&#45;&gt;Tx4_1 -->
<g id="edge24" class="edge">
<title>Tx4&#45;&gt;Tx4_1</title>
<path fill="none" stroke="black" d="M1569.3,-526.37C1577.84,-506.98 1592.8,-475.22 1609.38,-450 1624.63,-426.79 1629.33,-421.22 1649.38,-402 1652.43,-399.08 1655.59,-396.16 1658.84,-393.26"/>
<polygon fill="black" stroke="black" points="1661.29,-395.77 1666.53,-386.56 1656.69,-390.49 1661.29,-395.77"/>
<text text-anchor="middle" x="1620.38" y="-453.8" font-family="Times-Roman" font-size="14.00">#1</text>
</g>
<!-- Tx4_Fee -->
<g id="node25" class="node">
<title>Tx4_Fee</title>
<polygon fill="none" stroke="black" points="1708.88,-411 1708.88,-449 1782.88,-449 1782.88,-411 1708.88,-411"/>
<text text-anchor="middle" x="1745.88" y="-433.8" font-family="Times-Roman" font-size="14.00">Fee</text>
<text text-anchor="middle" x="1745.88" y="-418.8" font-family="Times-Roman" font-size="14.00">1.3 ADA</text>
</g>
<!-- Tx4&#45;&gt;Tx4_Fee -->
<g id="edge25" class="edge">
<title>Tx4&#45;&gt;Tx4_Fee</title>
<path fill="none" stroke="black" d="M1573.84,-527.47C1589.16,-507.57 1617.52,-474.53 1649.38,-456 1664.38,-447.27 1682.42,-441.38 1698.76,-437.45"/>
<polygon fill="black" stroke="black" points="1699.66,-440.83 1708.67,-435.25 1698.15,-434 1699.66,-440.83"/>
</g>
<!-- Tx6 -->
<g id="node32" class="node">
<title>Tx6</title>
<ellipse fill="none" stroke="black" cx="2361.02" cy="-499" rx="30.59" ry="18"/>
<text text-anchor="middle" x="2361.02" y="-495.3" font-family="Times-Roman" font-size="14.00">Tx 6</text>
</g>
<!-- Tx4_0&#45;&gt;Tx6 -->
<g id="edge34" class="edge">
<title>Tx4_0&#45;&gt;Tx6</title>
<path fill="none" stroke="black" d="M1796.5,-576.06C1895.47,-569.57 2124.07,-551.44 2312.47,-513 2316.35,-512.21 2320.36,-511.25 2324.34,-510.21"/>
<polygon fill="black" stroke="black" points="2325.37,-513.56 2334.06,-507.51 2323.49,-506.82 2325.37,-513.56"/>
</g>
<!-- Tx4_2&#45;&gt;Tx6 -->
<g id="edge35" class="edge">
<title>Tx4_2&#45;&gt;Tx6</title>
<path fill="none" stroke="black" d="M1802.64,-499C1924.8,-499 2213.56,-499 2319.85,-499"/>
<polygon fill="black" stroke="black" points="2320.14,-502.5 2330.14,-499 2320.14,-495.5 2320.14,-502.5"/>
</g>
<!-- Tx4_1&#45;&gt;Tx5 -->
<g id="edge26" class="edge">
<title>Tx4_1&#45;&gt;Tx5</title>
<path fill="none" stroke="black" d="M1842.59,-301.45C1886,-288.95 1934.75,-274.91 1967.19,-265.57"/>
<polygon fill="black" stroke="black" points="1968.48,-268.85 1977.13,-262.72 1966.55,-262.12 1968.48,-268.85"/>
<text text-anchor="middle" x="1908.38" y="-297.8" font-family="Times-Roman" font-size="14.00">Dismiss claim</text>
</g>
<!-- Tx5_0 -->
<g id="node27" class="node">
<title>Tx5_0</title>
<polygon fill="none" stroke="black" points="2142.97,-149.5 2142.97,-210.5 2243.97,-210.5 2243.97,-149.5 2142.97,-149.5"/>
<text text-anchor="middle" x="2193.47" y="-195.3" font-family="Times-Roman" font-size="14.00">Christopher</text>
<text text-anchor="middle" x="2193.47" y="-180.3" font-family="Times-Roman" font-size="14.00">Marlowe</text>
<polyline fill="none" stroke="black" points="2142.97,-172.5 2243.97,-172.5 "/>
<text text-anchor="middle" x="2193.47" y="-157.3" font-family="Times-Roman" font-size="14.00">1960.1 ADA</text>
</g>
<!-- Tx5&#45;&gt;Tx5_0 -->
<g id="edge29" class="edge">
<title>Tx5&#45;&gt;Tx5_0</title>
<path fill="none" stroke="black" d="M2030.65,-245.05C2046.35,-238.73 2067.1,-230.39 2085.47,-223 2101.01,-216.75 2117.82,-210 2133.4,-203.73"/>
<polygon fill="black" stroke="black" points="2134.96,-206.88 2142.93,-199.91 2132.35,-200.39 2134.96,-206.88"/>
<text text-anchor="middle" x="2064.47" y="-238.8" font-family="Times-Roman" font-size="14.00">#0</text>
</g>
<!-- Tx5_3 -->
<g id="node28" class="node">
<title>Tx5_3</title>
<polygon fill="none" stroke="black" points="2135.47,-69.5 2135.47,-130.5 2251.47,-130.5 2251.47,-69.5 2135.47,-69.5"/>
<text text-anchor="middle" x="2193.47" y="-115.3" font-family="Times-Roman" font-size="14.00">Christopher</text>
<text text-anchor="middle" x="2193.47" y="-100.3" font-family="Times-Roman" font-size="14.00">Marlowe</text>
<polyline fill="none" stroke="black" points="2135.47,-92.5 2251.47,-92.5 "/>
<text text-anchor="middle" x="2193.47" y="-77.3" font-family="Times-Roman" font-size="14.00">3 ADA + 1 CM</text>
</g>
<!-- Tx5&#45;&gt;Tx5_3 -->
<g id="edge30" class="edge">
<title>Tx5&#45;&gt;Tx5_3</title>
<path fill="none" stroke="black" d="M2013.68,-237.71C2025.68,-212.8 2051,-166.85 2085.47,-140 2097.3,-130.79 2111.46,-123.53 2125.56,-117.88"/>
<polygon fill="black" stroke="black" points="2127.15,-121.02 2135.27,-114.22 2124.68,-114.47 2127.15,-121.02"/>
<text text-anchor="middle" x="2064.47" y="-176.8" font-family="Times-Roman" font-size="14.00">#3</text>
</g>
<!-- Tx5_1 -->
<g id="node29" class="node">
<title>Tx5_1</title>
<polygon fill="none" stroke="black" points="2099.47,-235.5 2099.47,-304.5 2287.47,-304.5 2287.47,-235.5 2099.47,-235.5"/>
<text text-anchor="middle" x="2193.47" y="-289.3" font-family="Times-Roman" font-size="14.00">Payout Script</text>
<polyline fill="none" stroke="black" points="2099.47,-281.5 2287.47,-281.5 "/>
<text text-anchor="middle" x="2193.47" y="-266.3" font-family="Times-Roman" font-size="14.00">3 ADA</text>
<polyline fill="none" stroke="black" points="2099.47,-258.5 2287.47,-258.5 "/>
<text text-anchor="middle" x="2130.97" y="-243.3" font-family="Times-Roman" font-size="14.00">Payout</text>
<polyline fill="none" stroke="black" points="2162.47,-235.5 2162.47,-258.5 "/>
<text text-anchor="middle" x="2224.97" y="-243.3" font-family="Times-Roman" font-size="14.00">C.M. has 3 ADA</text>
</g>
<!-- Tx5&#45;&gt;Tx5_1 -->
<g id="edge31" class="edge">
<title>Tx5&#45;&gt;Tx5_1</title>
<path fill="none" stroke="black" d="M2035.48,-257.38C2050.43,-258.58 2069.54,-260.12 2089.26,-261.7"/>
<polygon fill="black" stroke="black" points="2089.04,-265.19 2099.29,-262.51 2089.6,-258.22 2089.04,-265.19"/>
<text text-anchor="middle" x="2064.47" y="-263.8" font-family="Times-Roman" font-size="14.00">#1</text>
</g>
<!-- Tx5_2 -->
<g id="node30" class="node">
<title>Tx5_2</title>
<polygon fill="none" stroke="black" points="2093.47,-323.5 2093.47,-392.5 2293.47,-392.5 2293.47,-323.5 2093.47,-323.5"/>
<text text-anchor="middle" x="2193.47" y="-377.3" font-family="Times-Roman" font-size="14.00">Payout Script</text>
<polyline fill="none" stroke="black" points="2093.47,-369.5 2293.47,-369.5 "/>
<text text-anchor="middle" x="2193.47" y="-354.3" font-family="Times-Roman" font-size="14.00">256 ADA</text>
<polyline fill="none" stroke="black" points="2093.47,-346.5 2293.47,-346.5 "/>
<text text-anchor="middle" x="2124.97" y="-331.3" font-family="Times-Roman" font-size="14.00">Payout</text>
<polyline fill="none" stroke="black" points="2156.47,-323.5 2156.47,-346.5 "/>
<text text-anchor="middle" x="2224.97" y="-331.3" font-family="Times-Roman" font-size="14.00">F.B. has 256 ADA</text>
</g>
<!-- Tx5&#45;&gt;Tx5_2 -->
<g id="edge32" class="edge">
<title>Tx5&#45;&gt;Tx5_2</title>
<path fill="none" stroke="black" d="M2023.07,-269.68C2038.63,-282.51 2062.57,-301.06 2085.47,-314 2088.36,-315.63 2091.32,-317.23 2094.33,-318.8"/>
<polygon fill="black" stroke="black" points="2092.98,-322.05 2103.49,-323.43 2096.13,-315.8 2092.98,-322.05"/>
<text text-anchor="middle" x="2064.47" y="-310.8" font-family="Times-Roman" font-size="14.00">#2</text>
</g>
<!-- Tx5_Fee -->
<g id="node31" class="node">
<title>Tx5_Fee</title>
<polygon fill="none" stroke="black" points="2156.47,-412 2156.47,-450 2230.47,-450 2230.47,-412 2156.47,-412"/>
<text text-anchor="middle" x="2193.47" y="-434.8" font-family="Times-Roman" font-size="14.00">Fee</text>
<text text-anchor="middle" x="2193.47" y="-419.8" font-family="Times-Roman" font-size="14.00">1.4 ADA</text>
</g>
<!-- Tx5&#45;&gt;Tx5_Fee -->
<g id="edge33" class="edge">
<title>Tx5&#45;&gt;Tx5_Fee</title>
<path fill="none" stroke="black" d="M2010.24,-272.92C2018.86,-304.65 2041.26,-370.63 2085.47,-405 2102.71,-418.4 2125.86,-425.02 2146.22,-428.24"/>
<polygon fill="black" stroke="black" points="2145.88,-431.72 2156.26,-429.6 2146.82,-424.79 2145.88,-431.72"/>
</g>
<!-- Tx7 -->
<g id="node37" class="node">
<title>Tx7</title>
<ellipse fill="none" stroke="black" cx="2361.02" cy="-180" rx="30.59" ry="18"/>
<text text-anchor="middle" x="2361.02" y="-176.3" font-family="Times-Roman" font-size="14.00">Tx 7</text>
</g>
<!-- Tx5_0&#45;&gt;Tx7 -->
<g id="edge41" class="edge">
<title>Tx5_0&#45;&gt;Tx7</title>
<path fill="none" stroke="black" d="M2244.14,-180C2268.42,-180 2297.26,-180 2320.09,-180"/>
<polygon fill="black" stroke="black" points="2320.12,-183.5 2330.12,-180 2320.12,-176.5 2320.12,-183.5"/>
</g>
<!-- Tx5_3&#45;&gt;Tx7 -->
<g id="edge42" class="edge">
<title>Tx5_3&#45;&gt;Tx7</title>
<path fill="none" stroke="black" d="M2251.67,-118.48C2268.1,-124.56 2285.81,-131.87 2301.47,-140 2312.46,-145.7 2323.85,-153.09 2333.63,-159.97"/>
<polygon fill="black" stroke="black" points="2331.6,-162.82 2341.76,-165.82 2335.69,-157.14 2331.6,-162.82"/>
</g>
<!-- Tx5_1&#45;&gt;Tx7 -->
<g id="edge43" class="edge">
<title>Tx5_1&#45;&gt;Tx7</title>
<path fill="none" stroke="black" d="M2278.02,-235.45C2286.07,-231.49 2294.01,-227.31 2301.47,-223 2312.82,-216.45 2324.6,-208.13 2334.6,-200.56"/>
<polygon fill="black" stroke="black" points="2336.75,-203.32 2342.52,-194.43 2332.47,-197.78 2336.75,-203.32"/>
</g>
<!-- Tx5_2&#45;&gt;Tx6 -->
<g id="edge36" class="edge">
<title>Tx5_2&#45;&gt;Tx6</title>
<path fill="none" stroke="black" d="M2287.48,-392.57C2292.41,-395.78 2297.12,-399.25 2301.47,-403 2323.32,-421.8 2339.44,-450.84 2349.17,-472.06"/>
<polygon fill="black" stroke="black" points="2346.08,-473.73 2353.31,-481.48 2352.49,-470.92 2346.08,-473.73"/>
</g>
<!-- Tx6_0 -->
<g id="node33" class="node">
<title>Tx6_0</title>
<polygon fill="none" stroke="black" points="2457.07,-419.5 2457.07,-480.5 2558.07,-480.5 2558.07,-419.5 2457.07,-419.5"/>
<text text-anchor="middle" x="2507.57" y="-465.3" font-family="Times-Roman" font-size="14.00">Francis</text>
<text text-anchor="middle" x="2507.57" y="-450.3" font-family="Times-Roman" font-size="14.00">Beaumont</text>
<polyline fill="none" stroke="black" points="2457.07,-442.5 2558.07,-442.5 "/>
<text text-anchor="middle" x="2507.57" y="-427.3" font-family="Times-Roman" font-size="14.00">3000.9 ADA</text>
</g>
<!-- Tx6&#45;&gt;Tx6_0 -->
<g id="edge37" class="edge">
<title>Tx6&#45;&gt;Tx6_0</title>
<path fill="none" stroke="black" d="M2387.86,-490.24C2404.41,-484.63 2426.58,-477.11 2447.28,-470.1"/>
<polygon fill="black" stroke="black" points="2448.63,-473.33 2456.98,-466.81 2446.39,-466.71 2448.63,-473.33"/>
<text text-anchor="middle" x="2420.57" y="-484.8" font-family="Times-Roman" font-size="14.00">#0</text>
</g>
<!-- Tx6_1 -->
<g id="node34" class="node">
<title>Tx6_1</title>
<polygon fill="none" stroke="black" points="2463.57,-579.5 2463.57,-640.5 2551.57,-640.5 2551.57,-579.5 2463.57,-579.5"/>
<text text-anchor="middle" x="2507.57" y="-625.3" font-family="Times-Roman" font-size="14.00">Francis</text>
<text text-anchor="middle" x="2507.57" y="-610.3" font-family="Times-Roman" font-size="14.00">Beaumont</text>
<polyline fill="none" stroke="black" points="2463.57,-602.5 2551.57,-602.5 "/>
<text text-anchor="middle" x="2507.57" y="-587.3" font-family="Times-Roman" font-size="14.00">256 ADA</text>
</g>
<!-- Tx6&#45;&gt;Tx6_1 -->
<g id="edge38" class="edge">
<title>Tx6&#45;&gt;Tx6_1</title>
<path fill="none" stroke="black" d="M2377.46,-514.28C2392.99,-529.29 2417.96,-552.42 2441.57,-570 2445.88,-573.22 2450.47,-576.42 2455.13,-579.53"/>
<polygon fill="black" stroke="black" points="2453.26,-582.49 2463.55,-585.02 2457.08,-576.63 2453.26,-582.49"/>
<text text-anchor="middle" x="2420.57" y="-564.8" font-family="Times-Roman" font-size="14.00">#1</text>
</g>
<!-- Tx6_2 -->
<g id="node35" class="node">
<title>Tx6_2</title>
<polygon fill="none" stroke="black" points="2451.07,-499.5 2451.07,-560.5 2564.07,-560.5 2564.07,-499.5 2451.07,-499.5"/>
<text text-anchor="middle" x="2507.57" y="-545.3" font-family="Times-Roman" font-size="14.00">Francis</text>
<text text-anchor="middle" x="2507.57" y="-530.3" font-family="Times-Roman" font-size="14.00">Beaumont</text>
<polyline fill="none" stroke="black" points="2451.07,-522.5 2564.07,-522.5 "/>
<text text-anchor="middle" x="2507.57" y="-507.3" font-family="Times-Roman" font-size="14.00">3 ADA + 1 FB</text>
</g>
<!-- Tx6&#45;&gt;Tx6_2 -->
<g id="edge39" class="edge">
<title>Tx6&#45;&gt;Tx6_2</title>
<path fill="none" stroke="black" d="M2389.89,-504.98C2404.5,-508.11 2423.05,-512.09 2441.04,-515.95"/>
<polygon fill="black" stroke="black" points="2440.44,-519.4 2450.95,-518.07 2441.91,-512.55 2440.44,-519.4"/>
<text text-anchor="middle" x="2420.57" y="-516.8" font-family="Times-Roman" font-size="14.00">#2</text>
</g>
<!-- Tx6_Fee -->
<g id="node36" class="node">
<title>Tx6_Fee</title>
<polygon fill="none" stroke="black" points="2470.57,-362 2470.57,-400 2544.57,-400 2544.57,-362 2470.57,-362"/>
<text text-anchor="middle" x="2507.57" y="-384.8" font-family="Times-Roman" font-size="14.00">Fee</text>
<text text-anchor="middle" x="2507.57" y="-369.8" font-family="Times-Roman" font-size="14.00">0.5 ADA</text>
</g>
<!-- Tx6&#45;&gt;Tx6_Fee -->
<g id="edge40" class="edge">
<title>Tx6&#45;&gt;Tx6_Fee</title>
<path fill="none" stroke="black" d="M2372.78,-482.24C2386.55,-461.96 2412.16,-427.96 2441.57,-407 2447.49,-402.78 2454.19,-399.11 2460.98,-395.97"/>
<polygon fill="black" stroke="black" points="2462.43,-399.16 2470.24,-392.01 2459.67,-392.73 2462.43,-399.16"/>
</g>
<!-- Tx7_0 -->
<g id="node38" class="node">
<title>Tx7_0</title>
<polygon fill="none" stroke="black" points="2457.07,-121.5 2457.07,-182.5 2558.07,-182.5 2558.07,-121.5 2457.07,-121.5"/>
<text text-anchor="middle" x="2507.57" y="-167.3" font-family="Times-Roman" font-size="14.00">Christopher</text>
<text text-anchor="middle" x="2507.57" y="-152.3" font-family="Times-Roman" font-size="14.00">Marlowe</text>
<polyline fill="none" stroke="black" points="2457.07,-144.5 2558.07,-144.5 "/>
<text text-anchor="middle" x="2507.57" y="-129.3" font-family="Times-Roman" font-size="14.00">1959.7 ADA</text>
</g>
<!-- Tx7&#45;&gt;Tx7_0 -->
<g id="edge44" class="edge">
<title>Tx7&#45;&gt;Tx7_0</title>
<path fill="none" stroke="black" d="M2390.23,-174.53C2406.47,-171.39 2427.5,-167.32 2447.21,-163.5"/>
<polygon fill="black" stroke="black" points="2447.91,-166.93 2457.06,-161.59 2446.57,-160.06 2447.91,-166.93"/>
<text text-anchor="middle" x="2420.57" y="-174.8" font-family="Times-Roman" font-size="14.00">#0</text>
</g>
<!-- Tx7_1 -->
<g id="node39" class="node">
<title>Tx7_1</title>
<polygon fill="none" stroke="black" points="2458.57,-281.5 2458.57,-342.5 2556.57,-342.5 2556.57,-281.5 2458.57,-281.5"/>
<text text-anchor="middle" x="2507.57" y="-327.3" font-family="Times-Roman" font-size="14.00">Christopher</text>
<text text-anchor="middle" x="2507.57" y="-312.3" font-family="Times-Roman" font-size="14.00">Marlowe</text>
<polyline fill="none" stroke="black" points="2458.57,-304.5 2556.57,-304.5 "/>
<text text-anchor="middle" x="2507.57" y="-289.3" font-family="Times-Roman" font-size="14.00">3 ADA</text>
</g>
<!-- Tx7&#45;&gt;Tx7_1 -->
<g id="edge45" class="edge">
<title>Tx7&#45;&gt;Tx7_1</title>
<path fill="none" stroke="black" d="M2373.92,-196.64C2388.42,-216.19 2414.38,-248.88 2441.57,-272 2444.36,-274.37 2447.3,-276.7 2450.33,-278.96"/>
<polygon fill="black" stroke="black" points="2448.34,-281.84 2458.52,-284.78 2452.4,-276.14 2448.34,-281.84"/>
<text text-anchor="middle" x="2420.57" y="-263.8" font-family="Times-Roman" font-size="14.00">#1</text>
</g>
<!-- Tx7_2 -->
<g id="node40" class="node">
<title>Tx7_2</title>
<polygon fill="none" stroke="black" points="2449.57,-201.5 2449.57,-262.5 2565.57,-262.5 2565.57,-201.5 2449.57,-201.5"/>
<text text-anchor="middle" x="2507.57" y="-247.3" font-family="Times-Roman" font-size="14.00">Christopher</text>
<text text-anchor="middle" x="2507.57" y="-232.3" font-family="Times-Roman" font-size="14.00">Marlowe</text>
<polyline fill="none" stroke="black" points="2449.57,-224.5 2565.57,-224.5 "/>
<text text-anchor="middle" x="2507.57" y="-209.3" font-family="Times-Roman" font-size="14.00">3 ADA + 1 CM</text>
</g>
<!-- Tx7&#45;&gt;Tx7_2 -->
<g id="edge46" class="edge">
<title>Tx7&#45;&gt;Tx7_2</title>
<path fill="none" stroke="black" d="M2387.53,-189.18C2402.16,-194.44 2421.27,-201.32 2439.89,-208.01"/>
<polygon fill="black" stroke="black" points="2438.96,-211.4 2449.55,-211.49 2441.33,-204.81 2438.96,-211.4"/>
<text text-anchor="middle" x="2420.57" y="-207.8" font-family="Times-Roman" font-size="14.00">#2</text>
</g>
<!-- Tx7_Fee -->
<g id="node41" class="node">
<title>Tx7_Fee</title>
<polygon fill="none" stroke="black" points="2470.57,-64 2470.57,-102 2544.57,-102 2544.57,-64 2470.57,-64"/>
<text text-anchor="middle" x="2507.57" y="-86.8" font-family="Times-Roman" font-size="14.00">Fee</text>
<text text-anchor="middle" x="2507.57" y="-71.8" font-family="Times-Roman" font-size="14.00">0.5 ADA</text>
</g>
<!-- Tx7&#45;&gt;Tx7_Fee -->
<g id="edge47" class="edge">
<title>Tx7&#45;&gt;Tx7_Fee</title>
<path fill="none" stroke="black" d="M2376.29,-164.41C2391.3,-148.73 2416.23,-124.69 2441.57,-109 2447.54,-105.3 2454.12,-101.95 2460.74,-98.97"/>
<polygon fill="black" stroke="black" points="2462.56,-102.01 2470.4,-94.89 2459.83,-95.56 2462.56,-102.01"/>
</g>
</g>
</svg>
