<?xml version="1.0" encoding="UTF-8" standalone="no"?>
<!DOCTYPE svg PUBLIC "-//W3C//DTD SVG 1.1//EN"
 "http://www.w3.org/Graphics/SVG/1.1/DTD/svg11.dtd">
<!-- Generated by graphviz version 2.49.3 (0)
 -->
<!-- Title: Redeem Pages: 1 -->
<svg width="569pt" height="177pt"
 viewBox="0.00 0.00 569.29 177.00" xmlns="http://www.w3.org/2000/svg" xmlns:xlink="http://www.w3.org/1999/xlink">
<g id="graph0" class="graph" transform="scale(1 1) rotate(0) translate(4 173)">
<title>Redeem</title>
<polygon fill="white" stroke="transparent" points="-4,4 -4,-173 565.29,-173 565.29,4 -4,4"/>
<!-- Tx0_Role -->
<g id="node1" class="node">
<title>Tx0_Role</title>
<polygon fill="none" stroke="black" points="0,-95.5 0,-141.5 118,-141.5 118,-95.5 0,-95.5"/>
<text text-anchor="middle" x="59" y="-126.3" font-family="Times,serif" font-size="14.00">A Contract Role</text>
<polyline fill="none" stroke="black" points="0,-118.5 118,-118.5 "/>
<text text-anchor="middle" x="59" y="-103.3" font-family="Times,serif" font-size="14.00">2 ₳ + 1 role token</text>
</g>
<!-- Tx1 -->
<g id="node3" class="node">
<title>Tx1</title>
<ellipse fill="none" stroke="black" cx="318.64" cy="-80.5" rx="65.79" ry="18"/>
<text text-anchor="middle" x="318.64" y="-76.8" font-family="Times,serif" font-size="14.00">Redemption Tx</text>
</g>
<!-- Tx0_Role&#45;&gt;Tx1 -->
<g id="edge1" class="edge">
<title>Tx0_Role&#45;&gt;Tx1</title>
<path fill="none" stroke="black" d="M118.14,-109.92C157.49,-104.12 209.59,-96.44 250.68,-90.38"/>
<polygon fill="black" stroke="black" points="251.22,-93.84 260.6,-88.91 250.2,-86.91 251.22,-93.84"/>
</g>
<!-- Tx0_Script -->
<g id="node2" class="node">
<title>Tx0_Script</title>
<polygon fill="none" stroke="black" points="5.5,-8 5.5,-77 112.5,-77 112.5,-8 5.5,-8"/>
<text text-anchor="middle" x="59" y="-61.8" font-family="Times,serif" font-size="14.00">Marlowe Payout</text>
<polyline fill="none" stroke="black" points="5.5,-54 112.5,-54 "/>
<text text-anchor="middle" x="59" y="-38.8" font-family="Times,serif" font-size="14.00">X ₳</text>
<polyline fill="none" stroke="black" points="5.5,-31 112.5,-31 "/>
<text text-anchor="middle" x="59" y="-15.8" font-family="Times,serif" font-size="14.00">Role to be paid</text>
</g>
<!-- Tx0_Script&#45;&gt;Tx1 -->
<g id="edge2" class="edge">
<title>Tx0_Script&#45;&gt;Tx1</title>
<path fill="none" stroke="black" d="M112.76,-50.28C152.56,-56.15 207.45,-64.25 250.39,-70.58"/>
<polygon fill="black" stroke="black" points="250.08,-74.07 260.48,-72.07 251.1,-67.15 250.08,-74.07"/>
<text text-anchor="middle" x="185.5" y="-71.3" font-family="Times,serif" font-size="14.00">(empty redeemer)</text>
</g>
<!-- Tx1_0 -->
<g id="node4" class="node">
<title>Tx1_0</title>
<polygon fill="none" stroke="black" points="434.29,-122.5 434.29,-168.5 561.29,-168.5 561.29,-122.5 434.29,-122.5"/>
<text text-anchor="middle" x="497.79" y="-153.3" font-family="Times,serif" font-size="14.00">Same Contract Role</text>
<polyline fill="none" stroke="black" points="434.29,-145.5 561.29,-145.5 "/>
<text text-anchor="middle" x="497.79" y="-130.3" font-family="Times,serif" font-size="14.00">X &#45; 0.4 ₳</text>
</g>
<!-- Tx1&#45;&gt;Tx1_0 -->
<g id="edge3" class="edge">
<title>Tx1&#45;&gt;Tx1_0</title>
<path fill="none" stroke="black" d="M358.96,-94.93C378.31,-102.03 402.27,-110.82 424.75,-119.07"/>
<polygon fill="black" stroke="black" points="423.68,-122.4 434.28,-122.56 426.09,-115.83 423.68,-122.4"/>
<text text-anchor="middle" x="409.29" y="-118.3" font-family="Times,serif" font-size="14.00">#0</text>
</g>
<!-- Tx1_1 -->
<g id="node5" class="node">
<title>Tx1_1</title>
<polygon fill="none" stroke="black" points="434.29,-57.5 434.29,-103.5 561.29,-103.5 561.29,-57.5 434.29,-57.5"/>
<text text-anchor="middle" x="497.79" y="-88.3" font-family="Times,serif" font-size="14.00">Same Contract Role</text>
<polyline fill="none" stroke="black" points="434.29,-80.5 561.29,-80.5 "/>
<text text-anchor="middle" x="497.79" y="-65.3" font-family="Times,serif" font-size="14.00">2 ₳ + 1 role token</text>
</g>
<!-- Tx1&#45;&gt;Tx1_1 -->
<g id="edge4" class="edge">
<title>Tx1&#45;&gt;Tx1_1</title>
<path fill="none" stroke="black" d="M384.35,-80.5C397.14,-80.5 410.65,-80.5 423.69,-80.5"/>
<polygon fill="black" stroke="black" points="424.03,-84 434.03,-80.5 424.03,-77 424.03,-84"/>
<text text-anchor="middle" x="409.29" y="-84.3" font-family="Times,serif" font-size="14.00">#1</text>
</g>
<!-- Tx1_Fee -->
<g id="node6" class="node">
<title>Tx1_Fee</title>
<polygon fill="none" stroke="black" points="470.79,-0.5 470.79,-38.5 524.79,-38.5 524.79,-0.5 470.79,-0.5"/>
<text text-anchor="middle" x="497.79" y="-23.3" font-family="Times,serif" font-size="14.00">Fee</text>
<text text-anchor="middle" x="497.79" y="-8.3" font-family="Times,serif" font-size="14.00">0.4 ₳</text>
</g>
<!-- Tx1&#45;&gt;Tx1_Fee -->
<g id="edge5" class="edge">
<title>Tx1&#45;&gt;Tx1_Fee</title>
<path fill="none" stroke="black" d="M360.28,-66.51C390.62,-56.06 431.69,-41.92 460.84,-31.88"/>
<polygon fill="black" stroke="black" points="462.3,-35.08 470.61,-28.51 460.02,-28.46 462.3,-35.08"/>
</g>
</g>
</svg>
