<?xml version="1.0" encoding="UTF-8" standalone="no"?><!DOCTYPE svg PUBLIC "-//W3C//DTD SVG 1.1//EN" "http://www.w3.org/Graphics/SVG/1.1/DTD/svg11.dtd"><!-- Generated by graphviz version 2.40.1 (20161225.0304)
 --><!-- Title: G Pages: 1 --><svg xmlns="http://www.w3.org/2000/svg" xmlns:xlink="http://www.w3.org/1999/xlink" width="911pt" height="574pt" viewBox="0.00 0.00 910.93 574.00">
<g id="graph0" class="graph" transform="scale(1 1) rotate(0) translate(4 570)">
<title>G</title>
<polygon fill="#ffffff" stroke="transparent" points="-4,4 -4,-570 906.9324,-570 906.9324,4 -4,4"/>
<g id="clust1" class="cluster">
<title>cluster_v</title>
<polygon fill="none" stroke="#000000" points="14.9839,-157 14.9839,-558 124.7553,-558 124.7553,-157 14.9839,-157"/>
<text text-anchor="start" x="43.4355" y="-542.4" font-family="Times,serif" font-style="italic" font-size="14.00" fill="#000000">Validator</text>
</g>
<g id="clust2" class="cluster">
<title>cluster_m</title>
<polygon fill="none" stroke="#000000" points="241.9244,-157 241.9244,-558 391.0072,-558 391.0072,-157 241.9244,-157"/>
<text text-anchor="middle" x="316.4658" y="-541.4" font-family="Times,serif" font-size="14.00" fill="#000000">smallMarloweValidator</text>
</g>
<g id="clust3" class="cluster">
<title>cluster_s</title>
<polygon fill="none" stroke="#000000" points="539.6588,-157 539.6588,-558 676.6294,-558 676.6294,-157 539.6588,-157"/>
<text text-anchor="middle" x="608.1441" y="-541.4" font-family="Times,serif" font-size="14.00" fill="#000000">computeTransaction</text>
</g>
<g id="clust4" class="cluster">
<title>cluster_n</title>
<polygon fill="none" stroke="#000000" points="8,-8 8,-85 894.9324,-85 894.9324,-8 8,-8"/>
<text text-anchor="start" x="366.1285" y="-69.4" font-family="Times,serif" font-size="14.00" fill="#000000">MarloweData </text>
<text text-anchor="start" x="446.5865" y="-69.4" font-family="Times,serif" font-style="italic" font-size="14.00" fill="#000000">Output to Script</text>
</g>
<!-- Datum -->
<g id="node1" class="node">
<title>Datum</title>
<polygon fill="none" stroke="#000000" points="96.9721,-525 42.7671,-525 42.7671,-489 96.9721,-489 96.9721,-525"/>
<text text-anchor="middle" x="69.8696" y="-502.8" font-family="Times,serif" font-size="14.00" fill="#000000">Datum</text>
</g>
<!-- Redeemer -->
<g id="node2" class="node">
<title>Redeemer</title>
<polygon fill="none" stroke="#000000" points="106.1162,-417 33.623,-417 33.623,-381 106.1162,-381 106.1162,-417"/>
<text text-anchor="middle" x="69.8696" y="-394.8" font-family="Times,serif" font-size="14.00" fill="#000000">Redeemer</text>
</g>
<!-- Datum&#45;&gt;Redeemer -->
<g id="edge1" class="edge">
<title>Datum-&gt;Redeemer</title>
<path fill="none" stroke="#000000" d="M69.8696,-488.7473C69.8696,-468.235 69.8696,-447.7226 69.8696,-427.2103"/>
<polygon fill="#000000" stroke="#000000" points="73.3697,-427.1406 69.8696,-417.1406 66.3697,-427.1407 73.3697,-427.1406"/>
</g>
<!-- MarloweData -->
<g id="node6" class="node">
<title>MarloweData</title>
<polygon fill="none" stroke="#000000" points="362.4238,-525 269.5078,-525 269.5078,-489 362.4238,-489 362.4238,-525"/>
<text text-anchor="middle" x="315.9658" y="-502.8" font-family="Times,serif" font-size="14.00" fill="#000000">MarloweData</text>
</g>
<!-- Datum&#45;&gt;MarloweData -->
<g id="edge9" class="edge">
<title>Datum-&gt;MarloweData</title>
<path fill="none" stroke="#000000" stroke-dasharray="5,2" d="M97.1465,-507C136.0167,-507 208.2553,-507 259.072,-507"/>
<polygon fill="#000000" stroke="#000000" points="259.2519,-510.5001 269.2518,-507 259.2518,-503.5001 259.2519,-510.5001"/>
</g>
<!-- ScriptContext0 -->
<g id="node3" class="node">
<title>ScriptContext0</title>
<polygon fill="none" stroke="#000000" points="116.6413,-309 23.0979,-309 23.0979,-273 116.6413,-273 116.6413,-309"/>
<text text-anchor="middle" x="69.8696" y="-286.8" font-family="Times,serif" font-size="14.00" fill="#000000">ScriptContext</text>
</g>
<!-- Redeemer&#45;&gt;ScriptContext0 -->
<g id="edge2" class="edge">
<title>Redeemer-&gt;ScriptContext0</title>
<path fill="none" stroke="#000000" d="M69.8696,-380.7473C69.8696,-360.235 69.8696,-339.7226 69.8696,-319.2103"/>
<polygon fill="#000000" stroke="#000000" points="73.3697,-319.1406 69.8696,-309.1406 66.3697,-319.1407 73.3697,-319.1406"/>
</g>
<!-- MarloweInput -->
<g id="node7" class="node">
<title>MarloweInput</title>
<polygon fill="none" stroke="#000000" points="364.0486,-417 267.883,-417 267.883,-381 364.0486,-381 364.0486,-417"/>
<text text-anchor="middle" x="315.9658" y="-394.8" font-family="Times,serif" font-size="14.00" fill="#000000">MarloweInput</text>
</g>
<!-- Redeemer&#45;&gt;MarloweInput -->
<g id="edge10" class="edge">
<title>Redeemer-&gt;MarloweInput</title>
<path fill="none" stroke="#000000" stroke-dasharray="5,2" d="M106.1819,-399C146.0421,-399 210.6091,-399 257.5963,-399"/>
<polygon fill="#000000" stroke="#000000" points="257.6388,-402.5001 267.6387,-399 257.6387,-395.5001 257.6388,-402.5001"/>
</g>
<!-- Unit0 -->
<g id="node4" class="node">
<title>Unit0</title>
<polygon fill="none" stroke="#000000" points="96.8696,-201 42.8696,-201 42.8696,-165 96.8696,-165 96.8696,-201"/>
<text text-anchor="middle" x="69.8696" y="-178.8" font-family="Times,serif" font-size="14.00" fill="#000000">()</text>
</g>
<!-- ScriptContext0&#45;&gt;Unit0 -->
<g id="edge3" class="edge">
<title>ScriptContext0-&gt;Unit0</title>
<path fill="none" stroke="#000000" d="M69.8696,-272.7473C69.8696,-252.235 69.8696,-231.7226 69.8696,-211.2103"/>
<polygon fill="#000000" stroke="#000000" points="73.3697,-211.1406 69.8696,-201.1406 66.3697,-211.1407 73.3697,-211.1406"/>
</g>
<!-- ScriptContext -->
<g id="node8" class="node">
<title>ScriptContext</title>
<polygon fill="none" stroke="#000000" points="362.7375,-309 269.1941,-309 269.1941,-273 362.7375,-273 362.7375,-309"/>
<text text-anchor="middle" x="315.9658" y="-286.8" font-family="Times,serif" font-size="14.00" fill="#000000">ScriptContext</text>
</g>
<!-- ScriptContext0&#45;&gt;ScriptContext -->
<g id="edge11" class="edge">
<title>ScriptContext0-&gt;ScriptContext</title>
<path fill="none" stroke="#000000" stroke-dasharray="5,2" d="M116.7377,-291C157.1484,-291 215.6318,-291 258.7873,-291"/>
<polygon fill="#000000" stroke="#000000" points="258.8538,-294.5001 268.8537,-291 258.8537,-287.5001 258.8538,-294.5001"/>
</g>
<!-- Fail -->
<g id="node5" class="node">
<title>Fail</title>
<ellipse fill="none" stroke="#000000" cx="315.9658" cy="-111" rx="27" ry="18"/>
<text text-anchor="start" x="306.6376" y="-107.8" font-family="Times,serif" font-style="italic" font-size="14.00" fill="#000000">fail</text>
</g>
<!-- Unit0&#45;&gt;Fail -->
<!-- MarloweData&#45;&gt;MarloweInput -->
<g id="edge5" class="edge">
<title>MarloweData-&gt;MarloweInput</title>
<path fill="none" stroke="#000000" d="M315.9658,-488.7473C315.9658,-468.235 315.9658,-447.7226 315.9658,-427.2103"/>
<polygon fill="#000000" stroke="#000000" points="319.4659,-427.1406 315.9658,-417.1406 312.4659,-427.1407 319.4659,-427.1406"/>
</g>
<!-- TransactionInput -->
<g id="node10" class="node">
<title>TransactionInput</title>
<polygon fill="none" stroke="#000000" points="663.7787,-525 552.5095,-525 552.5095,-489 663.7787,-489 663.7787,-525"/>
<text text-anchor="middle" x="608.1441" y="-502.8" font-family="Times,serif" font-size="14.00" fill="#000000">TransactionInput</text>
</g>
<!-- MarloweData&#45;&gt;TransactionInput -->
<!-- State -->
<g id="node11" class="node">
<title>State</title>
<polygon fill="none" stroke="#000000" points="635.1441,-417 581.1441,-417 581.1441,-381 635.1441,-381 635.1441,-417"/>
<text text-anchor="middle" x="608.1441" y="-394.8" font-family="Times,serif" font-size="14.00" fill="#000000">State</text>
</g>
<!-- MarloweData&#45;&gt;State -->
<g id="edge20" class="edge">
<title>MarloweData-&gt;State</title>
<path fill="none" stroke="#000000" stroke-dasharray="5,2" d="M362.843,-512.7521C417.4829,-518.4446 503.6297,-523.9665 529.6588,-506 539.848,-498.9669 533.3516,-490.6538 539.6588,-480 551.5621,-459.8935 568.4897,-439.8199 582.5371,-424.6859"/>
<polygon fill="#000000" stroke="#000000" points="585.2453,-426.9163 589.5786,-417.2481 580.162,-422.1038 585.2453,-426.9163"/>
<text text-anchor="middle" x="465.333" y="-522.2" font-family="Times,serif" font-size="14.00" fill="#000000">marloweState</text>
</g>
<!-- Contract -->
<g id="node12" class="node">
<title>Contract</title>
<polygon fill="none" stroke="#000000" points="640.352,-309 575.9362,-309 575.9362,-273 640.352,-273 640.352,-309"/>
<text text-anchor="middle" x="608.1441" y="-286.8" font-family="Times,serif" font-size="14.00" fill="#000000">Contract</text>
</g>
<!-- MarloweData&#45;&gt;Contract -->
<g id="edge21" class="edge">
<title>MarloweData-&gt;Contract</title>
<path fill="none" stroke="#000000" stroke-dasharray="5,2" d="M362.5534,-494.1379C374.9887,-490.9573 388.4584,-487.7378 401.0072,-485.2 429.3395,-479.4702 509.6547,-486.8659 529.6588,-466 544.1964,-450.8362 531.4024,-391.3162 539.6588,-372 548.7191,-350.803 565.2939,-330.9685 579.8679,-316.2323"/>
<polygon fill="#000000" stroke="#000000" points="582.5514,-318.5036 587.2563,-309.0107 577.6585,-313.4976 582.5514,-318.5036"/>
<text text-anchor="middle" x="465.333" y="-489.2" font-family="Times,serif" font-size="14.00" fill="#000000">marloweContract</text>
</g>
<!-- MarloweParams -->
<g id="node14" class="node">
<title>MarloweParams</title>
<polygon fill="none" stroke="#000000" points="123.6091,-52 16.1301,-52 16.1301,-16 123.6091,-16 123.6091,-52"/>
<text text-anchor="middle" x="69.8696" y="-29.8" font-family="Times,serif" font-size="14.00" fill="#000000">MarloweParams</text>
</g>
<!-- MarloweData&#45;&gt;MarloweParams -->
<g id="edge28" class="edge">
<title>MarloweData-&gt;MarloweParams</title>
<path fill="none" stroke="#000000" stroke-dasharray="5,2" d="M292.1895,-488.9368C274.7688,-474.151 252.4074,-451.5596 241.9244,-426 219.6634,-371.7234 258.477,-214.5112 231.9244,-162.2 207.4974,-114.0763 155.816,-78.2406 117.3482,-56.8695"/>
<polygon fill="#000000" stroke="#000000" points="118.8323,-53.693 108.3721,-52.0097 115.4995,-59.8487 118.8323,-53.693"/>
<text text-anchor="middle" x="186.8318" y="-166.2" font-family="Times,serif" font-size="14.00" fill="#000000">marloweParams</text>
</g>
<!-- MarloweInput&#45;&gt;ScriptContext -->
<g id="edge6" class="edge">
<title>MarloweInput-&gt;ScriptContext</title>
<path fill="none" stroke="#000000" d="M315.9658,-380.7473C315.9658,-360.235 315.9658,-339.7226 315.9658,-319.2103"/>
<polygon fill="#000000" stroke="#000000" points="319.4659,-319.1406 315.9658,-309.1406 312.4659,-319.1407 319.4659,-319.1406"/>
</g>
<!-- MarloweInput&#45;&gt;TransactionInput -->
<g id="edge22" class="edge">
<title>MarloweInput-&gt;TransactionInput</title>
<path fill="none" stroke="#000000" stroke-dasharray="5,2" d="M364.1895,-405.1943C422.6122,-412.9352 515.0743,-426.0345 529.6588,-433.2 552.5967,-444.4695 573.4081,-464.7338 587.8282,-481.1803"/>
<polygon fill="#000000" stroke="#000000" points="585.2347,-483.5334 594.3751,-488.8912 590.5708,-479.0028 585.2347,-483.5334"/>
<text text-anchor="middle" x="465.333" y="-437.2" font-family="Times,serif" font-size="14.00" fill="#000000">txInputs</text>
</g>
<!-- MarloweInput&#45;&gt;State -->
<!-- Unit -->
<g id="node9" class="node">
<title>Unit</title>
<polygon fill="none" stroke="#000000" points="342.9658,-201 288.9658,-201 288.9658,-165 342.9658,-165 342.9658,-201"/>
<text text-anchor="middle" x="315.9658" y="-178.8" font-family="Times,serif" font-size="14.00" fill="#000000">Bool</text>
</g>
<!-- ScriptContext&#45;&gt;Unit -->
<g id="edge7" class="edge">
<title>ScriptContext-&gt;Unit</title>
<path fill="none" stroke="#000000" d="M315.9658,-272.7473C315.9658,-252.235 315.9658,-231.7226 315.9658,-211.2103"/>
<polygon fill="#000000" stroke="#000000" points="319.4659,-211.1406 315.9658,-201.1406 312.4659,-211.1407 319.4659,-211.1406"/>
</g>
<!-- ScriptContext&#45;&gt;TransactionInput -->
<g id="edge23" class="edge">
<title>ScriptContext-&gt;TransactionInput</title>
<path fill="none" stroke="#000000" stroke-dasharray="5,2" d="M354.6051,-309.141C369.045,-315.6881 385.6625,-322.9497 401.0072,-329 457.2519,-351.1769 490.0884,-327.4893 529.6588,-373.2 545.2908,-391.2576 529.388,-404.4373 539.6588,-426 549.5719,-446.8118 566.1655,-466.6379 580.536,-481.466"/>
<polygon fill="#000000" stroke="#000000" points="578.2589,-484.139 587.801,-488.7433 583.2129,-479.1934 578.2589,-484.139"/>
<text text-anchor="middle" x="465.333" y="-377.2" font-family="Times,serif" font-size="14.00" fill="#000000">txInterval</text>
</g>
<!-- ScriptContext&#45;&gt;TransactionInput -->
<g id="edge24" class="edge">
<title>ScriptContext-&gt;TransactionInput</title>
<path fill="none" stroke="#000000" stroke-dasharray="5,2" d="M362.8882,-291.6202C422.2244,-292.8812 518.103,-296.6946 529.6588,-308.2 548.2764,-326.7364 529.5909,-401.7338 539.6588,-426 548.4328,-447.1474 564.8376,-466.8589 579.3918,-481.5414"/>
<polygon fill="#000000" stroke="#000000" points="577.1784,-484.2713 586.7839,-488.7419 582.0628,-479.257 577.1784,-484.2713"/>
<text text-anchor="middle" x="465.333" y="-312.2" font-family="Times,serif" font-size="14.00" fill="#000000">txInfoData</text>
</g>
<!-- ScriptContext&#45;&gt;Contract -->
<!-- Unit&#45;&gt;Unit0 -->
<g id="edge12" class="edge">
<title>Unit-&gt;Unit0</title>
<path fill="none" stroke="#000000" stroke-dasharray="5,2" d="M288.9418,-183C244.827,-183 157.2543,-183 107.2235,-183"/>
<polygon fill="#000000" stroke="#000000" points="107.1465,-179.5001 97.1465,-183 107.1464,-186.5001 107.1465,-179.5001"/>
<text text-anchor="middle" x="186.8318" y="-187.2" font-family="Times,serif" font-size="14.00" fill="#000000">True</text>
</g>
<!-- Unit&#45;&gt;Fail -->
<g id="edge8" class="edge">
<title>Unit-&gt;Fail</title>
<path fill="none" stroke="#000000" stroke-dasharray="5,2" d="M315.9658,-164.5867C315.9658,-156.9407 315.9658,-147.8916 315.9658,-139.4274"/>
<polygon fill="#000000" stroke="#000000" points="319.4659,-139.1686 315.9658,-129.1686 312.4659,-139.1687 319.4659,-139.1686"/>
<text text-anchor="middle" x="304.5658" y="-142.8" font-family="Times,serif" font-size="14.00" fill="#000000">False</text>
</g>
<!-- TransactionOutput -->
<g id="node13" class="node">
<title>TransactionOutput</title>
<polygon fill="none" stroke="#000000" points="668.6147,-201 547.6735,-201 547.6735,-165 668.6147,-165 668.6147,-201"/>
<text text-anchor="middle" x="608.1441" y="-178.8" font-family="Times,serif" font-size="14.00" fill="#000000">TransactionOutput</text>
</g>
<!-- Unit&#45;&gt;TransactionOutput -->
<!-- TransactionInput&#45;&gt;State -->
<g id="edge13" class="edge">
<title>TransactionInput-&gt;State</title>
<path fill="none" stroke="#000000" d="M608.1441,-488.7473C608.1441,-468.235 608.1441,-447.7226 608.1441,-427.2103"/>
<polygon fill="#000000" stroke="#000000" points="611.6442,-427.1406 608.1441,-417.1406 604.6442,-427.1407 611.6442,-427.1406"/>
</g>
<!-- State&#45;&gt;Contract -->
<g id="edge14" class="edge">
<title>State-&gt;Contract</title>
<path fill="none" stroke="#000000" d="M608.1441,-380.7473C608.1441,-360.235 608.1441,-339.7226 608.1441,-319.2103"/>
<polygon fill="#000000" stroke="#000000" points="611.6442,-319.1406 608.1441,-309.1406 604.6442,-319.1407 611.6442,-319.1406"/>
</g>
<!-- Contract&#45;&gt;TransactionOutput -->
<g id="edge15" class="edge">
<title>Contract-&gt;TransactionOutput</title>
<path fill="none" stroke="#000000" d="M608.1441,-272.7473C608.1441,-252.235 608.1441,-231.7226 608.1441,-211.2103"/>
<polygon fill="#000000" stroke="#000000" points="611.6442,-211.1406 608.1441,-201.1406 604.6442,-211.1407 611.6442,-211.1406"/>
</g>
<!-- TransactionOutput&#45;&gt;Fail -->
<g id="edge31" class="edge">
<title>TransactionOutput-&gt;Fail</title>
<path fill="none" stroke="#000000" stroke-dasharray="5,2" d="M584.4234,-164.7827C569.52,-154.3285 549.4316,-141.9705 529.6588,-135.2 470.2675,-114.8636 396.711,-110.8014 353.2155,-110.4086"/>
<polygon fill="#000000" stroke="#000000" points="353.1047,-106.9083 343.0945,-110.3792 353.0843,-113.9083 353.1047,-106.9083"/>
<text text-anchor="middle" x="465.333" y="-139.2" font-family="Times,serif" font-size="14.00" fill="#000000">Error TransactionError</text>
</g>
<!-- TransactionOutput&#45;&gt;Unit -->
<g id="edge25" class="edge">
<title>TransactionOutput-&gt;Unit</title>
<path fill="none" stroke="#000000" stroke-dasharray="5,2" d="M547.6108,-165.2991C541.5867,-164.0384 535.5297,-162.9647 529.6588,-162.2 472.9593,-154.8143 457.7749,-155.3585 401.0072,-162.2 385.0682,-164.1209 367.8049,-167.9976 353.0234,-171.8892"/>
<polygon fill="#000000" stroke="#000000" points="351.9585,-168.5518 343.2333,-174.5619 353.8021,-175.3046 351.9585,-168.5518"/>
<text text-anchor="middle" x="465.333" y="-166.2" font-family="Times,serif" font-size="14.00" fill="#000000">TransactionOutput</text>
</g>
<!-- State1 -->
<g id="node15" class="node">
<title>State1</title>
<polygon fill="none" stroke="#000000" points="635.1441,-52 581.1441,-52 581.1441,-16 635.1441,-16 635.1441,-52"/>
<text text-anchor="middle" x="608.1441" y="-29.8" font-family="Times,serif" font-size="14.00" fill="#000000">State</text>
</g>
<!-- TransactionOutput&#45;&gt;State1 -->
<g id="edge29" class="edge">
<title>TransactionOutput-&gt;State1</title>
<path fill="none" stroke="#000000" stroke-dasharray="5,2" d="M608.1441,-164.5802C608.1441,-139.0292 608.1441,-92.5889 608.1441,-62.5331"/>
<polygon fill="#000000" stroke="#000000" points="611.6442,-62.2703 608.1441,-52.2703 604.6442,-62.2704 611.6442,-62.2703"/>
<path fill="none" stroke="#000000" stroke-dasharray="5,2" d="M608.1441,-164.5802C608.1441,-139.0292 608.1441,-92.5889 608.1441,-62.5331"/>
<polygon fill="#000000" stroke="#000000" points="611.6442,-62.2703 608.1441,-52.2703 604.6442,-62.2704 611.6442,-62.2703"/>
<text text-anchor="middle" x="619.5441" y="-104.3" font-family="Times,serif" font-size="14.00" fill="#000000">                          txOutState</text>
</g>
<!-- Contract1 -->
<g id="node16" class="node">
<title>Contract1</title>
<polygon fill="none" stroke="#000000" points="887.0365,-52 822.6207,-52 822.6207,-16 887.0365,-16 887.0365,-52"/>
<text text-anchor="middle" x="854.8286" y="-29.8" font-family="Times,serif" font-size="14.00" fill="#000000">Contract</text>
</g>
<!-- TransactionOutput&#45;&gt;Contract1 -->
<g id="edge30" class="edge">
<title>TransactionOutput-&gt;Contract1</title>
<path fill="none" stroke="#000000" stroke-dasharray="5,2" d="M638.3925,-164.7297C683.0848,-137.735 766.7635,-87.1923 815.9529,-57.4814"/>
<polygon fill="#000000" stroke="#000000" points="817.9689,-60.3526 824.7191,-52.1865 814.3497,-54.3608 817.9689,-60.3526"/>
<text text-anchor="middle" x="745.6771" y="-128.2" font-family="Times,serif" font-size="14.00" fill="#000000">txOutContract</text>
</g>
<!-- MarloweParams&#45;&gt;State1 -->
<g id="edge26" class="edge">
<title>MarloweParams-&gt;State1</title>
<path fill="none" stroke="#000000" d="M123.9459,-34C233.1745,-34 477.6437,-34 570.9666,-34"/>
<polygon fill="#000000" stroke="#000000" points="571.0666,-37.5001 581.0666,-34 571.0665,-30.5001 571.0666,-37.5001"/>
</g>
<!-- State1&#45;&gt;Contract1 -->
<g id="edge27" class="edge">
<title>State1-&gt;Contract1</title>
<path fill="none" stroke="#000000" d="M635.4862,-34C678.3498,-34 761.6937,-34 812.396,-34"/>
<polygon fill="#000000" stroke="#000000" points="812.6936,-37.5001 822.6936,-34 812.6936,-30.5001 812.6936,-37.5001"/>
</g>
</g>
</svg>