<?xml version="1.0" encoding="UTF-8" standalone="no"?><!DOCTYPE svg PUBLIC "-//W3C//DTD SVG 1.1//EN" "http://www.w3.org/Graphics/SVG/1.1/DTD/svg11.dtd"><!-- Generated by graphviz version 2.40.1 (20161225.0304)
 --><!-- Title: G Pages: 1 --><svg xmlns="http://www.w3.org/2000/svg" xmlns:xlink="http://www.w3.org/1999/xlink" width="811pt" height="619pt" viewBox="0.00 0.00 811.24 619.00">
<g id="graph0" class="graph" transform="scale(1 1) rotate(0) translate(4 615)">
<title>G</title>
<polygon fill="#ffffff" stroke="transparent" points="-4,4 -4,-615 807.2373,-615 807.2373,4 -4,4"/>
<g id="clust1" class="cluster">
<title>cluster_v</title>
<polygon fill="none" stroke="#000000" points="20.6347,-202 20.6347,-603 165.9983,-603 165.9983,-202 20.6347,-202"/>
<text text-anchor="start" x="66.8824" y="-587.4" font-family="Times,serif" font-style="italic" font-size="14.00" fill="#000000">Validator</text>
</g>
<g id="clust2" class="cluster">
<title>cluster_m</title>
<polygon fill="none" stroke="#000000" points="305.9825,-202 305.9825,-603 455.5348,-603 455.5348,-202 305.9825,-202"/>
<text text-anchor="middle" x="380.7587" y="-586.4" font-family="Times,serif" font-size="14.00" fill="#000000">smallMarloweValidator</text>
</g>
<g id="clust3" class="cluster">
<title>cluster_s</title>
<polygon fill="none" stroke="#000000" points="612.3507,-202 612.3507,-603 795.2373,-603 795.2373,-202 612.3507,-202"/>
<text text-anchor="middle" x="703.794" y="-586.4" font-family="Times,serif" font-size="14.00" fill="#000000">computeTransaction</text>
</g>
<g id="clust4" class="cluster">
<title>cluster_n</title>
<polygon fill="none" stroke="#000000" points="0,-8 0,-193 186.6331,-193 186.6331,-8 0,-8"/>
<text text-anchor="start" x="7.9788" y="-177.4" font-family="Times,serif" font-size="14.00" fill="#000000">MarloweData </text>
<text text-anchor="start" x="88.4368" y="-177.4" font-family="Times,serif" font-style="italic" font-size="14.00" fill="#000000">Output to Script</text>
</g>
<!-- Datum -->
<g id="node1" class="node">
<title>Datum</title>
<ellipse fill="none" stroke="#000000" cx="93.3165" cy="-552" rx="37.1386" ry="18"/>
<text text-anchor="middle" x="93.3165" y="-547.8" font-family="Times,serif" font-size="14.00" fill="#000000">Datum</text>
</g>
<!-- Redeemer -->
<g id="node2" class="node">
<title>Redeemer</title>
<ellipse fill="none" stroke="#000000" cx="93.3165" cy="-444" rx="50.3586" ry="18"/>
<text text-anchor="middle" x="93.3165" y="-439.8" font-family="Times,serif" font-size="14.00" fill="#000000">Redeemer</text>
</g>
<!-- Datum&#45;&gt;Redeemer -->
<g id="edge1" class="edge">
<title>Datum-&gt;Redeemer</title>
<path fill="none" stroke="#000000" d="M93.3165,-533.7473C93.3165,-513.235 93.3165,-492.7226 93.3165,-472.2103"/>
<polygon fill="#000000" stroke="#000000" points="96.8166,-472.1406 93.3165,-462.1406 89.8166,-472.1407 96.8166,-472.1406"/>
</g>
<!-- MarloweData -->
<g id="node6" class="node">
<title>MarloweData</title>
<ellipse fill="none" stroke="#000000" cx="380.2587" cy="-552" rx="64.2417" ry="18"/>
<text text-anchor="middle" x="380.2587" y="-547.8" font-family="Times,serif" font-size="14.00" fill="#000000">MarloweData</text>
</g>
<!-- Datum&#45;&gt;MarloweData -->
<g id="edge9" class="edge">
<title>Datum-&gt;MarloweData</title>
<path fill="none" stroke="#000000" stroke-dasharray="5,2" d="M130.8292,-552C175.0912,-552 249.7527,-552 305.8808,-552"/>
<polygon fill="#000000" stroke="#000000" points="306.134,-555.5001 316.134,-552 306.1339,-548.5001 306.134,-555.5001"/>
</g>
<!-- ScriptContext0 -->
<g id="node3" class="node">
<title>ScriptContext0</title>
<ellipse fill="none" stroke="#000000" cx="93.3165" cy="-336" rx="64.8641" ry="18"/>
<text text-anchor="middle" x="93.3165" y="-331.8" font-family="Times,serif" font-size="14.00" fill="#000000">ScriptContext</text>
</g>
<!-- Redeemer&#45;&gt;ScriptContext0 -->
<g id="edge2" class="edge">
<title>Redeemer-&gt;ScriptContext0</title>
<path fill="none" stroke="#000000" d="M93.3165,-425.7473C93.3165,-405.235 93.3165,-384.7226 93.3165,-364.2103"/>
<polygon fill="#000000" stroke="#000000" points="96.8166,-364.1406 93.3165,-354.1406 89.8166,-364.1407 96.8166,-364.1406"/>
</g>
<!-- MarloweInput -->
<g id="node7" class="node">
<title>MarloweInput</title>
<ellipse fill="none" stroke="#000000" cx="380.2587" cy="-444" rx="66.0531" ry="18"/>
<text text-anchor="middle" x="380.2587" y="-439.8" font-family="Times,serif" font-size="14.00" fill="#000000">MarloweInput</text>
</g>
<!-- Redeemer&#45;&gt;MarloweInput -->
<g id="edge10" class="edge">
<title>Redeemer-&gt;MarloweInput</title>
<path fill="none" stroke="#000000" stroke-dasharray="5,2" d="M143.6264,-444C187.8353,-444 252.8358,-444 303.5307,-444"/>
<polygon fill="#000000" stroke="#000000" points="303.7932,-447.5001 313.7932,-444 303.7932,-440.5001 303.7932,-447.5001"/>
</g>
<!-- Unit0 -->
<g id="node4" class="node">
<title>Unit0</title>
<ellipse fill="none" stroke="#000000" cx="93.3165" cy="-228" rx="27" ry="18"/>
<text text-anchor="middle" x="93.3165" y="-223.8" font-family="Times,serif" font-size="14.00" fill="#000000">()</text>
</g>
<!-- ScriptContext0&#45;&gt;Unit0 -->
<g id="edge3" class="edge">
<title>ScriptContext0-&gt;Unit0</title>
<path fill="none" stroke="#000000" d="M93.3165,-317.7473C93.3165,-297.235 93.3165,-276.7226 93.3165,-256.2103"/>
<polygon fill="#000000" stroke="#000000" points="96.8166,-256.1406 93.3165,-246.1406 89.8166,-256.1407 96.8166,-256.1406"/>
</g>
<!-- ScriptContext -->
<g id="node8" class="node">
<title>ScriptContext</title>
<ellipse fill="none" stroke="#000000" cx="380.2587" cy="-336" rx="64.8641" ry="18"/>
<text text-anchor="middle" x="380.2587" y="-331.8" font-family="Times,serif" font-size="14.00" fill="#000000">ScriptContext</text>
</g>
<!-- ScriptContext0&#45;&gt;ScriptContext -->
<g id="edge11" class="edge">
<title>ScriptContext0-&gt;ScriptContext</title>
<path fill="none" stroke="#000000" stroke-dasharray="5,2" d="M158.0697,-336C201.7126,-336 259.4306,-336 305.101,-336"/>
<polygon fill="#000000" stroke="#000000" points="305.2452,-339.5001 315.2451,-336 305.2451,-332.5001 305.2452,-339.5001"/>
</g>
<!-- Fail -->
<g id="node5" class="node">
<title>Fail</title>
<ellipse fill="none" stroke="#000000" cx="380.2587" cy="-151" rx="23.8111" ry="23.8111"/>
<text text-anchor="start" x="370.9305" y="-147.8" font-family="Times,serif" font-style="italic" font-size="14.00" fill="#000000">fail</text>
</g>
<!-- Unit0&#45;&gt;Fail -->
<!-- MarloweData&#45;&gt;MarloweInput -->
<g id="edge5" class="edge">
<title>MarloweData-&gt;MarloweInput</title>
<path fill="none" stroke="#000000" d="M380.2587,-533.7473C380.2587,-513.235 380.2587,-492.7226 380.2587,-472.2103"/>
<polygon fill="#000000" stroke="#000000" points="383.7588,-472.1406 380.2587,-462.1406 376.7588,-472.1407 383.7588,-472.1406"/>
</g>
<!-- TransactionInput -->
<g id="node10" class="node">
<title>TransactionInput</title>
<ellipse fill="none" stroke="#000000" cx="703.794" cy="-552" rx="77.0062" ry="18"/>
<text text-anchor="middle" x="703.794" y="-547.8" font-family="Times,serif" font-size="14.00" fill="#000000">TransactionInput</text>
</g>
<!-- MarloweData&#45;&gt;TransactionInput -->
<!-- State -->
<g id="node11" class="node">
<title>State</title>
<ellipse fill="none" stroke="#000000" cx="703.794" cy="-444" rx="30.1919" ry="18"/>
<text text-anchor="middle" x="703.794" y="-439.8" font-family="Times,serif" font-size="14.00" fill="#000000">State</text>
</g>
<!-- MarloweData&#45;&gt;State -->
<g id="edge20" class="edge">
<title>MarloweData-&gt;State</title>
<path fill="none" stroke="#000000" stroke-dasharray="5,2" d="M439.5538,-559.0495C496.3038,-564.5185 576.9233,-568.5479 602.3507,-551 612.5405,-543.9678 605.2934,-535.1724 612.3507,-525 629.3812,-500.4521 655.3592,-478.3926 675.2801,-463.5166"/>
<polygon fill="#000000" stroke="#000000" points="677.3843,-466.3139 683.403,-457.5946 673.2605,-460.6575 677.3843,-466.3139"/>
<text text-anchor="middle" x="538.0249" y="-567.2" font-family="Times,serif" font-size="14.00" fill="#000000">marloweState</text>
</g>
<!-- Contract -->
<g id="node12" class="node">
<title>Contract</title>
<ellipse fill="none" stroke="#000000" cx="703.794" cy="-336" rx="44.0795" ry="18"/>
<text text-anchor="middle" x="703.794" y="-331.8" font-family="Times,serif" font-size="14.00" fill="#000000">Contract</text>
</g>
<!-- MarloweData&#45;&gt;Contract -->
<g id="edge21" class="edge">
<title>MarloweData-&gt;Contract</title>
<path fill="none" stroke="#000000" stroke-dasharray="5,2" d="M428.5971,-539.9357C443.0523,-536.5411 458.973,-533.0119 473.6991,-530.2 502.092,-524.7785 582.3465,-531.8659 602.3507,-511 616.8883,-495.8362 602.726,-435.6722 612.3507,-417 625.2742,-391.9279 649.4511,-371.0443 669.7002,-356.7644"/>
<polygon fill="#000000" stroke="#000000" points="671.7932,-359.5738 678.0936,-351.0558 667.8565,-353.7856 671.7932,-359.5738"/>
<text text-anchor="middle" x="538.0249" y="-534.2" font-family="Times,serif" font-size="14.00" fill="#000000">marloweContract</text>
</g>
<!-- MarloweParams -->
<g id="node14" class="node">
<title>MarloweParams</title>
<ellipse fill="none" stroke="#000000" cx="93.3165" cy="-142" rx="74.1335" ry="18"/>
<text text-anchor="middle" x="93.3165" y="-137.8" font-family="Times,serif" font-size="14.00" fill="#000000">MarloweParams</text>
</g>
<!-- MarloweData&#45;&gt;MarloweParams -->
<g id="edge26" class="edge">
<title>MarloweData-&gt;MarloweParams</title>
<path fill="none" stroke="#000000" stroke-dasharray="5,2" d="M357.7059,-535.1462C339.8935,-520.401 316.2056,-497.2716 304.8183,-471 281.4504,-417.088 322.7029,-253.728 286.8183,-207.2 260.3735,-172.9117 215.111,-156.5005 175.0088,-148.7127"/>
<polygon fill="#000000" stroke="#000000" points="175.399,-145.2271 164.9392,-146.913 174.1673,-152.1179 175.399,-145.2271"/>
<text text-anchor="middle" x="241.7257" y="-211.2" font-family="Times,serif" font-size="14.00" fill="#000000">marloweParams</text>
</g>
<!-- MarloweInput&#45;&gt;ScriptContext -->
<g id="edge6" class="edge">
<title>MarloweInput-&gt;ScriptContext</title>
<path fill="none" stroke="#000000" d="M380.2587,-425.7473C380.2587,-405.235 380.2587,-384.7226 380.2587,-364.2103"/>
<polygon fill="#000000" stroke="#000000" points="383.7588,-364.1406 380.2587,-354.1406 376.7588,-364.1407 383.7588,-364.1406"/>
</g>
<!-- MarloweInput&#45;&gt;TransactionInput -->
<g id="edge22" class="edge">
<title>MarloweInput-&gt;TransactionInput</title>
<path fill="none" stroke="#000000" stroke-dasharray="5,2" d="M440.2399,-451.752C500.8397,-459.8218 587.5846,-472.1154 602.3507,-478.2 630.5418,-489.8167 658.2378,-510.7992 677.549,-527.4294"/>
<polygon fill="#000000" stroke="#000000" points="675.4723,-530.2644 685.2889,-534.2501 680.1004,-525.0127 675.4723,-530.2644"/>
<text text-anchor="middle" x="538.0249" y="-482.2" font-family="Times,serif" font-size="14.00" fill="#000000">txInputs</text>
</g>
<!-- MarloweInput&#45;&gt;State -->
<!-- Unit -->
<g id="node9" class="node">
<title>Unit</title>
<ellipse fill="none" stroke="#000000" cx="380.2587" cy="-228" rx="29.6358" ry="18"/>
<text text-anchor="middle" x="380.2587" y="-223.8" font-family="Times,serif" font-size="14.00" fill="#000000">Bool</text>
</g>
<!-- ScriptContext&#45;&gt;Unit -->
<g id="edge7" class="edge">
<title>ScriptContext-&gt;Unit</title>
<path fill="none" stroke="#000000" d="M380.2587,-317.7473C380.2587,-297.235 380.2587,-276.7226 380.2587,-256.2103"/>
<polygon fill="#000000" stroke="#000000" points="383.7588,-256.1406 380.2587,-246.1406 376.7588,-256.1407 383.7588,-256.1406"/>
</g>
<!-- ScriptContext&#45;&gt;TransactionInput -->
<g id="edge23" class="edge">
<title>ScriptContext-&gt;TransactionInput</title>
<path fill="none" stroke="#000000" stroke-dasharray="5,2" d="M416.0395,-351.0244C433.3736,-358.1816 454.5378,-366.7426 473.6991,-374 530.3749,-395.4661 562.7629,-373.3115 602.3507,-419.2 617.6667,-436.9537 600.7349,-450.6321 612.3507,-471 625.7128,-494.4301 648.3672,-514.5715 667.7833,-528.9092"/>
<polygon fill="#000000" stroke="#000000" points="665.9779,-531.9208 676.1496,-534.8849 670.0465,-526.2245 665.9779,-531.9208"/>
<text text-anchor="middle" x="538.0249" y="-423.2" font-family="Times,serif" font-size="14.00" fill="#000000">txInterval</text>
</g>
<!-- ScriptContext&#45;&gt;TransactionInput -->
<g id="edge24" class="edge">
<title>ScriptContext-&gt;TransactionInput</title>
<path fill="none" stroke="#000000" stroke-dasharray="5,2" d="M445.0355,-336.8242C506.5727,-338.2705 591.3204,-342.251 602.3507,-353.2 620.9963,-371.7082 600.563,-447.521 612.3507,-471 624.4237,-495.0474 646.9905,-515.1544 666.6842,-529.3201"/>
<polygon fill="#000000" stroke="#000000" points="664.6969,-532.2011 674.9094,-535.0215 668.6847,-526.4481 664.6969,-532.2011"/>
<text text-anchor="middle" x="538.0249" y="-357.2" font-family="Times,serif" font-size="14.00" fill="#000000">txInfoData</text>
</g>
<!-- ScriptContext&#45;&gt;Contract -->
<!-- Unit&#45;&gt;Unit0 -->
<g id="edge12" class="edge">
<title>Unit-&gt;Unit0</title>
<path fill="none" stroke="#000000" stroke-dasharray="5,2" d="M350.1928,-228C297.411,-228 188.2376,-228 130.6895,-228"/>
<polygon fill="#000000" stroke="#000000" points="130.5701,-224.5001 120.57,-228 130.57,-231.5001 130.5701,-224.5001"/>
<text text-anchor="middle" x="241.7257" y="-232.2" font-family="Times,serif" font-size="14.00" fill="#000000">True</text>
</g>
<!-- Unit&#45;&gt;Fail -->
<g id="edge8" class="edge">
<title>Unit-&gt;Fail</title>
<path fill="none" stroke="#000000" stroke-dasharray="5,2" d="M380.2587,-209.9469C380.2587,-202.5253 380.2587,-193.6755 380.2587,-185.1183"/>
<polygon fill="#000000" stroke="#000000" points="383.7588,-184.9412 380.2587,-174.9412 376.7588,-184.9412 383.7588,-184.9412"/>
<text text-anchor="middle" x="368.8587" y="-188.2527" font-family="Times,serif" font-size="14.00" fill="#000000">False</text>
</g>
<!-- TransactionOutput -->
<g id="node13" class="node">
<title>TransactionOutput</title>
<ellipse fill="none" stroke="#000000" cx="703.794" cy="-228" rx="83.3867" ry="18"/>
<text text-anchor="middle" x="703.794" y="-223.8" font-family="Times,serif" font-size="14.00" fill="#000000">TransactionOutput</text>
</g>
<!-- Unit&#45;&gt;TransactionOutput -->
<!-- TransactionInput&#45;&gt;State -->
<g id="edge13" class="edge">
<title>TransactionInput-&gt;State</title>
<path fill="none" stroke="#000000" d="M703.794,-533.7473C703.794,-513.235 703.794,-492.7226 703.794,-472.2103"/>
<polygon fill="#000000" stroke="#000000" points="707.2941,-472.1406 703.794,-462.1406 700.2941,-472.1407 707.2941,-472.1406"/>
</g>
<!-- State&#45;&gt;Contract -->
<g id="edge14" class="edge">
<title>State-&gt;Contract</title>
<path fill="none" stroke="#000000" d="M703.794,-425.7473C703.794,-405.235 703.794,-384.7226 703.794,-364.2103"/>
<polygon fill="#000000" stroke="#000000" points="707.2941,-364.1406 703.794,-354.1406 700.2941,-364.1407 707.2941,-364.1406"/>
</g>
<!-- Contract&#45;&gt;TransactionOutput -->
<g id="edge15" class="edge">
<title>Contract-&gt;TransactionOutput</title>
<path fill="none" stroke="#000000" d="M703.794,-317.7473C703.794,-297.235 703.794,-276.7226 703.794,-256.2103"/>
<polygon fill="#000000" stroke="#000000" points="707.2941,-256.1406 703.794,-246.1406 700.2941,-256.1407 707.2941,-256.1406"/>
</g>
<!-- TransactionOutput&#45;&gt;Fail -->
<g id="edge29" class="edge">
<title>TransactionOutput-&gt;Fail</title>
<path fill="none" stroke="#000000" stroke-dasharray="5,2" d="M673.6362,-211.2007C653.9263,-200.9564 627.3018,-188.4748 602.3507,-181.2 537.6417,-162.3333 458.8205,-155.1717 414.6104,-152.5129"/>
<polygon fill="#000000" stroke="#000000" points="414.5876,-149.0063 404.4079,-151.943 414.1971,-155.9954 414.5876,-149.0063"/>
<text text-anchor="middle" x="538.0249" y="-185.2" font-family="Times,serif" font-size="14.00" fill="#000000">Error TransactionError</text>
</g>
<!-- TransactionOutput&#45;&gt;Unit -->
<g id="edge25" class="edge">
<title>TransactionOutput-&gt;Unit</title>
<path fill="none" stroke="#000000" stroke-dasharray="5,2" d="M648.2959,-214.5132C633.4618,-211.4879 617.3751,-208.7245 602.3507,-207.2 545.4643,-201.428 530.535,-200.9506 473.6991,-207.2 454.9569,-209.2608 434.4747,-213.5802 417.4758,-217.7516"/>
<polygon fill="#000000" stroke="#000000" points="416.2221,-214.4586 407.3884,-220.3082 417.9419,-221.2441 416.2221,-214.4586"/>
<text text-anchor="middle" x="538.0249" y="-211.2" font-family="Times,serif" font-size="14.00" fill="#000000">TransactionOutput</text>
</g>
<!-- State1 -->
<g id="node15" class="node">
<title>State1</title>
<ellipse fill="none" stroke="#000000" cx="93.3165" cy="-88" rx="30.1919" ry="18"/>
<text text-anchor="middle" x="93.3165" y="-83.8" font-family="Times,serif" font-size="14.00" fill="#000000">State</text>
</g>
<!-- TransactionOutput&#45;&gt;State1 -->
<g id="edge27" class="edge">
<title>TransactionOutput-&gt;State1</title>
<path fill="none" stroke="#000000" stroke-dasharray="5,2" d="M683.6411,-210.2607C663.9953,-193.6804 632.7221,-169.1252 602.3507,-153 541.2974,-120.5847 523.6064,-114.1173 455.6991,-101.2 340.6358,-79.3127 201.4203,-82.2667 133.9294,-85.5154"/>
<polygon fill="#000000" stroke="#000000" points="133.5368,-82.0307 123.728,-86.0355 133.8933,-89.0217 133.5368,-82.0307"/>
<text text-anchor="middle" x="380.2587" y="-105.2" font-family="Times,serif" font-size="14.00" fill="#000000">                          txOutState</text>
</g>
<!-- Contract1 -->
<g id="node16" class="node">
<title>Contract1</title>
<ellipse fill="none" stroke="#000000" cx="93.3165" cy="-34" rx="44.0795" ry="18"/>
<text text-anchor="middle" x="93.3165" y="-29.8" font-family="Times,serif" font-size="14.00" fill="#000000">Contract</text>
</g>
<!-- TransactionOutput&#45;&gt;Contract1 -->
<g id="edge28" class="edge">
<title>TransactionOutput-&gt;Contract1</title>
<path fill="none" stroke="#000000" stroke-dasharray="5,2" d="M694.658,-210.0018C679.4635,-181.9625 646.2743,-128.1556 602.3507,-100 458.1218,-7.5475 243.4492,-16.7309 145.4693,-27.0392"/>
<polygon fill="#000000" stroke="#000000" points="144.79,-23.5927 135.2328,-28.1656 145.5557,-30.5507 144.79,-23.5927"/>
<text text-anchor="middle" x="380.2587" y="-44.2" font-family="Times,serif" font-size="14.00" fill="#000000">txOutContract</text>
</g>
</g>
</svg>