<?xml version="1.0" encoding="UTF-8" standalone="no"?>
<!DOCTYPE svg PUBLIC "-//W3C//DTD SVG 1.1//EN"
 "http://www.w3.org/Graphics/SVG/1.1/DTD/svg11.dtd">
<!-- Generated by graphviz version 2.43.0 (0)
 -->
<!-- Title: %3 Pages: 1 -->
<svg width="1362pt" height="508pt"
 viewBox="0.00 0.00 1361.78 507.87" xmlns="http://www.w3.org/2000/svg" xmlns:xlink="http://www.w3.org/1999/xlink">
<g id="graph0" class="graph" transform="scale(1 1) rotate(0) translate(4 503.87)">
<title>%3</title>
<polygon fill="white" stroke="transparent" points="-4,4 -4,-503.87 1357.78,-503.87 1357.78,4 -4,4"/>
<!-- Network -->
<g id="node1" class="node">
<title>Network</title>
<ellipse fill="none" stroke="black" cx="69" cy="-473" rx="60.21" ry="26.74"/>
<text text-anchor="middle" x="69" y="-476.8" font-family="Times-Roman" font-size="14.00">Mainnet</text>
<text text-anchor="middle" x="69" y="-461.8" font-family="Times-Roman" font-size="14.00">or Testnet</text>
</g>
<!-- AddressCommand -->
<g id="node4" class="node">
<title>AddressCommand</title>
<polygon fill="none" stroke="black" points="527,-433 279,-433 279,-397 527,-397 527,-433"/>
<text text-anchor="middle" x="403" y="-411.3" font-family="monospace" font-size="14.00">marlowe&#45;cli contract address</text>
</g>
<!-- Network&#45;&gt;AddressCommand -->
<g id="edge1" class="edge">
<title>Network&#45;&gt;AddressCommand</title>
<path fill="none" stroke="black" stroke-dasharray="5,2" d="M128.39,-468.24C164.46,-464.82 211.62,-459.48 253,-452 277.33,-447.6 303.58,-441.53 327.18,-435.58"/>
<polygon fill="black" stroke="black" points="328.29,-438.91 337.12,-433.05 326.56,-432.13 328.29,-438.91"/>
<text text-anchor="middle" x="204.5" y="-468" font-family="monospace" font-size="10.00">&#45;&#45;testnet&#45;magic</text>
</g>
<!-- ValidatorCommand -->
<g id="node6" class="node">
<title>ValidatorCommand</title>
<polygon fill="none" stroke="black" points="535,-366 271,-366 271,-330 535,-330 535,-366"/>
<text text-anchor="middle" x="403" y="-344.3" font-family="monospace" font-size="14.00">marlowe&#45;cli contract validator</text>
</g>
<!-- Network&#45;&gt;ValidatorCommand -->
<g id="edge5" class="edge">
<title>Network&#45;&gt;ValidatorCommand</title>
<path fill="none" stroke="black" stroke-dasharray="5,2" d="M122.63,-460.58C172.94,-448.35 242.66,-430.33 253,-422 266.32,-411.28 257.81,-398.89 271,-388 279.72,-380.8 289.73,-374.89 300.23,-370.05"/>
<polygon fill="black" stroke="black" points="301.76,-373.21 309.58,-366.06 299.01,-366.77 301.76,-373.21"/>
</g>
<!-- StakeAddress -->
<g id="node2" class="node">
<title>StakeAddress</title>
<ellipse fill="none" stroke="black" cx="69" cy="-399" rx="50.82" ry="26.74"/>
<text text-anchor="middle" x="69" y="-402.8" font-family="Times-Roman" font-size="14.00">Stake</text>
<text text-anchor="middle" x="69" y="-387.8" font-family="Times-Roman" font-size="14.00">Address</text>
</g>
<!-- StakeAddress&#45;&gt;AddressCommand -->
<g id="edge2" class="edge">
<title>StakeAddress&#45;&gt;AddressCommand</title>
<path fill="none" stroke="black" stroke-dasharray="5,2" d="M120.06,-401.41C159.54,-403.32 216.5,-406.06 268.9,-408.59"/>
<polygon fill="black" stroke="black" points="268.82,-412.09 278.97,-409.07 269.15,-405.09 268.82,-412.09"/>
<text text-anchor="middle" x="204.5" y="-410" font-family="monospace" font-size="10.00">&#45;&#45;stake&#45;address</text>
</g>
<!-- StakeAddress&#45;&gt;ValidatorCommand -->
<g id="edge6" class="edge">
<title>StakeAddress&#45;&gt;ValidatorCommand</title>
<path fill="none" stroke="black" stroke-dasharray="5,2" d="M105.86,-380.24C120.94,-373.24 138.91,-366.03 156,-362 189.44,-354.11 226.12,-349.8 260.7,-347.59"/>
<polygon fill="black" stroke="black" points="261.1,-351.07 270.88,-347 260.69,-344.08 261.1,-351.07"/>
</g>
<!-- RolesCurrency -->
<g id="node3" class="node">
<title>RolesCurrency</title>
<ellipse fill="none" stroke="black" cx="69" cy="-324" rx="55.72" ry="26.74"/>
<text text-anchor="middle" x="69" y="-327.8" font-family="Times-Roman" font-size="14.00">Currency</text>
<text text-anchor="middle" x="69" y="-312.8" font-family="Times-Roman" font-size="14.00">for Roles</text>
</g>
<!-- RolesCurrency&#45;&gt;AddressCommand -->
<g id="edge3" class="edge">
<title>RolesCurrency&#45;&gt;AddressCommand</title>
<path fill="none" stroke="black" stroke-dasharray="5,2" d="M117.92,-337.13C172.49,-352.09 262.36,-376.73 326.41,-394.28"/>
<polygon fill="black" stroke="black" points="325.49,-397.66 336.06,-396.92 327.34,-390.91 325.49,-397.66"/>
<text text-anchor="middle" x="204.5" y="-375" font-family="monospace" font-size="10.00">&#45;&#45;roles&#45;currency</text>
</g>
<!-- RolesCurrency&#45;&gt;ValidatorCommand -->
<g id="edge7" class="edge">
<title>RolesCurrency&#45;&gt;ValidatorCommand</title>
<path fill="none" stroke="black" stroke-dasharray="5,2" d="M124.45,-327.83C160.85,-330.4 209.8,-333.87 253,-337 255.55,-337.18 258.12,-337.37 260.71,-337.56"/>
<polygon fill="black" stroke="black" points="260.55,-341.06 270.78,-338.29 261.06,-334.08 260.55,-341.06"/>
</g>
<!-- ValidatorAddress -->
<g id="node5" class="node">
<title>ValidatorAddress</title>
<ellipse fill="none" stroke="black" cx="726.39" cy="-411" rx="54.39" ry="26.74"/>
<text text-anchor="middle" x="726.39" y="-414.8" font-family="Times-Roman" font-size="14.00">Validator</text>
<text text-anchor="middle" x="726.39" y="-399.8" font-family="Times-Roman" font-size="14.00">Address</text>
</g>
<!-- AddressCommand&#45;&gt;ValidatorAddress -->
<g id="edge4" class="edge">
<title>AddressCommand&#45;&gt;ValidatorAddress</title>
<path fill="none" stroke="black" d="M527.34,-413.46C572.97,-412.9 622.85,-412.28 661.14,-411.8"/>
<polygon fill="black" stroke="black" points="661.66,-415.29 671.62,-411.67 661.57,-408.29 661.66,-415.29"/>
<text text-anchor="middle" x="586.5" y="-416" font-family="monospace" font-size="10.00">/dev/stdout</text>
</g>
<!-- CardanoCLI -->
<g id="node18" class="node">
<title>CardanoCLI</title>
<polygon fill="none" stroke="black" points="1183.78,-262 977.78,-262 977.78,-226 1183.78,-226 1183.78,-262"/>
<text text-anchor="middle" x="1080.78" y="-240.3" font-family="monospace" font-size="14.00">marlowe&#45;cli transaction</text>
</g>
<!-- ValidatorAddress&#45;&gt;CardanoCLI -->
<g id="edge16" class="edge">
<title>ValidatorAddress&#45;&gt;CardanoCLI</title>
<path fill="none" stroke="black" d="M777.03,-400.88C825.51,-389.76 900.46,-369.22 959.78,-338 994.97,-319.48 1030.2,-290.31 1053.29,-269.38"/>
<polygon fill="black" stroke="black" points="1055.94,-271.69 1060.93,-262.35 1051.2,-266.54 1055.94,-271.69"/>
<text text-anchor="middle" x="896.28" y="-388" font-family="monospace" font-size="10.00">&#45;&#45;script&#45;address</text>
</g>
<!-- ValidatorCommand&#45;&gt;ValidatorAddress -->
<g id="edge8" class="edge">
<title>ValidatorCommand&#45;&gt;ValidatorAddress</title>
<path fill="none" stroke="black" d="M496.1,-366.05C550.65,-376.75 618.18,-389.98 665.78,-399.32"/>
<polygon fill="black" stroke="black" points="665.14,-402.76 675.62,-401.25 666.48,-395.89 665.14,-402.76"/>
<text text-anchor="middle" x="586.5" y="-391" font-family="monospace" font-size="10.00">/dev/stdout</text>
</g>
<!-- ValidatorFile -->
<g id="node7" class="node">
<title>ValidatorFile</title>
<polygon fill="none" stroke="black" points="796.39,-366 668.39,-366 668.39,-370 656.39,-370 656.39,-328 796.39,-328 796.39,-366"/>
<polyline fill="none" stroke="black" points="656.39,-366 668.39,-366 "/>
<text text-anchor="middle" x="726.39" y="-350.8" font-family="Times-Roman" font-size="14.00">Marlowe Validator</text>
<text text-anchor="middle" x="726.39" y="-335.8" font-family="Times-Roman" font-size="14.00">Plutus File</text>
</g>
<!-- ValidatorCommand&#45;&gt;ValidatorFile -->
<g id="edge9" class="edge">
<title>ValidatorCommand&#45;&gt;ValidatorFile</title>
<path fill="none" stroke="black" d="M535.18,-347.59C572.78,-347.47 612.6,-347.35 646.05,-347.25"/>
<polygon fill="black" stroke="black" points="646.22,-350.75 656.21,-347.22 646.2,-343.75 646.22,-350.75"/>
<text text-anchor="middle" x="586.5" y="-350" font-family="monospace" font-size="10.00">&#45;&#45;out&#45;file</text>
</g>
<!-- ValidatorFile&#45;&gt;CardanoCLI -->
<g id="edge17" class="edge">
<title>ValidatorFile&#45;&gt;CardanoCLI</title>
<path fill="none" stroke="black" d="M796.39,-332.46C842.96,-322.07 905.56,-306.97 959.78,-290 982.21,-282.98 1006.51,-273.95 1027.33,-265.74"/>
<polygon fill="black" stroke="black" points="1028.63,-268.99 1036.63,-262.05 1026.05,-262.49 1028.63,-268.99"/>
<text text-anchor="middle" x="896.28" y="-326" font-family="monospace" font-size="10.00">&#45;&#45;tx&#45;in&#45;script&#45;file</text>
</g>
<!-- ContractFile -->
<g id="node8" class="node">
<title>ContractFile</title>
<polygon fill="none" stroke="black" points="138,-156 12,-156 12,-160 0,-160 0,-118 138,-118 138,-156"/>
<polyline fill="none" stroke="black" points="0,-156 12,-156 "/>
<text text-anchor="middle" x="69" y="-140.8" font-family="Times-Roman" font-size="14.00">Marlowe Contract</text>
<text text-anchor="middle" x="69" y="-125.8" font-family="Times-Roman" font-size="14.00">JSON File</text>
</g>
<!-- DatumCommand -->
<g id="node10" class="node">
<title>DatumCommand</title>
<polygon fill="none" stroke="black" points="518.5,-183 287.5,-183 287.5,-147 518.5,-147 518.5,-183"/>
<text text-anchor="middle" x="403" y="-161.3" font-family="monospace" font-size="14.00">marlowe&#45;cli contract datum</text>
</g>
<!-- ContractFile&#45;&gt;DatumCommand -->
<g id="edge10" class="edge">
<title>ContractFile&#45;&gt;DatumCommand</title>
<path fill="none" stroke="black" d="M138.39,-142.77C178.44,-146.15 230.25,-150.51 277.32,-154.48"/>
<polygon fill="black" stroke="black" points="277.03,-157.97 287.29,-155.33 277.62,-151 277.03,-157.97"/>
<text text-anchor="middle" x="204.5" y="-154" font-family="monospace" font-size="10.00">&#45;&#45;contract&#45;file</text>
</g>
<!-- StateFile -->
<g id="node9" class="node">
<title>StateFile</title>
<polygon fill="none" stroke="black" points="126.5,-212 23.5,-212 23.5,-216 11.5,-216 11.5,-174 126.5,-174 126.5,-212"/>
<polyline fill="none" stroke="black" points="11.5,-212 23.5,-212 "/>
<text text-anchor="middle" x="69" y="-196.8" font-family="Times-Roman" font-size="14.00">Marlowe State</text>
<text text-anchor="middle" x="69" y="-181.8" font-family="Times-Roman" font-size="14.00">JSON File</text>
</g>
<!-- StateFile&#45;&gt;DatumCommand -->
<g id="edge11" class="edge">
<title>StateFile&#45;&gt;DatumCommand</title>
<path fill="none" stroke="black" d="M126.7,-188.22C167.93,-184.74 225.37,-179.9 277.11,-175.53"/>
<polygon fill="black" stroke="black" points="277.71,-178.99 287.38,-174.67 277.12,-172.02 277.71,-178.99"/>
<text text-anchor="middle" x="204.5" y="-188" font-family="monospace" font-size="10.00">&#45;&#45;state&#45;file</text>
</g>
<!-- DatumFile -->
<g id="node11" class="node">
<title>DatumFile</title>
<polygon fill="none" stroke="black" points="788.89,-310 675.89,-310 675.89,-314 663.89,-314 663.89,-272 788.89,-272 788.89,-310"/>
<polyline fill="none" stroke="black" points="663.89,-310 675.89,-310 "/>
<text text-anchor="middle" x="726.39" y="-294.8" font-family="Times-Roman" font-size="14.00">Marlowe Datum</text>
<text text-anchor="middle" x="726.39" y="-279.8" font-family="Times-Roman" font-size="14.00">JSON File</text>
</g>
<!-- DatumCommand&#45;&gt;DatumFile -->
<g id="edge12" class="edge">
<title>DatumCommand&#45;&gt;DatumFile</title>
<path fill="none" stroke="black" d="M444.16,-183.07C490.44,-203.6 568.99,-237.55 638,-263 643.14,-264.9 648.47,-266.79 653.86,-268.64"/>
<polygon fill="black" stroke="black" points="652.98,-272.04 663.57,-271.93 655.22,-265.41 652.98,-272.04"/>
<text text-anchor="middle" x="586.5" y="-258" font-family="monospace" font-size="10.00">&#45;&#45;out&#45;file</text>
</g>
<!-- DatumHash -->
<g id="node12" class="node">
<title>DatumHash</title>
<ellipse fill="none" stroke="black" cx="726.39" cy="-83" rx="88.28" ry="26.74"/>
<text text-anchor="middle" x="726.39" y="-86.8" font-family="Times-Roman" font-size="14.00">Marlowe Datum</text>
<text text-anchor="middle" x="726.39" y="-71.8" font-family="Times-Roman" font-size="14.00">Hash</text>
</g>
<!-- DatumCommand&#45;&gt;DatumHash -->
<g id="edge13" class="edge">
<title>DatumCommand&#45;&gt;DatumHash</title>
<path fill="none" stroke="black" d="M474.93,-146.9C526.25,-133.81 595.55,-116.13 648.24,-102.68"/>
<polygon fill="black" stroke="black" points="649.39,-106 658.21,-100.14 647.66,-99.22 649.39,-106"/>
<text text-anchor="middle" x="586.5" y="-129" font-family="monospace" font-size="10.00">/dev/stdout</text>
</g>
<!-- DatumFile&#45;&gt;CardanoCLI -->
<g id="edge18" class="edge">
<title>DatumFile&#45;&gt;CardanoCLI</title>
<path fill="none" stroke="black" d="M789.17,-282.76C838.34,-276.2 908.45,-266.85 967.49,-258.98"/>
<polygon fill="black" stroke="black" points="968.17,-262.42 977.62,-257.63 967.24,-255.48 968.17,-262.42"/>
<text text-anchor="middle" x="896.28" y="-278" font-family="monospace" font-size="10.00">&#45;&#45;tx&#45;in&#45;datum&#45;file</text>
</g>
<!-- InputsFile -->
<g id="node13" class="node">
<title>InputsFile</title>
<polygon fill="none" stroke="black" points="130.5,-38 19.5,-38 19.5,-42 7.5,-42 7.5,0 130.5,0 130.5,-38"/>
<polyline fill="none" stroke="black" points="7.5,-38 19.5,-38 "/>
<text text-anchor="middle" x="69" y="-22.8" font-family="Times-Roman" font-size="14.00">Marlowe Inputs</text>
<text text-anchor="middle" x="69" y="-7.8" font-family="Times-Roman" font-size="14.00">JSON File</text>
</g>
<!-- RedeemerCommand -->
<g id="node16" class="node">
<title>RedeemerCommand</title>
<polygon fill="none" stroke="black" points="531,-37 275,-37 275,-1 531,-1 531,-37"/>
<text text-anchor="middle" x="403" y="-15.3" font-family="monospace" font-size="14.00">marlowe&#45;cli contract redeemer</text>
</g>
<!-- InputsFile&#45;&gt;RedeemerCommand -->
<g id="edge14" class="edge">
<title>InputsFile&#45;&gt;RedeemerCommand</title>
<path fill="none" stroke="black" stroke-dasharray="5,2" d="M130.51,-19C168.06,-19 217.9,-19 264.63,-19"/>
<polygon fill="black" stroke="black" points="264.86,-22.5 274.86,-19 264.86,-15.5 264.86,-22.5"/>
<text text-anchor="middle" x="204.5" y="-22" font-family="monospace" font-size="10.00">&#45;&#45;inputs&#45;file</text>
</g>
<!-- MinSlot -->
<g id="node14" class="node">
<title>MinSlot</title>
<ellipse fill="none" stroke="black" cx="726.39" cy="-227" rx="57.05" ry="26.74"/>
<text text-anchor="middle" x="726.39" y="-230.8" font-family="Times-Roman" font-size="14.00">Minimum</text>
<text text-anchor="middle" x="726.39" y="-215.8" font-family="Times-Roman" font-size="14.00">Slot</text>
</g>
<!-- MinSlot&#45;&gt;CardanoCLI -->
<g id="edge20" class="edge">
<title>MinSlot&#45;&gt;CardanoCLI</title>
<path fill="none" stroke="black" d="M783.61,-229.71C832.94,-232.09 906.17,-235.62 967.46,-238.58"/>
<polygon fill="black" stroke="black" points="967.42,-242.08 977.58,-239.07 967.76,-235.09 967.42,-242.08"/>
<text text-anchor="middle" x="896.28" y="-241" font-family="monospace" font-size="10.00">&#45;&#45;invalid&#45;before</text>
</g>
<!-- MaxSlot -->
<g id="node15" class="node">
<title>MaxSlot</title>
<ellipse fill="none" stroke="black" cx="726.39" cy="-155" rx="60.21" ry="26.74"/>
<text text-anchor="middle" x="726.39" y="-158.8" font-family="Times-Roman" font-size="14.00">Maximum</text>
<text text-anchor="middle" x="726.39" y="-143.8" font-family="Times-Roman" font-size="14.00">Slot</text>
</g>
<!-- MaxSlot&#45;&gt;CardanoCLI -->
<g id="edge21" class="edge">
<title>MaxSlot&#45;&gt;CardanoCLI</title>
<path fill="none" stroke="black" d="M779.01,-168.04C836.77,-182.62 931.1,-206.45 998.72,-223.53"/>
<polygon fill="black" stroke="black" points="997.94,-226.94 1008.5,-226 999.66,-220.16 997.94,-226.94"/>
<text text-anchor="middle" x="896.28" y="-215" font-family="monospace" font-size="10.00">&#45;&#45;invalid&#45;hereafter</text>
</g>
<!-- RedeemerFile -->
<g id="node17" class="node">
<title>RedeemerFile</title>
<polygon fill="none" stroke="black" points="800.89,-38 663.89,-38 663.89,-42 651.89,-42 651.89,0 800.89,0 800.89,-38"/>
<polyline fill="none" stroke="black" points="651.89,-38 663.89,-38 "/>
<text text-anchor="middle" x="726.39" y="-22.8" font-family="Times-Roman" font-size="14.00">Marlowe Redeemer</text>
<text text-anchor="middle" x="726.39" y="-7.8" font-family="Times-Roman" font-size="14.00">JSON File</text>
</g>
<!-- RedeemerCommand&#45;&gt;RedeemerFile -->
<g id="edge15" class="edge">
<title>RedeemerCommand&#45;&gt;RedeemerFile</title>
<path fill="none" stroke="black" d="M531.02,-19C568.07,-19 607.62,-19 641.3,-19"/>
<polygon fill="black" stroke="black" points="641.56,-22.5 651.56,-19 641.56,-15.5 641.56,-22.5"/>
<text text-anchor="middle" x="586.5" y="-22" font-family="monospace" font-size="10.00">&#45;&#45;out&#45;file</text>
</g>
<!-- RedeemerFile&#45;&gt;CardanoCLI -->
<g id="edge19" class="edge">
<title>RedeemerFile&#45;&gt;CardanoCLI</title>
<path fill="none" stroke="black" d="M794.63,-38.03C801.57,-40.73 808.4,-43.72 814.78,-47 909.78,-95.82 1006.86,-177.92 1052.68,-219.01"/>
<polygon fill="black" stroke="black" points="1050.6,-221.84 1060.36,-225.95 1055.29,-216.65 1050.6,-221.84"/>
<text text-anchor="middle" x="896.28" y="-143" font-family="monospace" font-size="10.00">&#45;&#45;tx&#45;in&#45;redeemer&#45;file</text>
</g>
<!-- TxBodyFile -->
<g id="node19" class="node">
<title>TxBodyFile</title>
<polygon fill="none" stroke="black" points="1353.78,-263 1292.78,-263 1292.78,-267 1280.78,-267 1280.78,-225 1353.78,-225 1353.78,-263"/>
<polyline fill="none" stroke="black" points="1280.78,-263 1292.78,-263 "/>
<text text-anchor="middle" x="1317.28" y="-247.8" font-family="Times-Roman" font-size="14.00">Tx Body</text>
<text text-anchor="middle" x="1317.28" y="-232.8" font-family="Times-Roman" font-size="14.00">File</text>
</g>
<!-- CardanoCLI&#45;&gt;TxBodyFile -->
<g id="edge22" class="edge">
<title>CardanoCLI&#45;&gt;TxBodyFile</title>
<path fill="none" stroke="black" d="M1183.95,-244C1214.19,-244 1245.79,-244 1270.52,-244"/>
<polygon fill="black" stroke="black" points="1270.68,-247.5 1280.68,-244 1270.68,-240.5 1270.68,-247.5"/>
<text text-anchor="middle" x="1232.28" y="-247" font-family="monospace" font-size="10.00">&#45;&#45;out&#45;file</text>
</g>
</g>
</svg>
