<?xml version="1.0" encoding="UTF-8" standalone="no"?>
<!DOCTYPE svg PUBLIC "-//W3C//DTD SVG 1.1//EN"
 "http://www.w3.org/Graphics/SVG/1.1/DTD/svg11.dtd">
<!-- Generated by graphviz version 2.43.0 (0)
 -->
<!-- Title: MarloweHL Pages: 1 -->
<svg width="862pt" height="438pt"
 viewBox="0.00 0.00 862.00 438.00" xmlns="http://www.w3.org/2000/svg" xmlns:xlink="http://www.w3.org/1999/xlink">
<g id="graph0" class="graph" transform="scale(1 1) rotate(0) translate(4 434)">
<title>MarloweHL</title>
<polygon fill="white" stroke="transparent" points="-4,4 -4,-434 858,-434 858,4 -4,4"/>
<!-- UserSelect -->
<g id="node1" class="node">
<title>UserSelect</title>
<ellipse fill="none" stroke="black" cx="588.5" cy="-412" rx="215.26" ry="18"/>
<text text-anchor="middle" x="588.5" y="-408.3" font-family="Times-Roman" font-size="14.00">User decides on contract and its parameters.</text>
</g>
<!-- Template -->
<g id="node2" class="node">
<title>Template</title>
<polygon fill="none" stroke="black" points="717,-357 460,-357 460,-321 717,-321 717,-357"/>
<text text-anchor="start" x="505.5" y="-342.8" font-family="monospace" font-size="14.00">marlowe&#45;cli template</text>
<text text-anchor="start" x="468" y="-328.8" font-family="Times-Roman" font-style="italic" font-size="14.00">Create a contract from a template.</text>
</g>
<!-- UserSelect&#45;&gt;Template -->
<g id="edge1" class="edge">
<title>UserSelect&#45;&gt;Template</title>
<path fill="none" stroke="black" d="M588.5,-393.81C588.5,-385.79 588.5,-376.05 588.5,-367.07"/>
<polygon fill="black" stroke="black" points="592,-367.03 588.5,-357.03 585,-367.03 592,-367.03"/>
</g>
<!-- Initialize -->
<g id="node3" class="node">
<title>Initialize</title>
<polygon fill="none" stroke="black" points="779,-284 398,-284 398,-248 779,-248 779,-284"/>
<text text-anchor="start" x="481" y="-269.8" font-family="monospace" font-size="14.00">marlowe&#45;cli run initialize</text>
<text text-anchor="start" x="406" y="-255.8" font-family="Times-Roman" font-style="italic" font-size="14.00">Bundle the information needed to start the contract.</text>
</g>
<!-- Template&#45;&gt;Initialize -->
<g id="edge2" class="edge">
<title>Template&#45;&gt;Initialize</title>
<path fill="none" stroke="black" d="M588.5,-320.81C588.5,-312.79 588.5,-303.05 588.5,-294.07"/>
<polygon fill="black" stroke="black" points="592,-294.03 588.5,-284.03 585,-294.03 592,-294.03"/>
</g>
<!-- Execute -->
<g id="node4" class="node">
<title>Execute</title>
<polygon fill="none" stroke="black" points="854,-211 323,-211 323,-175 854,-175 854,-211"/>
<text text-anchor="start" x="493.5" y="-196.8" font-family="monospace" font-size="14.00">marlowe&#45;cli run execute</text>
<text text-anchor="start" x="331" y="-182.8" font-family="Times-Roman" font-style="italic" font-size="14.00">Submit to the blockchain the transaction for the next step of the contract.</text>
</g>
<!-- Initialize&#45;&gt;Execute -->
<g id="edge3" class="edge">
<title>Initialize&#45;&gt;Execute</title>
<path fill="none" stroke="black" d="M588.5,-247.81C588.5,-239.79 588.5,-230.05 588.5,-221.07"/>
<polygon fill="black" stroke="black" points="592,-221.03 588.5,-211.03 585,-221.03 592,-221.03"/>
</g>
<!-- Payments -->
<g id="node5" class="node">
<title>Payments</title>
<ellipse fill="none" stroke="black" cx="128.5" cy="-91" rx="57.69" ry="18"/>
<text text-anchor="middle" x="128.5" y="-87.3" font-family="Times-Roman" font-size="14.00">Payments.</text>
</g>
<!-- Execute&#45;&gt;Payments -->
<g id="edge4" class="edge">
<title>Execute&#45;&gt;Payments</title>
<path fill="none" stroke="black" d="M502.8,-174.94C423.04,-158.81 300.95,-133.5 195.5,-109 190.85,-107.92 186.03,-106.76 181.2,-105.58"/>
<polygon fill="black" stroke="black" points="181.88,-102.15 171.33,-103.14 180.19,-108.94 181.88,-102.15"/>
</g>
<!-- UserInput -->
<g id="node7" class="node">
<title>UserInput</title>
<ellipse fill="none" stroke="black" cx="409.5" cy="-91" rx="204.96" ry="18"/>
<text text-anchor="middle" x="409.5" y="-87.3" font-family="Times-Roman" font-size="14.00">User decides on next input to the contract.</text>
</g>
<!-- Execute&#45;&gt;UserInput -->
<g id="edge6" class="edge">
<title>Execute&#45;&gt;UserInput</title>
<path fill="none" stroke="black" d="M552.98,-174.88C541.85,-169.34 529.59,-163.07 518.5,-157 493.64,-143.4 466.24,-127.05 445.14,-114.16"/>
<polygon fill="black" stroke="black" points="446.86,-111.11 436.5,-108.86 443.2,-117.07 446.86,-111.11"/>
<text text-anchor="middle" x="566.5" y="-145.8" font-family="Times-Roman" font-size="14.00">Contract is</text>
<text text-anchor="middle" x="566.5" y="-130.8" font-family="Times-Roman" font-size="14.00">not complete.</text>
</g>
<!-- Close -->
<g id="node9" class="node">
<title>Close</title>
<ellipse fill="none" stroke="black" cx="671.5" cy="-91" rx="39.79" ry="18"/>
<text text-anchor="middle" x="671.5" y="-87.3" font-family="Times-Roman" font-size="14.00">Finish.</text>
</g>
<!-- Execute&#45;&gt;Close -->
<g id="edge9" class="edge">
<title>Execute&#45;&gt;Close</title>
<path fill="none" stroke="black" d="M602.96,-174.58C616.41,-158.37 636.58,-134.08 651.56,-116.03"/>
<polygon fill="black" stroke="black" points="654.34,-118.16 658.03,-108.23 648.95,-113.69 654.34,-118.16"/>
<text text-anchor="middle" x="680.5" y="-145.8" font-family="Times-Roman" font-size="14.00">Contract is</text>
<text text-anchor="middle" x="680.5" y="-130.8" font-family="Times-Roman" font-size="14.00">complete.</text>
</g>
<!-- Withdraw -->
<g id="node6" class="node">
<title>Withdraw</title>
<polygon fill="none" stroke="black" points="257,-36 0,-36 0,0 257,0 257,-36"/>
<text text-anchor="start" x="29" y="-21.8" font-family="monospace" font-size="14.00">marlowe&#45;cli run withdraw</text>
<text text-anchor="start" x="8" y="-7.8" font-family="Times-Roman" font-style="italic" font-size="14.00">Withdraw funds from the contract.</text>
</g>
<!-- Payments&#45;&gt;Withdraw -->
<g id="edge5" class="edge">
<title>Payments&#45;&gt;Withdraw</title>
<path fill="none" stroke="black" d="M128.5,-72.81C128.5,-64.79 128.5,-55.05 128.5,-46.07"/>
<polygon fill="black" stroke="black" points="132,-46.03 128.5,-36.03 125,-46.03 132,-46.03"/>
</g>
<!-- Prepare -->
<g id="node8" class="node">
<title>Prepare</title>
<polygon fill="none" stroke="black" points="789.5,-36 511.5,-36 511.5,0 789.5,0 789.5,-36"/>
<text text-anchor="start" x="555.5" y="-21.8" font-family="monospace" font-size="14.00">marlowe&#45;cli run prepare</text>
<text text-anchor="start" x="519.5" y="-7.8" font-family="Times-Roman" font-style="italic" font-size="14.00">Prepare the next step of the contract.</text>
</g>
<!-- UserInput&#45;&gt;Prepare -->
<g id="edge7" class="edge">
<title>UserInput&#45;&gt;Prepare</title>
<path fill="none" stroke="black" d="M465.09,-73.62C500.18,-63.28 545.74,-49.86 582.92,-38.91"/>
<polygon fill="black" stroke="black" points="584.07,-42.22 592.67,-36.04 582.09,-35.51 584.07,-42.22"/>
</g>
<!-- Prepare&#45;&gt;Execute -->
<g id="edge8" class="edge">
<title>Prepare&#45;&gt;Execute</title>
<path fill="none" stroke="black" d="M683.83,-36.05C697.73,-45.03 712.49,-57.44 720.5,-73 728.5,-88.54 728.69,-148.98 722.5,-157 718.11,-162.69 708.46,-167.63 696.26,-171.86"/>
<polygon fill="black" stroke="black" points="694.95,-168.6 686.47,-174.95 697.06,-175.27 694.95,-168.6"/>
</g>
</g>
</svg>
