<?xml version="1.0" encoding="UTF-8" standalone="no"?>
<!DOCTYPE svg PUBLIC "-//W3C//DTD SVG 1.1//EN"
 "http://www.w3.org/Graphics/SVG/1.1/DTD/svg11.dtd">
<!-- Generated by graphviz version 2.43.0 (0)
 -->
<!-- Title: %3 Pages: 1 -->
<svg width="1547pt" height="502pt"
 viewBox="0.00 0.00 1546.78 501.74" xmlns="http://www.w3.org/2000/svg" xmlns:xlink="http://www.w3.org/1999/xlink">
<g id="graph0" class="graph" transform="scale(1 1) rotate(0) translate(4 497.74)">
<title>%3</title>
<polygon fill="white" stroke="transparent" points="-4,4 -4,-497.74 1542.78,-497.74 1542.78,4 -4,4"/>
<!-- Network -->
<g id="node1" class="node">
<title>Network</title>
<ellipse fill="none" stroke="black" cx="69" cy="-466.87" rx="60.21" ry="26.74"/>
<text text-anchor="middle" x="69" y="-470.67" font-family="Times-Roman" font-size="14.00">Mainnet</text>
<text text-anchor="middle" x="69" y="-455.67" font-family="Times-Roman" font-size="14.00">or Testnet</text>
</g>
<!-- ExportCommand -->
<g id="node9" class="node">
<title>ExportCommand</title>
<polygon fill="none" stroke="black" points="519,-308.87 271,-308.87 271,-272.87 519,-272.87 519,-308.87"/>
<text text-anchor="middle" x="395" y="-287.17" font-family="monospace" font-size="14.00">marlowe&#45;cli contract marlowe</text>
</g>
<!-- Network&#45;&gt;ExportCommand -->
<g id="edge1" class="edge">
<title>Network&#45;&gt;ExportCommand</title>
<path fill="none" stroke="black" stroke-dasharray="5,2" d="M113.73,-448.59C151.33,-432.4 206.68,-407.41 253,-381.87 290.8,-361.02 332.08,-333.82 360.15,-314.61"/>
<polygon fill="black" stroke="black" points="362.16,-317.47 368.41,-308.92 358.19,-311.7 362.16,-317.47"/>
<text text-anchor="middle" x="204.5" y="-430.87" font-family="monospace" font-size="10.00">&#45;&#45;testnet&#45;magic</text>
</g>
<!-- StakeAddress -->
<g id="node2" class="node">
<title>StakeAddress</title>
<ellipse fill="none" stroke="black" cx="69" cy="-394.87" rx="50.82" ry="26.74"/>
<text text-anchor="middle" x="69" y="-398.67" font-family="Times-Roman" font-size="14.00">Stake</text>
<text text-anchor="middle" x="69" y="-383.67" font-family="Times-Roman" font-size="14.00">Address</text>
</g>
<!-- StakeAddress&#45;&gt;ExportCommand -->
<g id="edge2" class="edge">
<title>StakeAddress&#45;&gt;ExportCommand</title>
<path fill="none" stroke="black" stroke-dasharray="5,2" d="M113.02,-381.06C168.04,-363.4 263.85,-332.65 328.09,-312.03"/>
<polygon fill="black" stroke="black" points="329.27,-315.32 337.73,-308.93 327.13,-308.66 329.27,-315.32"/>
<text text-anchor="middle" x="204.5" y="-369.87" font-family="monospace" font-size="10.00">&#45;&#45;stake&#45;address</text>
</g>
<!-- RolesCurrency -->
<g id="node3" class="node">
<title>RolesCurrency</title>
<ellipse fill="none" stroke="black" cx="69" cy="-322.87" rx="55.72" ry="26.74"/>
<text text-anchor="middle" x="69" y="-326.67" font-family="Times-Roman" font-size="14.00">Currency</text>
<text text-anchor="middle" x="69" y="-311.67" font-family="Times-Roman" font-size="14.00">for Roles</text>
</g>
<!-- RolesCurrency&#45;&gt;ExportCommand -->
<g id="edge3" class="edge">
<title>RolesCurrency&#45;&gt;ExportCommand</title>
<path fill="none" stroke="black" stroke-dasharray="5,2" d="M123.87,-317.55C161.24,-313.86 212.76,-308.77 260.78,-304.03"/>
<polygon fill="black" stroke="black" points="261.37,-307.49 270.97,-303.02 260.68,-300.52 261.37,-307.49"/>
<text text-anchor="middle" x="204.5" y="-316.87" font-family="monospace" font-size="10.00">&#45;&#45;roles&#45;currency</text>
</g>
<!-- ContractFile -->
<g id="node4" class="node">
<title>ContractFile</title>
<polygon fill="none" stroke="black" points="138,-277.87 12,-277.87 12,-281.87 0,-281.87 0,-239.87 138,-239.87 138,-277.87"/>
<polyline fill="none" stroke="black" points="0,-277.87 12,-277.87 "/>
<text text-anchor="middle" x="69" y="-262.67" font-family="Times-Roman" font-size="14.00">Marlowe Contract</text>
<text text-anchor="middle" x="69" y="-247.67" font-family="Times-Roman" font-size="14.00">JSON File</text>
</g>
<!-- ContractFile&#45;&gt;ExportCommand -->
<g id="edge4" class="edge">
<title>ContractFile&#45;&gt;ExportCommand</title>
<path fill="none" stroke="black" d="M138.32,-265.62C173.9,-269.13 218.66,-273.55 260.75,-277.71"/>
<polygon fill="black" stroke="black" points="260.52,-281.2 270.82,-278.7 261.21,-274.24 260.52,-281.2"/>
<text text-anchor="middle" x="204.5" y="-278.87" font-family="monospace" font-size="10.00">&#45;&#45;contract&#45;file</text>
</g>
<!-- StateFile -->
<g id="node5" class="node">
<title>StateFile</title>
<polygon fill="none" stroke="black" points="126.5,-221.87 23.5,-221.87 23.5,-225.87 11.5,-225.87 11.5,-183.87 126.5,-183.87 126.5,-221.87"/>
<polyline fill="none" stroke="black" points="11.5,-221.87 23.5,-221.87 "/>
<text text-anchor="middle" x="69" y="-206.67" font-family="Times-Roman" font-size="14.00">Marlowe State</text>
<text text-anchor="middle" x="69" y="-191.67" font-family="Times-Roman" font-size="14.00">JSON File</text>
</g>
<!-- StateFile&#45;&gt;ExportCommand -->
<g id="edge5" class="edge">
<title>StateFile&#45;&gt;ExportCommand</title>
<path fill="none" stroke="black" d="M126.5,-217.87C162.69,-227.51 210.63,-240.34 253,-251.87 274.57,-257.74 297.98,-264.19 319.41,-270.11"/>
<polygon fill="black" stroke="black" points="318.53,-273.5 329.1,-272.8 320.4,-266.76 318.53,-273.5"/>
<text text-anchor="middle" x="204.5" y="-254.87" font-family="monospace" font-size="10.00">&#45;&#45;state&#45;file</text>
</g>
<!-- InputsFile -->
<g id="node6" class="node">
<title>InputsFile</title>
<polygon fill="none" stroke="black" points="130.5,-165.87 19.5,-165.87 19.5,-169.87 7.5,-169.87 7.5,-127.87 130.5,-127.87 130.5,-165.87"/>
<polyline fill="none" stroke="black" points="7.5,-165.87 19.5,-165.87 "/>
<text text-anchor="middle" x="69" y="-150.67" font-family="Times-Roman" font-size="14.00">Marlowe Inputs</text>
<text text-anchor="middle" x="69" y="-135.67" font-family="Times-Roman" font-size="14.00">JSON File</text>
</g>
<!-- InputsFile&#45;&gt;ExportCommand -->
<g id="edge6" class="edge">
<title>InputsFile&#45;&gt;ExportCommand</title>
<path fill="none" stroke="black" stroke-dasharray="5,2" d="M130.82,-165.11C166.95,-176.68 213.31,-192.85 253,-210.87 289.54,-227.46 329.11,-250.38 357,-267.44"/>
<polygon fill="black" stroke="black" points="355.28,-270.49 365.63,-272.76 358.95,-264.53 355.28,-270.49"/>
<text text-anchor="middle" x="204.5" y="-213.87" font-family="monospace" font-size="10.00">&#45;&#45;inputs&#45;file</text>
</g>
<!-- MinSlot -->
<g id="node7" class="node">
<title>MinSlot</title>
<ellipse fill="none" stroke="black" cx="911.39" cy="-98.87" rx="57.05" ry="26.74"/>
<text text-anchor="middle" x="911.39" y="-102.67" font-family="Times-Roman" font-size="14.00">Minimum</text>
<text text-anchor="middle" x="911.39" y="-87.67" font-family="Times-Roman" font-size="14.00">Slot</text>
</g>
<!-- CardanoCLI -->
<g id="node17" class="node">
<title>CardanoCLI</title>
<polygon fill="none" stroke="black" points="1368.78,-213.87 1162.78,-213.87 1162.78,-177.87 1368.78,-177.87 1368.78,-213.87"/>
<text text-anchor="middle" x="1265.78" y="-192.17" font-family="monospace" font-size="14.00">marlowe&#45;cli transaction</text>
</g>
<!-- MinSlot&#45;&gt;CardanoCLI -->
<g id="edge18" class="edge">
<title>MinSlot&#45;&gt;CardanoCLI</title>
<path fill="none" stroke="black" d="M962.43,-111.08C1009.62,-122.76 1082.23,-141.16 1144.78,-158.87 1162.14,-163.78 1180.81,-169.39 1198.14,-174.72"/>
<polygon fill="black" stroke="black" points="1197.58,-178.21 1208.17,-177.82 1199.65,-171.52 1197.58,-178.21"/>
<text text-anchor="middle" x="1081.28" y="-161.87" font-family="monospace" font-size="10.00">&#45;&#45;invalid&#45;before</text>
</g>
<!-- MaxSlot -->
<g id="node8" class="node">
<title>MaxSlot</title>
<ellipse fill="none" stroke="black" cx="911.39" cy="-26.87" rx="60.21" ry="26.74"/>
<text text-anchor="middle" x="911.39" y="-30.67" font-family="Times-Roman" font-size="14.00">Maximum</text>
<text text-anchor="middle" x="911.39" y="-15.67" font-family="Times-Roman" font-size="14.00">Slot</text>
</g>
<!-- MaxSlot&#45;&gt;CardanoCLI -->
<g id="edge19" class="edge">
<title>MaxSlot&#45;&gt;CardanoCLI</title>
<path fill="none" stroke="black" d="M962.99,-40.84C1011.2,-55.15 1085.08,-79.67 1144.78,-110.87 1177.57,-128.01 1211.69,-152.98 1235.12,-171.42"/>
<polygon fill="black" stroke="black" points="1232.94,-174.16 1242.95,-177.65 1237.3,-168.69 1232.94,-174.16"/>
<text text-anchor="middle" x="1081.28" y="-113.87" font-family="monospace" font-size="10.00">&#45;&#45;invalid&#45;hereafter</text>
</g>
<!-- MarloweFile -->
<g id="node10" class="node">
<title>MarloweFile</title>
<polygon fill="none" stroke="black" points="695,-309.87 628,-309.87 628,-313.87 616,-313.87 616,-271.87 695,-271.87 695,-309.87"/>
<polyline fill="none" stroke="black" points="616,-309.87 628,-309.87 "/>
<text text-anchor="middle" x="655.5" y="-294.67" font-family="Times-Roman" font-size="14.00">Marlowe</text>
<text text-anchor="middle" x="655.5" y="-279.67" font-family="Times-Roman" font-size="14.00">JSON File</text>
</g>
<!-- ExportCommand&#45;&gt;MarloweFile -->
<g id="edge7" class="edge">
<title>ExportCommand&#45;&gt;MarloweFile</title>
<path fill="none" stroke="black" d="M519.19,-290.87C549.91,-290.87 581.09,-290.87 605.77,-290.87"/>
<polygon fill="black" stroke="black" points="605.92,-294.37 615.92,-290.87 605.92,-287.37 605.92,-294.37"/>
<text text-anchor="middle" x="567.5" y="-293.87" font-family="monospace" font-size="10.00">&#45;&#45;out&#45;file</text>
</g>
<!-- JQ -->
<g id="node11" class="node">
<title>JQ</title>
<polygon fill="none" stroke="black" points="786,-308.87 732,-308.87 732,-272.87 786,-272.87 786,-308.87"/>
<text text-anchor="middle" x="759" y="-287.17" font-family="monospace" font-size="14.00">jq</text>
</g>
<!-- MarloweFile&#45;&gt;JQ -->
<g id="edge8" class="edge">
<title>MarloweFile&#45;&gt;JQ</title>
<path fill="none" stroke="black" d="M695.16,-290.87C703.85,-290.87 713.03,-290.87 721.62,-290.87"/>
<polygon fill="black" stroke="black" points="721.72,-294.37 731.72,-290.87 721.72,-287.37 721.72,-294.37"/>
</g>
<!-- ValidatorAddress -->
<g id="node12" class="node">
<title>ValidatorAddress</title>
<ellipse fill="none" stroke="black" cx="911.39" cy="-410.87" rx="54.39" ry="26.74"/>
<text text-anchor="middle" x="911.39" y="-414.67" font-family="Times-Roman" font-size="14.00">Validator</text>
<text text-anchor="middle" x="911.39" y="-399.67" font-family="Times-Roman" font-size="14.00">Address</text>
</g>
<!-- JQ&#45;&gt;ValidatorAddress -->
<g id="edge9" class="edge">
<title>JQ&#45;&gt;ValidatorAddress</title>
<path fill="none" stroke="black" d="M769.8,-309.21C780.63,-327.95 799.65,-356.79 823,-374.87 832.53,-382.25 843.78,-388.36 854.98,-393.32"/>
<polygon fill="black" stroke="black" points="853.77,-396.6 864.34,-397.21 856.46,-390.14 853.77,-396.6"/>
</g>
<!-- ValidatorFile -->
<g id="node13" class="node">
<title>ValidatorFile</title>
<polygon fill="none" stroke="black" points="981.39,-365.87 853.39,-365.87 853.39,-369.87 841.39,-369.87 841.39,-327.87 981.39,-327.87 981.39,-365.87"/>
<polyline fill="none" stroke="black" points="841.39,-365.87 853.39,-365.87 "/>
<text text-anchor="middle" x="911.39" y="-350.67" font-family="Times-Roman" font-size="14.00">Marlowe Validator</text>
<text text-anchor="middle" x="911.39" y="-335.67" font-family="Times-Roman" font-size="14.00">Plutus File</text>
</g>
<!-- JQ&#45;&gt;ValidatorFile -->
<g id="edge10" class="edge">
<title>JQ&#45;&gt;ValidatorFile</title>
<path fill="none" stroke="black" d="M786.1,-303.23C797.34,-308.35 810.7,-314.18 823,-318.87 828.02,-320.79 833.24,-322.68 838.52,-324.53"/>
<polygon fill="black" stroke="black" points="837.45,-327.86 848.04,-327.81 839.72,-321.24 837.45,-327.86"/>
</g>
<!-- DatumFile -->
<g id="node14" class="node">
<title>DatumFile</title>
<polygon fill="none" stroke="black" points="973.89,-309.87 860.89,-309.87 860.89,-313.87 848.89,-313.87 848.89,-271.87 973.89,-271.87 973.89,-309.87"/>
<polyline fill="none" stroke="black" points="848.89,-309.87 860.89,-309.87 "/>
<text text-anchor="middle" x="911.39" y="-294.67" font-family="Times-Roman" font-size="14.00">Marlowe Datum</text>
<text text-anchor="middle" x="911.39" y="-279.67" font-family="Times-Roman" font-size="14.00">JSON File</text>
</g>
<!-- JQ&#45;&gt;DatumFile -->
<g id="edge11" class="edge">
<title>JQ&#45;&gt;DatumFile</title>
<path fill="none" stroke="black" d="M786.2,-290.87C800.82,-290.87 819.82,-290.87 838.55,-290.87"/>
<polygon fill="black" stroke="black" points="838.59,-294.37 848.59,-290.87 838.59,-287.37 838.59,-294.37"/>
</g>
<!-- DatumHash -->
<g id="node15" class="node">
<title>DatumHash</title>
<ellipse fill="none" stroke="black" cx="911.39" cy="-226.87" rx="88.28" ry="26.74"/>
<text text-anchor="middle" x="911.39" y="-230.67" font-family="Times-Roman" font-size="14.00">Marlowe Datum</text>
<text text-anchor="middle" x="911.39" y="-215.67" font-family="Times-Roman" font-size="14.00">Hash</text>
</g>
<!-- JQ&#45;&gt;DatumHash -->
<g id="edge12" class="edge">
<title>JQ&#45;&gt;DatumHash</title>
<path fill="none" stroke="black" d="M786.29,-278.99C797.56,-273.95 810.9,-268.05 823,-262.87 831.11,-259.4 839.67,-255.8 848.13,-252.27"/>
<polygon fill="black" stroke="black" points="849.71,-255.4 857.61,-248.34 847.03,-248.94 849.71,-255.4"/>
</g>
<!-- RedeemerFile -->
<g id="node16" class="node">
<title>RedeemerFile</title>
<polygon fill="none" stroke="black" points="985.89,-181.87 848.89,-181.87 848.89,-185.87 836.89,-185.87 836.89,-143.87 985.89,-143.87 985.89,-181.87"/>
<polyline fill="none" stroke="black" points="836.89,-181.87 848.89,-181.87 "/>
<text text-anchor="middle" x="911.39" y="-166.67" font-family="Times-Roman" font-size="14.00">Marlowe Redeemer</text>
<text text-anchor="middle" x="911.39" y="-151.67" font-family="Times-Roman" font-size="14.00">JSON File</text>
</g>
<!-- JQ&#45;&gt;RedeemerFile -->
<g id="edge13" class="edge">
<title>JQ&#45;&gt;RedeemerFile</title>
<path fill="none" stroke="black" d="M766.89,-272.62C776.25,-250.2 795.1,-212.49 823,-190.87 824.61,-189.63 826.27,-188.44 827.98,-187.3"/>
<polygon fill="black" stroke="black" points="830.05,-190.14 836.87,-182.03 826.49,-184.11 830.05,-190.14"/>
</g>
<!-- ValidatorAddress&#45;&gt;CardanoCLI -->
<g id="edge14" class="edge">
<title>ValidatorAddress&#45;&gt;CardanoCLI</title>
<path fill="none" stroke="black" d="M963.47,-402.42C1013.03,-392.4 1088.77,-372.15 1144.78,-334.87 1189.7,-304.96 1227.69,-253.82 1248.26,-222.61"/>
<polygon fill="black" stroke="black" points="1251.35,-224.29 1253.84,-213.99 1245.47,-220.49 1251.35,-224.29"/>
<text text-anchor="middle" x="1081.28" y="-391.87" font-family="monospace" font-size="10.00">&#45;&#45;script&#45;address</text>
</g>
<!-- ValidatorFile&#45;&gt;CardanoCLI -->
<g id="edge15" class="edge">
<title>ValidatorFile&#45;&gt;CardanoCLI</title>
<path fill="none" stroke="black" d="M981.4,-330.95C1028.66,-318.74 1092.07,-299.77 1144.78,-274.87 1176.71,-259.78 1210.04,-237.21 1233.44,-220.06"/>
<polygon fill="black" stroke="black" points="1235.65,-222.78 1241.59,-214 1231.48,-217.16 1235.65,-222.78"/>
<text text-anchor="middle" x="1081.28" y="-322.87" font-family="monospace" font-size="10.00">&#45;&#45;tx&#45;in&#45;script&#45;file</text>
</g>
<!-- DatumFile&#45;&gt;CardanoCLI -->
<g id="edge16" class="edge">
<title>DatumFile&#45;&gt;CardanoCLI</title>
<path fill="none" stroke="black" d="M974.17,-274.21C1033.78,-258.14 1124.18,-233.77 1188.3,-216.49"/>
<polygon fill="black" stroke="black" points="1189.22,-219.87 1197.96,-213.88 1187.39,-213.11 1189.22,-219.87"/>
<text text-anchor="middle" x="1081.28" y="-262.87" font-family="monospace" font-size="10.00">&#45;&#45;tx&#45;in&#45;datum&#45;file</text>
</g>
<!-- RedeemerFile&#45;&gt;CardanoCLI -->
<g id="edge17" class="edge">
<title>RedeemerFile&#45;&gt;CardanoCLI</title>
<path fill="none" stroke="black" d="M986.26,-169.79C1034.42,-174.3 1098.2,-180.27 1152.57,-185.36"/>
<polygon fill="black" stroke="black" points="1152.32,-188.85 1162.6,-186.3 1152.97,-181.88 1152.32,-188.85"/>
<text text-anchor="middle" x="1081.28" y="-186.87" font-family="monospace" font-size="10.00">&#45;&#45;tx&#45;in&#45;redeemer&#45;file</text>
</g>
<!-- TxBodyFile -->
<g id="node18" class="node">
<title>TxBodyFile</title>
<polygon fill="none" stroke="black" points="1538.78,-214.87 1477.78,-214.87 1477.78,-218.87 1465.78,-218.87 1465.78,-176.87 1538.78,-176.87 1538.78,-214.87"/>
<polyline fill="none" stroke="black" points="1465.78,-214.87 1477.78,-214.87 "/>
<text text-anchor="middle" x="1502.28" y="-199.67" font-family="Times-Roman" font-size="14.00">Tx Body</text>
<text text-anchor="middle" x="1502.28" y="-184.67" font-family="Times-Roman" font-size="14.00">File</text>
</g>
<!-- CardanoCLI&#45;&gt;TxBodyFile -->
<g id="edge20" class="edge">
<title>CardanoCLI&#45;&gt;TxBodyFile</title>
<path fill="none" stroke="black" d="M1368.95,-195.87C1399.19,-195.87 1430.79,-195.87 1455.52,-195.87"/>
<polygon fill="black" stroke="black" points="1455.68,-199.37 1465.68,-195.87 1455.68,-192.37 1455.68,-199.37"/>
<text text-anchor="middle" x="1417.28" y="-198.87" font-family="monospace" font-size="10.00">&#45;&#45;out&#45;file</text>
</g>
</g>
</svg>
