<?xml version="1.0" encoding="UTF-8" standalone="no"?>
<!DOCTYPE svg PUBLIC "-//W3C//DTD SVG 1.1//EN"
 "http://www.w3.org/Graphics/SVG/1.1/DTD/svg11.dtd">
<!-- Generated by graphviz version 2.43.0 (0)
 -->
<!-- Title: %3 Pages: 1 -->
<svg width="1239pt" height="508pt"
 viewBox="0.00 0.00 1238.78 507.87" xmlns="http://www.w3.org/2000/svg" xmlns:xlink="http://www.w3.org/1999/xlink">
<g id="graph0" class="graph" transform="scale(1 1) rotate(0) translate(4 503.87)">
<title>%3</title>
<polygon fill="white" stroke="transparent" points="-4,4 -4,-503.87 1234.78,-503.87 1234.78,4 -4,4"/>
<!-- Network -->
<g id="node1" class="node">
<title>Network</title>
<ellipse fill="none" stroke="black" cx="69" cy="-473" rx="60.21" ry="26.74"/>
<text text-anchor="middle" x="69" y="-476.8" font-family="Times-Roman" font-size="14.00">Mainnet</text>
<text text-anchor="middle" x="69" y="-461.8" font-family="Times-Roman" font-size="14.00">or Testnet</text>
</g>
<!-- AddressCommand -->
<g id="node4" class="node">
<title>AddressCommand</title>
<polygon fill="none" stroke="black" points="452.5,-433 279.5,-433 279.5,-397 452.5,-397 452.5,-433"/>
<text text-anchor="middle" x="366" y="-411.3" font-family="monospace" font-size="14.00">marlowe&#45;cli address</text>
</g>
<!-- Network&#45;&gt;AddressCommand -->
<g id="edge1" class="edge">
<title>Network&#45;&gt;AddressCommand</title>
<path fill="none" stroke="black" stroke-dasharray="5,2" d="M128.61,-469.34C164.77,-466.33 211.93,-461.04 253,-452 271.22,-447.99 290.67,-442.14 308.15,-436.28"/>
<polygon fill="black" stroke="black" points="309.31,-439.58 317.64,-433.03 307.04,-432.96 309.31,-439.58"/>
<text text-anchor="middle" x="204.5" y="-469" font-family="monospace" font-size="10.00">&#45;&#45;testnet&#45;magic</text>
</g>
<!-- ValidatorCommand -->
<g id="node6" class="node">
<title>ValidatorCommand</title>
<polygon fill="none" stroke="black" points="461,-366 271,-366 271,-330 461,-330 461,-366"/>
<text text-anchor="middle" x="366" y="-344.3" font-family="monospace" font-size="14.00">marlowe&#45;cli validator</text>
</g>
<!-- Network&#45;&gt;ValidatorCommand -->
<g id="edge5" class="edge">
<title>Network&#45;&gt;ValidatorCommand</title>
<path fill="none" stroke="black" stroke-dasharray="5,2" d="M123.11,-460.79C173.41,-448.86 242.73,-431.32 253,-423 266.59,-411.98 258.19,-399.91 271,-388 278.31,-381.21 286.94,-375.47 295.96,-370.65"/>
<polygon fill="black" stroke="black" points="297.68,-373.7 305.09,-366.13 294.57,-367.43 297.68,-373.7"/>
</g>
<!-- StakeAddress -->
<g id="node2" class="node">
<title>StakeAddress</title>
<ellipse fill="none" stroke="black" cx="69" cy="-399" rx="50.82" ry="26.74"/>
<text text-anchor="middle" x="69" y="-402.8" font-family="Times-Roman" font-size="14.00">Stake</text>
<text text-anchor="middle" x="69" y="-387.8" font-family="Times-Roman" font-size="14.00">Address</text>
</g>
<!-- StakeAddress&#45;&gt;AddressCommand -->
<g id="edge2" class="edge">
<title>StakeAddress&#45;&gt;AddressCommand</title>
<path fill="none" stroke="black" stroke-dasharray="5,2" d="M119.71,-401.7C160.5,-403.91 219.44,-407.11 269.32,-409.81"/>
<polygon fill="black" stroke="black" points="269.32,-413.32 279.49,-410.36 269.7,-406.33 269.32,-413.32"/>
<text text-anchor="middle" x="204.5" y="-411" font-family="monospace" font-size="10.00">&#45;&#45;stake&#45;address</text>
</g>
<!-- StakeAddress&#45;&gt;ValidatorCommand -->
<g id="edge6" class="edge">
<title>StakeAddress&#45;&gt;ValidatorCommand</title>
<path fill="none" stroke="black" stroke-dasharray="5,2" d="M105.89,-380.32C120.96,-373.34 138.93,-366.11 156,-362 189.48,-353.93 226.79,-349.91 260.52,-348.06"/>
<polygon fill="black" stroke="black" points="261.04,-351.53 270.86,-347.55 260.7,-344.54 261.04,-351.53"/>
</g>
<!-- RolesCurrency -->
<g id="node3" class="node">
<title>RolesCurrency</title>
<ellipse fill="none" stroke="black" cx="69" cy="-324" rx="55.72" ry="26.74"/>
<text text-anchor="middle" x="69" y="-327.8" font-family="Times-Roman" font-size="14.00">Currency</text>
<text text-anchor="middle" x="69" y="-312.8" font-family="Times-Roman" font-size="14.00">for Roles</text>
</g>
<!-- RolesCurrency&#45;&gt;AddressCommand -->
<g id="edge3" class="edge">
<title>RolesCurrency&#45;&gt;AddressCommand</title>
<path fill="none" stroke="black" stroke-dasharray="5,2" d="M116.42,-338.32C164.86,-353.26 241.34,-376.85 296.68,-393.93"/>
<polygon fill="black" stroke="black" points="295.82,-397.32 306.41,-396.93 297.89,-390.63 295.82,-397.32"/>
<text text-anchor="middle" x="204.5" y="-383" font-family="monospace" font-size="10.00">&#45;&#45;roles&#45;currency</text>
</g>
<!-- RolesCurrency&#45;&gt;ValidatorCommand -->
<g id="edge7" class="edge">
<title>RolesCurrency&#45;&gt;ValidatorCommand</title>
<path fill="none" stroke="black" stroke-dasharray="5,2" d="M124.48,-327.48C160.89,-329.91 209.84,-333.35 253,-337 255.56,-337.22 258.14,-337.44 260.75,-337.67"/>
<polygon fill="black" stroke="black" points="260.64,-341.17 270.91,-338.57 261.26,-334.2 260.64,-341.17"/>
</g>
<!-- ValidatorAddress -->
<g id="node5" class="node">
<title>ValidatorAddress</title>
<ellipse fill="none" stroke="black" cx="652.39" cy="-411" rx="54.39" ry="26.74"/>
<text text-anchor="middle" x="652.39" y="-414.8" font-family="Times-Roman" font-size="14.00">Validator</text>
<text text-anchor="middle" x="652.39" y="-399.8" font-family="Times-Roman" font-size="14.00">Address</text>
</g>
<!-- AddressCommand&#45;&gt;ValidatorAddress -->
<g id="edge4" class="edge">
<title>AddressCommand&#45;&gt;ValidatorAddress</title>
<path fill="none" stroke="black" d="M452.71,-413.79C496.04,-413.18 547.73,-412.46 587.52,-411.9"/>
<polygon fill="black" stroke="black" points="587.68,-415.4 597.63,-411.76 587.58,-408.4 587.68,-415.4"/>
<text text-anchor="middle" x="512.5" y="-416" font-family="monospace" font-size="10.00">/dev/stdout</text>
</g>
<!-- CardanoCLI -->
<g id="node18" class="node">
<title>CardanoCLI</title>
<polygon fill="none" stroke="black" points="1060.78,-262 903.78,-262 903.78,-226 1060.78,-226 1060.78,-262"/>
<text text-anchor="middle" x="982.28" y="-240.3" font-family="monospace" font-size="14.00">marlowe&#45;cli build</text>
</g>
<!-- ValidatorAddress&#45;&gt;CardanoCLI -->
<g id="edge16" class="edge">
<title>ValidatorAddress&#45;&gt;CardanoCLI</title>
<path fill="none" stroke="black" d="M704.38,-402.87C753.54,-393.38 828.68,-374.4 885.78,-340 916.13,-321.71 943.85,-291.67 961.51,-270.07"/>
<polygon fill="black" stroke="black" points="964.26,-272.24 967.77,-262.24 958.79,-267.86 964.26,-272.24"/>
<text text-anchor="middle" x="822.28" y="-392" font-family="monospace" font-size="10.00">&#45;&#45;script&#45;address</text>
</g>
<!-- ValidatorCommand&#45;&gt;ValidatorAddress -->
<g id="edge8" class="edge">
<title>ValidatorCommand&#45;&gt;ValidatorAddress</title>
<path fill="none" stroke="black" d="M448.49,-366.05C494.44,-376.23 550.79,-388.71 592.44,-397.94"/>
<polygon fill="black" stroke="black" points="591.91,-401.41 602.43,-400.15 593.42,-394.57 591.91,-401.41"/>
<text text-anchor="middle" x="512.5" y="-389" font-family="monospace" font-size="10.00">/dev/stdout</text>
</g>
<!-- ValidatorFile -->
<g id="node7" class="node">
<title>ValidatorFile</title>
<polygon fill="none" stroke="black" points="722.39,-366 594.39,-366 594.39,-370 582.39,-370 582.39,-328 722.39,-328 722.39,-366"/>
<polyline fill="none" stroke="black" points="582.39,-366 594.39,-366 "/>
<text text-anchor="middle" x="652.39" y="-350.8" font-family="Times-Roman" font-size="14.00">Marlowe Validator</text>
<text text-anchor="middle" x="652.39" y="-335.8" font-family="Times-Roman" font-size="14.00">Plutus File</text>
</g>
<!-- ValidatorCommand&#45;&gt;ValidatorFile -->
<g id="edge9" class="edge">
<title>ValidatorCommand&#45;&gt;ValidatorFile</title>
<path fill="none" stroke="black" d="M461.3,-347.67C497.05,-347.54 537.38,-347.4 571.66,-347.28"/>
<polygon fill="black" stroke="black" points="572.11,-350.78 582.09,-347.24 572.08,-343.78 572.11,-350.78"/>
<text text-anchor="middle" x="512.5" y="-350" font-family="monospace" font-size="10.00">&#45;&#45;out&#45;file</text>
</g>
<!-- ValidatorFile&#45;&gt;CardanoCLI -->
<g id="edge17" class="edge">
<title>ValidatorFile&#45;&gt;CardanoCLI</title>
<path fill="none" stroke="black" d="M722.63,-333.97C769.43,-324.2 832.21,-309.23 885.78,-290 903.59,-283.61 922.49,-274.93 938.75,-266.83"/>
<polygon fill="black" stroke="black" points="940.64,-269.79 947.98,-262.15 937.48,-263.55 940.64,-269.79"/>
<text text-anchor="middle" x="822.28" y="-328" font-family="monospace" font-size="10.00">&#45;&#45;tx&#45;in&#45;script&#45;file</text>
</g>
<!-- ContractFile -->
<g id="node8" class="node">
<title>ContractFile</title>
<polygon fill="none" stroke="black" points="138,-156 12,-156 12,-160 0,-160 0,-118 138,-118 138,-156"/>
<polyline fill="none" stroke="black" points="0,-156 12,-156 "/>
<text text-anchor="middle" x="69" y="-140.8" font-family="Times-Roman" font-size="14.00">Marlowe Contract</text>
<text text-anchor="middle" x="69" y="-125.8" font-family="Times-Roman" font-size="14.00">JSON File</text>
</g>
<!-- DatumCommand -->
<g id="node10" class="node">
<title>DatumCommand</title>
<polygon fill="none" stroke="black" points="444.5,-183 287.5,-183 287.5,-147 444.5,-147 444.5,-183"/>
<text text-anchor="middle" x="366" y="-161.3" font-family="monospace" font-size="14.00">marlowe&#45;cli datum</text>
</g>
<!-- ContractFile&#45;&gt;DatumCommand -->
<g id="edge10" class="edge">
<title>ContractFile&#45;&gt;DatumCommand</title>
<path fill="none" stroke="black" d="M138.05,-143.46C179.41,-147.38 232.65,-152.44 277.17,-156.66"/>
<polygon fill="black" stroke="black" points="277.11,-160.17 287.4,-157.63 277.78,-153.21 277.11,-160.17"/>
<text text-anchor="middle" x="204.5" y="-157" font-family="monospace" font-size="10.00">&#45;&#45;contract&#45;file</text>
</g>
<!-- StateFile -->
<g id="node9" class="node">
<title>StateFile</title>
<polygon fill="none" stroke="black" points="126.5,-212 23.5,-212 23.5,-216 11.5,-216 11.5,-174 126.5,-174 126.5,-212"/>
<polyline fill="none" stroke="black" points="11.5,-212 23.5,-212 "/>
<text text-anchor="middle" x="69" y="-196.8" font-family="Times-Roman" font-size="14.00">Marlowe State</text>
<text text-anchor="middle" x="69" y="-181.8" font-family="Times-Roman" font-size="14.00">JSON File</text>
</g>
<!-- StateFile&#45;&gt;DatumCommand -->
<g id="edge11" class="edge">
<title>StateFile&#45;&gt;DatumCommand</title>
<path fill="none" stroke="black" d="M126.53,-187.63C169.17,-183.59 228.45,-177.96 277.24,-173.33"/>
<polygon fill="black" stroke="black" points="277.86,-176.79 287.48,-172.36 277.19,-169.82 277.86,-176.79"/>
<text text-anchor="middle" x="204.5" y="-187" font-family="monospace" font-size="10.00">&#45;&#45;state&#45;file</text>
</g>
<!-- DatumFile -->
<g id="node11" class="node">
<title>DatumFile</title>
<polygon fill="none" stroke="black" points="714.89,-310 601.89,-310 601.89,-314 589.89,-314 589.89,-272 714.89,-272 714.89,-310"/>
<polyline fill="none" stroke="black" points="589.89,-310 601.89,-310 "/>
<text text-anchor="middle" x="652.39" y="-294.8" font-family="Times-Roman" font-size="14.00">Marlowe Datum</text>
<text text-anchor="middle" x="652.39" y="-279.8" font-family="Times-Roman" font-size="14.00">JSON File</text>
</g>
<!-- DatumCommand&#45;&gt;DatumFile -->
<g id="edge12" class="edge">
<title>DatumCommand&#45;&gt;DatumFile</title>
<path fill="none" stroke="black" d="M399.41,-183.03C437.89,-203.98 504.37,-238.78 564,-263 569.3,-265.15 574.82,-267.25 580.41,-269.27"/>
<polygon fill="black" stroke="black" points="579.26,-272.57 589.85,-272.58 581.58,-265.97 579.26,-272.57"/>
<text text-anchor="middle" x="512.5" y="-256" font-family="monospace" font-size="10.00">&#45;&#45;out&#45;file</text>
</g>
<!-- DatumHash -->
<g id="node12" class="node">
<title>DatumHash</title>
<ellipse fill="none" stroke="black" cx="652.39" cy="-83" rx="88.28" ry="26.74"/>
<text text-anchor="middle" x="652.39" y="-86.8" font-family="Times-Roman" font-size="14.00">Marlowe Datum</text>
<text text-anchor="middle" x="652.39" y="-71.8" font-family="Times-Roman" font-size="14.00">Hash</text>
</g>
<!-- DatumCommand&#45;&gt;DatumHash -->
<g id="edge13" class="edge">
<title>DatumCommand&#45;&gt;DatumHash</title>
<path fill="none" stroke="black" d="M429.76,-146.9C473.35,-134.34 531.59,-117.54 577.43,-104.32"/>
<polygon fill="black" stroke="black" points="578.67,-107.61 587.31,-101.48 576.73,-100.88 578.67,-107.61"/>
<text text-anchor="middle" x="512.5" y="-134" font-family="monospace" font-size="10.00">/dev/stdout</text>
</g>
<!-- DatumFile&#45;&gt;CardanoCLI -->
<g id="edge18" class="edge">
<title>DatumFile&#45;&gt;CardanoCLI</title>
<path fill="none" stroke="black" d="M715.06,-282.16C765.46,-274.94 837.33,-264.63 893.7,-256.55"/>
<polygon fill="black" stroke="black" points="894.27,-260.01 903.68,-255.12 893.28,-253.08 894.27,-260.01"/>
<text text-anchor="middle" x="822.28" y="-278" font-family="monospace" font-size="10.00">&#45;&#45;tx&#45;in&#45;datum&#45;file</text>
</g>
<!-- InputsFile -->
<g id="node13" class="node">
<title>InputsFile</title>
<polygon fill="none" stroke="black" points="130.5,-38 19.5,-38 19.5,-42 7.5,-42 7.5,0 130.5,0 130.5,-38"/>
<polyline fill="none" stroke="black" points="7.5,-38 19.5,-38 "/>
<text text-anchor="middle" x="69" y="-22.8" font-family="Times-Roman" font-size="14.00">Marlowe Inputs</text>
<text text-anchor="middle" x="69" y="-7.8" font-family="Times-Roman" font-size="14.00">JSON File</text>
</g>
<!-- RedeemerCommand -->
<g id="node16" class="node">
<title>RedeemerCommand</title>
<polygon fill="none" stroke="black" points="457,-37 275,-37 275,-1 457,-1 457,-37"/>
<text text-anchor="middle" x="366" y="-15.3" font-family="monospace" font-size="14.00">marlowe&#45;cli redeemer</text>
</g>
<!-- InputsFile&#45;&gt;RedeemerCommand -->
<g id="edge14" class="edge">
<title>InputsFile&#45;&gt;RedeemerCommand</title>
<path fill="none" stroke="black" stroke-dasharray="5,2" d="M130.77,-19C169.34,-19 220.18,-19 264.64,-19"/>
<polygon fill="black" stroke="black" points="264.91,-22.5 274.91,-19 264.91,-15.5 264.91,-22.5"/>
<text text-anchor="middle" x="204.5" y="-22" font-family="monospace" font-size="10.00">&#45;&#45;inputs&#45;file</text>
</g>
<!-- MinSlot -->
<g id="node14" class="node">
<title>MinSlot</title>
<ellipse fill="none" stroke="black" cx="652.39" cy="-227" rx="57.05" ry="26.74"/>
<text text-anchor="middle" x="652.39" y="-230.8" font-family="Times-Roman" font-size="14.00">Minimum</text>
<text text-anchor="middle" x="652.39" y="-215.8" font-family="Times-Roman" font-size="14.00">Slot</text>
</g>
<!-- MinSlot&#45;&gt;CardanoCLI -->
<g id="edge20" class="edge">
<title>MinSlot&#45;&gt;CardanoCLI</title>
<path fill="none" stroke="black" d="M709.38,-229.9C759.85,-232.52 834.89,-236.41 893.36,-239.44"/>
<polygon fill="black" stroke="black" points="893.54,-242.96 903.71,-239.98 893.9,-235.97 893.54,-242.96"/>
<text text-anchor="middle" x="822.28" y="-241" font-family="monospace" font-size="10.00">&#45;&#45;invalid&#45;before</text>
</g>
<!-- MaxSlot -->
<g id="node15" class="node">
<title>MaxSlot</title>
<ellipse fill="none" stroke="black" cx="652.39" cy="-155" rx="60.21" ry="26.74"/>
<text text-anchor="middle" x="652.39" y="-158.8" font-family="Times-Roman" font-size="14.00">Maximum</text>
<text text-anchor="middle" x="652.39" y="-143.8" font-family="Times-Roman" font-size="14.00">Slot</text>
</g>
<!-- MaxSlot&#45;&gt;CardanoCLI -->
<g id="edge21" class="edge">
<title>MaxSlot&#45;&gt;CardanoCLI</title>
<path fill="none" stroke="black" d="M704.68,-168.45C751.8,-180.86 823.57,-199.91 885.78,-217 893,-218.98 900.52,-221.07 908.03,-223.17"/>
<polygon fill="black" stroke="black" points="907.3,-226.6 917.87,-225.93 909.19,-219.86 907.3,-226.6"/>
<text text-anchor="middle" x="822.28" y="-220" font-family="monospace" font-size="10.00">&#45;&#45;invalid&#45;hereafter</text>
</g>
<!-- RedeemerFile -->
<g id="node17" class="node">
<title>RedeemerFile</title>
<polygon fill="none" stroke="black" points="726.89,-38 589.89,-38 589.89,-42 577.89,-42 577.89,0 726.89,0 726.89,-38"/>
<polyline fill="none" stroke="black" points="577.89,-38 589.89,-38 "/>
<text text-anchor="middle" x="652.39" y="-22.8" font-family="Times-Roman" font-size="14.00">Marlowe Redeemer</text>
<text text-anchor="middle" x="652.39" y="-7.8" font-family="Times-Roman" font-size="14.00">JSON File</text>
</g>
<!-- RedeemerCommand&#45;&gt;RedeemerFile -->
<g id="edge15" class="edge">
<title>RedeemerCommand&#45;&gt;RedeemerFile</title>
<path fill="none" stroke="black" d="M457.37,-19C492.75,-19 533.09,-19 567.79,-19"/>
<polygon fill="black" stroke="black" points="567.89,-22.5 577.89,-19 567.89,-15.5 567.89,-22.5"/>
<text text-anchor="middle" x="512.5" y="-22" font-family="monospace" font-size="10.00">&#45;&#45;out&#45;file</text>
</g>
<!-- RedeemerFile&#45;&gt;CardanoCLI -->
<g id="edge19" class="edge">
<title>RedeemerFile&#45;&gt;CardanoCLI</title>
<path fill="none" stroke="black" d="M721.71,-38.1C728.3,-40.76 734.76,-43.73 740.78,-47 828.93,-94.95 915.89,-177.16 956.9,-218.58"/>
<polygon fill="black" stroke="black" points="954.51,-221.14 964.01,-225.82 959.5,-216.23 954.51,-221.14"/>
<text text-anchor="middle" x="822.28" y="-153" font-family="monospace" font-size="10.00">&#45;&#45;tx&#45;in&#45;redeemer&#45;file</text>
</g>
<!-- TxBodyFile -->
<g id="node19" class="node">
<title>TxBodyFile</title>
<polygon fill="none" stroke="black" points="1230.78,-263 1169.78,-263 1169.78,-267 1157.78,-267 1157.78,-225 1230.78,-225 1230.78,-263"/>
<polyline fill="none" stroke="black" points="1157.78,-263 1169.78,-263 "/>
<text text-anchor="middle" x="1194.28" y="-247.8" font-family="Times-Roman" font-size="14.00">Tx Body</text>
<text text-anchor="middle" x="1194.28" y="-232.8" font-family="Times-Roman" font-size="14.00">File</text>
</g>
<!-- CardanoCLI&#45;&gt;TxBodyFile -->
<g id="edge22" class="edge">
<title>CardanoCLI&#45;&gt;TxBodyFile</title>
<path fill="none" stroke="black" d="M1060.88,-244C1090.04,-244 1122.24,-244 1147.58,-244"/>
<polygon fill="black" stroke="black" points="1147.63,-247.5 1157.63,-244 1147.63,-240.5 1147.63,-247.5"/>
<text text-anchor="middle" x="1109.28" y="-247" font-family="monospace" font-size="10.00">&#45;&#45;out&#45;file</text>
</g>
</g>
</svg>
