<?xml version="1.0" encoding="UTF-8" standalone="no"?>
<!DOCTYPE svg PUBLIC "-//W3C//DTD SVG 1.1//EN"
 "http://www.w3.org/Graphics/SVG/1.1/DTD/svg11.dtd">
<!-- Generated by graphviz version 2.43.0 (0)
 -->
<!-- Title: %3 Pages: 1 -->
<svg width="1415pt" height="502pt"
 viewBox="0.00 0.00 1414.78 501.74" xmlns="http://www.w3.org/2000/svg" xmlns:xlink="http://www.w3.org/1999/xlink">
<g id="graph0" class="graph" transform="scale(1 1) rotate(0) translate(4 497.74)">
<title>%3</title>
<polygon fill="white" stroke="transparent" points="-4,4 -4,-497.74 1410.78,-497.74 1410.78,4 -4,4"/>
<!-- Network -->
<g id="node1" class="node">
<title>Network</title>
<ellipse fill="none" stroke="black" cx="69" cy="-466.87" rx="60.21" ry="26.74"/>
<text text-anchor="middle" x="69" y="-470.67" font-family="Times-Roman" font-size="14.00">Mainnet</text>
<text text-anchor="middle" x="69" y="-455.67" font-family="Times-Roman" font-size="14.00">or Testnet</text>
</g>
<!-- ExportCommand -->
<g id="node9" class="node">
<title>ExportCommand</title>
<polygon fill="none" stroke="black" points="436,-308.87 271,-308.87 271,-272.87 436,-272.87 436,-308.87"/>
<text text-anchor="middle" x="353.5" y="-287.17" font-family="monospace" font-size="14.00">marlowe&#45;cli export</text>
</g>
<!-- Network&#45;&gt;ExportCommand -->
<g id="edge1" class="edge">
<title>Network&#45;&gt;ExportCommand</title>
<path fill="none" stroke="black" stroke-dasharray="5,2" d="M113.79,-448.74C151.93,-432.12 208.01,-405.62 253,-375.87 279.82,-358.14 307.39,-334.04 326.69,-316.03"/>
<polygon fill="black" stroke="black" points="329.3,-318.37 334.17,-308.96 324.49,-313.28 329.3,-318.37"/>
<text text-anchor="middle" x="204.5" y="-429.87" font-family="monospace" font-size="10.00">&#45;&#45;testnet&#45;magic</text>
</g>
<!-- StakeAddress -->
<g id="node2" class="node">
<title>StakeAddress</title>
<ellipse fill="none" stroke="black" cx="69" cy="-394.87" rx="50.82" ry="26.74"/>
<text text-anchor="middle" x="69" y="-398.67" font-family="Times-Roman" font-size="14.00">Stake</text>
<text text-anchor="middle" x="69" y="-383.67" font-family="Times-Roman" font-size="14.00">Address</text>
</g>
<!-- StakeAddress&#45;&gt;ExportCommand -->
<g id="edge2" class="edge">
<title>StakeAddress&#45;&gt;ExportCommand</title>
<path fill="none" stroke="black" stroke-dasharray="5,2" d="M111.38,-379.64C159.52,-361.91 239.36,-332.52 293.87,-312.45"/>
<polygon fill="black" stroke="black" points="295.23,-315.68 303.41,-308.94 292.81,-309.11 295.23,-315.68"/>
<text text-anchor="middle" x="204.5" y="-363.87" font-family="monospace" font-size="10.00">&#45;&#45;stake&#45;address</text>
</g>
<!-- RolesCurrency -->
<g id="node3" class="node">
<title>RolesCurrency</title>
<ellipse fill="none" stroke="black" cx="69" cy="-322.87" rx="55.72" ry="26.74"/>
<text text-anchor="middle" x="69" y="-326.67" font-family="Times-Roman" font-size="14.00">Currency</text>
<text text-anchor="middle" x="69" y="-311.67" font-family="Times-Roman" font-size="14.00">for Roles</text>
</g>
<!-- RolesCurrency&#45;&gt;ExportCommand -->
<g id="edge3" class="edge">
<title>RolesCurrency&#45;&gt;ExportCommand</title>
<path fill="none" stroke="black" stroke-dasharray="5,2" d="M123.47,-316.81C162.13,-312.43 215.34,-306.41 260.74,-301.26"/>
<polygon fill="black" stroke="black" points="261.35,-304.72 270.89,-300.11 260.56,-297.76 261.35,-304.72"/>
<text text-anchor="middle" x="204.5" y="-314.87" font-family="monospace" font-size="10.00">&#45;&#45;roles&#45;currency</text>
</g>
<!-- ContractFile -->
<g id="node4" class="node">
<title>ContractFile</title>
<polygon fill="none" stroke="black" points="138,-277.87 12,-277.87 12,-281.87 0,-281.87 0,-239.87 138,-239.87 138,-277.87"/>
<polyline fill="none" stroke="black" points="0,-277.87 12,-277.87 "/>
<text text-anchor="middle" x="69" y="-262.67" font-family="Times-Roman" font-size="14.00">Marlowe Contract</text>
<text text-anchor="middle" x="69" y="-247.67" font-family="Times-Roman" font-size="14.00">JSON File</text>
</g>
<!-- ContractFile&#45;&gt;ExportCommand -->
<g id="edge4" class="edge">
<title>ContractFile&#45;&gt;ExportCommand</title>
<path fill="none" stroke="black" d="M138.03,-266.58C174.9,-270.75 220.98,-275.97 260.96,-280.5"/>
<polygon fill="black" stroke="black" points="260.66,-283.99 270.99,-281.64 261.45,-277.03 260.66,-283.99"/>
<text text-anchor="middle" x="204.5" y="-280.87" font-family="monospace" font-size="10.00">&#45;&#45;contract&#45;file</text>
</g>
<!-- StateFile -->
<g id="node5" class="node">
<title>StateFile</title>
<polygon fill="none" stroke="black" points="126.5,-221.87 23.5,-221.87 23.5,-225.87 11.5,-225.87 11.5,-183.87 126.5,-183.87 126.5,-221.87"/>
<polyline fill="none" stroke="black" points="11.5,-221.87 23.5,-221.87 "/>
<text text-anchor="middle" x="69" y="-206.67" font-family="Times-Roman" font-size="14.00">Marlowe State</text>
<text text-anchor="middle" x="69" y="-191.67" font-family="Times-Roman" font-size="14.00">JSON File</text>
</g>
<!-- StateFile&#45;&gt;ExportCommand -->
<g id="edge5" class="edge">
<title>StateFile&#45;&gt;ExportCommand</title>
<path fill="none" stroke="black" d="M126.84,-217.39C163.15,-226.99 211.12,-240.27 253,-253.87 267.24,-258.49 282.47,-263.91 296.62,-269.15"/>
<polygon fill="black" stroke="black" points="295.62,-272.51 306.21,-272.74 298.07,-265.96 295.62,-272.51"/>
<text text-anchor="middle" x="204.5" y="-256.87" font-family="monospace" font-size="10.00">&#45;&#45;state&#45;file</text>
</g>
<!-- InputsFile -->
<g id="node6" class="node">
<title>InputsFile</title>
<polygon fill="none" stroke="black" points="130.5,-165.87 19.5,-165.87 19.5,-169.87 7.5,-169.87 7.5,-127.87 130.5,-127.87 130.5,-165.87"/>
<polyline fill="none" stroke="black" points="7.5,-165.87 19.5,-165.87 "/>
<text text-anchor="middle" x="69" y="-150.67" font-family="Times-Roman" font-size="14.00">Marlowe Inputs</text>
<text text-anchor="middle" x="69" y="-135.67" font-family="Times-Roman" font-size="14.00">JSON File</text>
</g>
<!-- InputsFile&#45;&gt;ExportCommand -->
<g id="edge6" class="edge">
<title>InputsFile&#45;&gt;ExportCommand</title>
<path fill="none" stroke="black" stroke-dasharray="5,2" d="M130.71,-162.44C167.43,-173.21 214.45,-189.47 253,-210.87 280.25,-226 307.59,-248.65 326.69,-265.99"/>
<polygon fill="black" stroke="black" points="324.38,-268.61 334.1,-272.82 329.12,-263.47 324.38,-268.61"/>
<text text-anchor="middle" x="204.5" y="-213.87" font-family="monospace" font-size="10.00">&#45;&#45;inputs&#45;file</text>
</g>
<!-- MinSlot -->
<g id="node7" class="node">
<title>MinSlot</title>
<ellipse fill="none" stroke="black" cx="828.39" cy="-98.87" rx="57.05" ry="26.74"/>
<text text-anchor="middle" x="828.39" y="-102.67" font-family="Times-Roman" font-size="14.00">Minimum</text>
<text text-anchor="middle" x="828.39" y="-87.67" font-family="Times-Roman" font-size="14.00">Slot</text>
</g>
<!-- CardanoCLI -->
<g id="node17" class="node">
<title>CardanoCLI</title>
<polygon fill="none" stroke="black" points="1236.78,-213.87 1079.78,-213.87 1079.78,-177.87 1236.78,-177.87 1236.78,-213.87"/>
<text text-anchor="middle" x="1158.28" y="-192.17" font-family="monospace" font-size="14.00">marlowe&#45;cli build</text>
</g>
<!-- MinSlot&#45;&gt;CardanoCLI -->
<g id="edge18" class="edge">
<title>MinSlot&#45;&gt;CardanoCLI</title>
<path fill="none" stroke="black" d="M880.65,-110.29C928.07,-121.27 1000.29,-139.1 1061.78,-158.87 1075.8,-163.38 1090.76,-168.85 1104.57,-174.18"/>
<polygon fill="black" stroke="black" points="1103.33,-177.46 1113.92,-177.84 1105.88,-170.94 1103.33,-177.46"/>
<text text-anchor="middle" x="998.28" y="-161.87" font-family="monospace" font-size="10.00">&#45;&#45;invalid&#45;before</text>
</g>
<!-- MaxSlot -->
<g id="node8" class="node">
<title>MaxSlot</title>
<ellipse fill="none" stroke="black" cx="828.39" cy="-26.87" rx="60.21" ry="26.74"/>
<text text-anchor="middle" x="828.39" y="-30.67" font-family="Times-Roman" font-size="14.00">Maximum</text>
<text text-anchor="middle" x="828.39" y="-15.67" font-family="Times-Roman" font-size="14.00">Slot</text>
</g>
<!-- MaxSlot&#45;&gt;CardanoCLI -->
<g id="edge19" class="edge">
<title>MaxSlot&#45;&gt;CardanoCLI</title>
<path fill="none" stroke="black" d="M882.32,-39.07C931.21,-51.8 1004.68,-74.72 1061.78,-108.87 1089.52,-125.46 1116.3,-150.95 1134.4,-170.06"/>
<polygon fill="black" stroke="black" points="1132,-172.61 1141.37,-177.55 1137.12,-167.85 1132,-172.61"/>
<text text-anchor="middle" x="998.28" y="-111.87" font-family="monospace" font-size="10.00">&#45;&#45;invalid&#45;hereafter</text>
</g>
<!-- MarloweFile -->
<g id="node10" class="node">
<title>MarloweFile</title>
<polygon fill="none" stroke="black" points="612,-309.87 545,-309.87 545,-313.87 533,-313.87 533,-271.87 612,-271.87 612,-309.87"/>
<polyline fill="none" stroke="black" points="533,-309.87 545,-309.87 "/>
<text text-anchor="middle" x="572.5" y="-294.67" font-family="Times-Roman" font-size="14.00">Marlowe</text>
<text text-anchor="middle" x="572.5" y="-279.67" font-family="Times-Roman" font-size="14.00">JSON File</text>
</g>
<!-- ExportCommand&#45;&gt;MarloweFile -->
<g id="edge7" class="edge">
<title>ExportCommand&#45;&gt;MarloweFile</title>
<path fill="none" stroke="black" d="M436.23,-290.87C465.37,-290.87 497.27,-290.87 522.76,-290.87"/>
<polygon fill="black" stroke="black" points="522.91,-294.37 532.91,-290.87 522.91,-287.37 522.91,-294.37"/>
<text text-anchor="middle" x="484.5" y="-293.87" font-family="monospace" font-size="10.00">&#45;&#45;out&#45;file</text>
</g>
<!-- JQ -->
<g id="node11" class="node">
<title>JQ</title>
<polygon fill="none" stroke="black" points="703,-308.87 649,-308.87 649,-272.87 703,-272.87 703,-308.87"/>
<text text-anchor="middle" x="676" y="-287.17" font-family="monospace" font-size="14.00">jq</text>
</g>
<!-- MarloweFile&#45;&gt;JQ -->
<g id="edge8" class="edge">
<title>MarloweFile&#45;&gt;JQ</title>
<path fill="none" stroke="black" d="M612.16,-290.87C620.85,-290.87 630.03,-290.87 638.62,-290.87"/>
<polygon fill="black" stroke="black" points="638.72,-294.37 648.72,-290.87 638.72,-287.37 638.72,-294.37"/>
</g>
<!-- ValidatorAddress -->
<g id="node12" class="node">
<title>ValidatorAddress</title>
<ellipse fill="none" stroke="black" cx="828.39" cy="-410.87" rx="54.39" ry="26.74"/>
<text text-anchor="middle" x="828.39" y="-414.67" font-family="Times-Roman" font-size="14.00">Validator</text>
<text text-anchor="middle" x="828.39" y="-399.67" font-family="Times-Roman" font-size="14.00">Address</text>
</g>
<!-- JQ&#45;&gt;ValidatorAddress -->
<g id="edge9" class="edge">
<title>JQ&#45;&gt;ValidatorAddress</title>
<path fill="none" stroke="black" d="M686.8,-309.21C697.63,-327.95 716.65,-356.79 740,-374.87 749.53,-382.25 760.78,-388.36 771.98,-393.32"/>
<polygon fill="black" stroke="black" points="770.77,-396.6 781.34,-397.21 773.46,-390.14 770.77,-396.6"/>
</g>
<!-- ValidatorFile -->
<g id="node13" class="node">
<title>ValidatorFile</title>
<polygon fill="none" stroke="black" points="898.39,-365.87 770.39,-365.87 770.39,-369.87 758.39,-369.87 758.39,-327.87 898.39,-327.87 898.39,-365.87"/>
<polyline fill="none" stroke="black" points="758.39,-365.87 770.39,-365.87 "/>
<text text-anchor="middle" x="828.39" y="-350.67" font-family="Times-Roman" font-size="14.00">Marlowe Validator</text>
<text text-anchor="middle" x="828.39" y="-335.67" font-family="Times-Roman" font-size="14.00">Plutus File</text>
</g>
<!-- JQ&#45;&gt;ValidatorFile -->
<g id="edge10" class="edge">
<title>JQ&#45;&gt;ValidatorFile</title>
<path fill="none" stroke="black" d="M703.1,-303.23C714.34,-308.35 727.7,-314.18 740,-318.87 745.02,-320.79 750.24,-322.68 755.52,-324.53"/>
<polygon fill="black" stroke="black" points="754.45,-327.86 765.04,-327.81 756.72,-321.24 754.45,-327.86"/>
</g>
<!-- DatumFile -->
<g id="node14" class="node">
<title>DatumFile</title>
<polygon fill="none" stroke="black" points="890.89,-309.87 777.89,-309.87 777.89,-313.87 765.89,-313.87 765.89,-271.87 890.89,-271.87 890.89,-309.87"/>
<polyline fill="none" stroke="black" points="765.89,-309.87 777.89,-309.87 "/>
<text text-anchor="middle" x="828.39" y="-294.67" font-family="Times-Roman" font-size="14.00">Marlowe Datum</text>
<text text-anchor="middle" x="828.39" y="-279.67" font-family="Times-Roman" font-size="14.00">JSON File</text>
</g>
<!-- JQ&#45;&gt;DatumFile -->
<g id="edge11" class="edge">
<title>JQ&#45;&gt;DatumFile</title>
<path fill="none" stroke="black" d="M703.2,-290.87C717.82,-290.87 736.82,-290.87 755.55,-290.87"/>
<polygon fill="black" stroke="black" points="755.59,-294.37 765.59,-290.87 755.59,-287.37 755.59,-294.37"/>
</g>
<!-- DatumHash -->
<g id="node15" class="node">
<title>DatumHash</title>
<ellipse fill="none" stroke="black" cx="828.39" cy="-226.87" rx="88.28" ry="26.74"/>
<text text-anchor="middle" x="828.39" y="-230.67" font-family="Times-Roman" font-size="14.00">Marlowe Datum</text>
<text text-anchor="middle" x="828.39" y="-215.67" font-family="Times-Roman" font-size="14.00">Hash</text>
</g>
<!-- JQ&#45;&gt;DatumHash -->
<g id="edge12" class="edge">
<title>JQ&#45;&gt;DatumHash</title>
<path fill="none" stroke="black" d="M703.29,-278.99C714.56,-273.95 727.9,-268.05 740,-262.87 748.11,-259.4 756.67,-255.8 765.13,-252.27"/>
<polygon fill="black" stroke="black" points="766.71,-255.4 774.61,-248.34 764.03,-248.94 766.71,-255.4"/>
</g>
<!-- RedeemerFile -->
<g id="node16" class="node">
<title>RedeemerFile</title>
<polygon fill="none" stroke="black" points="902.89,-181.87 765.89,-181.87 765.89,-185.87 753.89,-185.87 753.89,-143.87 902.89,-143.87 902.89,-181.87"/>
<polyline fill="none" stroke="black" points="753.89,-181.87 765.89,-181.87 "/>
<text text-anchor="middle" x="828.39" y="-166.67" font-family="Times-Roman" font-size="14.00">Marlowe Redeemer</text>
<text text-anchor="middle" x="828.39" y="-151.67" font-family="Times-Roman" font-size="14.00">JSON File</text>
</g>
<!-- JQ&#45;&gt;RedeemerFile -->
<g id="edge13" class="edge">
<title>JQ&#45;&gt;RedeemerFile</title>
<path fill="none" stroke="black" d="M683.89,-272.62C693.25,-250.2 712.1,-212.49 740,-190.87 741.61,-189.63 743.27,-188.44 744.98,-187.3"/>
<polygon fill="black" stroke="black" points="747.05,-190.14 753.87,-182.03 743.49,-184.11 747.05,-190.14"/>
</g>
<!-- ValidatorAddress&#45;&gt;CardanoCLI -->
<g id="edge14" class="edge">
<title>ValidatorAddress&#45;&gt;CardanoCLI</title>
<path fill="none" stroke="black" d="M881.45,-404.33C931.75,-395.84 1008.02,-377.05 1061.78,-336.87 1101.69,-307.03 1130.45,-255.36 1145.43,-223.54"/>
<polygon fill="black" stroke="black" points="1148.66,-224.9 1149.64,-214.35 1142.3,-221.98 1148.66,-224.9"/>
<text text-anchor="middle" x="998.28" y="-394.87" font-family="monospace" font-size="10.00">&#45;&#45;script&#45;address</text>
</g>
<!-- ValidatorFile&#45;&gt;CardanoCLI -->
<g id="edge15" class="edge">
<title>ValidatorFile&#45;&gt;CardanoCLI</title>
<path fill="none" stroke="black" d="M898.54,-332.94C946.29,-321.56 1010.23,-302.75 1061.78,-274.87 1088.27,-260.54 1114.35,-238.26 1132.54,-221"/>
<polygon fill="black" stroke="black" points="1135.08,-223.42 1139.84,-213.96 1130.21,-218.39 1135.08,-223.42"/>
<text text-anchor="middle" x="998.28" y="-324.87" font-family="monospace" font-size="10.00">&#45;&#45;tx&#45;in&#45;script&#45;file</text>
</g>
<!-- DatumFile&#45;&gt;CardanoCLI -->
<g id="edge16" class="edge">
<title>DatumFile&#45;&gt;CardanoCLI</title>
<path fill="none" stroke="black" d="M891.06,-273C946.21,-257.02 1027.08,-233.59 1085.2,-216.75"/>
<polygon fill="black" stroke="black" points="1086.41,-220.05 1095.04,-213.9 1084.47,-213.32 1086.41,-220.05"/>
<text text-anchor="middle" x="998.28" y="-262.87" font-family="monospace" font-size="10.00">&#45;&#45;tx&#45;in&#45;datum&#45;file</text>
</g>
<!-- RedeemerFile&#45;&gt;CardanoCLI -->
<g id="edge17" class="edge">
<title>RedeemerFile&#45;&gt;CardanoCLI</title>
<path fill="none" stroke="black" d="M902.97,-170.28C952.27,-175.24 1017.42,-181.79 1069.44,-187.03"/>
<polygon fill="black" stroke="black" points="1069.36,-190.54 1079.66,-188.06 1070.06,-183.57 1069.36,-190.54"/>
<text text-anchor="middle" x="998.28" y="-188.87" font-family="monospace" font-size="10.00">&#45;&#45;tx&#45;in&#45;redeemer&#45;file</text>
</g>
<!-- TxBodyFile -->
<g id="node18" class="node">
<title>TxBodyFile</title>
<polygon fill="none" stroke="black" points="1406.78,-214.87 1345.78,-214.87 1345.78,-218.87 1333.78,-218.87 1333.78,-176.87 1406.78,-176.87 1406.78,-214.87"/>
<polyline fill="none" stroke="black" points="1333.78,-214.87 1345.78,-214.87 "/>
<text text-anchor="middle" x="1370.28" y="-199.67" font-family="Times-Roman" font-size="14.00">Tx Body</text>
<text text-anchor="middle" x="1370.28" y="-184.67" font-family="Times-Roman" font-size="14.00">File</text>
</g>
<!-- CardanoCLI&#45;&gt;TxBodyFile -->
<g id="edge20" class="edge">
<title>CardanoCLI&#45;&gt;TxBodyFile</title>
<path fill="none" stroke="black" d="M1236.88,-195.87C1266.04,-195.87 1298.24,-195.87 1323.58,-195.87"/>
<polygon fill="black" stroke="black" points="1323.63,-199.37 1333.63,-195.87 1323.63,-192.37 1323.63,-199.37"/>
<text text-anchor="middle" x="1285.28" y="-198.87" font-family="monospace" font-size="10.00">&#45;&#45;out&#45;file</text>
</g>
</g>
</svg>
