<?xml version="1.0" encoding="UTF-8" standalone="no"?>
<!DOCTYPE svg PUBLIC "-//W3C//DTD SVG 1.1//EN"
 "http://www.w3.org/Graphics/SVG/1.1/DTD/svg11.dtd">
<!-- Generated by graphviz version 2.49.3 (0)
 -->
<!-- Title: ApplyInputs Pages: 1 -->
<svg width="749pt" height="510pt"
 viewBox="0.00 0.00 749.28 510.00" xmlns="http://www.w3.org/2000/svg" xmlns:xlink="http://www.w3.org/1999/xlink">
<g id="graph0" class="graph" transform="scale(1 1) rotate(0) translate(4 506)">
<title>ApplyInputs</title>
<polygon fill="white" stroke="transparent" points="-4,4 -4,-506 745.28,-506 745.28,4 -4,4"/>
<!-- Tx0_Role -->
<g id="node1" class="node">
<title>Tx0_Role</title>
<polygon fill="none" stroke="black" points="33,-276.5 33,-322.5 151,-322.5 151,-276.5 33,-276.5"/>
<text text-anchor="middle" x="92" y="-307.3" font-family="Times,serif" font-size="14.00">A Contract Role</text>
<polyline fill="none" stroke="black" points="33,-299.5 151,-299.5 "/>
<text text-anchor="middle" x="92" y="-284.3" font-family="Times,serif" font-size="14.00">2 ₳ + 1 role token</text>
</g>
<!-- Tx1 -->
<g id="node4" class="node">
<title>Tx1</title>
<ellipse fill="none" stroke="black" cx="400.14" cy="-234.5" rx="85.29" ry="18"/>
<text text-anchor="middle" x="400.14" y="-230.8" font-family="Times,serif" font-size="14.00">Input&#45;Application Tx</text>
</g>
<!-- Tx0_Role&#45;&gt;Tx1 -->
<g id="edge1" class="edge">
<title>Tx0_Role&#45;&gt;Tx1</title>
<path fill="none" stroke="black" d="M151.3,-287.12C202.1,-276.34 275.84,-260.68 329.68,-249.25"/>
<polygon fill="black" stroke="black" points="330.43,-252.67 339.49,-247.17 328.98,-245.82 330.43,-252.67"/>
</g>
<!-- Tx0_ADA -->
<g id="node2" class="node">
<title>Tx0_ADA</title>
<polygon fill="none" stroke="black" points="39.5,-211.5 39.5,-257.5 144.5,-257.5 144.5,-211.5 39.5,-211.5"/>
<text text-anchor="middle" x="92" y="-242.3" font-family="Times,serif" font-size="14.00">A Contract Role</text>
<polyline fill="none" stroke="black" points="39.5,-234.5 144.5,-234.5 "/>
<text text-anchor="middle" x="92" y="-219.3" font-family="Times,serif" font-size="14.00">X ₳</text>
</g>
<!-- Tx0_ADA&#45;&gt;Tx1 -->
<g id="edge2" class="edge">
<title>Tx0_ADA&#45;&gt;Tx1</title>
<path fill="none" stroke="black" d="M144.59,-234.5C188.29,-234.5 252.08,-234.5 304.87,-234.5"/>
<polygon fill="black" stroke="black" points="304.93,-238 314.93,-234.5 304.93,-231 304.93,-238"/>
</g>
<!-- Tx0_Script -->
<g id="node3" class="node">
<title>Tx0_Script</title>
<polygon fill="none" stroke="black" points="0,-108.5 0,-192.5 184,-192.5 184,-108.5 0,-108.5"/>
<text text-anchor="middle" x="92" y="-177.3" font-family="Times,serif" font-size="14.00">Marlowe Application</text>
<polyline fill="none" stroke="black" points="0,-169.5 184,-169.5 "/>
<text text-anchor="middle" x="92" y="-154.3" font-family="Times,serif" font-size="14.00">Y ₳</text>
<polyline fill="none" stroke="black" points="0,-146.5 184,-146.5 "/>
<text text-anchor="middle" x="30" y="-131.3" font-family="Times,serif" font-size="14.00">Prior</text>
<text text-anchor="middle" x="30" y="-116.3" font-family="Times,serif" font-size="14.00">Balance</text>
<polyline fill="none" stroke="black" points="60,-108.5 60,-146.5 "/>
<text text-anchor="middle" x="88.5" y="-131.3" font-family="Times,serif" font-size="14.00">Prior</text>
<text text-anchor="middle" x="88.5" y="-116.3" font-family="Times,serif" font-size="14.00">History</text>
<polyline fill="none" stroke="black" points="117,-108.5 117,-146.5 "/>
<text text-anchor="middle" x="150.5" y="-131.3" font-family="Times,serif" font-size="14.00">Prior</text>
<text text-anchor="middle" x="150.5" y="-116.3" font-family="Times,serif" font-size="14.00">Variables</text>
</g>
<!-- Tx0_Script&#45;&gt;Tx1 -->
<g id="edge3" class="edge">
<title>Tx0_Script&#45;&gt;Tx1</title>
<path fill="none" stroke="black" d="M184.02,-175.48C233.51,-189.05 293.41,-205.49 337.42,-217.57"/>
<polygon fill="black" stroke="black" points="336.56,-220.96 347.13,-220.23 338.41,-214.21 336.56,-220.96"/>
<text text-anchor="middle" x="249.5" y="-208.3" font-family="Times,serif" font-size="14.00">inputs to contract</text>
</g>
<!-- Tx1_0 -->
<g id="node5" class="node">
<title>Tx1_0</title>
<polygon fill="none" stroke="black" points="554.28,-455.5 554.28,-501.5 741.28,-501.5 741.28,-455.5 554.28,-455.5"/>
<text text-anchor="middle" x="647.78" y="-486.3" font-family="Times,serif" font-size="14.00">Same Contract Role</text>
<polyline fill="none" stroke="black" points="554.28,-478.5 741.28,-478.5 "/>
<text text-anchor="middle" x="647.78" y="-463.3" font-family="Times,serif" font-size="14.00">X + Y &#45; Z &#45; P₁ &#45; ... &#45; Pₙ &#45; 1.3 ₳</text>
</g>
<!-- Tx1&#45;&gt;Tx1_0 -->
<g id="edge4" class="edge">
<title>Tx1&#45;&gt;Tx1_0</title>
<path fill="none" stroke="black" d="M408.85,-252.56C427.41,-293.81 478.73,-395.31 554.28,-446.5 556.23,-447.82 558.23,-449.08 560.28,-450.3"/>
<polygon fill="black" stroke="black" points="559.08,-453.64 569.54,-455.36 562.44,-447.49 559.08,-453.64"/>
<text text-anchor="middle" x="519.78" y="-432.3" font-family="Times,serif" font-size="14.00">#0</text>
</g>
<!-- Tx1_1 -->
<g id="node6" class="node">
<title>Tx1_1</title>
<polygon fill="none" stroke="black" points="584.28,-390.5 584.28,-436.5 711.28,-436.5 711.28,-390.5 584.28,-390.5"/>
<text text-anchor="middle" x="647.78" y="-421.3" font-family="Times,serif" font-size="14.00">Same Contract Role</text>
<polyline fill="none" stroke="black" points="584.28,-413.5 711.28,-413.5 "/>
<text text-anchor="middle" x="647.78" y="-398.3" font-family="Times,serif" font-size="14.00">2 ₳ + 1 role token</text>
</g>
<!-- Tx1&#45;&gt;Tx1_1 -->
<g id="edge5" class="edge">
<title>Tx1&#45;&gt;Tx1_1</title>
<path fill="none" stroke="black" d="M415.31,-252.45C440.3,-283.01 495.18,-345.34 554.28,-381.5 560.56,-385.34 567.37,-388.8 574.33,-391.89"/>
<polygon fill="black" stroke="black" points="573.33,-395.26 583.91,-395.89 576.02,-388.8 573.33,-395.26"/>
<text text-anchor="middle" x="519.78" y="-372.3" font-family="Times,serif" font-size="14.00">#1</text>
</g>
<!-- Tx1_2 -->
<g id="node7" class="node">
<title>Tx1_2</title>
<polygon fill="none" stroke="black" points="555.78,-287.5 555.78,-371.5 739.78,-371.5 739.78,-287.5 555.78,-287.5"/>
<text text-anchor="middle" x="647.78" y="-356.3" font-family="Times,serif" font-size="14.00">Marlowe Application</text>
<polyline fill="none" stroke="black" points="555.78,-348.5 739.78,-348.5 "/>
<text text-anchor="middle" x="647.78" y="-333.3" font-family="Times,serif" font-size="14.00">Z ₳</text>
<polyline fill="none" stroke="black" points="555.78,-325.5 739.78,-325.5 "/>
<text text-anchor="middle" x="585.78" y="-310.3" font-family="Times,serif" font-size="14.00">New</text>
<text text-anchor="middle" x="585.78" y="-295.3" font-family="Times,serif" font-size="14.00">Balance</text>
<polyline fill="none" stroke="black" points="615.78,-287.5 615.78,-325.5 "/>
<text text-anchor="middle" x="644.28" y="-310.3" font-family="Times,serif" font-size="14.00">New</text>
<text text-anchor="middle" x="644.28" y="-295.3" font-family="Times,serif" font-size="14.00">History</text>
<polyline fill="none" stroke="black" points="672.78,-287.5 672.78,-325.5 "/>
<text text-anchor="middle" x="706.28" y="-310.3" font-family="Times,serif" font-size="14.00">New</text>
<text text-anchor="middle" x="706.28" y="-295.3" font-family="Times,serif" font-size="14.00">Variables</text>
</g>
<!-- Tx1&#45;&gt;Tx1_2 -->
<g id="edge6" class="edge">
<title>Tx1&#45;&gt;Tx1_2</title>
<path fill="none" stroke="black" d="M441.98,-250.29C470.35,-261.26 509.45,-276.39 545.89,-290.48"/>
<polygon fill="black" stroke="black" points="545,-293.89 555.59,-294.23 547.52,-287.36 545,-293.89"/>
<text text-anchor="middle" x="519.78" y="-288.3" font-family="Times,serif" font-size="14.00">#2</text>
</g>
<!-- Tx1_3 -->
<g id="node8" class="node">
<title>Tx1_3</title>
<polygon fill="none" stroke="black" points="594.28,-200 594.28,-269 701.28,-269 701.28,-200 594.28,-200"/>
<text text-anchor="middle" x="647.78" y="-253.8" font-family="Times,serif" font-size="14.00">Marlowe Payout</text>
<polyline fill="none" stroke="black" points="594.28,-246 701.28,-246 "/>
<text text-anchor="middle" x="647.78" y="-230.8" font-family="Times,serif" font-size="14.00">P₁ ₳</text>
<polyline fill="none" stroke="black" points="594.28,-223 701.28,-223 "/>
<text text-anchor="middle" x="647.78" y="-207.8" font-family="Times,serif" font-size="14.00">Role to be paid</text>
</g>
<!-- Tx1&#45;&gt;Tx1_3 -->
<g id="edge7" class="edge">
<title>Tx1&#45;&gt;Tx1_3</title>
<path fill="none" stroke="black" d="M485.33,-234.5C517.64,-234.5 553.91,-234.5 583.87,-234.5"/>
<polygon fill="black" stroke="black" points="584.19,-238 594.19,-234.5 584.19,-231 584.19,-238"/>
<text text-anchor="middle" x="519.78" y="-238.3" font-family="Times,serif" font-size="14.00">#3</text>
</g>
<!-- Tx1_4 -->
<g id="node9" class="node">
<title>Tx1_4</title>
<text text-anchor="middle" x="647.78" y="-159.8" font-family="Times,serif" font-size="14.00">. . .</text>
</g>
<!-- Tx1&#45;&gt;Tx1_4 -->
<g id="edge8" class="edge">
<title>Tx1&#45;&gt;Tx1_4</title>
<path fill="none" stroke="black" d="M451.15,-220.05C498.58,-206.34 568.68,-186.07 610.83,-173.89"/>
<polygon fill="black" stroke="black" points="612.02,-177.19 620.66,-171.05 610.08,-170.47 612.02,-177.19"/>
</g>
<!-- Tx1_N -->
<g id="node10" class="node">
<title>Tx1_N</title>
<polygon fill="none" stroke="black" points="594.28,-58 594.28,-127 701.28,-127 701.28,-58 594.28,-58"/>
<text text-anchor="middle" x="647.78" y="-111.8" font-family="Times,serif" font-size="14.00">Marlowe Payout</text>
<polyline fill="none" stroke="black" points="594.28,-104 701.28,-104 "/>
<text text-anchor="middle" x="647.78" y="-88.8" font-family="Times,serif" font-size="14.00">Pₙ ₳</text>
<polyline fill="none" stroke="black" points="594.28,-81 701.28,-81 "/>
<text text-anchor="middle" x="647.78" y="-65.8" font-family="Times,serif" font-size="14.00">Role to be paid</text>
</g>
<!-- Tx1&#45;&gt;Tx1_N -->
<g id="edge9" class="edge">
<title>Tx1&#45;&gt;Tx1_N</title>
<path fill="none" stroke="black" d="M426.02,-217.21C455.84,-196.8 507.64,-162.38 554.28,-136.5 563.93,-131.15 574.33,-125.81 584.55,-120.79"/>
<polygon fill="black" stroke="black" points="586.39,-123.78 593.86,-116.27 583.34,-117.49 586.39,-123.78"/>
<text text-anchor="middle" x="519.78" y="-168.3" font-family="Times,serif" font-size="14.00"># n+2</text>
</g>
<!-- Tx1_Fee -->
<g id="node11" class="node">
<title>Tx1_Fee</title>
<polygon fill="none" stroke="black" points="620.78,-0.5 620.78,-38.5 674.78,-38.5 674.78,-0.5 620.78,-0.5"/>
<text text-anchor="middle" x="647.78" y="-23.3" font-family="Times,serif" font-size="14.00">Fee</text>
<text text-anchor="middle" x="647.78" y="-8.3" font-family="Times,serif" font-size="14.00">1.3 ₳</text>
</g>
<!-- Tx1&#45;&gt;Tx1_Fee -->
<g id="edge10" class="edge">
<title>Tx1&#45;&gt;Tx1_Fee</title>
<path fill="none" stroke="black" d="M411.07,-216.47C432.37,-179.44 486.12,-94.43 554.28,-48.5 571.16,-37.13 592.74,-30.03 610.81,-25.7"/>
<polygon fill="black" stroke="black" points="611.69,-29.09 620.7,-23.52 610.18,-22.26 611.69,-29.09"/>
</g>
</g>
</svg>
