<?xml version="1.0" encoding="UTF-8" standalone="no"?>
<!DOCTYPE svg PUBLIC "-//W3C//DTD SVG 1.1//EN"
 "http://www.w3.org/Graphics/SVG/1.1/DTD/svg11.dtd">
<!-- Generated by graphviz version 2.49.3 (0)
 -->
<!-- Title: Create Pages: 1 -->
<svg width="510pt" height="450pt"
 viewBox="0.00 0.00 510.29 450.00" xmlns="http://www.w3.org/2000/svg" xmlns:xlink="http://www.w3.org/1999/xlink">
<g id="graph0" class="graph" transform="scale(1 1) rotate(0) translate(4 446)">
<title>Create</title>
<polygon fill="white" stroke="transparent" points="-4,4 -4,-446 506.29,-446 506.29,4 -4,4"/>
<!-- Tx0_Creator -->
<g id="node1" class="node">
<title>Tx0_Creator</title>
<polygon fill="none" stroke="black" points="0,-177.5 0,-223.5 107,-223.5 107,-177.5 0,-177.5"/>
<text text-anchor="middle" x="53.5" y="-208.3" font-family="Times,serif" font-size="14.00">Contract Creator</text>
<polyline fill="none" stroke="black" points="0,-200.5 107,-200.5 "/>
<text text-anchor="middle" x="53.5" y="-185.3" font-family="Times,serif" font-size="14.00">X ₳</text>
</g>
<!-- Tx1 -->
<g id="node2" class="node">
<title>Tx1</title>
<ellipse fill="none" stroke="black" cx="196.65" cy="-200.5" rx="52.79" ry="18"/>
<text text-anchor="middle" x="196.65" y="-196.8" font-family="Times,serif" font-size="14.00">Creation Tx</text>
</g>
<!-- Tx0_Creator&#45;&gt;Tx1 -->
<g id="edge1" class="edge">
<title>Tx0_Creator&#45;&gt;Tx1</title>
<path fill="none" stroke="black" d="M107.06,-200.5C115.83,-200.5 124.99,-200.5 133.97,-200.5"/>
<polygon fill="black" stroke="black" points="133.98,-204 143.98,-200.5 133.98,-197 133.98,-204"/>
</g>
<!-- Tx1_0 -->
<g id="node3" class="node">
<title>Tx1_0</title>
<polygon fill="none" stroke="black" points="341.79,-395.5 341.79,-441.5 478.79,-441.5 478.79,-395.5 341.79,-395.5"/>
<text text-anchor="middle" x="410.29" y="-426.3" font-family="Times,serif" font-size="14.00">Contract Creator</text>
<polyline fill="none" stroke="black" points="341.79,-418.5 478.79,-418.5 "/>
<text text-anchor="middle" x="410.29" y="-403.3" font-family="Times,serif" font-size="14.00">X − 2 (n + 1) − 0.2 ₳</text>
</g>
<!-- Tx1&#45;&gt;Tx1_0 -->
<g id="edge2" class="edge">
<title>Tx1&#45;&gt;Tx1_0</title>
<path fill="none" stroke="black" d="M204.54,-218.39C219.58,-255.17 258.86,-339.73 318.29,-386.5 322.65,-389.93 327.4,-393.01 332.38,-395.77"/>
<polygon fill="black" stroke="black" points="331.03,-399.01 341.53,-400.4 334.19,-392.76 331.03,-399.01"/>
<text text-anchor="middle" x="283.79" y="-369.3" font-family="Times,serif" font-size="14.00">#0</text>
</g>
<!-- Tx1_1 -->
<g id="node4" class="node">
<title>Tx1_1</title>
<polygon fill="none" stroke="black" points="318.29,-308 318.29,-377 502.29,-377 502.29,-308 318.29,-308"/>
<text text-anchor="middle" x="410.29" y="-361.8" font-family="Times,serif" font-size="14.00">Marlowe Application</text>
<polyline fill="none" stroke="black" points="318.29,-354 502.29,-354 "/>
<text text-anchor="middle" x="410.29" y="-338.8" font-family="Times,serif" font-size="14.00">2 ₳</text>
<polyline fill="none" stroke="black" points="318.29,-331 502.29,-331 "/>
<text text-anchor="middle" x="348.29" y="-315.8" font-family="Times,serif" font-size="14.00">Balance</text>
<polyline fill="none" stroke="black" points="378.29,-308 378.29,-331 "/>
<text text-anchor="middle" x="406.79" y="-315.8" font-family="Times,serif" font-size="14.00">History</text>
<polyline fill="none" stroke="black" points="435.29,-308 435.29,-331 "/>
<text text-anchor="middle" x="468.79" y="-315.8" font-family="Times,serif" font-size="14.00">Variables</text>
</g>
<!-- Tx1&#45;&gt;Tx1_1 -->
<g id="edge3" class="edge">
<title>Tx1&#45;&gt;Tx1_1</title>
<path fill="none" stroke="black" d="M215.84,-217.55C238.6,-238.33 279.35,-273.74 318.29,-298.5 320.49,-299.9 322.75,-301.29 325.04,-302.66"/>
<polygon fill="black" stroke="black" points="323.63,-305.88 334.04,-307.84 327.12,-299.82 323.63,-305.88"/>
<text text-anchor="middle" x="283.79" y="-287.3" font-family="Times,serif" font-size="14.00">#1</text>
</g>
<!-- Tx1_2 -->
<g id="node5" class="node">
<title>Tx1_2</title>
<polygon fill="none" stroke="black" points="356.79,-242.5 356.79,-288.5 463.79,-288.5 463.79,-242.5 356.79,-242.5"/>
<text text-anchor="middle" x="410.29" y="-273.3" font-family="Times,serif" font-size="14.00">First Role</text>
<polyline fill="none" stroke="black" points="356.79,-265.5 463.79,-265.5 "/>
<text text-anchor="middle" x="410.29" y="-250.3" font-family="Times,serif" font-size="14.00">2 ₳ + role token</text>
</g>
<!-- Tx1&#45;&gt;Tx1_2 -->
<g id="edge4" class="edge">
<title>Tx1&#45;&gt;Tx1_2</title>
<path fill="none" stroke="black" d="M236.46,-212.42C267.33,-221.9 311.13,-235.35 346.9,-246.34"/>
<polygon fill="black" stroke="black" points="346.18,-249.78 356.77,-249.37 348.23,-243.09 346.18,-249.78"/>
<text text-anchor="middle" x="283.79" y="-234.3" font-family="Times,serif" font-size="14.00">#2</text>
</g>
<!-- Tx1_3 -->
<g id="node6" class="node">
<title>Tx1_3</title>
<polygon fill="none" stroke="black" points="356.79,-177.5 356.79,-223.5 463.79,-223.5 463.79,-177.5 356.79,-177.5"/>
<text text-anchor="middle" x="410.29" y="-208.3" font-family="Times,serif" font-size="14.00">Second Role</text>
<polyline fill="none" stroke="black" points="356.79,-200.5 463.79,-200.5 "/>
<text text-anchor="middle" x="410.29" y="-185.3" font-family="Times,serif" font-size="14.00">2 ₳ + role token</text>
</g>
<!-- Tx1&#45;&gt;Tx1_3 -->
<g id="edge5" class="edge">
<title>Tx1&#45;&gt;Tx1_3</title>
<path fill="none" stroke="black" d="M249.42,-200.5C278.67,-200.5 315.44,-200.5 346.34,-200.5"/>
<polygon fill="black" stroke="black" points="346.58,-204 356.58,-200.5 346.58,-197 346.58,-204"/>
<text text-anchor="middle" x="283.79" y="-204.3" font-family="Times,serif" font-size="14.00">#3</text>
</g>
<!-- Tx1_Ditto -->
<g id="node7" class="node">
<title>Tx1_Ditto</title>
<text text-anchor="middle" x="410.29" y="-136.8" font-family="Times,serif" font-size="14.00">. . .</text>
</g>
<!-- Tx1&#45;&gt;Tx1_Ditto -->
<g id="edge6" class="edge">
<title>Tx1&#45;&gt;Tx1_Ditto</title>
<path fill="none" stroke="black" d="M237.95,-189.07C276.98,-178.01 335.61,-161.39 373.16,-150.74"/>
<polygon fill="black" stroke="black" points="374.49,-154 383.16,-147.91 372.58,-147.27 374.49,-154"/>
</g>
<!-- Tx1_N -->
<g id="node8" class="node">
<title>Tx1_N</title>
<polygon fill="none" stroke="black" points="356.79,-57.5 356.79,-103.5 463.79,-103.5 463.79,-57.5 356.79,-57.5"/>
<text text-anchor="middle" x="410.29" y="-88.3" font-family="Times,serif" font-size="14.00">nth Role</text>
<polyline fill="none" stroke="black" points="356.79,-80.5 463.79,-80.5 "/>
<text text-anchor="middle" x="410.29" y="-65.3" font-family="Times,serif" font-size="14.00">2 ₳ + role token</text>
</g>
<!-- Tx1&#45;&gt;Tx1_N -->
<g id="edge7" class="edge">
<title>Tx1&#45;&gt;Tx1_N</title>
<path fill="none" stroke="black" d="M217.43,-183.57C240.44,-164.54 280.17,-133.66 318.29,-113.5 327.41,-108.68 337.39,-104.27 347.29,-100.36"/>
<polygon fill="black" stroke="black" points="348.63,-103.59 356.73,-96.76 346.14,-97.05 348.63,-103.59"/>
<text text-anchor="middle" x="283.79" y="-147.3" font-family="Times,serif" font-size="14.00"># n+1</text>
</g>
<!-- Tx1_Fee -->
<g id="node9" class="node">
<title>Tx1_Fee</title>
<polygon fill="none" stroke="black" points="383.29,-0.5 383.29,-38.5 437.29,-38.5 437.29,-0.5 383.29,-0.5"/>
<text text-anchor="middle" x="410.29" y="-23.3" font-family="Times,serif" font-size="14.00">Fee</text>
<text text-anchor="middle" x="410.29" y="-8.3" font-family="Times,serif" font-size="14.00">0.2 ₳</text>
</g>
<!-- Tx1&#45;&gt;Tx1_Fee -->
<g id="edge8" class="edge">
<title>Tx1&#45;&gt;Tx1_Fee</title>
<path fill="none" stroke="black" d="M207.06,-182.65C224.67,-150.98 265.61,-84.87 318.29,-48.5 334.6,-37.24 355.52,-30.17 373.19,-25.84"/>
<polygon fill="black" stroke="black" points="374.17,-29.2 383.16,-23.59 372.63,-22.37 374.17,-29.2"/>
</g>
</g>
</svg>
