<?xml version="1.0" encoding="UTF-8" standalone="no"?>
<!DOCTYPE svg PUBLIC "-//W3C//DTD SVG 1.1//EN"
 "http://www.w3.org/Graphics/SVG/1.1/DTD/svg11.dtd">
<!-- Generated by graphviz version 2.49.3 (0)
 -->
<!-- Title: EscrowUtxos Pages: 1 -->
<svg width="564pt" height="358pt"
 viewBox="0.00 0.00 563.60 358.00" xmlns="http://www.w3.org/2000/svg" xmlns:xlink="http://www.w3.org/1999/xlink">
<g id="graph0" class="graph" transform="scale(1 1) rotate(0) translate(4 354)">
<title>EscrowUtxos</title>
<polygon fill="white" stroke="transparent" points="-4,4 -4,-354 559.6,-354 559.6,4 -4,4"/>
<g id="clust1" class="cluster">
<title>cluster_2</title>
</g>
<g id="clust2" class="cluster">
<title>cluster_3</title>
</g>
<!-- Tx2_0 -->
<g id="node1" class="node">
<title>Tx2_0</title>
<polygon fill="none" stroke="darkred" points="38,-227.5 38,-288.5 124,-288.5 124,-227.5 38,-227.5"/>
<text text-anchor="middle" x="81" y="-273.3" font-family="Times,serif" font-size="14.00" fill="darkred">Thomas</text>
<text text-anchor="middle" x="81" y="-258.3" font-family="Times,serif" font-size="14.00" fill="darkred">Middleton</text>
<polyline fill="none" stroke="darkred" points="38,-250.5 124,-250.5 "/>
<text text-anchor="middle" x="81" y="-235.3" font-family="Times,serif" font-size="14.00" fill="darkred">2696.0 ADA</text>
</g>
<!-- Tx3 -->
<g id="node4" class="node">
<title>Tx3</title>
<ellipse fill="none" stroke="darkred" cx="312.3" cy="-178" rx="27.1" ry="18"/>
<text text-anchor="middle" x="312.3" y="-174.3" font-family="Times,serif" font-size="14.00" fill="darkred">Tx 3</text>
</g>
<!-- Tx2_0&#45;&gt;Tx3 -->
<g id="edge2" class="edge">
<title>Tx2_0&#45;&gt;Tx3</title>
<path fill="none" stroke="darkred" d="M124.06,-243.33C168.49,-227.82 237.63,-203.7 278.3,-189.51"/>
<polygon fill="darkred" stroke="darkred" points="279.45,-192.82 287.74,-186.22 277.15,-186.21 279.45,-192.82"/>
</g>
<!-- Tx2_2 -->
<g id="node2" class="node">
<title>Tx2_2</title>
<polygon fill="none" stroke="darkred" points="30.5,-147.5 30.5,-208.5 131.5,-208.5 131.5,-147.5 30.5,-147.5"/>
<text text-anchor="middle" x="81" y="-193.3" font-family="Times,serif" font-size="14.00" fill="darkred">Thomas</text>
<text text-anchor="middle" x="81" y="-178.3" font-family="Times,serif" font-size="14.00" fill="darkred">Midddleton</text>
<polyline fill="none" stroke="darkred" points="30.5,-170.5 131.5,-170.5 "/>
<text text-anchor="middle" x="81" y="-155.3" font-family="Times,serif" font-size="14.00" fill="darkred">3 ADA + 1 TM</text>
</g>
<!-- Tx2_2&#45;&gt;Tx3 -->
<g id="edge3" class="edge">
<title>Tx2_2&#45;&gt;Tx3</title>
<path fill="none" stroke="darkred" d="M131.75,-178C174.74,-178 235.86,-178 274.54,-178"/>
<polygon fill="darkred" stroke="darkred" points="274.82,-181.5 284.82,-178 274.82,-174.5 274.82,-181.5"/>
</g>
<!-- Tx2_1 -->
<g id="node3" class="node">
<title>Tx2_1</title>
<polygon fill="none" stroke="darkred" points="0,-13.5 0,-128.5 162,-128.5 162,-13.5 0,-13.5"/>
<text text-anchor="middle" x="81" y="-113.3" font-family="Times,serif" font-size="14.00" fill="darkred">Marlowe Script</text>
<polyline fill="none" stroke="darkred" points="0,-105.5 162,-105.5 "/>
<text text-anchor="middle" x="81" y="-90.3" font-family="Times,serif" font-size="14.00" fill="darkred">259 ADA</text>
<polyline fill="none" stroke="darkred" points="0,-82.5 162,-82.5 "/>
<text text-anchor="middle" x="22" y="-44.3" font-family="Times,serif" font-size="14.00" fill="darkred">State</text>
<polyline fill="none" stroke="darkred" points="44,-13.5 44,-82.5 "/>
<text text-anchor="middle" x="103" y="-67.3" font-family="Times,serif" font-size="14.00" fill="darkred">F.B. has 256 ADA</text>
<polyline fill="none" stroke="darkred" points="44,-59.5 162,-59.5 "/>
<text text-anchor="middle" x="103" y="-44.3" font-family="Times,serif" font-size="14.00" fill="darkred">T.M. has 0 ADA</text>
<polyline fill="none" stroke="darkred" points="44,-36.5 162,-36.5 "/>
<text text-anchor="middle" x="103" y="-21.3" font-family="Times,serif" font-size="14.00" fill="darkred">C.M. has 3 ADA</text>
</g>
<!-- Tx2_1&#45;&gt;Tx3 -->
<g id="edge1" class="edge">
<title>Tx2_1&#45;&gt;Tx3</title>
<path fill="none" stroke="darkred" d="M162.2,-108.42C202.98,-127.46 250.18,-149.48 280.37,-163.57"/>
<polygon fill="darkred" stroke="darkred" points="279,-166.79 289.54,-167.85 281.96,-160.45 279,-166.79"/>
<text text-anchor="middle" x="223.5" y="-157.8" font-family="Times,serif" font-size="14.00" fill="darkred">Report problem</text>
</g>
<!-- Tx3_1 -->
<g id="node5" class="node">
<title>Tx3_1</title>
<polygon fill="none" stroke="black" points="389.6,-234.5 389.6,-349.5 555.6,-349.5 555.6,-234.5 389.6,-234.5"/>
<text text-anchor="middle" x="472.6" y="-334.3" font-family="Times,serif" font-size="14.00">Marlowe Script</text>
<polyline fill="none" stroke="black" points="389.6,-326.5 555.6,-326.5 "/>
<text text-anchor="middle" x="472.6" y="-311.3" font-family="Times,serif" font-size="14.00">259 ADA</text>
<polyline fill="none" stroke="black" points="389.6,-303.5 555.6,-303.5 "/>
<text text-anchor="middle" x="411.6" y="-265.3" font-family="Times,serif" font-size="14.00">State</text>
<polyline fill="none" stroke="black" points="433.6,-234.5 433.6,-303.5 "/>
<text text-anchor="middle" x="494.6" y="-288.3" font-family="Times,serif" font-size="14.00">F.B. has 0 ADA</text>
<polyline fill="none" stroke="black" points="433.6,-280.5 555.6,-280.5 "/>
<text text-anchor="middle" x="494.6" y="-265.3" font-family="Times,serif" font-size="14.00">T.M. has 256 ADA</text>
<polyline fill="none" stroke="black" points="433.6,-257.5 555.6,-257.5 "/>
<text text-anchor="middle" x="494.6" y="-242.3" font-family="Times,serif" font-size="14.00">C.M. has 3 ADA</text>
</g>
<!-- Tx3&#45;&gt;Tx3_1 -->
<g id="edge4" class="edge">
<title>Tx3&#45;&gt;Tx3_1</title>
<path fill="none" stroke="darkred" d="M331.46,-191.08C344.66,-200.59 363.61,-214.23 383.33,-228.43"/>
<polygon fill="darkred" stroke="darkred" points="381.35,-231.32 391.51,-234.32 385.44,-225.64 381.35,-231.32"/>
<text text-anchor="middle" x="364.6" y="-221.8" font-family="Times,serif" font-size="14.00" fill="darkred">#1</text>
</g>
<!-- Tx3_Fee -->
<g id="node6" class="node">
<title>Tx3_Fee</title>
<polygon fill="none" stroke="darkred" points="439.6,-177 439.6,-215 505.6,-215 505.6,-177 439.6,-177"/>
<text text-anchor="middle" x="472.6" y="-199.8" font-family="Times,serif" font-size="14.00" fill="darkred">Fee</text>
<text text-anchor="middle" x="472.6" y="-184.8" font-family="Times,serif" font-size="14.00" fill="darkred">1.4 ADA</text>
</g>
<!-- Tx3&#45;&gt;Tx3_Fee -->
<g id="edge5" class="edge">
<title>Tx3&#45;&gt;Tx3_Fee</title>
<path fill="none" stroke="darkred" d="M339.44,-180.97C363.84,-183.75 400.68,-187.94 429.27,-191.19"/>
<polygon fill="darkred" stroke="darkred" points="429.06,-194.69 439.39,-192.34 429.85,-187.73 429.06,-194.69"/>
</g>
<!-- Tx3_0 -->
<g id="node7" class="node">
<title>Tx3_0</title>
<polygon fill="none" stroke="black" points="429.6,-96.5 429.6,-157.5 515.6,-157.5 515.6,-96.5 429.6,-96.5"/>
<text text-anchor="middle" x="472.6" y="-142.3" font-family="Times,serif" font-size="14.00">Thomas</text>
<text text-anchor="middle" x="472.6" y="-127.3" font-family="Times,serif" font-size="14.00">Middleton</text>
<polyline fill="none" stroke="black" points="429.6,-119.5 515.6,-119.5 "/>
<text text-anchor="middle" x="472.6" y="-104.3" font-family="Times,serif" font-size="14.00">2694.6 ADA</text>
</g>
<!-- Tx3&#45;&gt;Tx3_0 -->
<g id="edge6" class="edge">
<title>Tx3&#45;&gt;Tx3_0</title>
<path fill="none" stroke="darkred" d="M337.34,-170.25C359.16,-163.22 392.07,-152.62 419.84,-143.67"/>
<polygon fill="darkred" stroke="darkred" points="420.98,-146.98 429.42,-140.59 418.83,-140.32 420.98,-146.98"/>
<text text-anchor="middle" x="364.6" y="-165.8" font-family="Times,serif" font-size="14.00" fill="darkred">#0</text>
</g>
<!-- Tx3_2 -->
<g id="node8" class="node">
<title>Tx3_2</title>
<polygon fill="none" stroke="black" points="422.1,-16.5 422.1,-77.5 523.1,-77.5 523.1,-16.5 422.1,-16.5"/>
<text text-anchor="middle" x="472.6" y="-62.3" font-family="Times,serif" font-size="14.00">Thomas</text>
<text text-anchor="middle" x="472.6" y="-47.3" font-family="Times,serif" font-size="14.00">Middleton</text>
<polyline fill="none" stroke="black" points="422.1,-39.5 523.1,-39.5 "/>
<text text-anchor="middle" x="472.6" y="-24.3" font-family="Times,serif" font-size="14.00">3 ADA + 1 TM</text>
</g>
<!-- Tx3&#45;&gt;Tx3_2 -->
<g id="edge7" class="edge">
<title>Tx3&#45;&gt;Tx3_2</title>
<path fill="none" stroke="darkred" d="M323.99,-161.4C337.4,-141.63 361.98,-108.58 389.6,-87 396.74,-81.41 404.8,-76.32 413,-71.79"/>
<polygon fill="darkred" stroke="darkred" points="414.7,-74.85 421.91,-67.09 411.43,-68.66 414.7,-74.85"/>
<text text-anchor="middle" x="364.6" y="-119.8" font-family="Times,serif" font-size="14.00" fill="darkred">#2</text>
</g>
</g>
</svg>
