<?xml version="1.0" encoding="UTF-8" standalone="no"?>
<!DOCTYPE svg PUBLIC "-//W3C//DTD SVG 1.1//EN"
 "http://www.w3.org/Graphics/SVG/1.1/DTD/svg11.dtd">
<!-- Generated by graphviz version 2.49.3 (0)
 -->
<!-- Title: ConfirmClaimTx Pages: 1 -->
<svg width="2272pt" height="844pt"
 viewBox="0.00 0.00 2271.57 844.00" xmlns="http://www.w3.org/2000/svg" xmlns:xlink="http://www.w3.org/1999/xlink">
<g id="graph0" class="graph" transform="scale(1 1) rotate(0) translate(4 840)">
<title>ConfirmClaimTx</title>
<polygon fill="white" stroke="transparent" points="-4,4 -4,-840 2267.57,-840 2267.57,4 -4,4"/>
<g id="clust1" class="cluster">
<title>cluster_0</title>
</g>
<g id="clust2" class="cluster">
<title>cluster_0s</title>
</g>
<g id="clust3" class="cluster">
<title>cluster_0b</title>
</g>
<g id="clust4" class="cluster">
<title>cluster_0m</title>
</g>
<g id="clust5" class="cluster">
<title>cluster_2</title>
</g>
<g id="clust6" class="cluster">
<title>cluster_4</title>
</g>
<g id="clust7" class="cluster">
<title>cluster_5</title>
</g>
<g id="clust8" class="cluster">
<title>cluster_5p</title>
</g>
<g id="clust9" class="cluster">
<title>cluster_x</title>
</g>
<g id="clust10" class="cluster">
<title>cluster_3</title>
</g>
<g id="clust11" class="cluster">
<title>cluster_6</title>
</g>
<g id="clust12" class="cluster">
<title>cluster_7</title>
</g>
<!-- Tx0SellerAda -->
<g id="node1" class="node">
<title>Tx0SellerAda</title>
<polygon fill="none" stroke="black" points="33,-695.5 33,-756.5 149,-756.5 149,-695.5 33,-695.5"/>
<text text-anchor="middle" x="91" y="-741.3" font-family="Times,serif" font-size="14.00">Francis Beaumont</text>
<text text-anchor="middle" x="91" y="-726.3" font-family="Times,serif" font-size="14.00">(the seller)</text>
<polyline fill="none" stroke="black" points="33,-718.5 149,-718.5 "/>
<text text-anchor="middle" x="91" y="-703.3" font-family="Times,serif" font-size="14.00">3003.6 ADA</text>
</g>
<!-- Tx4 -->
<g id="node19" class="node">
<title>Tx4</title>
<ellipse fill="none" stroke="black" cx="1354.08" cy="-688" rx="27.1" ry="18"/>
<text text-anchor="middle" x="1354.08" y="-684.3" font-family="Times,serif" font-size="14.00">Tx 4</text>
</g>
<!-- Tx0SellerAda&#45;&gt;Tx4 -->
<g id="edge18" class="edge">
<title>Tx0SellerAda&#45;&gt;Tx4</title>
<path fill="none" stroke="black" d="M149.27,-726C173.37,-726 201.69,-726 227.3,-726 227.3,-726 227.3,-726 1116.79,-726 1202.78,-726 1224.77,-720.37 1308.79,-702 1312.39,-701.21 1316.11,-700.26 1319.8,-699.23"/>
<polygon fill="black" stroke="black" points="1320.81,-702.58 1329.39,-696.36 1318.81,-695.87 1320.81,-702.58"/>
</g>
<!-- Tx0SellerToken -->
<g id="node2" class="node">
<title>Tx0SellerToken</title>
<polygon fill="none" stroke="black" points="33,-615.5 33,-676.5 149,-676.5 149,-615.5 33,-615.5"/>
<text text-anchor="middle" x="91" y="-661.3" font-family="Times,serif" font-size="14.00">Francis Beaumont</text>
<text text-anchor="middle" x="91" y="-646.3" font-family="Times,serif" font-size="14.00">(the seller)</text>
<polyline fill="none" stroke="black" points="33,-638.5 149,-638.5 "/>
<text text-anchor="middle" x="91" y="-623.3" font-family="Times,serif" font-size="14.00">2 ADA + 1 FB</text>
</g>
<!-- Tx0SellerToken&#45;&gt;Tx4 -->
<g id="edge19" class="edge">
<title>Tx0SellerToken&#45;&gt;Tx4</title>
<path fill="none" stroke="black" d="M149.07,-672C172.77,-680.59 200.86,-688 227.3,-688 227.3,-688 227.3,-688 1116.79,-688 1187.39,-688 1269.85,-688 1316.32,-688"/>
<polygon fill="black" stroke="black" points="1316.51,-691.5 1326.51,-688 1316.51,-684.5 1316.51,-691.5"/>
</g>
<!-- Tx0BuyerAda -->
<g id="node3" class="node">
<title>Tx0BuyerAda</title>
<polygon fill="none" stroke="black" points="30,-529.5 30,-590.5 152,-590.5 152,-529.5 30,-529.5"/>
<text text-anchor="middle" x="91" y="-575.3" font-family="Times,serif" font-size="14.00">Thomas Middleton</text>
<text text-anchor="middle" x="91" y="-560.3" font-family="Times,serif" font-size="14.00">(the buyer)</text>
<polyline fill="none" stroke="black" points="30,-552.5 152,-552.5 "/>
<text text-anchor="middle" x="91" y="-537.3" font-family="Times,serif" font-size="14.00">2954.4 ADA</text>
</g>
<!-- Tx2 -->
<g id="node11" class="node">
<title>Tx2</title>
<ellipse fill="none" stroke="black" cx="565.89" cy="-495" rx="27.1" ry="18"/>
<text text-anchor="middle" x="565.89" y="-491.3" font-family="Times,serif" font-size="14.00">Tx 2</text>
</g>
<!-- Tx0BuyerAda&#45;&gt;Tx2 -->
<g id="edge6" class="edge">
<title>Tx0BuyerAda&#45;&gt;Tx2</title>
<path fill="none" stroke="black" d="M152.29,-559.16C236.18,-556.72 392.27,-547.59 520.6,-514 525.09,-512.82 529.71,-511.26 534.21,-509.54"/>
<polygon fill="black" stroke="black" points="535.82,-512.66 543.72,-505.6 533.14,-506.2 535.82,-512.66"/>
</g>
<!-- Tx0BuyerToken -->
<g id="node4" class="node">
<title>Tx0BuyerToken</title>
<polygon fill="none" stroke="black" points="30,-449.5 30,-510.5 152,-510.5 152,-449.5 30,-449.5"/>
<text text-anchor="middle" x="91" y="-495.3" font-family="Times,serif" font-size="14.00">Thomas Middleton</text>
<text text-anchor="middle" x="91" y="-480.3" font-family="Times,serif" font-size="14.00">(the buyer)</text>
<polyline fill="none" stroke="black" points="30,-472.5 152,-472.5 "/>
<text text-anchor="middle" x="91" y="-457.3" font-family="Times,serif" font-size="14.00">2 ADA + 1 TM</text>
</g>
<!-- Tx0BuyerToken&#45;&gt;Tx2 -->
<g id="edge7" class="edge">
<title>Tx0BuyerToken&#45;&gt;Tx2</title>
<path fill="none" stroke="black" d="M152.17,-488.22C194.88,-493.63 253.64,-500.21 305.6,-503 373.94,-506.67 391.2,-505.59 459.6,-503 482.53,-502.13 508.21,-500.2 528.47,-498.45"/>
<polygon fill="black" stroke="black" points="528.87,-501.93 538.53,-497.56 528.26,-494.96 528.87,-501.93"/>
</g>
<!-- Tx0MediatorAda -->
<g id="node5" class="node">
<title>Tx0MediatorAda</title>
<polygon fill="none" stroke="black" points="24,-363.5 24,-424.5 158,-424.5 158,-363.5 24,-363.5"/>
<text text-anchor="middle" x="91" y="-409.3" font-family="Times,serif" font-size="14.00">Christopher Marlowe</text>
<text text-anchor="middle" x="91" y="-394.3" font-family="Times,serif" font-size="14.00">(the mediator)</text>
<polyline fill="none" stroke="black" points="24,-386.5 158,-386.5 "/>
<text text-anchor="middle" x="91" y="-371.3" font-family="Times,serif" font-size="14.00">1965.7 ADA</text>
</g>
<!-- Tx1 -->
<g id="node7" class="node">
<title>Tx1</title>
<ellipse fill="none" stroke="black" cx="228.3" cy="-371" rx="27.1" ry="18"/>
<text text-anchor="middle" x="228.3" y="-367.3" font-family="Times,serif" font-size="14.00">Tx 1</text>
</g>
<!-- Tx0MediatorAda&#45;&gt;Tx1 -->
<g id="edge1" class="edge">
<title>Tx0MediatorAda&#45;&gt;Tx1</title>
<path fill="none" stroke="black" d="M158.06,-382.77C169.74,-380.79 181.47,-378.79 191.88,-377.02"/>
<polygon fill="black" stroke="black" points="192.52,-380.46 201.79,-375.34 191.34,-373.56 192.52,-380.46"/>
</g>
<!-- Tx0MediatorToken -->
<g id="node6" class="node">
<title>Tx0MediatorToken</title>
<polygon fill="none" stroke="black" points="24,-283.5 24,-344.5 158,-344.5 158,-283.5 24,-283.5"/>
<text text-anchor="middle" x="91" y="-329.3" font-family="Times,serif" font-size="14.00">Christopher Marlowe</text>
<text text-anchor="middle" x="91" y="-314.3" font-family="Times,serif" font-size="14.00">(the mediator)</text>
<polyline fill="none" stroke="black" points="24,-306.5 158,-306.5 "/>
<text text-anchor="middle" x="91" y="-291.3" font-family="Times,serif" font-size="14.00">2 ADA + 1 CM</text>
</g>
<!-- Tx5 -->
<g id="node24" class="node">
<title>Tx5</title>
<ellipse fill="none" stroke="black" cx="1739.68" cy="-240" rx="27.1" ry="18"/>
<text text-anchor="middle" x="1739.68" y="-236.3" font-family="Times,serif" font-size="14.00">Tx 5</text>
</g>
<!-- Tx0MediatorToken&#45;&gt;Tx5 -->
<g id="edge26" class="edge">
<title>Tx0MediatorToken&#45;&gt;Tx5</title>
<path fill="none" stroke="black" d="M113.61,-283.4C137.61,-253.35 179.35,-212 227.3,-212 227.3,-212 227.3,-212 1515.38,-212 1582.3,-212 1659.62,-224.53 1703.48,-232.83"/>
<polygon fill="black" stroke="black" points="1702.88,-236.28 1713.36,-234.73 1704.2,-229.4 1702.88,-236.28"/>
</g>
<!-- Tx1_0 -->
<g id="node8" class="node">
<title>Tx1_0</title>
<polygon fill="none" stroke="black" points="339.6,-298.5 339.6,-359.5 425.6,-359.5 425.6,-298.5 339.6,-298.5"/>
<text text-anchor="middle" x="382.6" y="-344.3" font-family="Times,serif" font-size="14.00">Christopher</text>
<text text-anchor="middle" x="382.6" y="-329.3" font-family="Times,serif" font-size="14.00">Marlowe</text>
<polyline fill="none" stroke="black" points="339.6,-321.5 425.6,-321.5 "/>
<text text-anchor="middle" x="382.6" y="-306.3" font-family="Times,serif" font-size="14.00">1962.5 ADA</text>
</g>
<!-- Tx1&#45;&gt;Tx1_0 -->
<g id="edge2" class="edge">
<title>Tx1&#45;&gt;Tx1_0</title>
<path fill="none" stroke="black" d="M253.77,-364.25C274.11,-358.64 303.76,-350.47 329.38,-343.4"/>
<polygon fill="black" stroke="black" points="330.64,-346.68 339.35,-340.65 328.77,-339.94 330.64,-346.68"/>
<text text-anchor="middle" x="280.6" y="-361.8" font-family="Times,serif" font-size="14.00">#0</text>
</g>
<!-- Tx1_1 -->
<g id="node9" class="node">
<title>Tx1_1</title>
<polygon fill="none" stroke="black" points="305.6,-378.5 305.6,-493.5 459.6,-493.5 459.6,-378.5 305.6,-378.5"/>
<text text-anchor="middle" x="382.6" y="-478.3" font-family="Times,serif" font-size="14.00">Marlowe Script</text>
<polyline fill="none" stroke="black" points="305.6,-470.5 459.6,-470.5 "/>
<text text-anchor="middle" x="382.6" y="-455.3" font-family="Times,serif" font-size="14.00">3 ADA</text>
<polyline fill="none" stroke="black" points="305.6,-447.5 459.6,-447.5 "/>
<text text-anchor="middle" x="327.6" y="-409.3" font-family="Times,serif" font-size="14.00">State</text>
<polyline fill="none" stroke="black" points="349.6,-378.5 349.6,-447.5 "/>
<text text-anchor="middle" x="404.6" y="-432.3" font-family="Times,serif" font-size="14.00">F.B. has 0 ADA</text>
<polyline fill="none" stroke="black" points="349.6,-424.5 459.6,-424.5 "/>
<text text-anchor="middle" x="404.6" y="-409.3" font-family="Times,serif" font-size="14.00">T.M. has 0 ADA</text>
<polyline fill="none" stroke="black" points="349.6,-401.5 459.6,-401.5 "/>
<text text-anchor="middle" x="404.6" y="-386.3" font-family="Times,serif" font-size="14.00">C.M. has 3 ADA</text>
</g>
<!-- Tx1&#45;&gt;Tx1_1 -->
<g id="edge3" class="edge">
<title>Tx1&#45;&gt;Tx1_1</title>
<path fill="none" stroke="black" d="M251.77,-380.59C263.8,-385.73 279.48,-392.42 295.75,-399.36"/>
<polygon fill="black" stroke="black" points="294.81,-402.77 305.38,-403.47 297.56,-396.33 294.81,-402.77"/>
<text text-anchor="middle" x="280.6" y="-398.8" font-family="Times,serif" font-size="14.00">#1</text>
</g>
<!-- Tx1_Fee -->
<g id="node10" class="node">
<title>Tx1_Fee</title>
<polygon fill="none" stroke="black" points="349.6,-241 349.6,-279 415.6,-279 415.6,-241 349.6,-241"/>
<text text-anchor="middle" x="382.6" y="-263.8" font-family="Times,serif" font-size="14.00">Fee</text>
<text text-anchor="middle" x="382.6" y="-248.8" font-family="Times,serif" font-size="14.00">0.2 ADA</text>
</g>
<!-- Tx1&#45;&gt;Tx1_Fee -->
<g id="edge4" class="edge">
<title>Tx1&#45;&gt;Tx1_Fee</title>
<path fill="none" stroke="black" d="M240.79,-354.74C254.4,-336.51 278.66,-307.15 305.6,-289 315.93,-282.03 328.18,-276.42 339.79,-272.06"/>
<polygon fill="black" stroke="black" points="341.07,-275.32 349.33,-268.69 338.74,-268.72 341.07,-275.32"/>
</g>
<!-- Tx1_0&#45;&gt;Tx5 -->
<g id="edge25" class="edge">
<title>Tx1_0&#45;&gt;Tx5</title>
<path fill="none" stroke="black" d="M425.73,-308.52C461.79,-292.88 515.56,-274 564.89,-274 564.89,-274 564.89,-274 1515.38,-274 1582.72,-274 1660.2,-258.7 1703.91,-248.63"/>
<polygon fill="black" stroke="black" points="1704.82,-252.01 1713.75,-246.32 1703.22,-245.2 1704.82,-252.01"/>
</g>
<!-- Tx1_1&#45;&gt;Tx2 -->
<g id="edge5" class="edge">
<title>Tx1_1&#45;&gt;Tx2</title>
<path fill="none" stroke="black" d="M459.69,-460.76C484.73,-468.91 511.28,-477.55 531.45,-484.12"/>
<polygon fill="black" stroke="black" points="530.49,-487.49 541.09,-487.25 532.66,-480.83 530.49,-487.49"/>
<text text-anchor="middle" x="499.1" y="-482.8" font-family="Times,serif" font-size="14.00">Deposit</text>
</g>
<!-- Tx2_0 -->
<g id="node12" class="node">
<title>Tx2_0</title>
<polygon fill="none" stroke="black" points="681.19,-464.5 681.19,-525.5 767.19,-525.5 767.19,-464.5 681.19,-464.5"/>
<text text-anchor="middle" x="724.19" y="-510.3" font-family="Times,serif" font-size="14.00">Thomas</text>
<text text-anchor="middle" x="724.19" y="-495.3" font-family="Times,serif" font-size="14.00">Middleton</text>
<polyline fill="none" stroke="black" points="681.19,-487.5 767.19,-487.5 "/>
<text text-anchor="middle" x="724.19" y="-472.3" font-family="Times,serif" font-size="14.00">2696.0 ADA</text>
</g>
<!-- Tx2&#45;&gt;Tx2_0 -->
<g id="edge8" class="edge">
<title>Tx2&#45;&gt;Tx2_0</title>
<path fill="none" stroke="black" d="M593.41,-495C614.55,-495 644.82,-495 670.81,-495"/>
<polygon fill="black" stroke="black" points="670.91,-498.5 680.91,-495 670.91,-491.5 670.91,-498.5"/>
<text text-anchor="middle" x="618.19" y="-498.8" font-family="Times,serif" font-size="14.00">#0</text>
</g>
<!-- Tx2_2 -->
<g id="node13" class="node">
<title>Tx2_2</title>
<polygon fill="none" stroke="black" points="673.69,-384.5 673.69,-445.5 774.69,-445.5 774.69,-384.5 673.69,-384.5"/>
<text text-anchor="middle" x="724.19" y="-430.3" font-family="Times,serif" font-size="14.00">Thomas</text>
<text text-anchor="middle" x="724.19" y="-415.3" font-family="Times,serif" font-size="14.00">Midddleton</text>
<polyline fill="none" stroke="black" points="673.69,-407.5 774.69,-407.5 "/>
<text text-anchor="middle" x="724.19" y="-392.3" font-family="Times,serif" font-size="14.00">3 ADA + 1 TM</text>
</g>
<!-- Tx2&#45;&gt;Tx2_2 -->
<g id="edge9" class="edge">
<title>Tx2&#45;&gt;Tx2_2</title>
<path fill="none" stroke="black" d="M587.56,-484.03C602.88,-475.93 624.29,-464.68 643.19,-455 650.09,-451.47 657.34,-447.79 664.54,-444.16"/>
<polygon fill="black" stroke="black" points="666.25,-447.22 673.61,-439.6 663.11,-440.97 666.25,-447.22"/>
<text text-anchor="middle" x="618.19" y="-474.8" font-family="Times,serif" font-size="14.00">#2</text>
</g>
<!-- Tx2_1 -->
<g id="node14" class="node">
<title>Tx2_1</title>
<polygon fill="none" stroke="black" points="643.19,-544.5 643.19,-659.5 805.19,-659.5 805.19,-544.5 643.19,-544.5"/>
<text text-anchor="middle" x="724.19" y="-644.3" font-family="Times,serif" font-size="14.00">Marlowe Script</text>
<polyline fill="none" stroke="black" points="643.19,-636.5 805.19,-636.5 "/>
<text text-anchor="middle" x="724.19" y="-621.3" font-family="Times,serif" font-size="14.00">259 ADA</text>
<polyline fill="none" stroke="black" points="643.19,-613.5 805.19,-613.5 "/>
<text text-anchor="middle" x="665.19" y="-575.3" font-family="Times,serif" font-size="14.00">State</text>
<polyline fill="none" stroke="black" points="687.19,-544.5 687.19,-613.5 "/>
<text text-anchor="middle" x="746.19" y="-598.3" font-family="Times,serif" font-size="14.00">F.B. has 256 ADA</text>
<polyline fill="none" stroke="black" points="687.19,-590.5 805.19,-590.5 "/>
<text text-anchor="middle" x="746.19" y="-575.3" font-family="Times,serif" font-size="14.00">T.M. has 0 ADA</text>
<polyline fill="none" stroke="black" points="687.19,-567.5 805.19,-567.5 "/>
<text text-anchor="middle" x="746.19" y="-552.3" font-family="Times,serif" font-size="14.00">C.M. has 3 ADA</text>
</g>
<!-- Tx2&#45;&gt;Tx2_1 -->
<g id="edge10" class="edge">
<title>Tx2&#45;&gt;Tx2_1</title>
<path fill="none" stroke="black" d="M585.44,-507.69C598.11,-516.37 615.95,-528.58 634.59,-541.34"/>
<polygon fill="black" stroke="black" points="632.67,-544.27 642.9,-547.04 636.63,-538.5 632.67,-544.27"/>
<text text-anchor="middle" x="618.19" y="-535.8" font-family="Times,serif" font-size="14.00">#1</text>
</g>
<!-- Tx2_Fee -->
<g id="node15" class="node">
<title>Tx2_Fee</title>
<polygon fill="none" stroke="black" points="691.19,-327 691.19,-365 757.19,-365 757.19,-327 691.19,-327"/>
<text text-anchor="middle" x="724.19" y="-349.8" font-family="Times,serif" font-size="14.00">Fee</text>
<text text-anchor="middle" x="724.19" y="-334.8" font-family="Times,serif" font-size="14.00">1.3 ADA</text>
</g>
<!-- Tx2&#45;&gt;Tx2_Fee -->
<g id="edge11" class="edge">
<title>Tx2&#45;&gt;Tx2_Fee</title>
<path fill="none" stroke="black" d="M573.14,-477.62C583.56,-451.03 607,-400.37 643.19,-372 654.18,-363.38 668.12,-357.58 681.28,-353.68"/>
<polygon fill="black" stroke="black" points="682.36,-357.02 691.12,-351.06 680.56,-350.25 682.36,-357.02"/>
</g>
<!-- Tx3 -->
<g id="node16" class="node">
<title>Tx3</title>
<ellipse fill="none" stroke="black" cx="955.49" cy="-495" rx="27.1" ry="18"/>
<text text-anchor="middle" x="955.49" y="-491.3" font-family="Times,serif" font-size="14.00">Tx 3</text>
</g>
<!-- Tx2_0&#45;&gt;Tx3 -->
<g id="edge13" class="edge">
<title>Tx2_0&#45;&gt;Tx3</title>
<path fill="none" stroke="black" d="M767.25,-495C810.42,-495 876.93,-495 917.96,-495"/>
<polygon fill="black" stroke="black" points="918.07,-498.5 928.07,-495 918.07,-491.5 918.07,-498.5"/>
</g>
<!-- Tx2_2&#45;&gt;Tx3 -->
<g id="edge14" class="edge">
<title>Tx2_2&#45;&gt;Tx3</title>
<path fill="none" stroke="black" d="M774.94,-432.36C819.32,-447.84 883.03,-470.07 921.42,-483.46"/>
<polygon fill="black" stroke="black" points="920.48,-486.84 931.07,-486.83 922.79,-480.23 920.48,-486.84"/>
</g>
<!-- Tx2_1&#45;&gt;Tx3 -->
<g id="edge12" class="edge">
<title>Tx2_1&#45;&gt;Tx3</title>
<path fill="none" stroke="black" d="M805.39,-564.58C846.17,-545.54 893.37,-523.52 923.56,-509.43"/>
<polygon fill="black" stroke="black" points="925.15,-512.55 932.73,-505.15 922.19,-506.21 925.15,-512.55"/>
<text text-anchor="middle" x="866.69" y="-557.8" font-family="Times,serif" font-size="14.00">Report problem</text>
</g>
<!-- Tx3_1 -->
<g id="node17" class="node">
<title>Tx3_1</title>
<polygon fill="none" stroke="black" points="1032.79,-544.5 1032.79,-659.5 1198.79,-659.5 1198.79,-544.5 1032.79,-544.5"/>
<text text-anchor="middle" x="1115.79" y="-644.3" font-family="Times,serif" font-size="14.00">Marlowe Script</text>
<polyline fill="none" stroke="black" points="1032.79,-636.5 1198.79,-636.5 "/>
<text text-anchor="middle" x="1115.79" y="-621.3" font-family="Times,serif" font-size="14.00">259 ADA</text>
<polyline fill="none" stroke="black" points="1032.79,-613.5 1198.79,-613.5 "/>
<text text-anchor="middle" x="1054.79" y="-575.3" font-family="Times,serif" font-size="14.00">State</text>
<polyline fill="none" stroke="black" points="1076.79,-544.5 1076.79,-613.5 "/>
<text text-anchor="middle" x="1137.79" y="-598.3" font-family="Times,serif" font-size="14.00">F.B. has 0 ADA</text>
<polyline fill="none" stroke="black" points="1076.79,-590.5 1198.79,-590.5 "/>
<text text-anchor="middle" x="1137.79" y="-575.3" font-family="Times,serif" font-size="14.00">T.M. has 256 ADA</text>
<polyline fill="none" stroke="black" points="1076.79,-567.5 1198.79,-567.5 "/>
<text text-anchor="middle" x="1137.79" y="-552.3" font-family="Times,serif" font-size="14.00">C.M. has 3 ADA</text>
</g>
<!-- Tx3&#45;&gt;Tx3_1 -->
<g id="edge15" class="edge">
<title>Tx3&#45;&gt;Tx3_1</title>
<path fill="none" stroke="black" d="M975.27,-507.69C987.97,-516.28 1005.77,-528.31 1024.42,-540.92"/>
<polygon fill="black" stroke="black" points="1022.5,-543.84 1032.74,-546.54 1026.42,-538.04 1022.5,-543.84"/>
<text text-anchor="middle" x="1007.79" y="-535.8" font-family="Times,serif" font-size="14.00">#1</text>
</g>
<!-- Tx3_Fee -->
<g id="node18" class="node">
<title>Tx3_Fee</title>
<polygon fill="none" stroke="black" points="1082.79,-487 1082.79,-525 1148.79,-525 1148.79,-487 1082.79,-487"/>
<text text-anchor="middle" x="1115.79" y="-509.8" font-family="Times,serif" font-size="14.00">Fee</text>
<text text-anchor="middle" x="1115.79" y="-494.8" font-family="Times,serif" font-size="14.00">1.4 ADA</text>
</g>
<!-- Tx3&#45;&gt;Tx3_Fee -->
<g id="edge16" class="edge">
<title>Tx3&#45;&gt;Tx3_Fee</title>
<path fill="none" stroke="black" d="M982.98,-496.84C1007.44,-498.54 1044.17,-501.09 1072.65,-503.07"/>
<polygon fill="black" stroke="black" points="1072.52,-506.57 1082.73,-503.77 1073,-499.59 1072.52,-506.57"/>
</g>
<!-- Tx3_0 -->
<g id="node34" class="node">
<title>Tx3_0</title>
<polygon fill="none" stroke="black" points="2145.07,-429.5 2145.07,-490.5 2231.07,-490.5 2231.07,-429.5 2145.07,-429.5"/>
<text text-anchor="middle" x="2188.07" y="-475.3" font-family="Times,serif" font-size="14.00">Thomas</text>
<text text-anchor="middle" x="2188.07" y="-460.3" font-family="Times,serif" font-size="14.00">Middleton</text>
<polyline fill="none" stroke="black" points="2145.07,-452.5 2231.07,-452.5 "/>
<text text-anchor="middle" x="2188.07" y="-437.3" font-family="Times,serif" font-size="14.00">2694.6 ADA</text>
</g>
<!-- Tx3&#45;&gt;Tx3_0 -->
<g id="edge40" class="edge">
<title>Tx3&#45;&gt;Tx3_0</title>
<path fill="none" stroke="black" d="M979.43,-486.14C1009.88,-475.19 1065.54,-458 1114.79,-458 1114.79,-458 1114.79,-458 1655.88,-458 1831.44,-458 2039.63,-459.11 2134.84,-459.67"/>
<polygon fill="black" stroke="black" points="2135.05,-463.17 2145.07,-459.73 2135.09,-456.17 2135.05,-463.17"/>
<text text-anchor="middle" x="1654.88" y="-461.8" font-family="Times,serif" font-size="14.00">#0</text>
</g>
<!-- Tx3_2 -->
<g id="node35" class="node">
<title>Tx3_2</title>
<polygon fill="none" stroke="black" points="2137.57,-349.5 2137.57,-410.5 2238.57,-410.5 2238.57,-349.5 2137.57,-349.5"/>
<text text-anchor="middle" x="2188.07" y="-395.3" font-family="Times,serif" font-size="14.00">Thomas</text>
<text text-anchor="middle" x="2188.07" y="-380.3" font-family="Times,serif" font-size="14.00">Middleton</text>
<polyline fill="none" stroke="black" points="2137.57,-372.5 2238.57,-372.5 "/>
<text text-anchor="middle" x="2188.07" y="-357.3" font-family="Times,serif" font-size="14.00">3 ADA + 1 TM</text>
</g>
<!-- Tx3&#45;&gt;Tx3_2 -->
<g id="edge41" class="edge">
<title>Tx3&#45;&gt;Tx3_2</title>
<path fill="none" stroke="black" d="M973.28,-480.89C1000.91,-459.17 1058.53,-420 1114.79,-420 1114.79,-420 1114.79,-420 1792.98,-420 1912.1,-420 2050.45,-401.69 2127.47,-389.84"/>
<polygon fill="black" stroke="black" points="2128.12,-393.28 2137.47,-388.29 2127.05,-386.37 2128.12,-393.28"/>
<text text-anchor="middle" x="1654.88" y="-423.8" font-family="Times,serif" font-size="14.00">#2</text>
</g>
<!-- Tx3_1&#45;&gt;Tx4 -->
<g id="edge17" class="edge">
<title>Tx3_1&#45;&gt;Tx4</title>
<path fill="none" stroke="black" d="M1199.04,-620.77C1233.76,-630.13 1274.08,-642.91 1308.79,-659 1314.81,-661.79 1320.95,-665.31 1326.68,-668.93"/>
<polygon fill="black" stroke="black" points="1324.97,-672 1335.24,-674.61 1328.84,-666.17 1324.97,-672"/>
<text text-anchor="middle" x="1262.79" y="-662.8" font-family="Times,serif" font-size="14.00">Dispute problem</text>
</g>
<!-- Tx4_0 -->
<g id="node20" class="node">
<title>Tx4_0</title>
<polygon fill="none" stroke="black" points="1471.38,-678.5 1471.38,-739.5 1557.38,-739.5 1557.38,-678.5 1471.38,-678.5"/>
<text text-anchor="middle" x="1514.38" y="-724.3" font-family="Times,serif" font-size="14.00">Francis</text>
<text text-anchor="middle" x="1514.38" y="-709.3" font-family="Times,serif" font-size="14.00">Beaumont</text>
<polyline fill="none" stroke="black" points="1471.38,-701.5 1557.38,-701.5 "/>
<text text-anchor="middle" x="1514.38" y="-686.3" font-family="Times,serif" font-size="14.00">3001.3 ADA</text>
</g>
<!-- Tx4&#45;&gt;Tx4_0 -->
<g id="edge20" class="edge">
<title>Tx4&#45;&gt;Tx4_0</title>
<path fill="none" stroke="black" d="M1381.22,-691.47C1402.87,-694.34 1434.31,-698.51 1461.09,-702.06"/>
<polygon fill="black" stroke="black" points="1460.72,-705.54 1471.1,-703.39 1461.64,-698.61 1460.72,-705.54"/>
<text text-anchor="middle" x="1406.38" y="-698.8" font-family="Times,serif" font-size="14.00">#0</text>
</g>
<!-- Tx4_2 -->
<g id="node21" class="node">
<title>Tx4_2</title>
<polygon fill="none" stroke="black" points="1465.38,-758.5 1465.38,-819.5 1563.38,-819.5 1563.38,-758.5 1465.38,-758.5"/>
<text text-anchor="middle" x="1514.38" y="-804.3" font-family="Times,serif" font-size="14.00">Francis</text>
<text text-anchor="middle" x="1514.38" y="-789.3" font-family="Times,serif" font-size="14.00">Beaumont</text>
<polyline fill="none" stroke="black" points="1465.38,-781.5 1563.38,-781.5 "/>
<text text-anchor="middle" x="1514.38" y="-766.3" font-family="Times,serif" font-size="14.00">3 ADA + 1 FB</text>
</g>
<!-- Tx4&#45;&gt;Tx4_2 -->
<g id="edge21" class="edge">
<title>Tx4&#45;&gt;Tx4_2</title>
<path fill="none" stroke="black" d="M1370.97,-702.43C1385.88,-715.55 1409.17,-734.94 1431.38,-749 1439.15,-753.91 1447.6,-758.65 1456.04,-763.05"/>
<polygon fill="black" stroke="black" points="1454.65,-766.27 1465.15,-767.67 1457.82,-760.03 1454.65,-766.27"/>
<text text-anchor="middle" x="1406.38" y="-738.8" font-family="Times,serif" font-size="14.00">#2</text>
</g>
<!-- Tx4_1 -->
<g id="node22" class="node">
<title>Tx4_1</title>
<polygon fill="none" stroke="black" points="1431.38,-486.5 1431.38,-601.5 1597.38,-601.5 1597.38,-486.5 1431.38,-486.5"/>
<text text-anchor="middle" x="1514.38" y="-586.3" font-family="Times,serif" font-size="14.00">Marlowe Script</text>
<polyline fill="none" stroke="black" points="1431.38,-578.5 1597.38,-578.5 "/>
<text text-anchor="middle" x="1514.38" y="-563.3" font-family="Times,serif" font-size="14.00">259 ADA</text>
<polyline fill="none" stroke="black" points="1431.38,-555.5 1597.38,-555.5 "/>
<text text-anchor="middle" x="1453.38" y="-517.3" font-family="Times,serif" font-size="14.00">State</text>
<polyline fill="none" stroke="black" points="1475.38,-486.5 1475.38,-555.5 "/>
<text text-anchor="middle" x="1536.38" y="-540.3" font-family="Times,serif" font-size="14.00">F.B. has 0 ADA</text>
<polyline fill="none" stroke="black" points="1475.38,-532.5 1597.38,-532.5 "/>
<text text-anchor="middle" x="1536.38" y="-517.3" font-family="Times,serif" font-size="14.00">T.M. has 256 ADA</text>
<polyline fill="none" stroke="black" points="1475.38,-509.5 1597.38,-509.5 "/>
<text text-anchor="middle" x="1536.38" y="-494.3" font-family="Times,serif" font-size="14.00">C.M. has 3 ADA</text>
</g>
<!-- Tx4&#45;&gt;Tx4_1 -->
<g id="edge22" class="edge">
<title>Tx4&#45;&gt;Tx4_1</title>
<path fill="none" stroke="black" d="M1369.33,-673.03C1384.37,-657.4 1408.97,-632.38 1431.38,-612 1432.65,-610.85 1433.94,-609.68 1435.23,-608.52"/>
<polygon fill="black" stroke="black" points="1437.63,-611.08 1442.79,-601.83 1432.99,-605.84 1437.63,-611.08"/>
<text text-anchor="middle" x="1406.38" y="-643.8" font-family="Times,serif" font-size="14.00">#1</text>
</g>
<!-- Tx4_Fee -->
<g id="node23" class="node">
<title>Tx4_Fee</title>
<polygon fill="none" stroke="black" points="1481.38,-621 1481.38,-659 1547.38,-659 1547.38,-621 1481.38,-621"/>
<text text-anchor="middle" x="1514.38" y="-643.8" font-family="Times,serif" font-size="14.00">Fee</text>
<text text-anchor="middle" x="1514.38" y="-628.8" font-family="Times,serif" font-size="14.00">1.3 ADA</text>
</g>
<!-- Tx4&#45;&gt;Tx4_Fee -->
<g id="edge23" class="edge">
<title>Tx4&#45;&gt;Tx4_Fee</title>
<path fill="none" stroke="black" d="M1379.13,-680.71C1403.6,-673.29 1442.04,-661.63 1471.53,-652.69"/>
<polygon fill="black" stroke="black" points="1472.59,-656.02 1481.15,-649.77 1470.56,-649.33 1472.59,-656.02"/>
</g>
<!-- Tx6 -->
<g id="node30" class="node">
<title>Tx6</title>
<ellipse fill="none" stroke="black" cx="2053.27" cy="-706" rx="27.1" ry="18"/>
<text text-anchor="middle" x="2053.27" y="-702.3" font-family="Times,serif" font-size="14.00">Tx 6</text>
</g>
<!-- Tx4_0&#45;&gt;Tx6 -->
<g id="edge32" class="edge">
<title>Tx4_0&#45;&gt;Tx6</title>
<path fill="none" stroke="black" d="M1557.51,-708.76C1659.73,-708.19 1919.55,-706.74 2015.73,-706.2"/>
<polygon fill="black" stroke="black" points="2015.86,-709.7 2025.84,-706.15 2015.82,-702.7 2015.86,-709.7"/>
</g>
<!-- Tx4_2&#45;&gt;Tx6 -->
<g id="edge33" class="edge">
<title>Tx4_2&#45;&gt;Tx6</title>
<path fill="none" stroke="black" d="M1563.41,-784.96C1652.08,-776.9 1847.11,-756.42 2007.98,-720 2011.57,-719.19 2015.29,-718.22 2018.98,-717.17"/>
<polygon fill="black" stroke="black" points="2019.99,-720.52 2028.56,-714.3 2017.98,-713.82 2019.99,-720.52"/>
</g>
<!-- Tx4_1&#45;&gt;Tx5 -->
<g id="edge24" class="edge">
<title>Tx4_1&#45;&gt;Tx5</title>
<path fill="none" stroke="black" d="M1597.51,-531.64C1632.23,-522.27 1670.16,-505.84 1694.38,-477 1720.7,-445.68 1732.65,-324.01 1736.83,-268.23"/>
<polygon fill="black" stroke="black" points="1740.34,-268.22 1737.57,-258 1733.36,-267.72 1740.34,-268.22"/>
<text text-anchor="middle" x="1654.88" y="-528.8" font-family="Times,serif" font-size="14.00">Dismiss claim</text>
</g>
<!-- Tx5_0 -->
<g id="node25" class="node">
<title>Tx5_0</title>
<polygon fill="none" stroke="black" points="1859.98,-16.5 1859.98,-77.5 1945.98,-77.5 1945.98,-16.5 1859.98,-16.5"/>
<text text-anchor="middle" x="1902.98" y="-62.3" font-family="Times,serif" font-size="14.00">Christopher</text>
<text text-anchor="middle" x="1902.98" y="-47.3" font-family="Times,serif" font-size="14.00">Marlowe</text>
<polyline fill="none" stroke="black" points="1859.98,-39.5 1945.98,-39.5 "/>
<text text-anchor="middle" x="1902.98" y="-24.3" font-family="Times,serif" font-size="14.00">1960.1 ADA</text>
</g>
<!-- Tx5&#45;&gt;Tx5_0 -->
<g id="edge27" class="edge">
<title>Tx5&#45;&gt;Tx5_0</title>
<path fill="none" stroke="black" d="M1744.22,-221.98C1751.26,-190.6 1769.84,-125.61 1808.98,-87 1820.37,-75.76 1835.42,-67.46 1850.09,-61.42"/>
<polygon fill="black" stroke="black" points="1851.54,-64.61 1859.63,-57.77 1849.04,-58.08 1851.54,-64.61"/>
<text text-anchor="middle" x="1791.98" y="-119.8" font-family="Times,serif" font-size="14.00">#0</text>
</g>
<!-- Tx5_3 -->
<g id="node26" class="node">
<title>Tx5_3</title>
<polygon fill="none" stroke="black" points="1851.48,-96.5 1851.48,-157.5 1954.48,-157.5 1954.48,-96.5 1851.48,-96.5"/>
<text text-anchor="middle" x="1902.98" y="-142.3" font-family="Times,serif" font-size="14.00">Christopher</text>
<text text-anchor="middle" x="1902.98" y="-127.3" font-family="Times,serif" font-size="14.00">Marlowe</text>
<polyline fill="none" stroke="black" points="1851.48,-119.5 1954.48,-119.5 "/>
<text text-anchor="middle" x="1902.98" y="-104.3" font-family="Times,serif" font-size="14.00">3 ADA + 1 CM</text>
</g>
<!-- Tx5&#45;&gt;Tx5_3 -->
<g id="edge28" class="edge">
<title>Tx5&#45;&gt;Tx5_3</title>
<path fill="none" stroke="black" d="M1752.78,-223.91C1765.39,-208.03 1786.44,-183.87 1808.98,-168 1819.11,-160.87 1830.68,-154.56 1842.14,-149.17"/>
<polygon fill="black" stroke="black" points="1843.6,-152.34 1851.27,-145.04 1840.72,-145.97 1843.6,-152.34"/>
<text text-anchor="middle" x="1791.98" y="-190.8" font-family="Times,serif" font-size="14.00">#3</text>
</g>
<!-- Tx5_1 -->
<g id="node27" class="node">
<title>Tx5_1</title>
<polygon fill="none" stroke="black" points="1820.98,-234.5 1820.98,-303.5 1984.98,-303.5 1984.98,-234.5 1820.98,-234.5"/>
<text text-anchor="middle" x="1902.98" y="-288.3" font-family="Times,serif" font-size="14.00">Payout Script</text>
<polyline fill="none" stroke="black" points="1820.98,-280.5 1984.98,-280.5 "/>
<text text-anchor="middle" x="1902.98" y="-265.3" font-family="Times,serif" font-size="14.00">3 ADA</text>
<polyline fill="none" stroke="black" points="1820.98,-257.5 1984.98,-257.5 "/>
<text text-anchor="middle" x="1847.98" y="-242.3" font-family="Times,serif" font-size="14.00">Payout</text>
<polyline fill="none" stroke="black" points="1874.98,-234.5 1874.98,-257.5 "/>
<text text-anchor="middle" x="1929.98" y="-242.3" font-family="Times,serif" font-size="14.00">C.M. has 3 ADA</text>
</g>
<!-- Tx5&#45;&gt;Tx5_1 -->
<g id="edge29" class="edge">
<title>Tx5&#45;&gt;Tx5_1</title>
<path fill="none" stroke="black" d="M1766.24,-244.6C1778.59,-246.82 1794.26,-249.63 1810.52,-252.56"/>
<polygon fill="black" stroke="black" points="1810.24,-256.06 1820.7,-254.39 1811.48,-249.17 1810.24,-256.06"/>
<text text-anchor="middle" x="1791.98" y="-253.8" font-family="Times,serif" font-size="14.00">#1</text>
</g>
<!-- Tx5_2 -->
<g id="node28" class="node">
<title>Tx5_2</title>
<polygon fill="none" stroke="black" points="1816.98,-322.5 1816.98,-391.5 1988.98,-391.5 1988.98,-322.5 1816.98,-322.5"/>
<text text-anchor="middle" x="1902.98" y="-376.3" font-family="Times,serif" font-size="14.00">Payout Script</text>
<polyline fill="none" stroke="black" points="1816.98,-368.5 1988.98,-368.5 "/>
<text text-anchor="middle" x="1902.98" y="-353.3" font-family="Times,serif" font-size="14.00">256 ADA</text>
<polyline fill="none" stroke="black" points="1816.98,-345.5 1988.98,-345.5 "/>
<text text-anchor="middle" x="1843.98" y="-330.3" font-family="Times,serif" font-size="14.00">Payout</text>
<polyline fill="none" stroke="black" points="1870.98,-322.5 1870.98,-345.5 "/>
<text text-anchor="middle" x="1929.98" y="-330.3" font-family="Times,serif" font-size="14.00">F.B. has 256 ADA</text>
</g>
<!-- Tx5&#45;&gt;Tx5_2 -->
<g id="edge30" class="edge">
<title>Tx5&#45;&gt;Tx5_2</title>
<path fill="none" stroke="black" d="M1752.59,-255.89C1765.21,-271.9 1786.4,-296.53 1808.98,-313 1810.79,-314.33 1812.66,-315.63 1814.56,-316.9"/>
<polygon fill="black" stroke="black" points="1812.79,-319.93 1823.1,-322.34 1816.55,-314.02 1812.79,-319.93"/>
<text text-anchor="middle" x="1791.98" y="-307.8" font-family="Times,serif" font-size="14.00">#2</text>
</g>
<!-- Tx5_Fee -->
<g id="node29" class="node">
<title>Tx5_Fee</title>
<polygon fill="none" stroke="black" points="1869.98,-177 1869.98,-215 1935.98,-215 1935.98,-177 1869.98,-177"/>
<text text-anchor="middle" x="1902.98" y="-199.8" font-family="Times,serif" font-size="14.00">Fee</text>
<text text-anchor="middle" x="1902.98" y="-184.8" font-family="Times,serif" font-size="14.00">1.4 ADA</text>
</g>
<!-- Tx5&#45;&gt;Tx5_Fee -->
<g id="edge31" class="edge">
<title>Tx5&#45;&gt;Tx5_Fee</title>
<path fill="none" stroke="black" d="M1765.18,-233.32C1790.28,-226.47 1829.78,-215.69 1859.9,-207.48"/>
<polygon fill="black" stroke="black" points="1860.99,-210.81 1869.72,-204.8 1859.15,-204.05 1860.99,-210.81"/>
</g>
<!-- Tx7 -->
<g id="node32" class="node">
<title>Tx7</title>
<ellipse fill="none" stroke="black" cx="2053.27" cy="-134" rx="27.1" ry="18"/>
<text text-anchor="middle" x="2053.27" y="-130.3" font-family="Times,serif" font-size="14.00">Tx 7</text>
</g>
<!-- Tx5_0&#45;&gt;Tx7 -->
<g id="edge36" class="edge">
<title>Tx5_0&#45;&gt;Tx7</title>
<path fill="none" stroke="black" d="M1946.04,-61.99C1962.48,-68.63 1981.14,-77.18 1996.98,-87 2008.52,-94.16 2020.15,-103.63 2029.74,-112.19"/>
<polygon fill="black" stroke="black" points="2027.54,-114.91 2037.28,-119.09 2032.27,-109.75 2027.54,-114.91"/>
</g>
<!-- Tx5_3&#45;&gt;Tx7 -->
<g id="edge37" class="edge">
<title>Tx5_3&#45;&gt;Tx7</title>
<path fill="none" stroke="black" d="M1954.6,-129.39C1974.75,-130.34 1997.49,-131.41 2015.96,-132.29"/>
<polygon fill="black" stroke="black" points="2015.85,-135.78 2026.01,-132.76 2016.18,-128.79 2015.85,-135.78"/>
</g>
<!-- Tx5_1&#45;&gt;Tx7 -->
<g id="edge38" class="edge">
<title>Tx5_1&#45;&gt;Tx7</title>
<path fill="none" stroke="black" d="M1985.04,-234.43C1989.24,-231.49 1993.26,-228.35 1996.98,-225 2016.81,-207.13 2031.86,-180.48 2041.21,-160.63"/>
<polygon fill="black" stroke="black" points="2044.41,-162.05 2045.34,-151.5 2038.03,-159.16 2044.41,-162.05"/>
</g>
<!-- Tx5_2&#45;&gt;Tx6 -->
<g id="edge34" class="edge">
<title>Tx5_2&#45;&gt;Tx6</title>
<path fill="none" stroke="black" d="M1918.74,-391.74C1948.3,-461.31 2014.21,-616.43 2040.81,-679.03"/>
<polygon fill="black" stroke="black" points="2037.75,-680.76 2044.88,-688.6 2044.19,-678.02 2037.75,-680.76"/>
</g>
<!-- Tx6_Fee -->
<g id="node31" class="node">
<title>Tx6_Fee</title>
<polygon fill="none" stroke="black" points="2155.07,-762 2155.07,-800 2221.07,-800 2221.07,-762 2155.07,-762"/>
<text text-anchor="middle" x="2188.07" y="-784.8" font-family="Times,serif" font-size="14.00">Fee</text>
<text text-anchor="middle" x="2188.07" y="-769.8" font-family="Times,serif" font-size="14.00">0.5 ADA</text>
</g>
<!-- Tx6&#45;&gt;Tx6_Fee -->
<g id="edge35" class="edge">
<title>Tx6&#45;&gt;Tx6_Fee</title>
<path fill="none" stroke="black" d="M2072.74,-718.88C2085.83,-727.78 2103.95,-739.66 2120.57,-749 2128.52,-753.47 2137.2,-757.93 2145.58,-762.04"/>
<polygon fill="black" stroke="black" points="2144.33,-765.32 2154.85,-766.51 2147.37,-759.01 2144.33,-765.32"/>
</g>
<!-- Tx6_0 -->
<g id="node36" class="node">
<title>Tx6_0</title>
<polygon fill="none" stroke="black" points="2145.07,-675.5 2145.07,-736.5 2231.07,-736.5 2231.07,-675.5 2145.07,-675.5"/>
<text text-anchor="middle" x="2188.07" y="-721.3" font-family="Times,serif" font-size="14.00">Francis</text>
<text text-anchor="middle" x="2188.07" y="-706.3" font-family="Times,serif" font-size="14.00">Beaumont</text>
<polyline fill="none" stroke="black" points="2145.07,-698.5 2231.07,-698.5 "/>
<text text-anchor="middle" x="2188.07" y="-683.3" font-family="Times,serif" font-size="14.00">3000.9 ADA</text>
</g>
<!-- Tx6&#45;&gt;Tx6_0 -->
<g id="edge42" class="edge">
<title>Tx6&#45;&gt;Tx6_0</title>
<path fill="none" stroke="black" d="M2080.83,-706C2096.28,-706 2116.31,-706 2134.8,-706"/>
<polygon fill="black" stroke="black" points="2134.88,-709.5 2144.88,-706 2134.88,-702.5 2134.88,-709.5"/>
<text text-anchor="middle" x="2105.57" y="-709.8" font-family="Times,serif" font-size="14.00">#0</text>
</g>
<!-- Tx6_1 -->
<g id="node37" class="node">
<title>Tx6_1</title>
<polygon fill="none" stroke="black" points="2151.57,-595.5 2151.57,-656.5 2224.57,-656.5 2224.57,-595.5 2151.57,-595.5"/>
<text text-anchor="middle" x="2188.07" y="-641.3" font-family="Times,serif" font-size="14.00">Francis</text>
<text text-anchor="middle" x="2188.07" y="-626.3" font-family="Times,serif" font-size="14.00">Beaumont</text>
<polyline fill="none" stroke="black" points="2151.57,-618.5 2224.57,-618.5 "/>
<text text-anchor="middle" x="2188.07" y="-603.3" font-family="Times,serif" font-size="14.00">256 ADA</text>
</g>
<!-- Tx6&#45;&gt;Tx6_1 -->
<g id="edge43" class="edge">
<title>Tx6&#45;&gt;Tx6_1</title>
<path fill="none" stroke="black" d="M2074,-694.09C2087.18,-686.13 2104.91,-675.43 2120.57,-666 2127.79,-661.65 2135.45,-657.04 2142.9,-652.56"/>
<polygon fill="black" stroke="black" points="2144.75,-655.53 2151.52,-647.37 2141.15,-649.53 2144.75,-655.53"/>
<text text-anchor="middle" x="2105.57" y="-682.8" font-family="Times,serif" font-size="14.00">#1</text>
</g>
<!-- Tx6_2 -->
<g id="node38" class="node">
<title>Tx6_2</title>
<polygon fill="none" stroke="black" points="2139.07,-515.5 2139.07,-576.5 2237.07,-576.5 2237.07,-515.5 2139.07,-515.5"/>
<text text-anchor="middle" x="2188.07" y="-561.3" font-family="Times,serif" font-size="14.00">Francis</text>
<text text-anchor="middle" x="2188.07" y="-546.3" font-family="Times,serif" font-size="14.00">Beaumont</text>
<polyline fill="none" stroke="black" points="2139.07,-538.5 2237.07,-538.5 "/>
<text text-anchor="middle" x="2188.07" y="-523.3" font-family="Times,serif" font-size="14.00">3 ADA + 1 FB</text>
</g>
<!-- Tx6&#45;&gt;Tx6_2 -->
<g id="edge44" class="edge">
<title>Tx6&#45;&gt;Tx6_2</title>
<path fill="none" stroke="black" d="M2060.63,-688.29C2070.37,-663.12 2091,-616.67 2120.57,-586 2123.71,-582.75 2127.16,-579.66 2130.8,-576.75"/>
<polygon fill="black" stroke="black" points="2133.05,-579.44 2139,-570.67 2128.88,-573.82 2133.05,-579.44"/>
<text text-anchor="middle" x="2105.57" y="-615.8" font-family="Times,serif" font-size="14.00">#2</text>
</g>
<!-- Tx7_Fee -->
<g id="node33" class="node">
<title>Tx7_Fee</title>
<polygon fill="none" stroke="black" points="2155.07,-40 2155.07,-78 2221.07,-78 2221.07,-40 2155.07,-40"/>
<text text-anchor="middle" x="2188.07" y="-62.8" font-family="Times,serif" font-size="14.00">Fee</text>
<text text-anchor="middle" x="2188.07" y="-47.8" font-family="Times,serif" font-size="14.00">0.5 ADA</text>
</g>
<!-- Tx7&#45;&gt;Tx7_Fee -->
<g id="edge39" class="edge">
<title>Tx7&#45;&gt;Tx7_Fee</title>
<path fill="none" stroke="black" d="M2072.74,-121.12C2085.83,-112.22 2103.95,-100.34 2120.57,-91 2128.52,-86.53 2137.2,-82.07 2145.58,-77.96"/>
<polygon fill="black" stroke="black" points="2147.37,-80.99 2154.85,-73.49 2144.33,-74.68 2147.37,-80.99"/>
</g>
<!-- Tx7_0 -->
<g id="node39" class="node">
<title>Tx7_0</title>
<polygon fill="none" stroke="black" points="2145.07,-183.5 2145.07,-244.5 2231.07,-244.5 2231.07,-183.5 2145.07,-183.5"/>
<text text-anchor="middle" x="2188.07" y="-229.3" font-family="Times,serif" font-size="14.00">Christopher</text>
<text text-anchor="middle" x="2188.07" y="-214.3" font-family="Times,serif" font-size="14.00">Marlowe</text>
<polyline fill="none" stroke="black" points="2145.07,-206.5 2231.07,-206.5 "/>
<text text-anchor="middle" x="2188.07" y="-191.3" font-family="Times,serif" font-size="14.00">1959.7 ADA</text>
</g>
<!-- Tx7&#45;&gt;Tx7_0 -->
<g id="edge45" class="edge">
<title>Tx7&#45;&gt;Tx7_0</title>
<path fill="none" stroke="black" d="M2074,-145.91C2087.18,-153.87 2104.91,-164.57 2120.57,-174 2125.6,-177.03 2130.84,-180.18 2136.08,-183.34"/>
<polygon fill="black" stroke="black" points="2134.48,-186.46 2144.85,-188.62 2138.09,-180.46 2134.48,-186.46"/>
<text text-anchor="middle" x="2105.57" y="-171.8" font-family="Times,serif" font-size="14.00">#0</text>
</g>
<!-- Tx7_1 -->
<g id="node40" class="node">
<title>Tx7_1</title>
<polygon fill="none" stroke="black" points="2148.07,-103.5 2148.07,-164.5 2228.07,-164.5 2228.07,-103.5 2148.07,-103.5"/>
<text text-anchor="middle" x="2188.07" y="-149.3" font-family="Times,serif" font-size="14.00">Christopher</text>
<text text-anchor="middle" x="2188.07" y="-134.3" font-family="Times,serif" font-size="14.00">Marlowe</text>
<polyline fill="none" stroke="black" points="2148.07,-126.5 2228.07,-126.5 "/>
<text text-anchor="middle" x="2188.07" y="-111.3" font-family="Times,serif" font-size="14.00">3 ADA</text>
</g>
<!-- Tx7&#45;&gt;Tx7_1 -->
<g id="edge46" class="edge">
<title>Tx7&#45;&gt;Tx7_1</title>
<path fill="none" stroke="black" d="M2080.83,-134C2097.12,-134 2118.5,-134 2137.81,-134"/>
<polygon fill="black" stroke="black" points="2137.97,-137.5 2147.97,-134 2137.97,-130.5 2137.97,-137.5"/>
<text text-anchor="middle" x="2105.57" y="-137.8" font-family="Times,serif" font-size="14.00">#1</text>
</g>
<!-- Tx7_2 -->
<g id="node41" class="node">
<title>Tx7_2</title>
<polygon fill="none" stroke="black" points="2136.57,-263.5 2136.57,-324.5 2239.57,-324.5 2239.57,-263.5 2136.57,-263.5"/>
<text text-anchor="middle" x="2188.07" y="-309.3" font-family="Times,serif" font-size="14.00">Christopher</text>
<text text-anchor="middle" x="2188.07" y="-294.3" font-family="Times,serif" font-size="14.00">Marlowe</text>
<polyline fill="none" stroke="black" points="2136.57,-286.5 2239.57,-286.5 "/>
<text text-anchor="middle" x="2188.07" y="-271.3" font-family="Times,serif" font-size="14.00">3 ADA + 1 CM</text>
</g>
<!-- Tx7&#45;&gt;Tx7_2 -->
<g id="edge47" class="edge">
<title>Tx7&#45;&gt;Tx7_2</title>
<path fill="none" stroke="black" d="M2060.63,-151.71C2070.37,-176.88 2091,-223.33 2120.57,-254 2122.91,-256.43 2125.42,-258.76 2128.06,-260.99"/>
<polygon fill="black" stroke="black" points="2126.24,-264.01 2136.27,-267.4 2130.54,-258.49 2126.24,-264.01"/>
<text text-anchor="middle" x="2105.57" y="-245.8" font-family="Times,serif" font-size="14.00">#2</text>
</g>
</g>
</svg>
