<?xml version="1.0" encoding="UTF-8" standalone="no"?>
<!DOCTYPE svg PUBLIC "-//W3C//DTD SVG 1.1//EN"
 "http://www.w3.org/Graphics/SVG/1.1/DTD/svg11.dtd">
<!-- Generated by graphviz version 2.49.3 (0)
 -->
<!-- Title: EscrowUtxos Pages: 1 -->
<svg width="433pt" height="312pt"
 viewBox="0.00 0.00 432.60 312.00" xmlns="http://www.w3.org/2000/svg" xmlns:xlink="http://www.w3.org/1999/xlink">
<g id="graph0" class="graph" transform="scale(1 1) rotate(0) translate(4 308)">
<title>EscrowUtxos</title>
<polygon fill="white" stroke="transparent" points="-4,4 -4,-308 428.6,-308 428.6,4 -4,4"/>
<g id="clust1" class="cluster">
<title>cluster_5</title>
</g>
<g id="clust2" class="cluster">
<title>cluster_7</title>
</g>
<!-- Tx5_0 -->
<g id="node1" class="node">
<title>Tx5_0</title>
<polygon fill="none" stroke="darkred" points="39,-226.5 39,-287.5 125,-287.5 125,-226.5 39,-226.5"/>
<text text-anchor="middle" x="82" y="-272.3" font-family="Times,serif" font-size="14.00" fill="darkred">Christopher</text>
<text text-anchor="middle" x="82" y="-257.3" font-family="Times,serif" font-size="14.00" fill="darkred">Marlowe</text>
<polyline fill="none" stroke="darkred" points="39,-249.5 125,-249.5 "/>
<text text-anchor="middle" x="82" y="-234.3" font-family="Times,serif" font-size="14.00" fill="darkred">1960.1 ADA</text>
</g>
<!-- Tx7 -->
<g id="node4" class="node">
<title>Tx7</title>
<ellipse fill="none" stroke="darkred" cx="228.3" cy="-177" rx="27.1" ry="18"/>
<text text-anchor="middle" x="228.3" y="-173.3" font-family="Times,serif" font-size="14.00" fill="darkred">Tx 7</text>
</g>
<!-- Tx5_0&#45;&gt;Tx7 -->
<g id="edge1" class="edge">
<title>Tx5_0&#45;&gt;Tx7</title>
<path fill="none" stroke="darkred" d="M125.06,-237.27C137.72,-231.05 151.55,-223.98 164,-217 176.08,-210.23 189.06,-202.16 200.11,-195.06"/>
<polygon fill="darkred" stroke="darkred" points="202.02,-197.99 208.5,-189.61 198.21,-192.12 202.02,-197.99"/>
</g>
<!-- Tx5_3 -->
<g id="node2" class="node">
<title>Tx5_3</title>
<polygon fill="none" stroke="darkred" points="30.5,-146.5 30.5,-207.5 133.5,-207.5 133.5,-146.5 30.5,-146.5"/>
<text text-anchor="middle" x="82" y="-192.3" font-family="Times,serif" font-size="14.00" fill="darkred">Christopher</text>
<text text-anchor="middle" x="82" y="-177.3" font-family="Times,serif" font-size="14.00" fill="darkred">Marlowe</text>
<polyline fill="none" stroke="darkred" points="30.5,-169.5 133.5,-169.5 "/>
<text text-anchor="middle" x="82" y="-154.3" font-family="Times,serif" font-size="14.00" fill="darkred">3 ADA + 1 CM</text>
</g>
<!-- Tx5_3&#45;&gt;Tx7 -->
<g id="edge2" class="edge">
<title>Tx5_3&#45;&gt;Tx7</title>
<path fill="none" stroke="darkred" d="M133.87,-177C152.55,-177 173.32,-177 190.53,-177"/>
<polygon fill="darkred" stroke="darkred" points="190.73,-180.5 200.73,-177 190.73,-173.5 190.73,-180.5"/>
</g>
<!-- Tx5_1 -->
<g id="node3" class="node">
<title>Tx5_1</title>
<polygon fill="none" stroke="darkred" points="0,-58.5 0,-127.5 164,-127.5 164,-58.5 0,-58.5"/>
<text text-anchor="middle" x="82" y="-112.3" font-family="Times,serif" font-size="14.00" fill="darkred">Payout Script</text>
<polyline fill="none" stroke="darkred" points="0,-104.5 164,-104.5 "/>
<text text-anchor="middle" x="82" y="-89.3" font-family="Times,serif" font-size="14.00" fill="darkred">3 ADA</text>
<polyline fill="none" stroke="darkred" points="0,-81.5 164,-81.5 "/>
<text text-anchor="middle" x="27" y="-66.3" font-family="Times,serif" font-size="14.00" fill="darkred">Payout</text>
<polyline fill="none" stroke="darkred" points="54,-58.5 54,-81.5 "/>
<text text-anchor="middle" x="109" y="-66.3" font-family="Times,serif" font-size="14.00" fill="darkred">C.M. has 3 ADA</text>
</g>
<!-- Tx5_1&#45;&gt;Tx7 -->
<g id="edge3" class="edge">
<title>Tx5_1&#45;&gt;Tx7</title>
<path fill="none" stroke="darkred" d="M152.69,-127.54C156.54,-129.68 160.33,-131.84 164,-134 176.46,-141.35 189.77,-150.22 200.96,-158"/>
<polygon fill="darkred" stroke="darkred" points="199.22,-161.06 209.42,-163.95 203.25,-155.33 199.22,-161.06"/>
</g>
<!-- Tx7_Fee -->
<g id="node5" class="node">
<title>Tx7_Fee</title>
<polygon fill="none" stroke="darkred" points="324.1,-257 324.1,-295 390.1,-295 390.1,-257 324.1,-257"/>
<text text-anchor="middle" x="357.1" y="-279.8" font-family="Times,serif" font-size="14.00" fill="darkred">Fee</text>
<text text-anchor="middle" x="357.1" y="-264.8" font-family="Times,serif" font-size="14.00" fill="darkred">0.5 ADA</text>
</g>
<!-- Tx7&#45;&gt;Tx7_Fee -->
<g id="edge4" class="edge">
<title>Tx7&#45;&gt;Tx7_Fee</title>
<path fill="none" stroke="darkred" d="M241.13,-193C253.68,-209.1 274.83,-233.8 297.6,-250 302.82,-253.72 308.67,-257.09 314.59,-260.07"/>
<polygon fill="darkred" stroke="darkred" points="313.34,-263.34 323.88,-264.43 316.31,-257.01 313.34,-263.34"/>
</g>
<!-- Tx7_0 -->
<g id="node6" class="node">
<title>Tx7_0</title>
<polygon fill="none" stroke="black" points="314.1,-176.5 314.1,-237.5 400.1,-237.5 400.1,-176.5 314.1,-176.5"/>
<text text-anchor="middle" x="357.1" y="-222.3" font-family="Times,serif" font-size="14.00">Christopher</text>
<text text-anchor="middle" x="357.1" y="-207.3" font-family="Times,serif" font-size="14.00">Marlowe</text>
<polyline fill="none" stroke="black" points="314.1,-199.5 400.1,-199.5 "/>
<text text-anchor="middle" x="357.1" y="-184.3" font-family="Times,serif" font-size="14.00">1959.7 ADA</text>
</g>
<!-- Tx7&#45;&gt;Tx7_0 -->
<g id="edge5" class="edge">
<title>Tx7&#45;&gt;Tx7_0</title>
<path fill="none" stroke="darkred" d="M254.35,-182.93C268.53,-186.28 286.8,-190.61 303.95,-194.66"/>
<polygon fill="darkred" stroke="darkred" points="303.33,-198.11 313.87,-197.01 304.94,-191.3 303.33,-198.11"/>
<text text-anchor="middle" x="280.6" y="-193.8" font-family="Times,serif" font-size="14.00" fill="darkred">#0</text>
</g>
<!-- Tx7_1 -->
<g id="node7" class="node">
<title>Tx7_1</title>
<polygon fill="none" stroke="black" points="317.1,-96.5 317.1,-157.5 397.1,-157.5 397.1,-96.5 317.1,-96.5"/>
<text text-anchor="middle" x="357.1" y="-142.3" font-family="Times,serif" font-size="14.00">Christopher</text>
<text text-anchor="middle" x="357.1" y="-127.3" font-family="Times,serif" font-size="14.00">Marlowe</text>
<polyline fill="none" stroke="black" points="317.1,-119.5 397.1,-119.5 "/>
<text text-anchor="middle" x="357.1" y="-104.3" font-family="Times,serif" font-size="14.00">3 ADA</text>
</g>
<!-- Tx7&#45;&gt;Tx7_1 -->
<g id="edge6" class="edge">
<title>Tx7&#45;&gt;Tx7_1</title>
<path fill="none" stroke="darkred" d="M252.26,-167.95C267.64,-161.88 288.48,-153.66 307.45,-146.18"/>
<polygon fill="darkred" stroke="darkred" points="308.85,-149.39 316.87,-142.47 306.29,-142.88 308.85,-149.39"/>
<text text-anchor="middle" x="280.6" y="-162.8" font-family="Times,serif" font-size="14.00" fill="darkred">#1</text>
</g>
<!-- Tx7_2 -->
<g id="node8" class="node">
<title>Tx7_2</title>
<polygon fill="none" stroke="black" points="305.6,-16.5 305.6,-77.5 408.6,-77.5 408.6,-16.5 305.6,-16.5"/>
<text text-anchor="middle" x="357.1" y="-62.3" font-family="Times,serif" font-size="14.00">Christopher</text>
<text text-anchor="middle" x="357.1" y="-47.3" font-family="Times,serif" font-size="14.00">Marlowe</text>
<polyline fill="none" stroke="black" points="305.6,-39.5 408.6,-39.5 "/>
<text text-anchor="middle" x="357.1" y="-24.3" font-family="Times,serif" font-size="14.00">3 ADA + 1 CM</text>
</g>
<!-- Tx7&#45;&gt;Tx7_2 -->
<g id="edge7" class="edge">
<title>Tx7&#45;&gt;Tx7_2</title>
<path fill="none" stroke="darkred" d="M239.5,-160.46C251.77,-141.38 273.73,-109.72 297.6,-87 298.55,-86.09 299.52,-85.19 300.52,-84.3"/>
<polygon fill="darkred" stroke="darkred" points="303.06,-86.73 308.45,-77.61 298.55,-81.38 303.06,-86.73"/>
<text text-anchor="middle" x="280.6" y="-115.8" font-family="Times,serif" font-size="14.00" fill="darkred">#2</text>
</g>
</g>
</svg>
