<?xml version="1.0" encoding="UTF-8" standalone="no"?>
<!DOCTYPE svg PUBLIC "-//W3C//DTD SVG 1.1//EN"
 "http://www.w3.org/Graphics/SVG/1.1/DTD/svg11.dtd">
<!-- Generated by graphviz version 2.49.3 (0)
 -->
<!-- Title: EscrowUtxos Pages: 1 -->
<svg width="582pt" height="406pt"
 viewBox="0.00 0.00 581.60 405.50" xmlns="http://www.w3.org/2000/svg" xmlns:xlink="http://www.w3.org/1999/xlink">
<g id="graph0" class="graph" transform="scale(1 1) rotate(0) translate(4 401.5)">
<title>EscrowUtxos</title>
<polygon fill="white" stroke="transparent" points="-4,4 -4,-401.5 577.6,-401.5 577.6,4 -4,4"/>
<g id="clust1" class="cluster">
<title>cluster_5</title>
</g>
<g id="clust2" class="cluster">
<title>cluster_5p</title>
</g>
<!-- Tx1_0 -->
<g id="node1" class="node">
<title>Tx1_0</title>
<polygon fill="none" stroke="darkred" points="40,-230 40,-291 126,-291 126,-230 40,-230"/>
<text text-anchor="middle" x="83" y="-275.8" font-family="Times,serif" font-size="14.00" fill="darkred">Christopher</text>
<text text-anchor="middle" x="83" y="-260.8" font-family="Times,serif" font-size="14.00" fill="darkred">Marlowe</text>
<polyline fill="none" stroke="darkred" points="40,-253 126,-253 "/>
<text text-anchor="middle" x="83" y="-237.8" font-family="Times,serif" font-size="14.00" fill="darkred">1962.5 ADA</text>
</g>
<!-- Tx5 -->
<g id="node4" class="node">
<title>Tx5</title>
<ellipse fill="none" stroke="darkred" cx="308.3" cy="-180.5" rx="27.1" ry="18"/>
<text text-anchor="middle" x="308.3" y="-176.8" font-family="Times,serif" font-size="14.00" fill="darkred">Tx 5</text>
</g>
<!-- Tx1_0&#45;&gt;Tx5 -->
<g id="edge2" class="edge">
<title>Tx1_0&#45;&gt;Tx5</title>
<path fill="none" stroke="darkred" d="M126,-245.45C169,-230.05 234.95,-206.42 274.34,-192.31"/>
<polygon fill="darkred" stroke="darkred" points="275.75,-195.52 283.98,-188.85 273.39,-188.93 275.75,-195.52"/>
</g>
<!-- Tx0MediatorToken -->
<g id="node2" class="node">
<title>Tx0MediatorToken</title>
<polygon fill="none" stroke="darkred" points="31.5,-150 31.5,-211 134.5,-211 134.5,-150 31.5,-150"/>
<text text-anchor="middle" x="83" y="-195.8" font-family="Times,serif" font-size="14.00" fill="darkred">Christopher</text>
<text text-anchor="middle" x="83" y="-180.8" font-family="Times,serif" font-size="14.00" fill="darkred">Marlowe</text>
<polyline fill="none" stroke="darkred" points="31.5,-173 134.5,-173 "/>
<text text-anchor="middle" x="83" y="-157.8" font-family="Times,serif" font-size="14.00" fill="darkred">2 ADA + 1 CM</text>
</g>
<!-- Tx0MediatorToken&#45;&gt;Tx5 -->
<g id="edge3" class="edge">
<title>Tx0MediatorToken&#45;&gt;Tx5</title>
<path fill="none" stroke="darkred" d="M134.67,-180.5C176.01,-180.5 233.44,-180.5 270.49,-180.5"/>
<polygon fill="darkred" stroke="darkred" points="270.83,-184 280.83,-180.5 270.83,-177 270.83,-184"/>
</g>
<!-- Tx4_1 -->
<g id="node3" class="node">
<title>Tx4_1</title>
<polygon fill="none" stroke="darkred" points="0,-16 0,-131 166,-131 166,-16 0,-16"/>
<text text-anchor="middle" x="83" y="-115.8" font-family="Times,serif" font-size="14.00" fill="darkred">Marlowe Script</text>
<polyline fill="none" stroke="darkred" points="0,-108 166,-108 "/>
<text text-anchor="middle" x="83" y="-92.8" font-family="Times,serif" font-size="14.00" fill="darkred">259 ADA</text>
<polyline fill="none" stroke="darkred" points="0,-85 166,-85 "/>
<text text-anchor="middle" x="22" y="-46.8" font-family="Times,serif" font-size="14.00" fill="darkred">State</text>
<polyline fill="none" stroke="darkred" points="44,-16 44,-85 "/>
<text text-anchor="middle" x="105" y="-69.8" font-family="Times,serif" font-size="14.00" fill="darkred">F.B. has 0 ADA</text>
<polyline fill="none" stroke="darkred" points="44,-62 166,-62 "/>
<text text-anchor="middle" x="105" y="-46.8" font-family="Times,serif" font-size="14.00" fill="darkred">T.M. has 256 ADA</text>
<polyline fill="none" stroke="darkred" points="44,-39 166,-39 "/>
<text text-anchor="middle" x="105" y="-23.8" font-family="Times,serif" font-size="14.00" fill="darkred">C.M. has 3 ADA</text>
</g>
<!-- Tx4_1&#45;&gt;Tx5 -->
<g id="edge1" class="edge">
<title>Tx4_1&#45;&gt;Tx5</title>
<path fill="none" stroke="darkred" d="M166.2,-112.89C204.63,-131.3 248.08,-152.12 276.48,-165.73"/>
<polygon fill="darkred" stroke="darkred" points="274.98,-168.89 285.51,-170.06 278,-162.58 274.98,-168.89"/>
<text text-anchor="middle" x="223.5" y="-160.3" font-family="Times,serif" font-size="14.00" fill="darkred">Dismiss claim</text>
</g>
<!-- Tx5_0 -->
<g id="node5" class="node">
<title>Tx5_0</title>
<polygon fill="none" stroke="black" points="428.6,-320 428.6,-381 514.6,-381 514.6,-320 428.6,-320"/>
<text text-anchor="middle" x="471.6" y="-365.8" font-family="Times,serif" font-size="14.00">Christopher</text>
<text text-anchor="middle" x="471.6" y="-350.8" font-family="Times,serif" font-size="14.00">Marlowe</text>
<polyline fill="none" stroke="black" points="428.6,-343 514.6,-343 "/>
<text text-anchor="middle" x="471.6" y="-327.8" font-family="Times,serif" font-size="14.00">1960.1 ADA</text>
</g>
<!-- Tx5&#45;&gt;Tx5_0 -->
<g id="edge4" class="edge">
<title>Tx5&#45;&gt;Tx5_0</title>
<path fill="none" stroke="darkred" d="M314.44,-198.45C323.17,-226 343.35,-278.81 377.6,-310.5 389.24,-321.27 404.22,-329.42 418.76,-335.45"/>
<polygon fill="darkred" stroke="darkred" points="417.61,-338.76 428.2,-339.12 420.14,-332.24 417.61,-338.76"/>
<text text-anchor="middle" x="360.6" y="-302.3" font-family="Times,serif" font-size="14.00" fill="darkred">#0</text>
</g>
<!-- Tx5_3 -->
<g id="node6" class="node">
<title>Tx5_3</title>
<polygon fill="none" stroke="black" points="420.1,-240 420.1,-301 523.1,-301 523.1,-240 420.1,-240"/>
<text text-anchor="middle" x="471.6" y="-285.8" font-family="Times,serif" font-size="14.00">Christopher</text>
<text text-anchor="middle" x="471.6" y="-270.8" font-family="Times,serif" font-size="14.00">Marlowe</text>
<polyline fill="none" stroke="black" points="420.1,-263 523.1,-263 "/>
<text text-anchor="middle" x="471.6" y="-247.8" font-family="Times,serif" font-size="14.00">3 ADA + 1 CM</text>
</g>
<!-- Tx5&#45;&gt;Tx5_3 -->
<g id="edge5" class="edge">
<title>Tx5&#45;&gt;Tx5_3</title>
<path fill="none" stroke="darkred" d="M327.02,-193.93C340.5,-203.84 359.71,-217.31 377.6,-227.5 387.98,-233.42 399.32,-239.19 410.4,-244.49"/>
<polygon fill="darkred" stroke="darkred" points="409.07,-247.73 419.61,-248.82 412.05,-241.4 409.07,-247.73"/>
<text text-anchor="middle" x="360.6" y="-224.3" font-family="Times,serif" font-size="14.00" fill="darkred">#3</text>
</g>
<!-- Tx5_1 -->
<g id="node7" class="node">
<title>Tx5_1</title>
<polygon fill="none" stroke="black" points="389.6,-146 389.6,-215 553.6,-215 553.6,-146 389.6,-146"/>
<text text-anchor="middle" x="471.6" y="-199.8" font-family="Times,serif" font-size="14.00">Payout Script</text>
<polyline fill="none" stroke="black" points="389.6,-192 553.6,-192 "/>
<text text-anchor="middle" x="471.6" y="-176.8" font-family="Times,serif" font-size="14.00">3 ADA</text>
<polyline fill="none" stroke="black" points="389.6,-169 553.6,-169 "/>
<text text-anchor="middle" x="416.6" y="-153.8" font-family="Times,serif" font-size="14.00">Payout</text>
<polyline fill="none" stroke="black" points="443.6,-146 443.6,-169 "/>
<text text-anchor="middle" x="498.6" y="-153.8" font-family="Times,serif" font-size="14.00">C.M. has 3 ADA</text>
</g>
<!-- Tx5&#45;&gt;Tx5_1 -->
<g id="edge6" class="edge">
<title>Tx5&#45;&gt;Tx5_1</title>
<path fill="none" stroke="darkred" d="M335.93,-180.5C348.12,-180.5 363.35,-180.5 379.14,-180.5"/>
<polygon fill="darkred" stroke="darkred" points="379.57,-184 389.57,-180.5 379.57,-177 379.57,-184"/>
<text text-anchor="middle" x="360.6" y="-184.3" font-family="Times,serif" font-size="14.00" fill="darkred">#1</text>
</g>
<!-- Tx5_2 -->
<g id="node8" class="node">
<title>Tx5_2</title>
<polygon fill="none" stroke="black" points="385.6,-58 385.6,-127 557.6,-127 557.6,-58 385.6,-58"/>
<text text-anchor="middle" x="471.6" y="-111.8" font-family="Times,serif" font-size="14.00">Payout Script</text>
<polyline fill="none" stroke="black" points="385.6,-104 557.6,-104 "/>
<text text-anchor="middle" x="471.6" y="-88.8" font-family="Times,serif" font-size="14.00">256 ADA</text>
<polyline fill="none" stroke="black" points="385.6,-81 557.6,-81 "/>
<text text-anchor="middle" x="412.6" y="-65.8" font-family="Times,serif" font-size="14.00">Payout</text>
<polyline fill="none" stroke="black" points="439.6,-58 439.6,-81 "/>
<text text-anchor="middle" x="498.6" y="-65.8" font-family="Times,serif" font-size="14.00">F.B. has 256 ADA</text>
</g>
<!-- Tx5&#45;&gt;Tx5_2 -->
<g id="edge7" class="edge">
<title>Tx5&#45;&gt;Tx5_2</title>
<path fill="none" stroke="darkred" d="M327.74,-167.69C341.26,-158.53 360.21,-146.16 377.6,-136.5 380.32,-134.99 383.1,-133.48 385.92,-131.97"/>
<polygon fill="darkred" stroke="darkred" points="387.8,-134.94 395.05,-127.22 384.56,-128.74 387.8,-134.94"/>
<text text-anchor="middle" x="360.6" y="-153.3" font-family="Times,serif" font-size="14.00" fill="darkred">#2</text>
</g>
<!-- Tx5_Fee -->
<g id="node9" class="node">
<title>Tx5_Fee</title>
<polygon fill="none" stroke="darkred" points="438.6,-0.5 438.6,-38.5 504.6,-38.5 504.6,-0.5 438.6,-0.5"/>
<text text-anchor="middle" x="471.6" y="-23.3" font-family="Times,serif" font-size="14.00" fill="darkred">Fee</text>
<text text-anchor="middle" x="471.6" y="-8.3" font-family="Times,serif" font-size="14.00" fill="darkred">1.4 ADA</text>
</g>
<!-- Tx5&#45;&gt;Tx5_Fee -->
<g id="edge8" class="edge">
<title>Tx5&#45;&gt;Tx5_Fee</title>
<path fill="none" stroke="darkred" d="M313.36,-162.69C320.89,-133.72 339.84,-76.5 377.6,-45.5 391.89,-33.76 411.14,-27.31 428.42,-23.77"/>
<polygon fill="darkred" stroke="darkred" points="429.08,-27.21 438.31,-22.01 427.85,-20.32 429.08,-27.21"/>
</g>
</g>
</svg>
