<?xml version="1.0" encoding="UTF-8" standalone="no"?>
<!DOCTYPE svg PUBLIC "-//W3C//DTD SVG 1.1//EN"
 "http://www.w3.org/Graphics/SVG/1.1/DTD/svg11.dtd">
<!-- Generated by graphviz version 2.49.3 (0)
 -->
<!-- Title: EscrowUtxos Pages: 1 -->
<svg width="573pt" height="388pt"
 viewBox="0.00 0.00 572.60 388.00" xmlns="http://www.w3.org/2000/svg" xmlns:xlink="http://www.w3.org/1999/xlink">
<g id="graph0" class="graph" transform="scale(1 1) rotate(0) translate(4 384)">
<title>EscrowUtxos</title>
<polygon fill="white" stroke="transparent" points="-4,4 -4,-384 568.6,-384 568.6,4 -4,4"/>
<g id="clust1" class="cluster">
<title>cluster_4</title>
</g>
<!-- Tx0SellerAda -->
<g id="node1" class="node">
<title>Tx0SellerAda</title>
<polygon fill="none" stroke="darkred" points="25,-214.5 25,-275.5 141,-275.5 141,-214.5 25,-214.5"/>
<text text-anchor="middle" x="83" y="-260.3" font-family="Times,serif" font-size="14.00" fill="darkred">Francis Beaumont</text>
<text text-anchor="middle" x="83" y="-245.3" font-family="Times,serif" font-size="14.00" fill="darkred">(the seller)</text>
<polyline fill="none" stroke="darkred" points="25,-237.5 141,-237.5 "/>
<text text-anchor="middle" x="83" y="-222.3" font-family="Times,serif" font-size="14.00" fill="darkred">3003.6 ADA</text>
</g>
<!-- Tx4 -->
<g id="node4" class="node">
<title>Tx4</title>
<ellipse fill="none" stroke="darkred" cx="321.3" cy="-165" rx="27.1" ry="18"/>
<text text-anchor="middle" x="321.3" y="-161.3" font-family="Times,serif" font-size="14.00" fill="darkred">Tx 4</text>
</g>
<!-- Tx0SellerAda&#45;&gt;Tx4 -->
<g id="edge2" class="edge">
<title>Tx0SellerAda&#45;&gt;Tx4</title>
<path fill="none" stroke="darkred" d="M141.2,-225.63C186.84,-210.18 249.19,-189.07 287,-176.27"/>
<polygon fill="darkred" stroke="darkred" points="288.17,-179.57 296.52,-173.05 285.92,-172.94 288.17,-179.57"/>
</g>
<!-- Tx0SellerToken -->
<g id="node2" class="node">
<title>Tx0SellerToken</title>
<polygon fill="none" stroke="darkred" points="34,-134.5 34,-195.5 132,-195.5 132,-134.5 34,-134.5"/>
<text text-anchor="middle" x="83" y="-180.3" font-family="Times,serif" font-size="14.00" fill="darkred">Francis</text>
<text text-anchor="middle" x="83" y="-165.3" font-family="Times,serif" font-size="14.00" fill="darkred">Beaumont</text>
<polyline fill="none" stroke="darkred" points="34,-157.5 132,-157.5 "/>
<text text-anchor="middle" x="83" y="-142.3" font-family="Times,serif" font-size="14.00" fill="darkred">2 ADA + 1 FB</text>
</g>
<!-- Tx0SellerToken&#45;&gt;Tx4 -->
<g id="edge3" class="edge">
<title>Tx0SellerToken&#45;&gt;Tx4</title>
<path fill="none" stroke="darkred" d="M132.1,-165C177.04,-165 243.14,-165 283.86,-165"/>
<polygon fill="darkred" stroke="darkred" points="283.88,-168.5 293.88,-165 283.88,-161.5 283.88,-168.5"/>
</g>
<!-- Tx3_1 -->
<g id="node3" class="node">
<title>Tx3_1</title>
<polygon fill="none" stroke="darkred" points="0,-0.5 0,-115.5 166,-115.5 166,-0.5 0,-0.5"/>
<text text-anchor="middle" x="83" y="-100.3" font-family="Times,serif" font-size="14.00" fill="darkred">Marlowe Script</text>
<polyline fill="none" stroke="darkred" points="0,-92.5 166,-92.5 "/>
<text text-anchor="middle" x="83" y="-77.3" font-family="Times,serif" font-size="14.00" fill="darkred">259 ADA</text>
<polyline fill="none" stroke="darkred" points="0,-69.5 166,-69.5 "/>
<text text-anchor="middle" x="22" y="-31.3" font-family="Times,serif" font-size="14.00" fill="darkred">State</text>
<polyline fill="none" stroke="darkred" points="44,-0.5 44,-69.5 "/>
<text text-anchor="middle" x="105" y="-54.3" font-family="Times,serif" font-size="14.00" fill="darkred">F.B. has 0 ADA</text>
<polyline fill="none" stroke="darkred" points="44,-46.5 166,-46.5 "/>
<text text-anchor="middle" x="105" y="-31.3" font-family="Times,serif" font-size="14.00" fill="darkred">T.M. has 256 ADA</text>
<polyline fill="none" stroke="darkred" points="44,-23.5 166,-23.5 "/>
<text text-anchor="middle" x="105" y="-8.3" font-family="Times,serif" font-size="14.00" fill="darkred">C.M. has 3 ADA</text>
</g>
<!-- Tx3_1&#45;&gt;Tx4 -->
<g id="edge1" class="edge">
<title>Tx3_1&#45;&gt;Tx4</title>
<path fill="none" stroke="darkred" d="M166.31,-95.27C208.62,-114.43 257.7,-136.65 288.86,-150.77"/>
<polygon fill="darkred" stroke="darkred" points="287.77,-154.11 298.32,-155.05 290.65,-147.73 287.77,-154.11"/>
<text text-anchor="middle" x="230" y="-148.8" font-family="Times,serif" font-size="14.00" fill="darkred">Dispute problem</text>
</g>
<!-- Tx4_0 -->
<g id="node5" class="node">
<title>Tx4_0</title>
<polygon fill="none" stroke="black" points="438.6,-302.5 438.6,-363.5 524.6,-363.5 524.6,-302.5 438.6,-302.5"/>
<text text-anchor="middle" x="481.6" y="-348.3" font-family="Times,serif" font-size="14.00">Francis</text>
<text text-anchor="middle" x="481.6" y="-333.3" font-family="Times,serif" font-size="14.00">Beaumont</text>
<polyline fill="none" stroke="black" points="438.6,-325.5 524.6,-325.5 "/>
<text text-anchor="middle" x="481.6" y="-310.3" font-family="Times,serif" font-size="14.00">3001.3 ADA</text>
</g>
<!-- Tx4&#45;&gt;Tx4_0 -->
<g id="edge4" class="edge">
<title>Tx4&#45;&gt;Tx4_0</title>
<path fill="none" stroke="darkred" d="M328.87,-182.47C339.73,-209.31 363.75,-260.95 398.6,-293 407.52,-301.21 418.44,-308.09 429.37,-313.69"/>
<polygon fill="darkred" stroke="darkred" points="427.98,-316.91 438.5,-318.11 431.02,-310.6 427.98,-316.91"/>
<text text-anchor="middle" x="373.6" y="-275.8" font-family="Times,serif" font-size="14.00" fill="darkred">#0</text>
</g>
<!-- Tx4_2 -->
<g id="node6" class="node">
<title>Tx4_2</title>
<polygon fill="none" stroke="black" points="432.6,-222.5 432.6,-283.5 530.6,-283.5 530.6,-222.5 432.6,-222.5"/>
<text text-anchor="middle" x="481.6" y="-268.3" font-family="Times,serif" font-size="14.00">Francis</text>
<text text-anchor="middle" x="481.6" y="-253.3" font-family="Times,serif" font-size="14.00">Beaumont</text>
<polyline fill="none" stroke="black" points="432.6,-245.5 530.6,-245.5 "/>
<text text-anchor="middle" x="481.6" y="-230.3" font-family="Times,serif" font-size="14.00">3 ADA + 1 FB</text>
</g>
<!-- Tx4&#45;&gt;Tx4_2 -->
<g id="edge5" class="edge">
<title>Tx4&#45;&gt;Tx4_2</title>
<path fill="none" stroke="darkred" d="M341.08,-177.61C356.32,-187.65 378.49,-201.82 398.6,-213 406.52,-217.41 415.01,-221.85 423.41,-226.09"/>
<polygon fill="darkred" stroke="darkred" points="421.94,-229.27 432.45,-230.59 425.06,-223 421.94,-229.27"/>
<text text-anchor="middle" x="373.6" y="-205.8" font-family="Times,serif" font-size="14.00" fill="darkred">#2</text>
</g>
<!-- Tx4_1 -->
<g id="node7" class="node">
<title>Tx4_1</title>
<polygon fill="none" stroke="black" points="398.6,-88.5 398.6,-203.5 564.6,-203.5 564.6,-88.5 398.6,-88.5"/>
<text text-anchor="middle" x="481.6" y="-188.3" font-family="Times,serif" font-size="14.00">Marlowe Script</text>
<polyline fill="none" stroke="black" points="398.6,-180.5 564.6,-180.5 "/>
<text text-anchor="middle" x="481.6" y="-165.3" font-family="Times,serif" font-size="14.00">259 ADA</text>
<polyline fill="none" stroke="black" points="398.6,-157.5 564.6,-157.5 "/>
<text text-anchor="middle" x="420.6" y="-119.3" font-family="Times,serif" font-size="14.00">State</text>
<polyline fill="none" stroke="black" points="442.6,-88.5 442.6,-157.5 "/>
<text text-anchor="middle" x="503.6" y="-142.3" font-family="Times,serif" font-size="14.00">F.B. has 0 ADA</text>
<polyline fill="none" stroke="black" points="442.6,-134.5 564.6,-134.5 "/>
<text text-anchor="middle" x="503.6" y="-119.3" font-family="Times,serif" font-size="14.00">T.M. has 256 ADA</text>
<polyline fill="none" stroke="black" points="442.6,-111.5 564.6,-111.5 "/>
<text text-anchor="middle" x="503.6" y="-96.3" font-family="Times,serif" font-size="14.00">C.M. has 3 ADA</text>
</g>
<!-- Tx4&#45;&gt;Tx4_1 -->
<g id="edge6" class="edge">
<title>Tx4&#45;&gt;Tx4_1</title>
<path fill="none" stroke="darkred" d="M348.44,-161.86C359.71,-160.51 373.64,-158.84 388.18,-157.09"/>
<polygon fill="darkred" stroke="darkred" points="388.81,-160.54 398.32,-155.87 387.98,-153.59 388.81,-160.54"/>
<text text-anchor="middle" x="373.6" y="-163.8" font-family="Times,serif" font-size="14.00" fill="darkred">#1</text>
</g>
<!-- Tx4_Fee -->
<g id="node8" class="node">
<title>Tx4_Fee</title>
<polygon fill="none" stroke="darkred" points="448.6,-31 448.6,-69 514.6,-69 514.6,-31 448.6,-31"/>
<text text-anchor="middle" x="481.6" y="-53.8" font-family="Times,serif" font-size="14.00" fill="darkred">Fee</text>
<text text-anchor="middle" x="481.6" y="-38.8" font-family="Times,serif" font-size="14.00" fill="darkred">1.3 ADA</text>
</g>
<!-- Tx4&#45;&gt;Tx4_Fee -->
<g id="edge7" class="edge">
<title>Tx4&#45;&gt;Tx4_Fee</title>
<path fill="none" stroke="darkred" d="M333.05,-148.48C346.33,-129.28 370.61,-97.84 398.6,-79 410.69,-70.86 425.33,-64.73 438.87,-60.26"/>
<polygon fill="darkred" stroke="darkred" points="439.96,-63.58 448.48,-57.29 437.9,-56.9 439.96,-63.58"/>
</g>
</g>
</svg>
