<?xml version="1.0" encoding="UTF-8" standalone="no"?>
<!DOCTYPE svg PUBLIC "-//W3C//DTD SVG 1.1//EN"
 "http://www.w3.org/Graphics/SVG/1.1/DTD/svg11.dtd">
<!-- Generated by graphviz version 2.49.3 (0)
 -->
<!-- Title: EscrowUtxos Pages: 1 -->
<svg width="438pt" height="502pt"
 viewBox="0.00 0.00 437.60 501.50" xmlns="http://www.w3.org/2000/svg" xmlns:xlink="http://www.w3.org/1999/xlink">
<g id="graph0" class="graph" transform="scale(1 1) rotate(0) translate(4 497.5)">
<title>EscrowUtxos</title>
<polygon fill="white" stroke="transparent" points="-4,4 -4,-497.5 433.6,-497.5 433.6,4 -4,4"/>
<!-- Tx0MediatorAda -->
<g id="node1" class="node">
<title>Tx0MediatorAda</title>
<polygon fill="none" stroke="darkred" points="0,-178 0,-239 134,-239 134,-178 0,-178"/>
<text text-anchor="middle" x="67" y="-223.8" font-family="Times,serif" font-size="14.00" fill="darkred">Christopher Marlowe</text>
<text text-anchor="middle" x="67" y="-208.8" font-family="Times,serif" font-size="14.00" fill="darkred">(the mediator)</text>
<polyline fill="none" stroke="darkred" points="0,-201 134,-201 "/>
<text text-anchor="middle" x="67" y="-185.8" font-family="Times,serif" font-size="14.00" fill="darkred">1971.7 ADA</text>
</g>
<!-- Tx1 -->
<g id="node2" class="node">
<title>Tx1</title>
<ellipse fill="none" stroke="darkred" cx="198.3" cy="-208.5" rx="27.1" ry="18"/>
<text text-anchor="middle" x="198.3" y="-204.8" font-family="Times,serif" font-size="14.00" fill="darkred">Tx 1</text>
</g>
<!-- Tx0MediatorAda&#45;&gt;Tx1 -->
<g id="edge1" class="edge">
<title>Tx0MediatorAda&#45;&gt;Tx1</title>
<path fill="none" stroke="darkred" d="M134.16,-208.5C143.34,-208.5 152.47,-208.5 160.82,-208.5"/>
<polygon fill="darkred" stroke="darkred" points="160.93,-212 170.93,-208.5 160.93,-205 160.93,-212"/>
</g>
<!-- Tx1_1 -->
<g id="node3" class="node">
<title>Tx1_1</title>
<polygon fill="none" stroke="black" points="275.6,-378 275.6,-493 429.6,-493 429.6,-378 275.6,-378"/>
<text text-anchor="middle" x="352.6" y="-477.8" font-family="Times,serif" font-size="14.00">Marlowe Script</text>
<polyline fill="none" stroke="black" points="275.6,-470 429.6,-470 "/>
<text text-anchor="middle" x="352.6" y="-454.8" font-family="Times,serif" font-size="14.00">3 ADA</text>
<polyline fill="none" stroke="black" points="275.6,-447 429.6,-447 "/>
<text text-anchor="middle" x="297.6" y="-408.8" font-family="Times,serif" font-size="14.00">State</text>
<polyline fill="none" stroke="black" points="319.6,-378 319.6,-447 "/>
<text text-anchor="middle" x="374.6" y="-431.8" font-family="Times,serif" font-size="14.00">F.B. has 0 ADA</text>
<polyline fill="none" stroke="black" points="319.6,-424 429.6,-424 "/>
<text text-anchor="middle" x="374.6" y="-408.8" font-family="Times,serif" font-size="14.00">T.M. has 0 ADA</text>
<polyline fill="none" stroke="black" points="319.6,-401 429.6,-401 "/>
<text text-anchor="middle" x="374.6" y="-385.8" font-family="Times,serif" font-size="14.00">C.M. has 3 ADA</text>
</g>
<!-- Tx1&#45;&gt;Tx1_1 -->
<g id="edge2" class="edge">
<title>Tx1&#45;&gt;Tx1_1</title>
<path fill="none" stroke="darkred" d="M205.04,-226.1C215.67,-256.99 240.55,-322.08 275.6,-368.5 275.89,-368.89 276.18,-369.27 276.48,-369.66"/>
<polygon fill="darkred" stroke="darkred" points="273.98,-372.13 283.03,-377.64 279.39,-367.69 273.98,-372.13"/>
<text text-anchor="middle" x="250.6" y="-343.3" font-family="Times,serif" font-size="14.00" fill="darkred">#1</text>
</g>
<!-- Tx1_0 -->
<g id="node4" class="node">
<title>Tx1_0</title>
<polygon fill="none" stroke="black" points="309.6,-298 309.6,-359 395.6,-359 395.6,-298 309.6,-298"/>
<text text-anchor="middle" x="352.6" y="-343.8" font-family="Times,serif" font-size="14.00">Christopher</text>
<text text-anchor="middle" x="352.6" y="-328.8" font-family="Times,serif" font-size="14.00">Marlowe</text>
<polyline fill="none" stroke="black" points="309.6,-321 395.6,-321 "/>
<text text-anchor="middle" x="352.6" y="-305.8" font-family="Times,serif" font-size="14.00">1962.5 ADA</text>
</g>
<!-- Tx1&#45;&gt;Tx1_0 -->
<g id="edge3" class="edge">
<title>Tx1&#45;&gt;Tx1_0</title>
<path fill="none" stroke="darkred" d="M211.79,-224.41C225.93,-241.7 250.32,-269.42 275.6,-288.5 283.28,-294.3 291.92,-299.72 300.55,-304.58"/>
<polygon fill="darkred" stroke="darkred" points="299.04,-307.74 309.5,-309.44 302.38,-301.59 299.04,-307.74"/>
<text text-anchor="middle" x="250.6" y="-276.3" font-family="Times,serif" font-size="14.00" fill="darkred">#0</text>
</g>
<!-- Tx0MediatorToken -->
<g id="node5" class="node">
<title>Tx0MediatorToken</title>
<polygon fill="none" stroke="black" points="301.1,-218 301.1,-279 404.1,-279 404.1,-218 301.1,-218"/>
<text text-anchor="middle" x="352.6" y="-263.8" font-family="Times,serif" font-size="14.00">Christopher</text>
<text text-anchor="middle" x="352.6" y="-248.8" font-family="Times,serif" font-size="14.00">Marlowe</text>
<polyline fill="none" stroke="black" points="301.1,-241 404.1,-241 "/>
<text text-anchor="middle" x="352.6" y="-225.8" font-family="Times,serif" font-size="14.00">2 ADA + 1 CM</text>
</g>
<!-- Tx1&#45;&gt;Tx0MediatorToken -->
<g id="edge4" class="edge">
<title>Tx1&#45;&gt;Tx0MediatorToken</title>
<path fill="none" stroke="darkred" d="M224.11,-215.02C242.25,-219.78 267.67,-226.46 291.04,-232.6"/>
<polygon fill="darkred" stroke="darkred" points="290.35,-236.03 300.91,-235.19 292.12,-229.26 290.35,-236.03"/>
<text text-anchor="middle" x="250.6" y="-227.3" font-family="Times,serif" font-size="14.00" fill="darkred">#4</text>
</g>
<!-- Tx0SellerToken -->
<g id="node6" class="node">
<title>Tx0SellerToken</title>
<polygon fill="none" stroke="black" points="303.6,-138 303.6,-199 401.6,-199 401.6,-138 303.6,-138"/>
<text text-anchor="middle" x="352.6" y="-183.8" font-family="Times,serif" font-size="14.00">Francis</text>
<text text-anchor="middle" x="352.6" y="-168.8" font-family="Times,serif" font-size="14.00">Beaumont</text>
<polyline fill="none" stroke="black" points="303.6,-161 401.6,-161 "/>
<text text-anchor="middle" x="352.6" y="-145.8" font-family="Times,serif" font-size="14.00">2 ADA + 1 FB</text>
</g>
<!-- Tx1&#45;&gt;Tx0SellerToken -->
<g id="edge5" class="edge">
<title>Tx1&#45;&gt;Tx0SellerToken</title>
<path fill="none" stroke="darkred" d="M224.11,-201.98C242.92,-197.04 269.57,-190.04 293.64,-183.72"/>
<polygon fill="darkred" stroke="darkred" points="294.63,-187.08 303.41,-181.15 292.85,-180.31 294.63,-187.08"/>
<text text-anchor="middle" x="250.6" y="-200.3" font-family="Times,serif" font-size="14.00" fill="darkred">#2</text>
</g>
<!-- Tx0BuyerToken -->
<g id="node7" class="node">
<title>Tx0BuyerToken</title>
<polygon fill="none" stroke="black" points="302.1,-58 302.1,-119 403.1,-119 403.1,-58 302.1,-58"/>
<text text-anchor="middle" x="352.6" y="-103.8" font-family="Times,serif" font-size="14.00">Thomas</text>
<text text-anchor="middle" x="352.6" y="-88.8" font-family="Times,serif" font-size="14.00">Middleton</text>
<polyline fill="none" stroke="black" points="302.1,-81 403.1,-81 "/>
<text text-anchor="middle" x="352.6" y="-65.8" font-family="Times,serif" font-size="14.00">2 ADA + 1 TM</text>
</g>
<!-- Tx1&#45;&gt;Tx0BuyerToken -->
<g id="edge6" class="edge">
<title>Tx1&#45;&gt;Tx0BuyerToken</title>
<path fill="none" stroke="darkred" d="M211.79,-192.59C225.93,-175.3 250.32,-147.58 275.6,-128.5 281.03,-124.39 286.95,-120.48 293,-116.82"/>
<polygon fill="darkred" stroke="darkred" points="295.03,-119.69 301.92,-111.65 291.52,-113.63 295.03,-119.69"/>
<text text-anchor="middle" x="250.6" y="-160.3" font-family="Times,serif" font-size="14.00" fill="darkred">#3</text>
</g>
<!-- Tx1_Fee -->
<g id="node8" class="node">
<title>Tx1_Fee</title>
<polygon fill="none" stroke="darkred" points="319.6,-0.5 319.6,-38.5 385.6,-38.5 385.6,-0.5 319.6,-0.5"/>
<text text-anchor="middle" x="352.6" y="-23.3" font-family="Times,serif" font-size="14.00" fill="darkred">Fee</text>
<text text-anchor="middle" x="352.6" y="-8.3" font-family="Times,serif" font-size="14.00" fill="darkred">0.2 ADA</text>
</g>
<!-- Tx1&#45;&gt;Tx1_Fee -->
<g id="edge7" class="edge">
<title>Tx1&#45;&gt;Tx1_Fee</title>
<path fill="none" stroke="darkred" d="M203.14,-190.76C211.07,-158.17 232.28,-88.46 275.6,-48.5 285.18,-39.66 297.73,-33.42 309.87,-29.06"/>
<polygon fill="darkred" stroke="darkred" points="311.02,-32.37 319.45,-25.95 308.86,-25.71 311.02,-32.37"/>
</g>
</g>
</svg>
