<?xml version="1.0" encoding="UTF-8" standalone="no"?>
<!DOCTYPE svg PUBLIC "-//W3C//DTD SVG 1.1//EN"
 "http://www.w3.org/Graphics/SVG/1.1/DTD/svg11.dtd">
<!-- Generated by graphviz version 2.49.3 (0)
 -->
<!-- Title: EscrowFlow Pages: 1 -->
<svg width="758pt" height="549pt"
 viewBox="0.00 0.00 758.47 548.74" xmlns="http://www.w3.org/2000/svg" xmlns:xlink="http://www.w3.org/1999/xlink">
<g id="graph0" class="graph" transform="scale(1 1) rotate(0) translate(4 544.74)">
<title>EscrowFlow</title>
<polygon fill="white" stroke="transparent" points="-4,4 -4,-544.74 754.47,-544.74 754.47,4 -4,4"/>
<!-- minAda -->
<g id="node1" class="node">
<title>minAda</title>
<ellipse fill="none" stroke="black" cx="516.47" cy="-522.74" rx="135.68" ry="18"/>
<text text-anchor="middle" x="516.47" y="-519.04" font-family="Times,serif" font-size="14.00">Mediator deposits minimum ADA.</text>
</g>
<!-- deposit -->
<g id="node2" class="node">
<title>deposit</title>
<polygon fill="none" stroke="black" points="583.97,-467.74 448.97,-467.74 448.97,-431.74 583.97,-431.74 583.97,-467.74"/>
<text text-anchor="middle" x="516.47" y="-446.04" font-family="Times,serif" font-size="14.00">Buyer deposits funds.</text>
</g>
<!-- minAda&#45;&gt;deposit -->
<g id="edge1" class="edge">
<title>minAda&#45;&gt;deposit</title>
<path fill="none" stroke="black" d="M516.47,-504.55C516.47,-496.53 516.47,-486.79 516.47,-477.81"/>
<polygon fill="black" stroke="black" points="519.97,-477.77 516.47,-467.77 512.97,-477.77 519.97,-477.77"/>
</g>
<!-- problem -->
<g id="node3" class="node">
<title>problem</title>
<polygon fill="none" stroke="black" points="516.47,-394.74 402.47,-356.74 516.47,-318.74 630.47,-356.74 516.47,-394.74"/>
<text text-anchor="middle" x="516.47" y="-360.54" font-family="Times,serif" font-size="14.00">Does the buyer</text>
<text text-anchor="middle" x="516.47" y="-345.54" font-family="Times,serif" font-size="14.00">report a problem?</text>
</g>
<!-- deposit&#45;&gt;problem -->
<g id="edge2" class="edge">
<title>deposit&#45;&gt;problem</title>
<path fill="none" stroke="black" d="M516.47,-431.62C516.47,-423.99 516.47,-414.57 516.47,-405.05"/>
<polygon fill="black" stroke="black" points="519.97,-404.76 516.47,-394.76 512.97,-404.76 519.97,-404.76"/>
</g>
<!-- dispute -->
<g id="node4" class="node">
<title>dispute</title>
<polygon fill="none" stroke="black" points="238.47,-267.74 92.47,-229.74 238.47,-191.74 384.47,-229.74 238.47,-267.74"/>
<text text-anchor="middle" x="238.47" y="-233.54" font-family="Times,serif" font-size="14.00">Does the seller dispute</text>
<text text-anchor="middle" x="238.47" y="-218.54" font-family="Times,serif" font-size="14.00">that there is a problem?</text>
</g>
<!-- problem&#45;&gt;dispute -->
<g id="edge4" class="edge">
<title>problem&#45;&gt;dispute</title>
<path fill="none" stroke="black" d="M468.99,-334.39C422.42,-313.45 351.17,-281.42 300.22,-258.51"/>
<polygon fill="black" stroke="black" points="301.51,-255.25 290.95,-254.34 298.64,-261.63 301.51,-255.25"/>
<text text-anchor="middle" x="438.97" y="-289.54" font-family="Times,serif" font-size="14.00">Report problem.</text>
</g>
<!-- sale -->
<g id="node6" class="node">
<title>sale</title>
<ellipse fill="none" stroke="black" cx="516.47" cy="-26.87" rx="147.57" ry="26.74"/>
<text text-anchor="middle" x="516.47" y="-30.67" font-family="Times,serif" font-size="14.00">Seller receives purchase price.</text>
<text text-anchor="middle" x="516.47" y="-15.67" font-family="Times,serif" font-size="14.00">Mediator receives minimum ADA.</text>
</g>
<!-- problem&#45;&gt;sale -->
<g id="edge3" class="edge">
<title>problem&#45;&gt;sale</title>
<path fill="none" stroke="black" d="M516.47,-318.45C516.47,-254.98 516.47,-126.77 516.47,-64.06"/>
<polygon fill="black" stroke="black" points="519.97,-63.86 516.47,-53.86 512.97,-63.86 519.97,-63.86"/>
<text text-anchor="middle" x="574.47" y="-162.54" font-family="Times,serif" font-size="14.00">Everything is alright.</text>
</g>
<!-- problem&#45;&gt;sale -->
<g id="edge9" class="edge">
<title>problem&#45;&gt;sale</title>
<path fill="none" stroke="black" d="M542.39,-327.17C571.12,-293.39 615.74,-234.11 633.47,-173.74 647.12,-127.26 605.11,-85.41 567.68,-58.58"/>
<polygon fill="black" stroke="black" points="569.5,-55.58 559.29,-52.75 565.51,-61.33 569.5,-55.58"/>
<text text-anchor="middle" x="692.97" y="-162.54" font-family="Times,serif" font-size="14.00">Buyer doesn&#39;t report.</text>
</g>
<!-- mediate -->
<g id="node5" class="node">
<title>mediate</title>
<polygon fill="none" stroke="black" points="357.47,-140.74 251.56,-122.74 357.47,-104.74 463.37,-122.74 357.47,-140.74"/>
<text text-anchor="middle" x="357.47" y="-119.04" font-family="Times,serif" font-size="14.00">Mediator decides.</text>
</g>
<!-- dispute&#45;&gt;mediate -->
<g id="edge6" class="edge">
<title>dispute&#45;&gt;mediate</title>
<path fill="none" stroke="black" d="M270.98,-200.05C290.68,-182.67 315.37,-160.88 333.33,-145.04"/>
<polygon fill="black" stroke="black" points="335.88,-147.46 341.06,-138.22 331.25,-142.21 335.88,-147.46"/>
<text text-anchor="middle" x="363.47" y="-162.54" font-family="Times,serif" font-size="14.00">Dispute problem.</text>
</g>
<!-- refund -->
<g id="node7" class="node">
<title>refund</title>
<ellipse fill="none" stroke="black" cx="150.47" cy="-26.87" rx="147.57" ry="26.74"/>
<text text-anchor="middle" x="150.47" y="-30.67" font-family="Times,serif" font-size="14.00">Buyer receives refund.</text>
<text text-anchor="middle" x="150.47" y="-15.67" font-family="Times,serif" font-size="14.00">Mediator receives minimum ADA.</text>
</g>
<!-- dispute&#45;&gt;refund -->
<g id="edge5" class="edge">
<title>dispute&#45;&gt;refund</title>
<path fill="none" stroke="black" d="M196.22,-202.4C175.9,-187.16 153.57,-165.99 142.47,-140.74 131.83,-116.57 134.57,-86.67 139.57,-63.71"/>
<polygon fill="black" stroke="black" points="143.04,-64.24 141.99,-53.7 136.24,-62.6 143.04,-64.24"/>
<text text-anchor="middle" x="192.47" y="-119.04" font-family="Times,serif" font-size="14.00">Confirm problem.</text>
</g>
<!-- dispute&#45;&gt;refund -->
<g id="edge10" class="edge">
<title>dispute&#45;&gt;refund</title>
<path fill="none" stroke="black" d="M140.16,-217.29C91.7,-206.13 37.36,-184.12 7.47,-140.74 -17.3,-104.8 26.18,-74.81 71.53,-54.8"/>
<polygon fill="black" stroke="black" points="73.08,-57.95 80.91,-50.81 70.34,-51.51 73.08,-57.95"/>
<text text-anchor="middle" x="69.47" y="-119.04" font-family="Times,serif" font-size="14.00">Seller doesn&#39;t respond.</text>
</g>
<!-- mediate&#45;&gt;sale -->
<g id="edge7" class="edge">
<title>mediate&#45;&gt;sale</title>
<path fill="none" stroke="black" d="M373.2,-107.17C385.25,-96.49 402.63,-82.1 419.47,-71.74 428.56,-66.14 438.5,-60.83 448.43,-55.97"/>
<polygon fill="black" stroke="black" points="450,-59.1 457.52,-51.64 446.99,-52.78 450,-59.1"/>
<text text-anchor="middle" x="460.97" y="-75.54" font-family="Times,serif" font-size="14.00">Dismiss claim.</text>
</g>
<!-- mediate&#45;&gt;refund -->
<g id="edge8" class="edge">
<title>mediate&#45;&gt;refund</title>
<path fill="none" stroke="black" d="M337.84,-107.88C328.85,-101.49 318.08,-93.78 308.47,-86.74 299.5,-80.18 298.34,-76.83 288.47,-71.74 274.22,-64.4 258.5,-57.99 242.94,-52.51"/>
<polygon fill="black" stroke="black" points="243.88,-49.13 233.28,-49.22 241.62,-55.76 243.88,-49.13"/>
<text text-anchor="middle" x="350.97" y="-75.54" font-family="Times,serif" font-size="14.00">Confirm claim.</text>
</g>
<!-- mediate&#45;&gt;refund -->
<g id="edge11" class="edge">
<title>mediate&#45;&gt;refund</title>
<path fill="none" stroke="black" d="M304.54,-113.67C248.88,-104.96 168.59,-91.67 163.47,-86.74 157.18,-80.69 153.61,-72.34 151.65,-63.82"/>
<polygon fill="black" stroke="black" points="155.09,-63.19 150.03,-53.88 148.18,-64.31 155.09,-63.19"/>
<text text-anchor="middle" x="223.97" y="-75.54" font-family="Times,serif" font-size="14.00">Mediator doesn&#39;t rule.</text>
</g>
</g>
</svg>
