<?xml version="1.0" encoding="UTF-8" standalone="no"?>
<!DOCTYPE svg PUBLIC "-//W3C//DTD SVG 1.1//EN"
 "http://www.w3.org/Graphics/SVG/1.1/DTD/svg11.dtd">
<!-- Generated by graphviz version 2.49.3 (0)
 -->
<!-- Title: EscrowUtxos Pages: 1 -->
<svg width="2258pt" height="838pt"
 viewBox="0.00 0.00 2257.57 838.00" xmlns="http://www.w3.org/2000/svg" xmlns:xlink="http://www.w3.org/1999/xlink">
<g id="graph0" class="graph" transform="scale(1 1) rotate(0) translate(4 834)">
<title>EscrowUtxos</title>
<polygon fill="white" stroke="transparent" points="-4,4 -4,-834 2253.57,-834 2253.57,4 -4,4"/>
<g id="clust1" class="cluster">
<title>cluster_0m</title>
</g>
<g id="clust2" class="cluster">
<title>cluster_2</title>
</g>
<g id="clust3" class="cluster">
<title>cluster_4</title>
</g>
<g id="clust4" class="cluster">
<title>cluster_5</title>
</g>
<g id="clust5" class="cluster">
<title>cluster_5p</title>
</g>
<g id="clust6" class="cluster">
<title>cluster_x</title>
</g>
<g id="clust7" class="cluster">
<title>cluster_3</title>
</g>
<g id="clust8" class="cluster">
<title>cluster_6</title>
</g>
<g id="clust9" class="cluster">
<title>cluster_7</title>
</g>
<!-- Tx0MediatorAda -->
<g id="node1" class="node">
<title>Tx0MediatorAda</title>
<polygon fill="none" stroke="black" points="16,-387 16,-448 150,-448 150,-387 16,-387"/>
<text text-anchor="middle" x="83" y="-432.8" font-family="Times,serif" font-size="14.00">Christopher Marlowe</text>
<text text-anchor="middle" x="83" y="-417.8" font-family="Times,serif" font-size="14.00">(the mediator)</text>
<polyline fill="none" stroke="black" points="16,-410 150,-410 "/>
<text text-anchor="middle" x="83" y="-394.8" font-family="Times,serif" font-size="14.00">1971.7 ADA</text>
</g>
<!-- Tx1 -->
<g id="node4" class="node">
<title>Tx1</title>
<ellipse fill="none" stroke="lightblue" cx="214.3" cy="-417.5" rx="27.1" ry="18"/>
<text text-anchor="middle" x="214.3" y="-413.8" font-family="Times,serif" font-size="14.00" fill="lightblue">Tx 1</text>
</g>
<!-- Tx0MediatorAda&#45;&gt;Tx1 -->
<g id="edge1" class="edge">
<title>Tx0MediatorAda&#45;&gt;Tx1</title>
<path fill="none" stroke="lightblue" d="M150.16,-417.5C159.34,-417.5 168.47,-417.5 176.82,-417.5"/>
<polygon fill="lightblue" stroke="lightblue" points="176.93,-421 186.93,-417.5 176.93,-414 176.93,-421"/>
</g>
<!-- Tx0SellerAda -->
<g id="node2" class="node">
<title>Tx0SellerAda</title>
<polygon fill="none" stroke="black" points="25,-307 25,-368 141,-368 141,-307 25,-307"/>
<text text-anchor="middle" x="83" y="-352.8" font-family="Times,serif" font-size="14.00">Francis Beaumont</text>
<text text-anchor="middle" x="83" y="-337.8" font-family="Times,serif" font-size="14.00">(the seller)</text>
<polyline fill="none" stroke="black" points="25,-330 141,-330 "/>
<text text-anchor="middle" x="83" y="-314.8" font-family="Times,serif" font-size="14.00">3003.6 ADA</text>
</g>
<!-- Tx4 -->
<g id="node19" class="node">
<title>Tx4</title>
<ellipse fill="none" stroke="lightblue" cx="1340.08" cy="-191.5" rx="27.1" ry="18"/>
<text text-anchor="middle" x="1340.08" y="-187.8" font-family="Times,serif" font-size="14.00" fill="lightblue">Tx 4</text>
</g>
<!-- Tx0SellerAda&#45;&gt;Tx4 -->
<g id="edge21" class="edge">
<title>Tx0SellerAda&#45;&gt;Tx4</title>
<path fill="none" stroke="lightblue" d="M86.09,-306.97C92.42,-241.29 117.35,-92.5 213.3,-92.5 213.3,-92.5 213.3,-92.5 1102.79,-92.5 1190.75,-92.5 1219.81,-94.5 1294.79,-140.5 1305.61,-147.14 1315.2,-157.29 1322.67,-166.79"/>
<polygon fill="lightblue" stroke="lightblue" points="1319.89,-168.92 1328.66,-174.86 1325.51,-164.75 1319.89,-168.92"/>
</g>
<!-- Tx0BuyerAda -->
<g id="node3" class="node">
<title>Tx0BuyerAda</title>
<polygon fill="none" stroke="black" points="22,-467 22,-528 144,-528 144,-467 22,-467"/>
<text text-anchor="middle" x="83" y="-512.8" font-family="Times,serif" font-size="14.00">Thomas Middleton</text>
<text text-anchor="middle" x="83" y="-497.8" font-family="Times,serif" font-size="14.00">(the buyer)</text>
<polyline fill="none" stroke="black" points="22,-490 144,-490 "/>
<text text-anchor="middle" x="83" y="-474.8" font-family="Times,serif" font-size="14.00">2954.4 ADA</text>
</g>
<!-- Tx2 -->
<g id="node11" class="node">
<title>Tx2</title>
<ellipse fill="none" stroke="lightblue" cx="551.89" cy="-377.5" rx="27.1" ry="18"/>
<text text-anchor="middle" x="551.89" y="-373.8" font-family="Times,serif" font-size="14.00" fill="lightblue">Tx 2</text>
</g>
<!-- Tx0BuyerAda&#45;&gt;Tx2 -->
<g id="edge9" class="edge">
<title>Tx0BuyerAda&#45;&gt;Tx2</title>
<path fill="none" stroke="lightblue" d="M115.51,-528.1C181.22,-588.12 335.86,-709.23 445.6,-635.5 523.71,-583.01 543.91,-461.32 549.11,-405.9"/>
<polygon fill="lightblue" stroke="lightblue" points="552.61,-406 549.96,-395.74 545.63,-405.42 552.61,-406"/>
</g>
<!-- Tx1_1 -->
<g id="node5" class="node">
<title>Tx1_1</title>
<polygon fill="none" stroke="lightblue" points="291.6,-213 291.6,-328 445.6,-328 445.6,-213 291.6,-213"/>
<text text-anchor="middle" x="368.6" y="-312.8" font-family="Times,serif" font-size="14.00" fill="lightblue">Marlowe Script</text>
<polyline fill="none" stroke="lightblue" points="291.6,-305 445.6,-305 "/>
<text text-anchor="middle" x="368.6" y="-289.8" font-family="Times,serif" font-size="14.00" fill="lightblue">3 ADA</text>
<polyline fill="none" stroke="lightblue" points="291.6,-282 445.6,-282 "/>
<text text-anchor="middle" x="313.6" y="-243.8" font-family="Times,serif" font-size="14.00" fill="lightblue">State</text>
<polyline fill="none" stroke="lightblue" points="335.6,-213 335.6,-282 "/>
<text text-anchor="middle" x="390.6" y="-266.8" font-family="Times,serif" font-size="14.00" fill="lightblue">F.B. has 0 ADA</text>
<polyline fill="none" stroke="lightblue" points="335.6,-259 445.6,-259 "/>
<text text-anchor="middle" x="390.6" y="-243.8" font-family="Times,serif" font-size="14.00" fill="lightblue">T.M. has 0 ADA</text>
<polyline fill="none" stroke="lightblue" points="335.6,-236 445.6,-236 "/>
<text text-anchor="middle" x="390.6" y="-220.8" font-family="Times,serif" font-size="14.00" fill="lightblue">C.M. has 3 ADA</text>
</g>
<!-- Tx1&#45;&gt;Tx1_1 -->
<g id="edge2" class="edge">
<title>Tx1&#45;&gt;Tx1_1</title>
<path fill="none" stroke="lightblue" d="M229.26,-402.08C244.28,-385.69 269.04,-359.18 291.6,-337.5 292.39,-336.74 293.19,-335.97 293.99,-335.21"/>
<polygon fill="lightblue" stroke="lightblue" points="296.49,-337.66 301.37,-328.26 291.69,-332.57 296.49,-337.66"/>
<text text-anchor="middle" x="266.6" y="-371.3" font-family="Times,serif" font-size="14.00" fill="lightblue">#1</text>
</g>
<!-- Tx1_0 -->
<g id="node6" class="node">
<title>Tx1_0</title>
<polygon fill="none" stroke="lightblue" points="325.6,-427 325.6,-488 411.6,-488 411.6,-427 325.6,-427"/>
<text text-anchor="middle" x="368.6" y="-472.8" font-family="Times,serif" font-size="14.00" fill="lightblue">Christopher</text>
<text text-anchor="middle" x="368.6" y="-457.8" font-family="Times,serif" font-size="14.00" fill="lightblue">Marlowe</text>
<polyline fill="none" stroke="lightblue" points="325.6,-450 411.6,-450 "/>
<text text-anchor="middle" x="368.6" y="-434.8" font-family="Times,serif" font-size="14.00" fill="lightblue">1962.5 ADA</text>
</g>
<!-- Tx1&#45;&gt;Tx1_0 -->
<g id="edge3" class="edge">
<title>Tx1&#45;&gt;Tx1_0</title>
<path fill="none" stroke="lightblue" d="M240.11,-424.02C260.49,-429.37 290.07,-437.14 315.61,-443.85"/>
<polygon fill="lightblue" stroke="lightblue" points="314.97,-447.3 325.53,-446.45 316.75,-440.53 314.97,-447.3"/>
<text text-anchor="middle" x="266.6" y="-436.3" font-family="Times,serif" font-size="14.00" fill="lightblue">#0</text>
</g>
<!-- Tx0MediatorToken -->
<g id="node7" class="node">
<title>Tx0MediatorToken</title>
<polygon fill="none" stroke="lightblue" points="317.1,-507 317.1,-568 420.1,-568 420.1,-507 317.1,-507"/>
<text text-anchor="middle" x="368.6" y="-552.8" font-family="Times,serif" font-size="14.00" fill="lightblue">Christopher</text>
<text text-anchor="middle" x="368.6" y="-537.8" font-family="Times,serif" font-size="14.00" fill="lightblue">Marlowe</text>
<polyline fill="none" stroke="lightblue" points="317.1,-530 420.1,-530 "/>
<text text-anchor="middle" x="368.6" y="-514.8" font-family="Times,serif" font-size="14.00" fill="lightblue">2 ADA + 1 CM</text>
</g>
<!-- Tx1&#45;&gt;Tx0MediatorToken -->
<g id="edge4" class="edge">
<title>Tx1&#45;&gt;Tx0MediatorToken</title>
<path fill="none" stroke="lightblue" d="M227.79,-433.41C241.93,-450.7 266.32,-478.42 291.6,-497.5 296.67,-501.33 302.17,-505 307.8,-508.45"/>
<polygon fill="lightblue" stroke="lightblue" points="306.33,-511.64 316.72,-513.68 309.87,-505.6 306.33,-511.64"/>
<text text-anchor="middle" x="266.6" y="-485.3" font-family="Times,serif" font-size="14.00" fill="lightblue">#4</text>
</g>
<!-- Tx0SellerToken -->
<g id="node8" class="node">
<title>Tx0SellerToken</title>
<polygon fill="none" stroke="lightblue" points="319.6,-129 319.6,-190 417.6,-190 417.6,-129 319.6,-129"/>
<text text-anchor="middle" x="368.6" y="-174.8" font-family="Times,serif" font-size="14.00" fill="lightblue">Francis</text>
<text text-anchor="middle" x="368.6" y="-159.8" font-family="Times,serif" font-size="14.00" fill="lightblue">Beaumont</text>
<polyline fill="none" stroke="lightblue" points="319.6,-152 417.6,-152 "/>
<text text-anchor="middle" x="368.6" y="-136.8" font-family="Times,serif" font-size="14.00" fill="lightblue">2 ADA + 1 FB</text>
</g>
<!-- Tx1&#45;&gt;Tx0SellerToken -->
<g id="edge5" class="edge">
<title>Tx1&#45;&gt;Tx0SellerToken</title>
<path fill="none" stroke="lightblue" d="M217.49,-399.37C223.13,-359.68 241.38,-263.82 291.6,-203.5 297.06,-196.93 303.78,-191.13 310.94,-186.07"/>
<polygon fill="lightblue" stroke="lightblue" points="313.04,-188.88 319.5,-180.48 309.21,-183.02 313.04,-188.88"/>
<text text-anchor="middle" x="266.6" y="-253.3" font-family="Times,serif" font-size="14.00" fill="lightblue">#2</text>
</g>
<!-- Tx0BuyerToken -->
<g id="node9" class="node">
<title>Tx0BuyerToken</title>
<polygon fill="none" stroke="lightblue" points="318.1,-347 318.1,-408 419.1,-408 419.1,-347 318.1,-347"/>
<text text-anchor="middle" x="368.6" y="-392.8" font-family="Times,serif" font-size="14.00" fill="lightblue">Thomas</text>
<text text-anchor="middle" x="368.6" y="-377.8" font-family="Times,serif" font-size="14.00" fill="lightblue">Middleton</text>
<polyline fill="none" stroke="lightblue" points="318.1,-370 419.1,-370 "/>
<text text-anchor="middle" x="368.6" y="-354.8" font-family="Times,serif" font-size="14.00" fill="lightblue">2 ADA + 1 TM</text>
</g>
<!-- Tx1&#45;&gt;Tx0BuyerToken -->
<g id="edge6" class="edge">
<title>Tx1&#45;&gt;Tx0BuyerToken</title>
<path fill="none" stroke="lightblue" d="M240.11,-410.98C258.47,-406.16 284.29,-399.38 307.9,-393.18"/>
<polygon fill="lightblue" stroke="lightblue" points="309.07,-396.49 317.85,-390.57 307.29,-389.72 309.07,-396.49"/>
<text text-anchor="middle" x="266.6" y="-409.3" font-family="Times,serif" font-size="14.00" fill="lightblue">#3</text>
</g>
<!-- Tx1_Fee -->
<g id="node10" class="node">
<title>Tx1_Fee</title>
<polygon fill="none" stroke="lightblue" points="335.6,-587.5 335.6,-625.5 401.6,-625.5 401.6,-587.5 335.6,-587.5"/>
<text text-anchor="middle" x="368.6" y="-610.3" font-family="Times,serif" font-size="14.00" fill="lightblue">Fee</text>
<text text-anchor="middle" x="368.6" y="-595.3" font-family="Times,serif" font-size="14.00" fill="lightblue">0.2 ADA</text>
</g>
<!-- Tx1&#45;&gt;Tx1_Fee -->
<g id="edge7" class="edge">
<title>Tx1&#45;&gt;Tx1_Fee</title>
<path fill="none" stroke="lightblue" d="M219.14,-435.24C227.07,-467.83 248.28,-537.54 291.6,-577.5 301.18,-586.34 313.73,-592.58 325.87,-596.94"/>
<polygon fill="lightblue" stroke="lightblue" points="324.86,-600.29 335.45,-600.05 327.02,-593.63 324.86,-600.29"/>
</g>
<!-- Tx1_1&#45;&gt;Tx2 -->
<g id="edge8" class="edge">
<title>Tx1_1&#45;&gt;Tx2</title>
<path fill="none" stroke="lightblue" d="M445.69,-315.41C472.75,-331.38 501.59,-348.4 522.21,-360.57"/>
<polygon fill="lightblue" stroke="lightblue" points="520.68,-363.73 531.07,-365.8 524.24,-357.71 520.68,-363.73"/>
<text text-anchor="middle" x="485.1" y="-352.3" font-family="Times,serif" font-size="14.00" fill="lightblue">Deposit</text>
</g>
<!-- Tx5 -->
<g id="node24" class="node">
<title>Tx5</title>
<ellipse fill="none" stroke="lightblue" cx="1725.68" cy="-563.5" rx="27.1" ry="18"/>
<text text-anchor="middle" x="1725.68" y="-559.8" font-family="Times,serif" font-size="14.00" fill="lightblue">Tx 5</text>
</g>
<!-- Tx1_0&#45;&gt;Tx5 -->
<g id="edge28" class="edge">
<title>Tx1_0&#45;&gt;Tx5</title>
<path fill="none" stroke="lightblue" d="M411.94,-477.06C456.3,-496.84 523.29,-524.5 550.89,-524.5 550.89,-524.5 550.89,-524.5 1501.38,-524.5 1569.33,-524.5 1647.19,-542.24 1690.69,-553.79"/>
<polygon fill="lightblue" stroke="lightblue" points="1689.9,-557.2 1700.47,-556.44 1691.73,-550.45 1689.9,-557.2"/>
</g>
<!-- Tx0MediatorToken&#45;&gt;Tx5 -->
<g id="edge29" class="edge">
<title>Tx0MediatorToken&#45;&gt;Tx5</title>
<path fill="none" stroke="lightblue" d="M420.11,-548.68C456.33,-555.72 506.38,-563.5 550.89,-563.5 550.89,-563.5 550.89,-563.5 1501.38,-563.5 1567.1,-563.5 1643.7,-563.5 1687.95,-563.5"/>
<polygon fill="lightblue" stroke="lightblue" points="1688.21,-567 1698.21,-563.5 1688.21,-560 1688.21,-567"/>
</g>
<!-- Tx0SellerToken&#45;&gt;Tx4 -->
<g id="edge22" class="edge">
<title>Tx0SellerToken&#45;&gt;Tx4</title>
<path fill="none" stroke="lightblue" d="M417.74,-147.54C454.08,-139.55 505.31,-130.5 550.89,-130.5 550.89,-130.5 550.89,-130.5 1102.79,-130.5 1178.02,-130.5 1262.57,-159.85 1307.32,-177.83"/>
<polygon fill="lightblue" stroke="lightblue" points="1306.19,-181.15 1316.77,-181.7 1308.84,-174.67 1306.19,-181.15"/>
</g>
<!-- Tx0BuyerToken&#45;&gt;Tx2 -->
<g id="edge10" class="edge">
<title>Tx0BuyerToken&#45;&gt;Tx2</title>
<path fill="none" stroke="lightblue" d="M419.14,-377.5C449.12,-377.5 486.73,-377.5 514.08,-377.5"/>
<polygon fill="lightblue" stroke="lightblue" points="514.38,-381 524.38,-377.5 514.38,-374 514.38,-381"/>
</g>
<!-- Tx2_0 -->
<g id="node12" class="node">
<title>Tx2_0</title>
<polygon fill="none" stroke="lightblue" points="667.19,-431 667.19,-492 753.19,-492 753.19,-431 667.19,-431"/>
<text text-anchor="middle" x="710.19" y="-476.8" font-family="Times,serif" font-size="14.00" fill="lightblue">Thomas</text>
<text text-anchor="middle" x="710.19" y="-461.8" font-family="Times,serif" font-size="14.00" fill="lightblue">Middleton</text>
<polyline fill="none" stroke="lightblue" points="667.19,-454 753.19,-454 "/>
<text text-anchor="middle" x="710.19" y="-438.8" font-family="Times,serif" font-size="14.00" fill="lightblue">2696.0 ADA</text>
</g>
<!-- Tx2&#45;&gt;Tx2_0 -->
<g id="edge11" class="edge">
<title>Tx2&#45;&gt;Tx2_0</title>
<path fill="none" stroke="lightblue" d="M572.79,-389.41C588.08,-398.45 609.8,-411.07 629.19,-421.5 638.41,-426.46 648.33,-431.58 657.93,-436.44"/>
<polygon fill="lightblue" stroke="lightblue" points="656.51,-439.64 667.01,-441 659.65,-433.38 656.51,-439.64"/>
<text text-anchor="middle" x="604.19" y="-414.3" font-family="Times,serif" font-size="14.00" fill="lightblue">#0</text>
</g>
<!-- Tx2_2 -->
<g id="node13" class="node">
<title>Tx2_2</title>
<polygon fill="none" stroke="lightblue" points="659.69,-351 659.69,-412 760.69,-412 760.69,-351 659.69,-351"/>
<text text-anchor="middle" x="710.19" y="-396.8" font-family="Times,serif" font-size="14.00" fill="lightblue">Thomas</text>
<text text-anchor="middle" x="710.19" y="-381.8" font-family="Times,serif" font-size="14.00" fill="lightblue">Midddleton</text>
<polyline fill="none" stroke="lightblue" points="659.69,-374 760.69,-374 "/>
<text text-anchor="middle" x="710.19" y="-358.8" font-family="Times,serif" font-size="14.00" fill="lightblue">3 ADA + 1 TM</text>
</g>
<!-- Tx2&#45;&gt;Tx2_2 -->
<g id="edge12" class="edge">
<title>Tx2&#45;&gt;Tx2_2</title>
<path fill="none" stroke="lightblue" d="M579.41,-378.18C598.53,-378.67 625.13,-379.35 649.27,-379.97"/>
<polygon fill="lightblue" stroke="lightblue" points="649.35,-383.47 659.44,-380.23 649.53,-376.47 649.35,-383.47"/>
<text text-anchor="middle" x="604.19" y="-382.3" font-family="Times,serif" font-size="14.00" fill="lightblue">#2</text>
</g>
<!-- Tx2_1 -->
<g id="node14" class="node">
<title>Tx2_1</title>
<polygon fill="none" stroke="lightblue" points="629.19,-217 629.19,-332 791.19,-332 791.19,-217 629.19,-217"/>
<text text-anchor="middle" x="710.19" y="-316.8" font-family="Times,serif" font-size="14.00" fill="lightblue">Marlowe Script</text>
<polyline fill="none" stroke="lightblue" points="629.19,-309 791.19,-309 "/>
<text text-anchor="middle" x="710.19" y="-293.8" font-family="Times,serif" font-size="14.00" fill="lightblue">259 ADA</text>
<polyline fill="none" stroke="lightblue" points="629.19,-286 791.19,-286 "/>
<text text-anchor="middle" x="651.19" y="-247.8" font-family="Times,serif" font-size="14.00" fill="lightblue">State</text>
<polyline fill="none" stroke="lightblue" points="673.19,-217 673.19,-286 "/>
<text text-anchor="middle" x="732.19" y="-270.8" font-family="Times,serif" font-size="14.00" fill="lightblue">F.B. has 256 ADA</text>
<polyline fill="none" stroke="lightblue" points="673.19,-263 791.19,-263 "/>
<text text-anchor="middle" x="732.19" y="-247.8" font-family="Times,serif" font-size="14.00" fill="lightblue">T.M. has 0 ADA</text>
<polyline fill="none" stroke="lightblue" points="673.19,-240 791.19,-240 "/>
<text text-anchor="middle" x="732.19" y="-224.8" font-family="Times,serif" font-size="14.00" fill="lightblue">C.M. has 3 ADA</text>
</g>
<!-- Tx2&#45;&gt;Tx2_1 -->
<g id="edge13" class="edge">
<title>Tx2&#45;&gt;Tx2_1</title>
<path fill="none" stroke="lightblue" d="M571.75,-365.08C584.35,-356.77 601.94,-345.18 620.34,-333.05"/>
<polygon fill="lightblue" stroke="lightblue" points="622.42,-335.88 628.84,-327.45 618.56,-330.03 622.42,-335.88"/>
<text text-anchor="middle" x="604.19" y="-350.3" font-family="Times,serif" font-size="14.00" fill="lightblue">#1</text>
</g>
<!-- Tx2_Fee -->
<g id="node15" class="node">
<title>Tx2_Fee</title>
<polygon fill="none" stroke="lightblue" points="677.19,-159.5 677.19,-197.5 743.19,-197.5 743.19,-159.5 677.19,-159.5"/>
<text text-anchor="middle" x="710.19" y="-182.3" font-family="Times,serif" font-size="14.00" fill="lightblue">Fee</text>
<text text-anchor="middle" x="710.19" y="-167.3" font-family="Times,serif" font-size="14.00" fill="lightblue">1.3 ADA</text>
</g>
<!-- Tx2&#45;&gt;Tx2_Fee -->
<g id="edge14" class="edge">
<title>Tx2&#45;&gt;Tx2_Fee</title>
<path fill="none" stroke="lightblue" d="M556.11,-359.67C563.2,-325.42 583.32,-250.09 629.19,-207.5 639.63,-197.81 653.55,-191.3 666.86,-186.96"/>
<polygon fill="lightblue" stroke="lightblue" points="668.22,-190.21 676.84,-184.04 666.26,-183.49 668.22,-190.21"/>
</g>
<!-- Tx3 -->
<g id="node16" class="node">
<title>Tx3</title>
<ellipse fill="none" stroke="lightblue" cx="941.49" cy="-360.5" rx="27.1" ry="18"/>
<text text-anchor="middle" x="941.49" y="-356.8" font-family="Times,serif" font-size="14.00" fill="lightblue">Tx 3</text>
</g>
<!-- Tx2_0&#45;&gt;Tx3 -->
<g id="edge16" class="edge">
<title>Tx2_0&#45;&gt;Tx3</title>
<path fill="none" stroke="lightblue" d="M753.37,-444.3C791.07,-428.73 847.67,-404.89 896.19,-382.5 900.73,-380.41 905.49,-378.13 910.14,-375.86"/>
<polygon fill="lightblue" stroke="lightblue" points="912.01,-378.84 919.43,-371.27 908.91,-372.56 912.01,-378.84"/>
</g>
<!-- Tx2_2&#45;&gt;Tx3 -->
<g id="edge17" class="edge">
<title>Tx2_2&#45;&gt;Tx3</title>
<path fill="none" stroke="lightblue" d="M760.94,-376.94C804.05,-373 865.39,-367.38 904.06,-363.84"/>
<polygon fill="lightblue" stroke="lightblue" points="904.69,-367.29 914.33,-362.9 904.05,-360.32 904.69,-367.29"/>
</g>
<!-- Tx2_1&#45;&gt;Tx3 -->
<g id="edge15" class="edge">
<title>Tx2_1&#45;&gt;Tx3</title>
<path fill="none" stroke="lightblue" d="M791.39,-304.58C831.42,-319.59 877.63,-336.92 907.86,-348.26"/>
<polygon fill="lightblue" stroke="lightblue" points="906.88,-351.63 917.47,-351.87 909.33,-345.08 906.88,-351.63"/>
<text text-anchor="middle" x="852.69" y="-345.3" font-family="Times,serif" font-size="14.00" fill="lightblue">Report problem</text>
</g>
<!-- Tx3_1 -->
<g id="node17" class="node">
<title>Tx3_1</title>
<polygon fill="none" stroke="lightblue" points="1018.79,-217 1018.79,-332 1184.79,-332 1184.79,-217 1018.79,-217"/>
<text text-anchor="middle" x="1101.79" y="-316.8" font-family="Times,serif" font-size="14.00" fill="lightblue">Marlowe Script</text>
<polyline fill="none" stroke="lightblue" points="1018.79,-309 1184.79,-309 "/>
<text text-anchor="middle" x="1101.79" y="-293.8" font-family="Times,serif" font-size="14.00" fill="lightblue">259 ADA</text>
<polyline fill="none" stroke="lightblue" points="1018.79,-286 1184.79,-286 "/>
<text text-anchor="middle" x="1040.79" y="-247.8" font-family="Times,serif" font-size="14.00" fill="lightblue">State</text>
<polyline fill="none" stroke="lightblue" points="1062.79,-217 1062.79,-286 "/>
<text text-anchor="middle" x="1123.79" y="-270.8" font-family="Times,serif" font-size="14.00" fill="lightblue">F.B. has 0 ADA</text>
<polyline fill="none" stroke="lightblue" points="1062.79,-263 1184.79,-263 "/>
<text text-anchor="middle" x="1123.79" y="-247.8" font-family="Times,serif" font-size="14.00" fill="lightblue">T.M. has 256 ADA</text>
<polyline fill="none" stroke="lightblue" points="1062.79,-240 1184.79,-240 "/>
<text text-anchor="middle" x="1123.79" y="-224.8" font-family="Times,serif" font-size="14.00" fill="lightblue">C.M. has 3 ADA</text>
</g>
<!-- Tx3&#45;&gt;Tx3_1 -->
<g id="edge18" class="edge">
<title>Tx3&#45;&gt;Tx3_1</title>
<path fill="none" stroke="lightblue" d="M961.16,-347.59C968.95,-342.38 978.18,-336.45 986.79,-331.5 994.17,-327.25 1001.92,-323 1009.74,-318.82"/>
<polygon fill="lightblue" stroke="lightblue" points="1011.39,-321.92 1018.6,-314.16 1008.12,-315.72 1011.39,-321.92"/>
<text text-anchor="middle" x="993.79" y="-335.3" font-family="Times,serif" font-size="14.00" fill="lightblue">#1</text>
</g>
<!-- Tx3_Fee -->
<g id="node18" class="node">
<title>Tx3_Fee</title>
<polygon fill="none" stroke="lightblue" points="1068.79,-159.5 1068.79,-197.5 1134.79,-197.5 1134.79,-159.5 1068.79,-159.5"/>
<text text-anchor="middle" x="1101.79" y="-182.3" font-family="Times,serif" font-size="14.00" fill="lightblue">Fee</text>
<text text-anchor="middle" x="1101.79" y="-167.3" font-family="Times,serif" font-size="14.00" fill="lightblue">1.4 ADA</text>
</g>
<!-- Tx3&#45;&gt;Tx3_Fee -->
<g id="edge19" class="edge">
<title>Tx3&#45;&gt;Tx3_Fee</title>
<path fill="none" stroke="lightblue" d="M946.66,-342.68C954.97,-311.04 976.54,-244.86 1018.79,-207.5 1029.98,-197.6 1044.78,-191.02 1058.72,-186.67"/>
<polygon fill="lightblue" stroke="lightblue" points="1059.97,-189.96 1068.65,-183.89 1058.08,-183.22 1059.97,-189.96"/>
</g>
<!-- Tx3_0 -->
<g id="node34" class="node">
<title>Tx3_0</title>
<polygon fill="none" stroke="lightblue" points="2131.07,-390 2131.07,-451 2217.07,-451 2217.07,-390 2131.07,-390"/>
<text text-anchor="middle" x="2174.07" y="-435.8" font-family="Times,serif" font-size="14.00" fill="lightblue">Thomas</text>
<text text-anchor="middle" x="2174.07" y="-420.8" font-family="Times,serif" font-size="14.00" fill="lightblue">Middleton</text>
<polyline fill="none" stroke="lightblue" points="2131.07,-413 2217.07,-413 "/>
<text text-anchor="middle" x="2174.07" y="-397.8" font-family="Times,serif" font-size="14.00" fill="lightblue">2694.6 ADA</text>
</g>
<!-- Tx3&#45;&gt;Tx3_0 -->
<g id="edge43" class="edge">
<title>Tx3&#45;&gt;Tx3_0</title>
<path fill="none" stroke="lightblue" d="M952.71,-376.97C975.06,-410.7 1031.84,-484.5 1100.79,-484.5 1100.79,-484.5 1100.79,-484.5 1393.38,-484.5 1573.14,-484.5 1615.93,-452.52 1794.98,-436.5 1910.99,-426.12 2047.64,-422.44 2120.71,-421.16"/>
<polygon fill="lightblue" stroke="lightblue" points="2121.08,-424.66 2131.02,-420.99 2120.97,-417.66 2121.08,-424.66"/>
<text text-anchor="middle" x="1640.88" y="-468.3" font-family="Times,serif" font-size="14.00" fill="lightblue">#0</text>
</g>
<!-- Tx3_2 -->
<g id="node35" class="node">
<title>Tx3_2</title>
<polygon fill="none" stroke="lightblue" points="2123.57,-310 2123.57,-371 2224.57,-371 2224.57,-310 2123.57,-310"/>
<text text-anchor="middle" x="2174.07" y="-355.8" font-family="Times,serif" font-size="14.00" fill="lightblue">Thomas</text>
<text text-anchor="middle" x="2174.07" y="-340.8" font-family="Times,serif" font-size="14.00" fill="lightblue">Middleton</text>
<polyline fill="none" stroke="lightblue" points="2123.57,-333 2224.57,-333 "/>
<text text-anchor="middle" x="2174.07" y="-317.8" font-family="Times,serif" font-size="14.00" fill="lightblue">3 ADA + 1 TM</text>
</g>
<!-- Tx3&#45;&gt;Tx3_2 -->
<g id="edge44" class="edge">
<title>Tx3&#45;&gt;Tx3_2</title>
<path fill="none" stroke="lightblue" d="M968.87,-358.47C1087.87,-349.33 1571.84,-312.5 1639.88,-312.5 1639.88,-312.5 1639.88,-312.5 2040.27,-312.5 2064.6,-312.5 2090.89,-317.05 2113.62,-322.49"/>
<polygon fill="lightblue" stroke="lightblue" points="2112.91,-325.92 2123.46,-324.94 2114.61,-319.12 2112.91,-325.92"/>
<text text-anchor="middle" x="1640.88" y="-317.3" font-family="Times,serif" font-size="14.00" fill="lightblue">#2</text>
</g>
<!-- Tx3_1&#45;&gt;Tx4 -->
<g id="edge20" class="edge">
<title>Tx3_1&#45;&gt;Tx4</title>
<path fill="none" stroke="lightblue" d="M1185.1,-245.59C1226.68,-230.98 1274.81,-214.08 1306.04,-203.11"/>
<polygon fill="lightblue" stroke="lightblue" points="1307.28,-206.38 1315.55,-199.77 1304.96,-199.78 1307.28,-206.38"/>
<text text-anchor="middle" x="1248.79" y="-241.3" font-family="Times,serif" font-size="14.00" fill="lightblue">Dispute problem</text>
</g>
<!-- Tx4_0 -->
<g id="node20" class="node">
<title>Tx4_0</title>
<polygon fill="none" stroke="lightblue" points="1457.38,-81 1457.38,-142 1543.38,-142 1543.38,-81 1457.38,-81"/>
<text text-anchor="middle" x="1500.38" y="-126.8" font-family="Times,serif" font-size="14.00" fill="lightblue">Francis</text>
<text text-anchor="middle" x="1500.38" y="-111.8" font-family="Times,serif" font-size="14.00" fill="lightblue">Beaumont</text>
<polyline fill="none" stroke="lightblue" points="1457.38,-104 1543.38,-104 "/>
<text text-anchor="middle" x="1500.38" y="-88.8" font-family="Times,serif" font-size="14.00" fill="lightblue">3001.3 ADA</text>
</g>
<!-- Tx4&#45;&gt;Tx4_0 -->
<g id="edge23" class="edge">
<title>Tx4&#45;&gt;Tx4_0</title>
<path fill="none" stroke="lightblue" d="M1361.72,-180.47C1377.03,-172.35 1398.43,-161.09 1417.38,-151.5 1427.23,-146.52 1437.79,-141.29 1447.95,-136.31"/>
<polygon fill="lightblue" stroke="lightblue" points="1449.68,-139.36 1457.13,-131.82 1446.61,-133.07 1449.68,-139.36"/>
<text text-anchor="middle" x="1392.38" y="-171.3" font-family="Times,serif" font-size="14.00" fill="lightblue">#0</text>
</g>
<!-- Tx4_2 -->
<g id="node21" class="node">
<title>Tx4_2</title>
<polygon fill="none" stroke="lightblue" points="1451.38,-161 1451.38,-222 1549.38,-222 1549.38,-161 1451.38,-161"/>
<text text-anchor="middle" x="1500.38" y="-206.8" font-family="Times,serif" font-size="14.00" fill="lightblue">Francis</text>
<text text-anchor="middle" x="1500.38" y="-191.8" font-family="Times,serif" font-size="14.00" fill="lightblue">Beaumont</text>
<polyline fill="none" stroke="lightblue" points="1451.38,-184 1549.38,-184 "/>
<text text-anchor="middle" x="1500.38" y="-168.8" font-family="Times,serif" font-size="14.00" fill="lightblue">3 ADA + 1 FB</text>
</g>
<!-- Tx4&#45;&gt;Tx4_2 -->
<g id="edge24" class="edge">
<title>Tx4&#45;&gt;Tx4_2</title>
<path fill="none" stroke="lightblue" d="M1367.58,-191.5C1387.61,-191.5 1415.89,-191.5 1441.11,-191.5"/>
<polygon fill="lightblue" stroke="lightblue" points="1441.34,-195 1451.34,-191.5 1441.34,-188 1441.34,-195"/>
<text text-anchor="middle" x="1392.38" y="-195.3" font-family="Times,serif" font-size="14.00" fill="lightblue">#2</text>
</g>
<!-- Tx4_1 -->
<g id="node22" class="node">
<title>Tx4_1</title>
<polygon fill="none" stroke="lightblue" points="1417.38,-341 1417.38,-456 1583.38,-456 1583.38,-341 1417.38,-341"/>
<text text-anchor="middle" x="1500.38" y="-440.8" font-family="Times,serif" font-size="14.00" fill="lightblue">Marlowe Script</text>
<polyline fill="none" stroke="lightblue" points="1417.38,-433 1583.38,-433 "/>
<text text-anchor="middle" x="1500.38" y="-417.8" font-family="Times,serif" font-size="14.00" fill="lightblue">259 ADA</text>
<polyline fill="none" stroke="lightblue" points="1417.38,-410 1583.38,-410 "/>
<text text-anchor="middle" x="1439.38" y="-371.8" font-family="Times,serif" font-size="14.00" fill="lightblue">State</text>
<polyline fill="none" stroke="lightblue" points="1461.38,-341 1461.38,-410 "/>
<text text-anchor="middle" x="1522.38" y="-394.8" font-family="Times,serif" font-size="14.00" fill="lightblue">F.B. has 0 ADA</text>
<polyline fill="none" stroke="lightblue" points="1461.38,-387 1583.38,-387 "/>
<text text-anchor="middle" x="1522.38" y="-371.8" font-family="Times,serif" font-size="14.00" fill="lightblue">T.M. has 256 ADA</text>
<polyline fill="none" stroke="lightblue" points="1461.38,-364 1583.38,-364 "/>
<text text-anchor="middle" x="1522.38" y="-348.8" font-family="Times,serif" font-size="14.00" fill="lightblue">C.M. has 3 ADA</text>
</g>
<!-- Tx4&#45;&gt;Tx4_1 -->
<g id="edge25" class="edge">
<title>Tx4&#45;&gt;Tx4_1</title>
<path fill="none" stroke="lightblue" d="M1353.24,-207.4C1373.48,-233.87 1415.2,-288.42 1448.9,-332.48"/>
<polygon fill="lightblue" stroke="lightblue" points="1446.23,-334.76 1455.09,-340.58 1451.8,-330.51 1446.23,-334.76"/>
<text text-anchor="middle" x="1392.38" y="-267.3" font-family="Times,serif" font-size="14.00" fill="lightblue">#1</text>
</g>
<!-- Tx4_Fee -->
<g id="node23" class="node">
<title>Tx4_Fee</title>
<polygon fill="none" stroke="lightblue" points="1467.38,-241.5 1467.38,-279.5 1533.38,-279.5 1533.38,-241.5 1467.38,-241.5"/>
<text text-anchor="middle" x="1500.38" y="-264.3" font-family="Times,serif" font-size="14.00" fill="lightblue">Fee</text>
<text text-anchor="middle" x="1500.38" y="-249.3" font-family="Times,serif" font-size="14.00" fill="lightblue">1.3 ADA</text>
</g>
<!-- Tx4&#45;&gt;Tx4_Fee -->
<g id="edge26" class="edge">
<title>Tx4&#45;&gt;Tx4_Fee</title>
<path fill="none" stroke="lightblue" d="M1360.27,-203.78C1375.37,-213.08 1397.16,-225.71 1417.38,-234.5 1430.15,-240.05 1444.49,-245.01 1457.57,-249.07"/>
<polygon fill="lightblue" stroke="lightblue" points="1456.7,-252.46 1467.28,-251.99 1458.72,-245.76 1456.7,-252.46"/>
</g>
<!-- Tx6 -->
<g id="node30" class="node">
<title>Tx6</title>
<ellipse fill="none" stroke="lightblue" cx="2039.27" cy="-174.5" rx="27.1" ry="18"/>
<text text-anchor="middle" x="2039.27" y="-170.8" font-family="Times,serif" font-size="14.00" fill="lightblue">Tx 6</text>
</g>
<!-- Tx4_0&#45;&gt;Tx6 -->
<g id="edge35" class="edge">
<title>Tx4_0&#45;&gt;Tx6</title>
<path fill="none" stroke="lightblue" d="M1543.51,-116.44C1645.85,-128.45 1906.15,-159 2002.07,-170.25"/>
<polygon fill="lightblue" stroke="lightblue" points="2001.81,-173.74 2012.15,-171.43 2002.62,-166.79 2001.81,-173.74"/>
</g>
<!-- Tx4_2&#45;&gt;Tx6 -->
<g id="edge36" class="edge">
<title>Tx4_2&#45;&gt;Tx6</title>
<path fill="none" stroke="lightblue" d="M1549.5,-189.98C1655.45,-186.62 1906.97,-178.66 2001.51,-175.66"/>
<polygon fill="lightblue" stroke="lightblue" points="2001.84,-179.16 2011.72,-175.34 2001.61,-172.16 2001.84,-179.16"/>
</g>
<!-- Tx4_1&#45;&gt;Tx5 -->
<g id="edge27" class="edge">
<title>Tx4_1&#45;&gt;Tx5</title>
<path fill="none" stroke="lightblue" d="M1583.59,-398.34C1617.08,-402.3 1654.04,-412.36 1680.38,-435.5 1709.18,-460.79 1719.26,-505.76 1722.79,-535.1"/>
<polygon fill="lightblue" stroke="lightblue" points="1719.32,-535.55 1723.81,-545.14 1726.28,-534.84 1719.32,-535.55"/>
<text text-anchor="middle" x="1640.88" y="-439.3" font-family="Times,serif" font-size="14.00" fill="lightblue">Dismiss claim</text>
</g>
<!-- Tx5_0 -->
<g id="node25" class="node">
<title>Tx5_0</title>
<polygon fill="none" stroke="lightblue" points="1845.98,-711 1845.98,-772 1931.98,-772 1931.98,-711 1845.98,-711"/>
<text text-anchor="middle" x="1888.98" y="-756.8" font-family="Times,serif" font-size="14.00" fill="lightblue">Christopher</text>
<text text-anchor="middle" x="1888.98" y="-741.8" font-family="Times,serif" font-size="14.00" fill="lightblue">Marlowe</text>
<polyline fill="none" stroke="lightblue" points="1845.98,-734 1931.98,-734 "/>
<text text-anchor="middle" x="1888.98" y="-718.8" font-family="Times,serif" font-size="14.00" fill="lightblue">1960.1 ADA</text>
</g>
<!-- Tx5&#45;&gt;Tx5_0 -->
<g id="edge30" class="edge">
<title>Tx5&#45;&gt;Tx5_0</title>
<path fill="none" stroke="lightblue" d="M1731.24,-581.61C1739.4,-610.56 1759.09,-667.48 1794.98,-701.5 1806.59,-712.51 1821.71,-720.75 1836.37,-726.79"/>
<polygon fill="lightblue" stroke="lightblue" points="1835.3,-730.13 1845.89,-730.46 1837.82,-723.6 1835.3,-730.13"/>
<text text-anchor="middle" x="1777.98" y="-692.3" font-family="Times,serif" font-size="14.00" fill="lightblue">#0</text>
</g>
<!-- Tx5_3 -->
<g id="node26" class="node">
<title>Tx5_3</title>
<polygon fill="none" stroke="lightblue" points="1837.48,-631 1837.48,-692 1940.48,-692 1940.48,-631 1837.48,-631"/>
<text text-anchor="middle" x="1888.98" y="-676.8" font-family="Times,serif" font-size="14.00" fill="lightblue">Christopher</text>
<text text-anchor="middle" x="1888.98" y="-661.8" font-family="Times,serif" font-size="14.00" fill="lightblue">Marlowe</text>
<polyline fill="none" stroke="lightblue" points="1837.48,-654 1940.48,-654 "/>
<text text-anchor="middle" x="1888.98" y="-638.8" font-family="Times,serif" font-size="14.00" fill="lightblue">3 ADA + 1 CM</text>
</g>
<!-- Tx5&#45;&gt;Tx5_3 -->
<g id="edge31" class="edge">
<title>Tx5&#45;&gt;Tx5_3</title>
<path fill="none" stroke="lightblue" d="M1742.4,-578.02C1755.73,-589.87 1775.7,-606.54 1794.98,-618.5 1805.25,-624.88 1816.62,-630.9 1827.79,-636.3"/>
<polygon fill="lightblue" stroke="lightblue" points="1826.55,-639.59 1837.09,-640.69 1829.54,-633.26 1826.55,-639.59"/>
<text text-anchor="middle" x="1777.98" y="-614.3" font-family="Times,serif" font-size="14.00" fill="lightblue">#3</text>
</g>
<!-- Tx5_1 -->
<g id="node27" class="node">
<title>Tx5_1</title>
<polygon fill="none" stroke="lightblue" points="1806.98,-537 1806.98,-606 1970.98,-606 1970.98,-537 1806.98,-537"/>
<text text-anchor="middle" x="1888.98" y="-590.8" font-family="Times,serif" font-size="14.00" fill="lightblue">Payout Script</text>
<polyline fill="none" stroke="lightblue" points="1806.98,-583 1970.98,-583 "/>
<text text-anchor="middle" x="1888.98" y="-567.8" font-family="Times,serif" font-size="14.00" fill="lightblue">3 ADA</text>
<polyline fill="none" stroke="lightblue" points="1806.98,-560 1970.98,-560 "/>
<text text-anchor="middle" x="1833.98" y="-544.8" font-family="Times,serif" font-size="14.00" fill="lightblue">Payout</text>
<polyline fill="none" stroke="lightblue" points="1860.98,-537 1860.98,-560 "/>
<text text-anchor="middle" x="1915.98" y="-544.8" font-family="Times,serif" font-size="14.00" fill="lightblue">C.M. has 3 ADA</text>
</g>
<!-- Tx5&#45;&gt;Tx5_1 -->
<g id="edge32" class="edge">
<title>Tx5&#45;&gt;Tx5_1</title>
<path fill="none" stroke="lightblue" d="M1752.95,-564.8C1765.22,-565.41 1780.64,-566.18 1796.63,-566.97"/>
<polygon fill="lightblue" stroke="lightblue" points="1796.47,-570.47 1806.63,-567.47 1796.82,-563.47 1796.47,-570.47"/>
<text text-anchor="middle" x="1777.98" y="-569.3" font-family="Times,serif" font-size="14.00" fill="lightblue">#1</text>
</g>
<!-- Tx5_2 -->
<g id="node28" class="node">
<title>Tx5_2</title>
<polygon fill="none" stroke="lightblue" points="1802.98,-449 1802.98,-518 1974.98,-518 1974.98,-449 1802.98,-449"/>
<text text-anchor="middle" x="1888.98" y="-502.8" font-family="Times,serif" font-size="14.00" fill="lightblue">Payout Script</text>
<polyline fill="none" stroke="lightblue" points="1802.98,-495 1974.98,-495 "/>
<text text-anchor="middle" x="1888.98" y="-479.8" font-family="Times,serif" font-size="14.00" fill="lightblue">256 ADA</text>
<polyline fill="none" stroke="lightblue" points="1802.98,-472 1974.98,-472 "/>
<text text-anchor="middle" x="1829.98" y="-456.8" font-family="Times,serif" font-size="14.00" fill="lightblue">Payout</text>
<polyline fill="none" stroke="lightblue" points="1856.98,-449 1856.98,-472 "/>
<text text-anchor="middle" x="1915.98" y="-456.8" font-family="Times,serif" font-size="14.00" fill="lightblue">F.B. has 256 ADA</text>
</g>
<!-- Tx5&#45;&gt;Tx5_2 -->
<g id="edge33" class="edge">
<title>Tx5&#45;&gt;Tx5_2</title>
<path fill="none" stroke="lightblue" d="M1747.18,-552.4C1760.68,-545.16 1778.79,-535.59 1794.98,-527.5 1798.29,-525.85 1801.67,-524.17 1805.09,-522.49"/>
<polygon fill="lightblue" stroke="lightblue" points="1806.77,-525.56 1814.22,-518.03 1803.7,-519.27 1806.77,-525.56"/>
<text text-anchor="middle" x="1777.98" y="-542.3" font-family="Times,serif" font-size="14.00" fill="lightblue">#2</text>
</g>
<!-- Tx5_Fee -->
<g id="node29" class="node">
<title>Tx5_Fee</title>
<polygon fill="none" stroke="lightblue" points="1855.98,-791.5 1855.98,-829.5 1921.98,-829.5 1921.98,-791.5 1855.98,-791.5"/>
<text text-anchor="middle" x="1888.98" y="-814.3" font-family="Times,serif" font-size="14.00" fill="lightblue">Fee</text>
<text text-anchor="middle" x="1888.98" y="-799.3" font-family="Times,serif" font-size="14.00" fill="lightblue">1.4 ADA</text>
</g>
<!-- Tx5&#45;&gt;Tx5_Fee -->
<g id="edge34" class="edge">
<title>Tx5&#45;&gt;Tx5_Fee</title>
<path fill="none" stroke="lightblue" d="M1726.75,-581.62C1727.94,-623.58 1736.92,-728.13 1794.98,-784.5 1808.45,-797.58 1827.94,-804.19 1845.6,-807.49"/>
<polygon fill="lightblue" stroke="lightblue" points="1845.3,-810.99 1855.72,-809.08 1846.39,-804.07 1845.3,-810.99"/>
</g>
<!-- Tx7 -->
<g id="node32" class="node">
<title>Tx7</title>
<ellipse fill="none" stroke="lightblue" cx="2039.27" cy="-661.5" rx="27.1" ry="18"/>
<text text-anchor="middle" x="2039.27" y="-657.8" font-family="Times,serif" font-size="14.00" fill="lightblue">Tx 7</text>
</g>
<!-- Tx5_0&#45;&gt;Tx7 -->
<g id="edge39" class="edge">
<title>Tx5_0&#45;&gt;Tx7</title>
<path fill="none" stroke="lightblue" d="M1932.12,-725.67C1948.4,-718.97 1966.93,-710.61 1982.98,-701.5 1993.13,-695.74 2003.66,-688.49 2012.77,-681.75"/>
<polygon fill="lightblue" stroke="lightblue" points="2015.15,-684.33 2021.01,-675.51 2010.92,-678.75 2015.15,-684.33"/>
</g>
<!-- Tx5_3&#45;&gt;Tx7 -->
<g id="edge40" class="edge">
<title>Tx5_3&#45;&gt;Tx7</title>
<path fill="none" stroke="lightblue" d="M1940.6,-661.5C1960.61,-661.5 1983.17,-661.5 2001.57,-661.5"/>
<polygon fill="lightblue" stroke="lightblue" points="2001.59,-665 2011.59,-661.5 2001.59,-658 2001.59,-665"/>
</g>
<!-- Tx5_1&#45;&gt;Tx7 -->
<g id="edge41" class="edge">
<title>Tx5_1&#45;&gt;Tx7</title>
<path fill="none" stroke="lightblue" d="M1961.84,-606.05C1969.09,-610.06 1976.25,-614.24 1982.98,-618.5 1993.62,-625.24 2004.71,-633.57 2014.14,-641.1"/>
<polygon fill="lightblue" stroke="lightblue" points="2011.98,-643.86 2021.95,-647.45 2016.4,-638.42 2011.98,-643.86"/>
</g>
<!-- Tx5_2&#45;&gt;Tx6 -->
<g id="edge37" class="edge">
<title>Tx5_2&#45;&gt;Tx6</title>
<path fill="none" stroke="lightblue" d="M1906.56,-448.95C1936.5,-386.56 1998.98,-256.38 2025.71,-200.69"/>
<polygon fill="lightblue" stroke="lightblue" points="2028.95,-202.02 2030.12,-191.49 2022.64,-198.99 2028.95,-202.02"/>
</g>
<!-- Tx6_Fee -->
<g id="node31" class="node">
<title>Tx6_Fee</title>
<polygon fill="none" stroke="lightblue" points="2141.07,-0.5 2141.07,-38.5 2207.07,-38.5 2207.07,-0.5 2141.07,-0.5"/>
<text text-anchor="middle" x="2174.07" y="-23.3" font-family="Times,serif" font-size="14.00" fill="lightblue">Fee</text>
<text text-anchor="middle" x="2174.07" y="-8.3" font-family="Times,serif" font-size="14.00" fill="lightblue">0.5 ADA</text>
</g>
<!-- Tx6&#45;&gt;Tx6_Fee -->
<g id="edge38" class="edge">
<title>Tx6&#45;&gt;Tx6_Fee</title>
<path fill="none" stroke="lightblue" d="M2045.83,-156.82C2054.82,-130.76 2074.82,-81.83 2106.57,-51.5 2113.72,-44.67 2122.61,-39.05 2131.53,-34.53"/>
<polygon fill="lightblue" stroke="lightblue" points="2133.19,-37.62 2140.77,-30.21 2130.23,-31.27 2133.19,-37.62"/>
</g>
<!-- Tx6_0 -->
<g id="node36" class="node">
<title>Tx6_0</title>
<polygon fill="none" stroke="lightblue" points="2131.07,-64 2131.07,-125 2217.07,-125 2217.07,-64 2131.07,-64"/>
<text text-anchor="middle" x="2174.07" y="-109.8" font-family="Times,serif" font-size="14.00" fill="lightblue">Francis</text>
<text text-anchor="middle" x="2174.07" y="-94.8" font-family="Times,serif" font-size="14.00" fill="lightblue">Beaumont</text>
<polyline fill="none" stroke="lightblue" points="2131.07,-87 2217.07,-87 "/>
<text text-anchor="middle" x="2174.07" y="-71.8" font-family="Times,serif" font-size="14.00" fill="lightblue">3000.9 ADA</text>
</g>
<!-- Tx6&#45;&gt;Tx6_0 -->
<g id="edge45" class="edge">
<title>Tx6&#45;&gt;Tx6_0</title>
<path fill="none" stroke="lightblue" d="M2060,-162.59C2073.18,-154.63 2090.91,-143.93 2106.57,-134.5 2111.6,-131.47 2116.84,-128.32 2122.08,-125.16"/>
<polygon fill="lightblue" stroke="lightblue" points="2124.09,-128.04 2130.85,-119.88 2120.48,-122.04 2124.09,-128.04"/>
<text text-anchor="middle" x="2091.57" y="-151.3" font-family="Times,serif" font-size="14.00" fill="lightblue">#0</text>
</g>
<!-- Tx6_1 -->
<g id="node37" class="node">
<title>Tx6_1</title>
<polygon fill="none" stroke="lightblue" points="2137.57,-224 2137.57,-285 2210.57,-285 2210.57,-224 2137.57,-224"/>
<text text-anchor="middle" x="2174.07" y="-269.8" font-family="Times,serif" font-size="14.00" fill="lightblue">Francis</text>
<text text-anchor="middle" x="2174.07" y="-254.8" font-family="Times,serif" font-size="14.00" fill="lightblue">Beaumont</text>
<polyline fill="none" stroke="lightblue" points="2137.57,-247 2210.57,-247 "/>
<text text-anchor="middle" x="2174.07" y="-231.8" font-family="Times,serif" font-size="14.00" fill="lightblue">256 ADA</text>
</g>
<!-- Tx6&#45;&gt;Tx6_1 -->
<g id="edge46" class="edge">
<title>Tx6&#45;&gt;Tx6_1</title>
<path fill="none" stroke="lightblue" d="M2060,-186.41C2073.18,-194.37 2090.91,-205.07 2106.57,-214.5 2113.79,-218.85 2121.45,-223.46 2128.9,-227.94"/>
<polygon fill="lightblue" stroke="lightblue" points="2127.15,-230.97 2137.52,-233.13 2130.75,-224.97 2127.15,-230.97"/>
<text text-anchor="middle" x="2091.57" y="-212.3" font-family="Times,serif" font-size="14.00" fill="lightblue">#1</text>
</g>
<!-- Tx6_2 -->
<g id="node38" class="node">
<title>Tx6_2</title>
<polygon fill="none" stroke="lightblue" points="2125.07,-144 2125.07,-205 2223.07,-205 2223.07,-144 2125.07,-144"/>
<text text-anchor="middle" x="2174.07" y="-189.8" font-family="Times,serif" font-size="14.00" fill="lightblue">Francis</text>
<text text-anchor="middle" x="2174.07" y="-174.8" font-family="Times,serif" font-size="14.00" fill="lightblue">Beaumont</text>
<polyline fill="none" stroke="lightblue" points="2125.07,-167 2223.07,-167 "/>
<text text-anchor="middle" x="2174.07" y="-151.8" font-family="Times,serif" font-size="14.00" fill="lightblue">3 ADA + 1 FB</text>
</g>
<!-- Tx6&#45;&gt;Tx6_2 -->
<g id="edge47" class="edge">
<title>Tx6&#45;&gt;Tx6_2</title>
<path fill="none" stroke="lightblue" d="M2066.83,-174.5C2080.62,-174.5 2098.05,-174.5 2114.78,-174.5"/>
<polygon fill="lightblue" stroke="lightblue" points="2115.07,-178 2125.07,-174.5 2115.07,-171 2115.07,-178"/>
<text text-anchor="middle" x="2091.57" y="-178.3" font-family="Times,serif" font-size="14.00" fill="lightblue">#2</text>
</g>
<!-- Tx7_Fee -->
<g id="node33" class="node">
<title>Tx7_Fee</title>
<polygon fill="none" stroke="lightblue" points="2141.07,-722.5 2141.07,-760.5 2207.07,-760.5 2207.07,-722.5 2141.07,-722.5"/>
<text text-anchor="middle" x="2174.07" y="-745.3" font-family="Times,serif" font-size="14.00" fill="lightblue">Fee</text>
<text text-anchor="middle" x="2174.07" y="-730.3" font-family="Times,serif" font-size="14.00" fill="lightblue">0.5 ADA</text>
</g>
<!-- Tx7&#45;&gt;Tx7_Fee -->
<g id="edge42" class="edge">
<title>Tx7&#45;&gt;Tx7_Fee</title>
<path fill="none" stroke="lightblue" d="M2057.42,-675.22C2070.48,-685.34 2089.12,-699.09 2106.57,-709.5 2114.57,-714.27 2123.39,-718.91 2131.92,-723.11"/>
<polygon fill="lightblue" stroke="lightblue" points="2130.48,-726.3 2141.01,-727.48 2133.51,-720 2130.48,-726.3"/>
</g>
<!-- Tx7_0 -->
<g id="node39" class="node">
<title>Tx7_0</title>
<polygon fill="none" stroke="lightblue" points="2131.07,-556 2131.07,-617 2217.07,-617 2217.07,-556 2131.07,-556"/>
<text text-anchor="middle" x="2174.07" y="-601.8" font-family="Times,serif" font-size="14.00" fill="lightblue">Christopher</text>
<text text-anchor="middle" x="2174.07" y="-586.8" font-family="Times,serif" font-size="14.00" fill="lightblue">Marlowe</text>
<polyline fill="none" stroke="lightblue" points="2131.07,-579 2217.07,-579 "/>
<text text-anchor="middle" x="2174.07" y="-563.8" font-family="Times,serif" font-size="14.00" fill="lightblue">1959.7 ADA</text>
</g>
<!-- Tx7&#45;&gt;Tx7_0 -->
<g id="edge48" class="edge">
<title>Tx7&#45;&gt;Tx7_0</title>
<path fill="none" stroke="lightblue" d="M2060.44,-650.11C2076.83,-640.85 2100.68,-627.38 2122.22,-615.22"/>
<polygon fill="lightblue" stroke="lightblue" points="2123.98,-618.25 2130.96,-610.28 2120.53,-612.15 2123.98,-618.25"/>
<text text-anchor="middle" x="2091.57" y="-638.3" font-family="Times,serif" font-size="14.00" fill="lightblue">#0</text>
</g>
<!-- Tx7_1 -->
<g id="node40" class="node">
<title>Tx7_1</title>
<polygon fill="none" stroke="lightblue" points="2134.07,-476 2134.07,-537 2214.07,-537 2214.07,-476 2134.07,-476"/>
<text text-anchor="middle" x="2174.07" y="-521.8" font-family="Times,serif" font-size="14.00" fill="lightblue">Christopher</text>
<text text-anchor="middle" x="2174.07" y="-506.8" font-family="Times,serif" font-size="14.00" fill="lightblue">Marlowe</text>
<polyline fill="none" stroke="lightblue" points="2134.07,-499 2214.07,-499 "/>
<text text-anchor="middle" x="2174.07" y="-483.8" font-family="Times,serif" font-size="14.00" fill="lightblue">3 ADA</text>
</g>
<!-- Tx7&#45;&gt;Tx7_1 -->
<g id="edge49" class="edge">
<title>Tx7&#45;&gt;Tx7_1</title>
<path fill="none" stroke="lightblue" d="M2046.98,-644.13C2057.01,-619.94 2077.84,-575.77 2106.57,-546.5 2112.08,-540.89 2118.53,-535.76 2125.21,-531.18"/>
<polygon fill="lightblue" stroke="lightblue" points="2127.23,-534.04 2133.74,-525.68 2123.44,-528.16 2127.23,-534.04"/>
<text text-anchor="middle" x="2091.57" y="-575.3" font-family="Times,serif" font-size="14.00" fill="lightblue">#1</text>
</g>
<!-- Tx7_2 -->
<g id="node41" class="node">
<title>Tx7_2</title>
<polygon fill="none" stroke="lightblue" points="2122.57,-636 2122.57,-697 2225.57,-697 2225.57,-636 2122.57,-636"/>
<text text-anchor="middle" x="2174.07" y="-681.8" font-family="Times,serif" font-size="14.00" fill="lightblue">Christopher</text>
<text text-anchor="middle" x="2174.07" y="-666.8" font-family="Times,serif" font-size="14.00" fill="lightblue">Marlowe</text>
<polyline fill="none" stroke="lightblue" points="2122.57,-659 2225.57,-659 "/>
<text text-anchor="middle" x="2174.07" y="-643.8" font-family="Times,serif" font-size="14.00" fill="lightblue">3 ADA + 1 CM</text>
</g>
<!-- Tx7&#45;&gt;Tx7_2 -->
<g id="edge50" class="edge">
<title>Tx7&#45;&gt;Tx7_2</title>
<path fill="none" stroke="lightblue" d="M2066.83,-662.5C2079.87,-662.99 2096.16,-663.6 2112.04,-664.2"/>
<polygon fill="lightblue" stroke="lightblue" points="2112.25,-667.71 2122.38,-664.59 2112.51,-660.72 2112.25,-667.71"/>
<text text-anchor="middle" x="2091.57" y="-667.3" font-family="Times,serif" font-size="14.00" fill="lightblue">#2</text>
</g>
</g>
</svg>
