<?xml version="1.0" encoding="UTF-8" standalone="no"?>
<!DOCTYPE svg PUBLIC "-//W3C//DTD SVG 1.1//EN"
 "http://www.w3.org/Graphics/SVG/1.1/DTD/svg11.dtd">
<!-- Generated by graphviz version 2.49.3 (0)
 -->
<!-- Title: EscrowUtxos Pages: 1 -->
<svg width="508pt" height="388pt"
 viewBox="0.00 0.00 507.60 388.00" xmlns="http://www.w3.org/2000/svg" xmlns:xlink="http://www.w3.org/1999/xlink">
<g id="graph0" class="graph" transform="scale(1 1) rotate(0) translate(4 384)">
<title>EscrowUtxos</title>
<polygon fill="white" stroke="transparent" points="-4,4 -4,-384 503.6,-384 503.6,4 -4,4"/>
<g id="clust1" class="cluster">
<title>cluster_2</title>
</g>
<!-- Tx0BuyerAda -->
<g id="node1" class="node">
<title>Tx0BuyerAda</title>
<polygon fill="none" stroke="darkred" points="16,-214.5 16,-275.5 138,-275.5 138,-214.5 16,-214.5"/>
<text text-anchor="middle" x="77" y="-260.3" font-family="Times,serif" font-size="14.00" fill="darkred">Thomas Middleton</text>
<text text-anchor="middle" x="77" y="-245.3" font-family="Times,serif" font-size="14.00" fill="darkred">(the buyer)</text>
<polyline fill="none" stroke="darkred" points="16,-237.5 138,-237.5 "/>
<text text-anchor="middle" x="77" y="-222.3" font-family="Times,serif" font-size="14.00" fill="darkred">2954.4 ADA</text>
</g>
<!-- Tx2 -->
<g id="node4" class="node">
<title>Tx2</title>
<ellipse fill="none" stroke="darkred" cx="260.3" cy="-165" rx="27.1" ry="18"/>
<text text-anchor="middle" x="260.3" y="-161.3" font-family="Times,serif" font-size="14.00" fill="darkred">Tx 2</text>
</g>
<!-- Tx0BuyerAda&#45;&gt;Tx2 -->
<g id="edge2" class="edge">
<title>Tx0BuyerAda&#45;&gt;Tx2</title>
<path fill="none" stroke="darkred" d="M138.12,-218.47C168.15,-205.22 203.24,-189.74 227.9,-178.85"/>
<polygon fill="darkred" stroke="darkred" points="229.41,-182.02 237.14,-174.78 226.58,-175.61 229.41,-182.02"/>
</g>
<!-- Tx0BuyerToken -->
<g id="node2" class="node">
<title>Tx0BuyerToken</title>
<polygon fill="none" stroke="darkred" points="26.5,-134.5 26.5,-195.5 127.5,-195.5 127.5,-134.5 26.5,-134.5"/>
<text text-anchor="middle" x="77" y="-180.3" font-family="Times,serif" font-size="14.00" fill="darkred">Thomas</text>
<text text-anchor="middle" x="77" y="-165.3" font-family="Times,serif" font-size="14.00" fill="darkred">Middleton</text>
<polyline fill="none" stroke="darkred" points="26.5,-157.5 127.5,-157.5 "/>
<text text-anchor="middle" x="77" y="-142.3" font-family="Times,serif" font-size="14.00" fill="darkred">2 ADA + 1 TM</text>
</g>
<!-- Tx0BuyerToken&#45;&gt;Tx2 -->
<g id="edge3" class="edge">
<title>Tx0BuyerToken&#45;&gt;Tx2</title>
<path fill="none" stroke="darkred" d="M127.54,-165C157.53,-165 195.13,-165 222.48,-165"/>
<polygon fill="darkred" stroke="darkred" points="222.79,-168.5 232.79,-165 222.79,-161.5 222.79,-168.5"/>
</g>
<!-- Tx1_1 -->
<g id="node3" class="node">
<title>Tx1_1</title>
<polygon fill="none" stroke="darkred" points="0,-0.5 0,-115.5 154,-115.5 154,-0.5 0,-0.5"/>
<text text-anchor="middle" x="77" y="-100.3" font-family="Times,serif" font-size="14.00" fill="darkred">Marlowe Script</text>
<polyline fill="none" stroke="darkred" points="0,-92.5 154,-92.5 "/>
<text text-anchor="middle" x="77" y="-77.3" font-family="Times,serif" font-size="14.00" fill="darkred">3 ADA</text>
<polyline fill="none" stroke="darkred" points="0,-69.5 154,-69.5 "/>
<text text-anchor="middle" x="22" y="-31.3" font-family="Times,serif" font-size="14.00" fill="darkred">State</text>
<polyline fill="none" stroke="darkred" points="44,-0.5 44,-69.5 "/>
<text text-anchor="middle" x="99" y="-54.3" font-family="Times,serif" font-size="14.00" fill="darkred">F.B. has 0 ADA</text>
<polyline fill="none" stroke="darkred" points="44,-46.5 154,-46.5 "/>
<text text-anchor="middle" x="99" y="-31.3" font-family="Times,serif" font-size="14.00" fill="darkred">T.M. has 0 ADA</text>
<polyline fill="none" stroke="darkred" points="44,-23.5 154,-23.5 "/>
<text text-anchor="middle" x="99" y="-8.3" font-family="Times,serif" font-size="14.00" fill="darkred">C.M. has 3 ADA</text>
</g>
<!-- Tx1_1&#45;&gt;Tx2 -->
<g id="edge1" class="edge">
<title>Tx1_1&#45;&gt;Tx2</title>
<path fill="none" stroke="darkred" d="M154.1,-102.91C181.16,-118.88 209.99,-135.9 230.62,-148.07"/>
<polygon fill="darkred" stroke="darkred" points="229.09,-151.23 239.48,-153.3 232.65,-145.21 229.09,-151.23"/>
<text text-anchor="middle" x="193.5" y="-140.8" font-family="Times,serif" font-size="14.00" fill="darkred">Deposit</text>
</g>
<!-- Tx2_0 -->
<g id="node5" class="node">
<title>Tx2_0</title>
<polygon fill="none" stroke="black" points="375.6,-302.5 375.6,-363.5 461.6,-363.5 461.6,-302.5 375.6,-302.5"/>
<text text-anchor="middle" x="418.6" y="-348.3" font-family="Times,serif" font-size="14.00">Thomas</text>
<text text-anchor="middle" x="418.6" y="-333.3" font-family="Times,serif" font-size="14.00">Middleton</text>
<polyline fill="none" stroke="black" points="375.6,-325.5 461.6,-325.5 "/>
<text text-anchor="middle" x="418.6" y="-310.3" font-family="Times,serif" font-size="14.00">2696.0 ADA</text>
</g>
<!-- Tx2&#45;&gt;Tx2_0 -->
<g id="edge4" class="edge">
<title>Tx2&#45;&gt;Tx2_0</title>
<path fill="none" stroke="darkred" d="M267.91,-182.43C278.82,-209.22 302.9,-260.78 337.6,-293 345.96,-300.76 356.11,-307.37 366.33,-312.83"/>
<polygon fill="darkred" stroke="darkred" points="364.79,-315.98 375.3,-317.35 367.94,-309.72 364.79,-315.98"/>
<text text-anchor="middle" x="312.6" y="-275.8" font-family="Times,serif" font-size="14.00" fill="darkred">#0</text>
</g>
<!-- Tx2_2 -->
<g id="node6" class="node">
<title>Tx2_2</title>
<polygon fill="none" stroke="black" points="368.1,-222.5 368.1,-283.5 469.1,-283.5 469.1,-222.5 368.1,-222.5"/>
<text text-anchor="middle" x="418.6" y="-268.3" font-family="Times,serif" font-size="14.00">Thomas</text>
<text text-anchor="middle" x="418.6" y="-253.3" font-family="Times,serif" font-size="14.00">Midddleton</text>
<polyline fill="none" stroke="black" points="368.1,-245.5 469.1,-245.5 "/>
<text text-anchor="middle" x="418.6" y="-230.3" font-family="Times,serif" font-size="14.00">3 ADA + 1 TM</text>
</g>
<!-- Tx2&#45;&gt;Tx2_2 -->
<g id="edge5" class="edge">
<title>Tx2&#45;&gt;Tx2_2</title>
<path fill="none" stroke="darkred" d="M280.11,-177.56C295.37,-187.57 317.55,-201.72 337.6,-213 344.35,-216.8 351.51,-220.64 358.67,-224.36"/>
<polygon fill="darkred" stroke="darkred" points="357.2,-227.54 367.7,-229 360.4,-221.31 357.2,-227.54"/>
<text text-anchor="middle" x="312.6" y="-205.8" font-family="Times,serif" font-size="14.00" fill="darkred">#2</text>
</g>
<!-- Tx2_1 -->
<g id="node7" class="node">
<title>Tx2_1</title>
<polygon fill="none" stroke="black" points="337.6,-88.5 337.6,-203.5 499.6,-203.5 499.6,-88.5 337.6,-88.5"/>
<text text-anchor="middle" x="418.6" y="-188.3" font-family="Times,serif" font-size="14.00">Marlowe Script</text>
<polyline fill="none" stroke="black" points="337.6,-180.5 499.6,-180.5 "/>
<text text-anchor="middle" x="418.6" y="-165.3" font-family="Times,serif" font-size="14.00">259 ADA</text>
<polyline fill="none" stroke="black" points="337.6,-157.5 499.6,-157.5 "/>
<text text-anchor="middle" x="359.6" y="-119.3" font-family="Times,serif" font-size="14.00">State</text>
<polyline fill="none" stroke="black" points="381.6,-88.5 381.6,-157.5 "/>
<text text-anchor="middle" x="440.6" y="-142.3" font-family="Times,serif" font-size="14.00">F.B. has 256 ADA</text>
<polyline fill="none" stroke="black" points="381.6,-134.5 499.6,-134.5 "/>
<text text-anchor="middle" x="440.6" y="-119.3" font-family="Times,serif" font-size="14.00">T.M. has 0 ADA</text>
<polyline fill="none" stroke="black" points="381.6,-111.5 499.6,-111.5 "/>
<text text-anchor="middle" x="440.6" y="-96.3" font-family="Times,serif" font-size="14.00">C.M. has 3 ADA</text>
</g>
<!-- Tx2&#45;&gt;Tx2_1 -->
<g id="edge6" class="edge">
<title>Tx2&#45;&gt;Tx2_1</title>
<path fill="none" stroke="darkred" d="M287.46,-161.82C298.76,-160.45 312.71,-158.75 327.23,-156.98"/>
<polygon fill="darkred" stroke="darkred" points="327.85,-160.44 337.36,-155.75 327.01,-153.49 327.85,-160.44"/>
<text text-anchor="middle" x="312.6" y="-163.8" font-family="Times,serif" font-size="14.00" fill="darkred">#1</text>
</g>
<!-- Tx2_Fee -->
<g id="node8" class="node">
<title>Tx2_Fee</title>
<polygon fill="none" stroke="darkred" points="385.6,-31 385.6,-69 451.6,-69 451.6,-31 385.6,-31"/>
<text text-anchor="middle" x="418.6" y="-53.8" font-family="Times,serif" font-size="14.00" fill="darkred">Fee</text>
<text text-anchor="middle" x="418.6" y="-38.8" font-family="Times,serif" font-size="14.00" fill="darkred">1.3 ADA</text>
</g>
<!-- Tx2&#45;&gt;Tx2_Fee -->
<g id="edge7" class="edge">
<title>Tx2&#45;&gt;Tx2_Fee</title>
<path fill="none" stroke="darkred" d="M272.07,-148.52C285.38,-129.36 309.69,-97.95 337.6,-79 349.09,-71.2 362.93,-65.21 375.85,-60.77"/>
<polygon fill="darkred" stroke="darkred" points="377.05,-64.06 385.49,-57.66 374.9,-57.39 377.05,-64.06"/>
</g>
</g>
</svg>
