<?xml version="1.0" encoding="UTF-8" standalone="no"?>
<!DOCTYPE svg PUBLIC "-//W3C//DTD SVG 1.1//EN"
 "http://www.w3.org/Graphics/SVG/1.1/DTD/svg11.dtd">
<!-- Generated by graphviz version 2.49.3 (0)
 -->
<!-- Title: EscrowUtxos Pages: 1 -->
<svg width="436pt" height="312pt"
 viewBox="0.00 0.00 435.60 312.00" xmlns="http://www.w3.org/2000/svg" xmlns:xlink="http://www.w3.org/1999/xlink">
<g id="graph0" class="graph" transform="scale(1 1) rotate(0) translate(4 308)">
<title>EscrowUtxos</title>
<polygon fill="white" stroke="transparent" points="-4,4 -4,-308 431.6,-308 431.6,4 -4,4"/>
<g id="clust1" class="cluster">
<title>cluster_4</title>
</g>
<g id="clust2" class="cluster">
<title>cluster_6</title>
</g>
<!-- Tx4_0 -->
<g id="node1" class="node">
<title>Tx4_0</title>
<polygon fill="none" stroke="darkred" points="43,-226.5 43,-287.5 129,-287.5 129,-226.5 43,-226.5"/>
<text text-anchor="middle" x="86" y="-272.3" font-family="Times,serif" font-size="14.00" fill="darkred">Francis</text>
<text text-anchor="middle" x="86" y="-257.3" font-family="Times,serif" font-size="14.00" fill="darkred">Beaumont</text>
<polyline fill="none" stroke="darkred" points="43,-249.5 129,-249.5 "/>
<text text-anchor="middle" x="86" y="-234.3" font-family="Times,serif" font-size="14.00" fill="darkred">3001.3 ADA</text>
</g>
<!-- Tx6 -->
<g id="node4" class="node">
<title>Tx6</title>
<ellipse fill="none" stroke="darkred" cx="236.3" cy="-177" rx="27.1" ry="18"/>
<text text-anchor="middle" x="236.3" y="-173.3" font-family="Times,serif" font-size="14.00" fill="darkred">Tx 6</text>
</g>
<!-- Tx4_0&#45;&gt;Tx6 -->
<g id="edge1" class="edge">
<title>Tx4_0&#45;&gt;Tx6</title>
<path fill="none" stroke="darkred" d="M129.02,-238.48C142.89,-232.04 158.27,-224.53 172,-217 184.14,-210.34 197.14,-202.3 208.18,-195.17"/>
<polygon fill="darkred" stroke="darkred" points="210.09,-198.1 216.55,-189.7 206.27,-192.24 210.09,-198.1"/>
</g>
<!-- Tx4_2 -->
<g id="node2" class="node">
<title>Tx4_2</title>
<polygon fill="none" stroke="darkred" points="37,-146.5 37,-207.5 135,-207.5 135,-146.5 37,-146.5"/>
<text text-anchor="middle" x="86" y="-192.3" font-family="Times,serif" font-size="14.00" fill="darkred">Francis</text>
<text text-anchor="middle" x="86" y="-177.3" font-family="Times,serif" font-size="14.00" fill="darkred">Beaumont</text>
<polyline fill="none" stroke="darkred" points="37,-169.5 135,-169.5 "/>
<text text-anchor="middle" x="86" y="-154.3" font-family="Times,serif" font-size="14.00" fill="darkred">3 ADA + 1 FB</text>
</g>
<!-- Tx4_2&#45;&gt;Tx6 -->
<g id="edge2" class="edge">
<title>Tx4_2&#45;&gt;Tx6</title>
<path fill="none" stroke="darkred" d="M135.15,-177C155.84,-177 179.63,-177 198.83,-177"/>
<polygon fill="darkred" stroke="darkred" points="198.97,-180.5 208.97,-177 198.97,-173.5 198.97,-180.5"/>
</g>
<!-- Tx5_2 -->
<g id="node3" class="node">
<title>Tx5_2</title>
<polygon fill="none" stroke="darkred" points="0,-58.5 0,-127.5 172,-127.5 172,-58.5 0,-58.5"/>
<text text-anchor="middle" x="86" y="-112.3" font-family="Times,serif" font-size="14.00" fill="darkred">Payout Script</text>
<polyline fill="none" stroke="darkred" points="0,-104.5 172,-104.5 "/>
<text text-anchor="middle" x="86" y="-89.3" font-family="Times,serif" font-size="14.00" fill="darkred">256 ADA</text>
<polyline fill="none" stroke="darkred" points="0,-81.5 172,-81.5 "/>
<text text-anchor="middle" x="27" y="-66.3" font-family="Times,serif" font-size="14.00" fill="darkred">Payout</text>
<polyline fill="none" stroke="darkred" points="54,-58.5 54,-81.5 "/>
<text text-anchor="middle" x="113" y="-66.3" font-family="Times,serif" font-size="14.00" fill="darkred">F.B. has 256 ADA</text>
</g>
<!-- Tx5_2&#45;&gt;Tx6 -->
<g id="edge3" class="edge">
<title>Tx5_2&#45;&gt;Tx6</title>
<path fill="none" stroke="darkred" d="M160.61,-127.66C164.49,-129.75 168.31,-131.87 172,-134 184.53,-141.23 197.85,-150.09 209.03,-157.88"/>
<polygon fill="darkred" stroke="darkred" points="207.29,-160.94 217.47,-163.85 211.33,-155.22 207.29,-160.94"/>
</g>
<!-- Tx6_Fee -->
<g id="node5" class="node">
<title>Tx6_Fee</title>
<polygon fill="none" stroke="darkred" points="329.6,-257 329.6,-295 395.6,-295 395.6,-257 329.6,-257"/>
<text text-anchor="middle" x="362.6" y="-279.8" font-family="Times,serif" font-size="14.00" fill="darkred">Fee</text>
<text text-anchor="middle" x="362.6" y="-264.8" font-family="Times,serif" font-size="14.00" fill="darkred">0.5 ADA</text>
</g>
<!-- Tx6&#45;&gt;Tx6_Fee -->
<g id="edge4" class="edge">
<title>Tx6&#45;&gt;Tx6_Fee</title>
<path fill="none" stroke="darkred" d="M249.18,-192.93C261.78,-208.96 282.96,-233.61 305.6,-250 310.1,-253.26 315.08,-256.27 320.15,-258.99"/>
<polygon fill="darkred" stroke="darkred" points="318.8,-262.23 329.31,-263.58 321.94,-255.97 318.8,-262.23"/>
</g>
<!-- Tx6_0 -->
<g id="node6" class="node">
<title>Tx6_0</title>
<polygon fill="none" stroke="black" points="319.6,-176.5 319.6,-237.5 405.6,-237.5 405.6,-176.5 319.6,-176.5"/>
<text text-anchor="middle" x="362.6" y="-222.3" font-family="Times,serif" font-size="14.00">Francis</text>
<text text-anchor="middle" x="362.6" y="-207.3" font-family="Times,serif" font-size="14.00">Beaumont</text>
<polyline fill="none" stroke="black" points="319.6,-199.5 405.6,-199.5 "/>
<text text-anchor="middle" x="362.6" y="-184.3" font-family="Times,serif" font-size="14.00">3000.9 ADA</text>
</g>
<!-- Tx6&#45;&gt;Tx6_0 -->
<g id="edge5" class="edge">
<title>Tx6&#45;&gt;Tx6_0</title>
<path fill="none" stroke="darkred" d="M262.15,-183C275.65,-186.26 292.86,-190.41 309.16,-194.35"/>
<polygon fill="darkred" stroke="darkred" points="308.61,-197.81 319.15,-196.76 310.25,-191.01 308.61,-197.81"/>
<text text-anchor="middle" x="288.6" y="-193.8" font-family="Times,serif" font-size="14.00" fill="darkred">#0</text>
</g>
<!-- Tx6_1 -->
<g id="node7" class="node">
<title>Tx6_1</title>
<polygon fill="none" stroke="black" points="326.1,-96.5 326.1,-157.5 399.1,-157.5 399.1,-96.5 326.1,-96.5"/>
<text text-anchor="middle" x="362.6" y="-142.3" font-family="Times,serif" font-size="14.00">Francis</text>
<text text-anchor="middle" x="362.6" y="-127.3" font-family="Times,serif" font-size="14.00">Beaumont</text>
<polyline fill="none" stroke="black" points="326.1,-119.5 399.1,-119.5 "/>
<text text-anchor="middle" x="362.6" y="-104.3" font-family="Times,serif" font-size="14.00">256 ADA</text>
</g>
<!-- Tx6&#45;&gt;Tx6_1 -->
<g id="edge6" class="edge">
<title>Tx6&#45;&gt;Tx6_1</title>
<path fill="none" stroke="darkred" d="M260.1,-167.83C275.8,-161.51 297.21,-152.9 316.32,-145.21"/>
<polygon fill="darkred" stroke="darkred" points="317.79,-148.39 325.76,-141.41 315.18,-141.9 317.79,-148.39"/>
<text text-anchor="middle" x="288.6" y="-160.8" font-family="Times,serif" font-size="14.00" fill="darkred">#1</text>
</g>
<!-- Tx6_2 -->
<g id="node8" class="node">
<title>Tx6_2</title>
<polygon fill="none" stroke="black" points="313.6,-16.5 313.6,-77.5 411.6,-77.5 411.6,-16.5 313.6,-16.5"/>
<text text-anchor="middle" x="362.6" y="-62.3" font-family="Times,serif" font-size="14.00">Francis</text>
<text text-anchor="middle" x="362.6" y="-47.3" font-family="Times,serif" font-size="14.00">Beaumont</text>
<polyline fill="none" stroke="black" points="313.6,-39.5 411.6,-39.5 "/>
<text text-anchor="middle" x="362.6" y="-24.3" font-family="Times,serif" font-size="14.00">3 ADA + 1 FB</text>
</g>
<!-- Tx6&#45;&gt;Tx6_2 -->
<g id="edge7" class="edge">
<title>Tx6&#45;&gt;Tx6_2</title>
<path fill="none" stroke="darkred" d="M247.58,-160.55C259.93,-141.55 281.96,-109.96 305.6,-87 306.51,-86.11 307.45,-85.23 308.4,-84.35"/>
<polygon fill="darkred" stroke="darkred" points="310.76,-86.93 316.01,-77.74 306.17,-81.65 310.76,-86.93"/>
<text text-anchor="middle" x="288.6" y="-115.8" font-family="Times,serif" font-size="14.00" fill="darkred">#2</text>
</g>
</g>
</svg>
