<?xml version="1.0" encoding="UTF-8" standalone="no"?>
<!DOCTYPE svg PUBLIC "-//W3C//DTD SVG 1.1//EN"
 "http://www.w3.org/Graphics/SVG/1.1/DTD/svg11.dtd">
<!-- Generated by graphviz version 2.49.3 (0)
 -->
<!-- Title: Eutxo Pages: 1 -->
<svg width="625pt" height="254pt"
 viewBox="0.00 0.00 624.99 253.50" xmlns="http://www.w3.org/2000/svg" xmlns:xlink="http://www.w3.org/1999/xlink">
<g id="graph0" class="graph" transform="scale(1 1) rotate(0) translate(4 249.5)">
<title>Eutxo</title>
<polygon fill="white" stroke="transparent" points="-4,4 -4,-249.5 620.99,-249.5 620.99,4 -4,4"/>
<!-- ScriptInput -->
<g id="node1" class="node">
<title>ScriptInput</title>
<polygon fill="none" stroke="black" points="0,-161 0,-245 170,-245 170,-161 0,-161"/>
<text text-anchor="middle" x="85" y="-229.8" font-family="Times,serif" font-size="14.00">Plutus eUTxO</text>
<polyline fill="none" stroke="black" points="0,-222 170,-222 "/>
<text text-anchor="middle" x="85" y="-206.8" font-family="Times,serif" font-size="14.00">some ₳ (at least min&#45;ADA)</text>
<text text-anchor="middle" x="85" y="-191.8" font-family="Times,serif" font-size="14.00">and maybe some tokens</text>
<polyline fill="none" stroke="black" points="0,-184 170,-184 "/>
<text text-anchor="middle" x="85" y="-168.8" font-family="Times,serif" font-size="14.00">a datum</text>
</g>
<!-- Transaction -->
<g id="node4" class="node">
<title>Transaction</title>
<ellipse fill="none" stroke="black" cx="358" cy="-111" rx="51.99" ry="18"/>
<text text-anchor="middle" x="358" y="-107.3" font-family="Times,serif" font-size="14.00">Transaction</text>
</g>
<!-- ScriptInput&#45;&gt;Transaction -->
<g id="edge3" class="edge">
<title>ScriptInput&#45;&gt;Transaction</title>
<path fill="none" stroke="black" d="M170.26,-174.39C216.47,-158.71 272.01,-139.85 310.44,-126.8"/>
<polygon fill="black" stroke="black" points="311.97,-129.98 320.32,-123.45 309.72,-123.35 311.97,-129.98"/>
<text text-anchor="middle" x="238" y="-170.8" font-family="Times,serif" font-size="14.00">includes redeemer</text>
</g>
<!-- Collateral -->
<g id="node2" class="node">
<title>Collateral</title>
<polygon fill="none" stroke="black" points="15,-80.5 15,-141.5 155,-141.5 155,-80.5 15,-80.5"/>
<text text-anchor="middle" x="85" y="-126.3" font-family="Times,serif" font-size="14.00">ADA&#45;Only UTxO</text>
<polyline fill="none" stroke="black" points="15,-118.5 155,-118.5 "/>
<text text-anchor="middle" x="85" y="-103.3" font-family="Times,serif" font-size="14.00">enough ₳ to cover the</text>
<text text-anchor="middle" x="85" y="-88.3" font-family="Times,serif" font-size="14.00"> collateral requirement</text>
</g>
<!-- Collateral&#45;&gt;Transaction -->
<g id="edge1" class="edge">
<title>Collateral&#45;&gt;Transaction</title>
<path fill="none" stroke="black" stroke-dasharray="5,2" d="M155.08,-111C198.4,-111 253.75,-111 295.54,-111"/>
<polygon fill="black" stroke="black" points="295.58,-114.5 305.58,-111 295.58,-107.5 295.58,-114.5"/>
<text text-anchor="middle" x="238" y="-114.8" font-family="Times,serif" font-size="14.00">collateral</text>
</g>
<!-- TokenInput -->
<g id="node3" class="node">
<title>TokenInput</title>
<polygon fill="none" stroke="black" points="0,-0.5 0,-61.5 170,-61.5 170,-0.5 0,-0.5"/>
<text text-anchor="middle" x="85" y="-46.3" font-family="Times,serif" font-size="14.00">Non&#45;Plutus UTxO</text>
<polyline fill="none" stroke="black" points="0,-38.5 170,-38.5 "/>
<text text-anchor="middle" x="85" y="-23.3" font-family="Times,serif" font-size="14.00">some ₳ (at least min&#45;ADA)</text>
<text text-anchor="middle" x="85" y="-8.3" font-family="Times,serif" font-size="14.00">and maybe some tokens</text>
</g>
<!-- TokenInput&#45;&gt;Transaction -->
<g id="edge2" class="edge">
<title>TokenInput&#45;&gt;Transaction</title>
<path fill="none" stroke="black" d="M170.26,-55.87C215.47,-69.22 269.61,-85.2 307.93,-96.51"/>
<polygon fill="black" stroke="black" points="307.22,-99.95 317.8,-99.43 309.2,-93.24 307.22,-99.95"/>
</g>
<!-- ScriptOutput -->
<g id="node5" class="node">
<title>ScriptOutput</title>
<polygon fill="none" stroke="black" points="446.99,-157 446.99,-241 616.99,-241 616.99,-157 446.99,-157"/>
<text text-anchor="middle" x="531.99" y="-225.8" font-family="Times,serif" font-size="14.00">Plutus eUTxO</text>
<polyline fill="none" stroke="black" points="446.99,-218 616.99,-218 "/>
<text text-anchor="middle" x="531.99" y="-202.8" font-family="Times,serif" font-size="14.00">some ₳ (at least min&#45;ADA)</text>
<text text-anchor="middle" x="531.99" y="-187.8" font-family="Times,serif" font-size="14.00">and maybe some tokens</text>
<polyline fill="none" stroke="black" points="446.99,-180 616.99,-180 "/>
<text text-anchor="middle" x="531.99" y="-164.8" font-family="Times,serif" font-size="14.00">a datum hash</text>
</g>
<!-- Transaction&#45;&gt;ScriptOutput -->
<g id="edge4" class="edge">
<title>Transaction&#45;&gt;ScriptOutput</title>
<path fill="none" stroke="black" d="M388.17,-125.93C402.59,-133.3 420.85,-142.65 439.47,-152.17"/>
<polygon fill="black" stroke="black" points="438.12,-155.42 448.62,-156.86 441.31,-149.18 438.12,-155.42"/>
</g>
<!-- Fee -->
<g id="node6" class="node">
<title>Fee</title>
<polygon fill="none" stroke="black" points="453.49,-84.5 453.49,-137.5 610.49,-137.5 610.49,-84.5 453.49,-84.5"/>
<text text-anchor="middle" x="531.99" y="-122.3" font-family="Times,serif" font-size="14.00">Fee paid in ₳,</text>
<text text-anchor="middle" x="531.99" y="-107.3" font-family="Times,serif" font-size="14.00">based on transaction size</text>
<text text-anchor="middle" x="531.99" y="-92.3" font-family="Times,serif" font-size="14.00">and script execution costs</text>
</g>
<!-- Transaction&#45;&gt;Fee -->
<g id="edge5" class="edge">
<title>Transaction&#45;&gt;Fee</title>
<path fill="none" stroke="black" d="M410.13,-111C420.52,-111 431.72,-111 442.97,-111"/>
<polygon fill="black" stroke="black" points="443.29,-114.5 453.29,-111 443.29,-107.5 443.29,-114.5"/>
</g>
<!-- TokenOutput -->
<g id="node7" class="node">
<title>TokenOutput</title>
<polygon fill="none" stroke="black" points="446.99,-4.5 446.99,-65.5 616.99,-65.5 616.99,-4.5 446.99,-4.5"/>
<text text-anchor="middle" x="531.99" y="-50.3" font-family="Times,serif" font-size="14.00">Non&#45;Plutus UTxO</text>
<polyline fill="none" stroke="black" points="446.99,-42.5 616.99,-42.5 "/>
<text text-anchor="middle" x="531.99" y="-27.3" font-family="Times,serif" font-size="14.00">some ₳ (at least min&#45;ADA)</text>
<text text-anchor="middle" x="531.99" y="-12.3" font-family="Times,serif" font-size="14.00">and maybe some tokens</text>
</g>
<!-- Transaction&#45;&gt;TokenOutput -->
<g id="edge6" class="edge">
<title>Transaction&#45;&gt;TokenOutput</title>
<path fill="none" stroke="black" d="M390.94,-96.88C408.37,-89.18 430.77,-79.28 452.53,-69.67"/>
<polygon fill="black" stroke="black" points="454.07,-72.82 461.8,-65.57 451.24,-66.41 454.07,-72.82"/>
</g>
</g>
</svg>
