<?xml version="1.0" encoding="UTF-8" standalone="no"?>
<!DOCTYPE svg PUBLIC "-//W3C//DTD SVG 1.1//EN"
 "http://www.w3.org/Graphics/SVG/1.1/DTD/svg11.dtd">
<!-- Generated by graphviz version 2.49.3 (0)
 -->
<!-- Title: HighLevelAbstract Pages: 1 -->
<svg width="482pt" height="467pt"
 viewBox="0.00 0.00 482.00 467.00" xmlns="http://www.w3.org/2000/svg" xmlns:xlink="http://www.w3.org/1999/xlink">
<g id="graph0" class="graph" transform="scale(1 1) rotate(0) translate(4 463)">
<title>HighLevelAbstract</title>
<polygon fill="white" stroke="transparent" points="-4,4 -4,-463 478,-463 478,4 -4,4"/>
<!-- UserSelect -->
<g id="node1" class="node">
<title>UserSelect</title>
<ellipse fill="none" stroke="black" cx="212" cy="-441" rx="167.87" ry="18"/>
<text text-anchor="middle" x="212" y="-437.3" font-family="Times,serif" font-size="14.00">User decides on contract and its parameters.</text>
</g>
<!-- Template -->
<g id="node2" class="node">
<title>Template</title>
<polygon fill="none" stroke="black" points="206,-386 0,-386 0,-350 206,-350 206,-386"/>
<text text-anchor="start" x="20" y="-371.8" font-family="monospace" font-size="14.00">marlowe&#45;cli template</text>
<text text-anchor="start" x="8" y="-357.8" font-family="Times,serif" font-style="italic" font-size="14.00">Create a contract from a template.</text>
</g>
<!-- UserSelect&#45;&gt;Template -->
<g id="edge1" class="edge">
<title>UserSelect&#45;&gt;Template</title>
<path fill="none" stroke="black" d="M186.17,-423.17C171.72,-413.76 153.51,-401.9 137.82,-391.68"/>
<polygon fill="black" stroke="black" points="139.69,-388.72 129.4,-386.2 135.87,-394.59 139.69,-388.72"/>
</g>
<!-- Playground -->
<g id="node3" class="node">
<title>Playground</title>
<polygon fill="none" stroke="black" points="419.5,-386 224.5,-386 224.5,-350 419.5,-350 419.5,-386"/>
<text text-anchor="start" x="232.5" y="-371.8" font-family="Times,serif" font-style="italic" font-size="14.00">Design and download a contract</text>
<text text-anchor="start" x="246.5" y="-357.8" font-family="Times,serif" font-style="italic" font-size="14.00">using Marlowe Playground</text>
</g>
<!-- UserSelect&#45;&gt;Playground -->
<g id="edge2" class="edge">
<title>UserSelect&#45;&gt;Playground</title>
<path fill="none" stroke="black" d="M238.07,-423.17C252.65,-413.76 271.02,-401.9 286.86,-391.68"/>
<polygon fill="black" stroke="black" points="288.85,-394.56 295.35,-386.2 285.05,-388.68 288.85,-394.56"/>
</g>
<!-- Initialize -->
<g id="node4" class="node">
<title>Initialize</title>
<polygon fill="none" stroke="black" points="362,-313 62,-313 62,-277 362,-277 362,-313"/>
<text text-anchor="start" x="104.5" y="-298.8" font-family="monospace" font-size="14.00">marlowe&#45;cli run initialize</text>
<text text-anchor="start" x="70" y="-284.8" font-family="Times,serif" font-style="italic" font-size="14.00">Bundle the information needed to start the contract.</text>
</g>
<!-- Template&#45;&gt;Initialize -->
<g id="edge3" class="edge">
<title>Template&#45;&gt;Initialize</title>
<path fill="none" stroke="black" d="M129.11,-349.99C143.56,-340.58 161.71,-328.76 177.34,-318.57"/>
<polygon fill="black" stroke="black" points="179.26,-321.5 185.73,-313.11 175.44,-315.64 179.26,-321.5"/>
</g>
<!-- Playground&#45;&gt;Initialize -->
<g id="edge4" class="edge">
<title>Playground&#45;&gt;Initialize</title>
<path fill="none" stroke="black" d="M295.65,-349.99C281.07,-340.58 262.75,-328.76 246.98,-318.57"/>
<polygon fill="black" stroke="black" points="248.81,-315.6 238.51,-313.11 245.02,-321.48 248.81,-315.6"/>
</g>
<!-- UserInput -->
<g id="node7" class="node">
<title>UserInput</title>
<ellipse fill="none" stroke="black" cx="212" cy="-222" rx="161.37" ry="18"/>
<text text-anchor="middle" x="212" y="-218.3" font-family="Times,serif" font-size="14.00">User decides on next input to the contract.</text>
</g>
<!-- Initialize&#45;&gt;UserInput -->
<g id="edge6" class="edge">
<title>Initialize&#45;&gt;UserInput</title>
<path fill="none" stroke="black" d="M212,-276.81C212,-268.79 212,-259.05 212,-250.07"/>
<polygon fill="black" stroke="black" points="215.5,-250.03 212,-240.03 208.5,-250.03 215.5,-250.03"/>
</g>
<!-- Payments -->
<g id="node5" class="node">
<title>Payments</title>
<ellipse fill="none" stroke="black" cx="162" cy="-18" rx="48.19" ry="18"/>
<text text-anchor="middle" x="162" y="-14.3" font-family="Times,serif" font-size="14.00">Payments.</text>
</g>
<!-- Prepare -->
<g id="node6" class="node">
<title>Prepare</title>
<polygon fill="none" stroke="black" points="322,-138 102,-138 102,-102 322,-102 322,-138"/>
<text text-anchor="start" x="117" y="-123.8" font-family="monospace" font-size="14.00">marlowe&#45;cli run prepare</text>
<text text-anchor="start" x="110" y="-109.8" font-family="Times,serif" font-style="italic" font-size="14.00">Prepare the next step of the contract.</text>
</g>
<!-- Prepare&#45;&gt;Payments -->
<g id="edge5" class="edge">
<title>Prepare&#45;&gt;Payments</title>
<path fill="none" stroke="black" d="M203.29,-101.58C195.5,-86 183.97,-62.94 175.07,-45.15"/>
<polygon fill="black" stroke="black" points="178.05,-43.26 170.44,-35.89 171.78,-46.4 178.05,-43.26"/>
</g>
<!-- Prepare&#45;&gt;Prepare -->
<g id="edge9" class="edge">
<title>Prepare&#45;&gt;Prepare</title>
<path fill="none" stroke="black" d="M322.15,-127.64C333.06,-126.11 340,-123.56 340,-120 340,-117.72 337.15,-115.85 332.24,-114.4"/>
<polygon fill="black" stroke="black" points="332.65,-110.91 322.15,-112.36 331.26,-117.77 332.65,-110.91"/>
<text text-anchor="middle" x="407" y="-116.3" font-family="Times,serif" font-size="14.00">&#39;When&#39; clause times out.</text>
</g>
<!-- Prepare&#45;&gt;UserInput -->
<g id="edge7" class="edge">
<title>Prepare&#45;&gt;UserInput</title>
<path fill="none" stroke="black" d="M226.1,-138.16C229.72,-143.54 233.12,-149.73 235,-156 238.82,-168.77 238.82,-173.23 235,-186 234.09,-189.04 232.83,-192.05 231.35,-194.97"/>
<polygon fill="black" stroke="black" points="228.18,-193.45 226.1,-203.84 234.21,-197.02 228.18,-193.45"/>
<text text-anchor="middle" x="276" y="-174.8" font-family="Times,serif" font-size="14.00">Contract is</text>
<text text-anchor="middle" x="276" y="-159.8" font-family="Times,serif" font-size="14.00">not complete.</text>
</g>
<!-- Close -->
<g id="node8" class="node">
<title>Close</title>
<ellipse fill="none" stroke="black" cx="263" cy="-18" rx="35.19" ry="18"/>
<text text-anchor="middle" x="263" y="-14.3" font-family="Times,serif" font-size="14.00">Finish.</text>
</g>
<!-- Prepare&#45;&gt;Close -->
<g id="edge10" class="edge">
<title>Prepare&#45;&gt;Close</title>
<path fill="none" stroke="black" d="M220.88,-101.58C228.88,-85.91 240.73,-62.66 249.83,-44.83"/>
<polygon fill="black" stroke="black" points="253.13,-46.05 254.56,-35.56 246.9,-42.87 253.13,-46.05"/>
<text text-anchor="middle" x="276" y="-72.8" font-family="Times,serif" font-size="14.00">Contract is</text>
<text text-anchor="middle" x="276" y="-57.8" font-family="Times,serif" font-size="14.00">complete.</text>
</g>
<!-- UserInput&#45;&gt;Prepare -->
<g id="edge8" class="edge">
<title>UserInput&#45;&gt;Prepare</title>
<path fill="none" stroke="black" d="M179.94,-204.17C173.53,-199.22 167.65,-193.17 164,-186 157.96,-174.11 157.96,-167.89 164,-156 166.05,-151.96 168.82,-148.28 171.98,-144.95"/>
<polygon fill="black" stroke="black" points="174.37,-147.51 179.45,-138.21 169.68,-142.31 174.37,-147.51"/>
<text text-anchor="middle" x="197.5" y="-167.3" font-family="Times,serif" font-size="14.00">apply inputs</text>
</g>
</g>
</svg>
