<?xml version="1.0" encoding="UTF-8" standalone="no"?>
<!DOCTYPE svg PUBLIC "-//W3C//DTD SVG 1.1//EN"
 "http://www.w3.org/Graphics/SVG/1.1/DTD/svg11.dtd">
<!-- Generated by graphviz version 2.49.3 (0)
 -->
<!-- Title: HighLevelConcrete Pages: 1 -->
<svg width="780pt" height="438pt"
 viewBox="0.00 0.00 779.81 438.00" xmlns="http://www.w3.org/2000/svg" xmlns:xlink="http://www.w3.org/1999/xlink">
<g id="graph0" class="graph" transform="scale(1 1) rotate(0) translate(4 434)">
<title>HighLevelConcrete</title>
<polygon fill="white" stroke="transparent" points="-4,4 -4,-434 775.81,-434 775.81,4 -4,4"/>
<!-- UserSelect -->
<g id="node1" class="node">
<title>UserSelect</title>
<ellipse fill="none" stroke="black" cx="531.5" cy="-412" rx="167.87" ry="18"/>
<text text-anchor="middle" x="531.5" y="-408.3" font-family="Times,serif" font-size="14.00">User decides on contract and its parameters.</text>
</g>
<!-- Template -->
<g id="node2" class="node">
<title>Template</title>
<polygon fill="none" stroke="black" points="525.5,-357 319.5,-357 319.5,-321 525.5,-321 525.5,-357"/>
<text text-anchor="start" x="339.5" y="-342.8" font-family="monospace" font-size="14.00">marlowe&#45;cli template</text>
<text text-anchor="start" x="327.5" y="-328.8" font-family="Times,serif" font-style="italic" font-size="14.00">Create a contract from a template.</text>
</g>
<!-- UserSelect&#45;&gt;Template -->
<g id="edge1" class="edge">
<title>UserSelect&#45;&gt;Template</title>
<path fill="none" stroke="black" d="M505.67,-394.17C491.22,-384.76 473.01,-372.9 457.32,-362.68"/>
<polygon fill="black" stroke="black" points="459.19,-359.72 448.9,-357.2 455.37,-365.59 459.19,-359.72"/>
</g>
<!-- Playground -->
<g id="node3" class="node">
<title>Playground</title>
<polygon fill="none" stroke="black" points="739,-357 544,-357 544,-321 739,-321 739,-357"/>
<text text-anchor="start" x="552" y="-342.8" font-family="Times,serif" font-style="italic" font-size="14.00">Design and download a contract</text>
<text text-anchor="start" x="566" y="-328.8" font-family="Times,serif" font-style="italic" font-size="14.00">using Marlowe Playground</text>
</g>
<!-- UserSelect&#45;&gt;Playground -->
<g id="edge2" class="edge">
<title>UserSelect&#45;&gt;Playground</title>
<path fill="none" stroke="black" d="M557.57,-394.17C572.15,-384.76 590.52,-372.9 606.36,-362.68"/>
<polygon fill="black" stroke="black" points="608.35,-365.56 614.85,-357.2 604.55,-359.68 608.35,-365.56"/>
</g>
<!-- Initialize -->
<g id="node4" class="node">
<title>Initialize</title>
<polygon fill="none" stroke="black" points="681.5,-284 381.5,-284 381.5,-248 681.5,-248 681.5,-284"/>
<text text-anchor="start" x="424" y="-269.8" font-family="monospace" font-size="14.00">marlowe&#45;cli run initialize</text>
<text text-anchor="start" x="389.5" y="-255.8" font-family="Times,serif" font-style="italic" font-size="14.00">Bundle the information needed to start the contract.</text>
</g>
<!-- Template&#45;&gt;Initialize -->
<g id="edge3" class="edge">
<title>Template&#45;&gt;Initialize</title>
<path fill="none" stroke="black" d="M448.61,-320.99C463.06,-311.58 481.21,-299.76 496.84,-289.57"/>
<polygon fill="black" stroke="black" points="498.76,-292.5 505.23,-284.11 494.94,-286.64 498.76,-292.5"/>
</g>
<!-- Playground&#45;&gt;Initialize -->
<g id="edge4" class="edge">
<title>Playground&#45;&gt;Initialize</title>
<path fill="none" stroke="black" d="M615.15,-320.99C600.57,-311.58 582.25,-299.76 566.48,-289.57"/>
<polygon fill="black" stroke="black" points="568.31,-286.6 558.01,-284.11 564.52,-292.48 568.31,-286.6"/>
</g>
<!-- Execute -->
<g id="node5" class="node">
<title>Execute</title>
<polygon fill="none" stroke="black" points="739.5,-211 323.5,-211 323.5,-175 739.5,-175 739.5,-211"/>
<text text-anchor="start" x="436.5" y="-196.8" font-family="monospace" font-size="14.00">marlowe&#45;cli run execute</text>
<text text-anchor="start" x="331.5" y="-182.8" font-family="Times,serif" font-style="italic" font-size="14.00">Submit to the blockchain the transaction for the next step of the contract.</text>
</g>
<!-- Initialize&#45;&gt;Execute -->
<g id="edge5" class="edge">
<title>Initialize&#45;&gt;Execute</title>
<path fill="none" stroke="black" d="M531.5,-247.81C531.5,-239.79 531.5,-230.05 531.5,-221.07"/>
<polygon fill="black" stroke="black" points="535,-221.03 531.5,-211.03 528,-221.03 535,-221.03"/>
</g>
<!-- Payments -->
<g id="node6" class="node">
<title>Payments</title>
<ellipse fill="none" stroke="black" cx="107.5" cy="-91" rx="48.19" ry="18"/>
<text text-anchor="middle" x="107.5" y="-87.3" font-family="Times,serif" font-size="14.00">Payments.</text>
</g>
<!-- Execute&#45;&gt;Payments -->
<g id="edge6" class="edge">
<title>Execute&#45;&gt;Payments</title>
<path fill="none" stroke="black" d="M448.76,-174.95C374.13,-159.18 261.5,-134.4 164.5,-109 160.73,-108.01 156.83,-106.95 152.93,-105.85"/>
<polygon fill="black" stroke="black" points="153.85,-102.47 143.28,-103.07 151.92,-109.2 153.85,-102.47"/>
</g>
<!-- UserInput -->
<g id="node8" class="node">
<title>UserInput</title>
<ellipse fill="none" stroke="black" cx="334.5" cy="-91" rx="161.37" ry="18"/>
<text text-anchor="middle" x="334.5" y="-87.3" font-family="Times,serif" font-size="14.00">User decides on next input to the contract.</text>
</g>
<!-- Execute&#45;&gt;UserInput -->
<g id="edge8" class="edge">
<title>Execute&#45;&gt;UserInput</title>
<path fill="none" stroke="black" d="M483.19,-175C469.5,-169.7 454.73,-163.53 441.5,-157 416.09,-144.46 388.81,-127.83 368.15,-114.54"/>
<polygon fill="black" stroke="black" points="370.02,-111.58 359.73,-109.06 366.21,-117.45 370.02,-111.58"/>
<text text-anchor="middle" x="479.5" y="-145.8" font-family="Times,serif" font-size="14.00">Contract is</text>
<text text-anchor="middle" x="479.5" y="-130.8" font-family="Times,serif" font-size="14.00">not complete.</text>
</g>
<!-- Prepare -->
<g id="node9" class="node">
<title>Prepare</title>
<polygon fill="none" stroke="black" points="641.5,-36 421.5,-36 421.5,0 641.5,0 641.5,-36"/>
<text text-anchor="start" x="436.5" y="-21.8" font-family="monospace" font-size="14.00">marlowe&#45;cli run prepare</text>
<text text-anchor="start" x="429.5" y="-7.8" font-family="Times,serif" font-style="italic" font-size="14.00">Prepare the next step of the contract.</text>
</g>
<!-- Execute&#45;&gt;Prepare -->
<g id="edge12" class="edge">
<title>Execute&#45;&gt;Prepare</title>
<path fill="none" stroke="black" d="M531.5,-174.78C531.5,-144.73 531.5,-82.48 531.5,-46.43"/>
<polygon fill="black" stroke="black" points="535,-46.15 531.5,-36.15 528,-46.15 535,-46.15"/>
<text text-anchor="middle" x="598.5" y="-87.3" font-family="Times,serif" font-size="14.00">&#39;When&#39; clause times out.</text>
</g>
<!-- Close -->
<g id="node10" class="node">
<title>Close</title>
<ellipse fill="none" stroke="black" cx="718.5" cy="-91" rx="35.19" ry="18"/>
<text text-anchor="middle" x="718.5" y="-87.3" font-family="Times,serif" font-size="14.00">Finish.</text>
</g>
<!-- Execute&#45;&gt;Close -->
<g id="edge11" class="edge">
<title>Execute&#45;&gt;Close</title>
<path fill="none" stroke="black" d="M563.65,-174.81C597.82,-156.54 651.57,-127.79 685.91,-109.43"/>
<polygon fill="black" stroke="black" points="687.88,-112.34 695.05,-104.54 684.58,-106.17 687.88,-112.34"/>
<text text-anchor="middle" x="682.5" y="-145.8" font-family="Times,serif" font-size="14.00">Contract is</text>
<text text-anchor="middle" x="682.5" y="-130.8" font-family="Times,serif" font-size="14.00">complete.</text>
</g>
<!-- Withdraw -->
<g id="node7" class="node">
<title>Withdraw</title>
<polygon fill="none" stroke="black" points="215,-36 0,-36 0,0 215,0 215,-36"/>
<text text-anchor="start" x="8" y="-21.8" font-family="monospace" font-size="14.00">marlowe&#45;cli run withdraw</text>
<text text-anchor="start" x="13" y="-7.8" font-family="Times,serif" font-style="italic" font-size="14.00">Withdraw funds from the contract.</text>
</g>
<!-- Payments&#45;&gt;Withdraw -->
<g id="edge7" class="edge">
<title>Payments&#45;&gt;Withdraw</title>
<path fill="none" stroke="black" d="M107.5,-72.81C107.5,-64.79 107.5,-55.05 107.5,-46.07"/>
<polygon fill="black" stroke="black" points="111,-46.03 107.5,-36.03 104,-46.03 111,-46.03"/>
</g>
<!-- UserInput&#45;&gt;Prepare -->
<g id="edge9" class="edge">
<title>UserInput&#45;&gt;Prepare</title>
<path fill="none" stroke="black" d="M379.7,-73.71C407.88,-63.55 444.41,-50.39 474.56,-39.52"/>
<polygon fill="black" stroke="black" points="475.89,-42.76 484.11,-36.08 473.52,-36.18 475.89,-42.76"/>
</g>
<!-- Prepare&#45;&gt;Execute -->
<g id="edge10" class="edge">
<title>Prepare&#45;&gt;Execute</title>
<path fill="none" stroke="black" d="M641.65,-31.62C693.26,-40.02 746.82,-53.24 762.5,-73 788.95,-106.35 753.92,-136.71 716.5,-157 705.73,-162.84 694.15,-167.72 682.22,-171.8"/>
<polygon fill="black" stroke="black" points="681.04,-168.5 672.59,-174.89 683.19,-175.16 681.04,-168.5"/>
</g>
</g>
</svg>
