<?xml version="1.0" encoding="UTF-8" standalone="no"?>
<!DOCTYPE svg PUBLIC "-//W3C//DTD SVG 1.1//EN"
 "http://www.w3.org/Graphics/SVG/1.1/DTD/svg11.dtd">
<!-- Generated by graphviz version 2.49.3 (0)
 -->
<!-- Title: Lifecycle Pages: 1 -->
<svg width="934pt" height="305pt"
 viewBox="0.00 0.00 934.09 305.00" xmlns="http://www.w3.org/2000/svg" xmlns:xlink="http://www.w3.org/1999/xlink">
<g id="graph0" class="graph" transform="scale(1 1) rotate(0) translate(4 301)">
<title>Lifecycle</title>
<polygon fill="white" stroke="transparent" points="-4,4 -4,-301 930.09,-301 930.09,4 -4,4"/>
<!-- UserSelect -->
<g id="node1" class="node">
<title>UserSelect</title>
<ellipse fill="none" stroke="black" cx="408.09" cy="-279" rx="167.87" ry="18"/>
<text text-anchor="middle" x="408.09" y="-275.3" font-family="Times,serif" font-size="14.00">User decides on contract and its parameters.</text>
</g>
<!-- ApplicationScript -->
<g id="node2" class="node">
<title>ApplicationScript</title>
<polygon fill="none" stroke="black" points="492.59,-210 323.59,-210 323.59,-174 492.59,-174 492.59,-210"/>
<text text-anchor="middle" x="408.09" y="-188.3" font-family="Times,serif" font-size="14.00">Marlowe Application Script</text>
</g>
<!-- UserSelect&#45;&gt;ApplicationScript -->
<g id="edge1" class="edge">
<title>UserSelect&#45;&gt;ApplicationScript</title>
<path fill="none" stroke="black" d="M408.09,-260.8C408.09,-249.16 408.09,-233.55 408.09,-220.24"/>
<polygon fill="black" stroke="black" points="411.59,-220.18 408.09,-210.18 404.59,-220.18 411.59,-220.18"/>
<text text-anchor="start" x="408.09" y="-232.8" font-family="Times,serif" font-style="italic" font-size="14.00">submit transaction to create contract</text>
</g>
<!-- ApplicationScript&#45;&gt;ApplicationScript -->
<g id="edge2" class="edge">
<title>ApplicationScript&#45;&gt;ApplicationScript</title>
<path fill="none" stroke="black" d="M492.93,-198.86C503.58,-197.65 510.59,-195.36 510.59,-192 510.59,-189.85 507.72,-188.13 502.85,-186.86"/>
<polygon fill="black" stroke="black" points="503.38,-183.4 492.93,-185.14 502.18,-190.3 503.38,-183.4"/>
<text text-anchor="start" x="543.59" y="-195.8" font-family="Times,serif" font-style="italic" font-size="14.00">&#39;When&#39; clause times out,</text>
<text text-anchor="start" x="510.59" y="-181.8" font-family="Times,serif" font-style="italic" font-size="14.00">so submit transaction without inputs</text>
</g>
<!-- Close -->
<g id="node3" class="node">
<title>Close</title>
<ellipse fill="none" stroke="black" cx="74.09" cy="-105" rx="74.19" ry="18"/>
<text text-anchor="middle" x="74.09" y="-101.3" font-family="Times,serif" font-size="14.00">Contract finished.</text>
</g>
<!-- ApplicationScript&#45;&gt;Close -->
<g id="edge3" class="edge">
<title>ApplicationScript&#45;&gt;Close</title>
<path fill="none" stroke="black" d="M326.16,-173.98C301.33,-168.54 274.03,-162.3 249.09,-156 208.38,-145.71 162.79,-132.63 128.34,-122.43"/>
<polygon fill="black" stroke="black" points="129.07,-119 118.48,-119.5 127.07,-125.71 129.07,-119"/>
<text text-anchor="start" x="249.09" y="-145.8" font-family="Times,serif" font-style="italic" font-size="14.00">contract closes</text>
</g>
<!-- UserDecide -->
<g id="node4" class="node">
<title>UserDecide</title>
<ellipse fill="none" stroke="black" cx="298.09" cy="-105" rx="131.88" ry="18"/>
<text text-anchor="middle" x="298.09" y="-101.3" font-family="Times,serif" font-size="14.00">User decides what actions to take.</text>
</g>
<!-- ApplicationScript&#45;&gt;UserDecide -->
<g id="edge4" class="edge">
<title>ApplicationScript&#45;&gt;UserDecide</title>
<path fill="none" stroke="black" d="M377.74,-173.95C368.9,-168.57 359.39,-162.35 351.09,-156 340.99,-148.27 330.65,-138.9 321.82,-130.37"/>
<polygon fill="black" stroke="black" points="324.07,-127.67 314.48,-123.15 319.16,-132.66 324.07,-127.67"/>
<text text-anchor="start" x="351.09" y="-145.8" font-family="Times,serif" font-style="italic" font-size="14.00">contract continues</text>
</g>
<!-- PayoutScript -->
<g id="node6" class="node">
<title>PayoutScript</title>
<polygon fill="none" stroke="black" points="793.59,-123 650.59,-123 650.59,-87 793.59,-87 793.59,-123"/>
<text text-anchor="middle" x="722.09" y="-101.3" font-family="Times,serif" font-size="14.00">Marlowe Payout Script</text>
</g>
<!-- ApplicationScript&#45;&gt;PayoutScript -->
<g id="edge9" class="edge">
<title>ApplicationScript&#45;&gt;PayoutScript</title>
<path fill="none" stroke="black" d="M471.26,-173.9C522.68,-159.98 595.31,-140.32 649.2,-125.73"/>
<polygon fill="black" stroke="black" points="650.29,-129.06 659.03,-123.07 648.46,-122.31 650.29,-129.06"/>
<text text-anchor="start" x="584.09" y="-145.8" font-family="Times,serif" font-style="italic" font-size="14.00">contract pays</text>
</g>
<!-- Inputs -->
<g id="node5" class="node">
<title>Inputs</title>
<ellipse fill="none" stroke="black" cx="360.09" cy="-18" rx="75.29" ry="18"/>
<text text-anchor="middle" x="360.09" y="-14.3" font-family="Times,serif" font-size="14.00">Inputs to contract.</text>
</g>
<!-- UserDecide&#45;&gt;Inputs -->
<g id="edge5" class="edge">
<title>UserDecide&#45;&gt;Inputs</title>
<path fill="none" stroke="black" d="M243.07,-88.58C223.42,-80.25 208.66,-68.64 220.09,-54 228.75,-42.92 256.74,-34.82 285.43,-29.23"/>
<polygon fill="black" stroke="black" points="286.39,-32.61 295.59,-27.35 285.12,-25.73 286.39,-32.61"/>
<text text-anchor="start" x="220.09" y="-58.8" font-family="Times,serif" font-style="italic" font-size="14.00">make deposit</text>
</g>
<!-- UserDecide&#45;&gt;Inputs -->
<g id="edge6" class="edge">
<title>UserDecide&#45;&gt;Inputs</title>
<path fill="none" stroke="black" d="M301.37,-86.64C303.9,-76.45 308.18,-63.71 315.09,-54 318.17,-49.68 321.94,-45.63 325.96,-41.93"/>
<polygon fill="black" stroke="black" points="328.5,-44.37 333.92,-35.27 324,-39.01 328.5,-44.37"/>
<text text-anchor="start" x="315.09" y="-58.8" font-family="Times,serif" font-style="italic" font-size="14.00">make choice</text>
</g>
<!-- UserDecide&#45;&gt;Inputs -->
<g id="edge7" class="edge">
<title>UserDecide&#45;&gt;Inputs</title>
<path fill="none" stroke="black" d="M359.8,-89.02C369,-84.12 377.32,-77.62 383.09,-69 388.17,-61.42 386.26,-52.54 381.87,-44.38"/>
<polygon fill="black" stroke="black" points="384.74,-42.38 376.35,-35.91 378.88,-46.2 384.74,-42.38"/>
<text text-anchor="start" x="387.09" y="-58.8" font-family="Times,serif" font-style="italic" font-size="14.00">notify</text>
</g>
<!-- Inputs&#45;&gt;ApplicationScript -->
<g id="edge8" class="edge">
<title>Inputs&#45;&gt;ApplicationScript</title>
<path fill="none" stroke="black" d="M395.08,-34.13C404.65,-39.43 414.46,-46.07 422.09,-54 433.53,-65.89 433.34,-71.54 439.09,-87 449.13,-114 459.91,-139.8 452.09,-156 450.23,-159.86 447.72,-163.42 444.83,-166.68"/>
<polygon fill="black" stroke="black" points="442.3,-164.25 437.53,-173.71 447.16,-169.29 442.3,-164.25"/>
<text text-anchor="start" x="452.09" y="-102.3" font-family="Times,serif" font-style="italic" font-size="14.00">submit transaction with inputs</text>
</g>
<!-- UserFunds -->
<g id="node7" class="node">
<title>UserFunds</title>
<ellipse fill="none" stroke="black" cx="722.09" cy="-18" rx="87.18" ry="18"/>
<text text-anchor="middle" x="722.09" y="-14.3" font-family="Times,serif" font-size="14.00">User receives payout.</text>
</g>
<!-- PayoutScript&#45;&gt;UserFunds -->
<g id="edge10" class="edge">
<title>PayoutScript&#45;&gt;UserFunds</title>
<path fill="none" stroke="black" d="M722.09,-86.8C722.09,-75.16 722.09,-59.55 722.09,-46.24"/>
<polygon fill="black" stroke="black" points="725.59,-46.18 722.09,-36.18 718.59,-46.18 725.59,-46.18"/>
<text text-anchor="start" x="722.09" y="-58.8" font-family="Times,serif" font-style="italic" font-size="14.00">submit transaction to withdraw funds</text>
</g>
</g>
</svg>
