<?xml version="1.0" encoding="UTF-8" standalone="no"?>
<!DOCTYPE svg PUBLIC "-//W3C//DTD SVG 1.1//EN"
 "http://www.w3.org/Graphics/SVG/1.1/DTD/svg11.dtd">
<!-- Generated by graphviz version 2.43.0 (0)
 -->
<!-- Title: %3 Pages: 1 -->
<svg width="1356pt" height="518pt"
 viewBox="0.00 0.00 1355.78 517.74" xmlns="http://www.w3.org/2000/svg" xmlns:xlink="http://www.w3.org/1999/xlink">
<g id="graph0" class="graph" transform="scale(1 1) rotate(0) translate(4 513.74)">
<title>%3</title>
<polygon fill="white" stroke="transparent" points="-4,4 -4,-513.74 1351.78,-513.74 1351.78,4 -4,4"/>
<!-- Network -->
<g id="node1" class="node">
<title>Network</title>
<ellipse fill="none" stroke="black" cx="69" cy="-482.87" rx="60.21" ry="26.74"/>
<text text-anchor="middle" x="69" y="-486.67" font-family="Times-Roman" font-size="14.00">Mainnet</text>
<text text-anchor="middle" x="69" y="-471.67" font-family="Times-Roman" font-size="14.00">or Testnet</text>
</g>
<!-- AddressCommand -->
<g id="node4" class="node">
<title>AddressCommand</title>
<polygon fill="none" stroke="black" points="470.5,-434.87 297.5,-434.87 297.5,-398.87 470.5,-398.87 470.5,-434.87"/>
<text text-anchor="middle" x="384" y="-413.17" font-family="monospace" font-size="14.00">marlowe&#45;cli address</text>
</g>
<!-- Network&#45;&gt;AddressCommand -->
<g id="edge1" class="edge">
<title>Network&#45;&gt;AddressCommand</title>
<path fill="none" stroke="black" stroke-dasharray="5,2" d="M129.21,-480.52C169.63,-477.91 224.13,-472.42 271,-460.87 292.62,-455.54 315.64,-447.03 335.16,-438.9"/>
<polygon fill="black" stroke="black" points="336.6,-442.09 344.44,-434.96 333.87,-435.65 336.6,-442.09"/>
<text text-anchor="middle" x="213.5" y="-480.87" font-family="monospace" font-size="10.00">&#45;&#45;testnet&#45;magic</text>
</g>
<!-- ValidatorCommand -->
<g id="node6" class="node">
<title>ValidatorCommand</title>
<polygon fill="none" stroke="black" points="479,-374.87 289,-374.87 289,-338.87 479,-338.87 479,-374.87"/>
<text text-anchor="middle" x="384" y="-353.17" font-family="monospace" font-size="14.00">marlowe&#45;cli validator</text>
</g>
<!-- Network&#45;&gt;ValidatorCommand -->
<g id="edge5" class="edge">
<title>Network&#45;&gt;ValidatorCommand</title>
<path fill="none" stroke="black" stroke-dasharray="5,2" d="M123.06,-471.07C178.67,-458.31 259.55,-438.52 271,-428.87 285.6,-416.57 274.88,-402.71 289,-389.87 293.08,-386.16 297.6,-382.86 302.39,-379.93"/>
<polygon fill="black" stroke="black" points="304.19,-382.94 311.26,-375.05 300.81,-376.81 304.19,-382.94"/>
</g>
<!-- StakeAddress -->
<g id="node2" class="node">
<title>StakeAddress</title>
<ellipse fill="none" stroke="black" cx="69" cy="-410.87" rx="50.82" ry="26.74"/>
<text text-anchor="middle" x="69" y="-414.67" font-family="Times-Roman" font-size="14.00">Stake</text>
<text text-anchor="middle" x="69" y="-399.67" font-family="Times-Roman" font-size="14.00">Address</text>
</g>
<!-- StakeAddress&#45;&gt;AddressCommand -->
<g id="edge2" class="edge">
<title>StakeAddress&#45;&gt;AddressCommand</title>
<path fill="none" stroke="black" stroke-dasharray="5,2" d="M119.94,-411.83C164.79,-412.69 231.86,-413.97 287.06,-415.03"/>
<polygon fill="black" stroke="black" points="287.15,-418.53 297.22,-415.23 287.28,-411.53 287.15,-418.53"/>
<text text-anchor="middle" x="213.5" y="-416.87" font-family="monospace" font-size="10.00">&#45;&#45;stake&#45;address</text>
</g>
<!-- StakeAddress&#45;&gt;ValidatorCommand -->
<g id="edge6" class="edge">
<title>StakeAddress&#45;&gt;ValidatorCommand</title>
<path fill="none" stroke="black" stroke-dasharray="5,2" d="M104.46,-391.24C119.76,-383.48 138.28,-375.37 156,-370.87 195.26,-360.91 239.51,-356.68 278.44,-355.2"/>
<polygon fill="black" stroke="black" points="278.86,-358.68 288.74,-354.86 278.63,-351.69 278.86,-358.68"/>
</g>
<!-- RolesCurrency -->
<g id="node3" class="node">
<title>RolesCurrency</title>
<ellipse fill="none" stroke="black" cx="69" cy="-338.87" rx="55.72" ry="26.74"/>
<text text-anchor="middle" x="69" y="-342.67" font-family="Times-Roman" font-size="14.00">Currency</text>
<text text-anchor="middle" x="69" y="-327.67" font-family="Times-Roman" font-size="14.00">for Roles</text>
</g>
<!-- RolesCurrency&#45;&gt;AddressCommand -->
<g id="edge3" class="edge">
<title>RolesCurrency&#45;&gt;AddressCommand</title>
<path fill="none" stroke="black" stroke-dasharray="5,2" d="M118.91,-351.06C167.5,-363.17 242.93,-381.96 300.75,-396.37"/>
<polygon fill="black" stroke="black" points="300.05,-399.81 310.6,-398.83 301.74,-393.01 300.05,-399.81"/>
<text text-anchor="middle" x="213.5" y="-389.87" font-family="monospace" font-size="10.00">&#45;&#45;roles&#45;currency</text>
</g>
<!-- RolesCurrency&#45;&gt;ValidatorCommand -->
<g id="edge7" class="edge">
<title>RolesCurrency&#45;&gt;ValidatorCommand</title>
<path fill="none" stroke="black" stroke-dasharray="5,2" d="M125.07,-339.85C165.49,-340.8 221.7,-342.59 271,-345.87 273.56,-346.04 276.15,-346.22 278.76,-346.41"/>
<polygon fill="black" stroke="black" points="278.69,-349.92 288.93,-347.2 279.23,-342.94 278.69,-349.92"/>
</g>
<!-- ValidatorAddress -->
<g id="node5" class="node">
<title>ValidatorAddress</title>
<ellipse fill="none" stroke="black" cx="670.39" cy="-400.87" rx="54.39" ry="26.74"/>
<text text-anchor="middle" x="670.39" y="-404.67" font-family="Times-Roman" font-size="14.00">Validator</text>
<text text-anchor="middle" x="670.39" y="-389.67" font-family="Times-Roman" font-size="14.00">Address</text>
</g>
<!-- AddressCommand&#45;&gt;ValidatorAddress -->
<g id="edge4" class="edge">
<title>AddressCommand&#45;&gt;ValidatorAddress</title>
<path fill="none" stroke="black" d="M470.71,-412.05C514.19,-409.6 566.09,-406.68 605.93,-404.44"/>
<polygon fill="black" stroke="black" points="606.26,-407.93 616.05,-403.87 605.87,-400.94 606.26,-407.93"/>
<text text-anchor="middle" x="530.5" y="-412.87" font-family="monospace" font-size="10.00">/dev/stdout</text>
</g>
<!-- CardanoCLI -->
<g id="node18" class="node">
<title>CardanoCLI</title>
<polygon fill="none" stroke="black" points="1177.78,-298.87 921.78,-298.87 921.78,-262.87 1177.78,-262.87 1177.78,-298.87"/>
<text text-anchor="middle" x="1049.78" y="-277.17" font-family="monospace" font-size="14.00">cardano&#45;cli transaction build</text>
</g>
<!-- ValidatorAddress&#45;&gt;CardanoCLI -->
<g id="edge18" class="edge">
<title>ValidatorAddress&#45;&gt;CardanoCLI</title>
<path fill="none" stroke="black" d="M718.9,-388.57C766.11,-376.06 840.41,-355.63 903.78,-334.87 933.67,-325.07 966.56,-312.94 993.45,-302.66"/>
<polygon fill="black" stroke="black" points="994.99,-305.81 1003.07,-298.96 992.48,-299.28 994.99,-305.81"/>
<text text-anchor="middle" x="840.28" y="-374.87" font-family="monospace" font-size="10.00">&#45;&#45;tx&#45;out</text>
</g>
<!-- ValidatorCommand&#45;&gt;ValidatorAddress -->
<g id="edge8" class="edge">
<title>ValidatorCommand&#45;&gt;ValidatorAddress</title>
<path fill="none" stroke="black" d="M479.3,-371.46C521.57,-378 570.23,-385.53 607.74,-391.33"/>
<polygon fill="black" stroke="black" points="607.59,-394.85 618,-392.92 608.66,-387.93 607.59,-394.85"/>
<text text-anchor="middle" x="530.5" y="-386.87" font-family="monospace" font-size="10.00">/dev/stdout</text>
</g>
<!-- ValidatorFile -->
<g id="node7" class="node">
<title>ValidatorFile</title>
<polygon fill="none" stroke="black" points="740.39,-355.87 612.39,-355.87 612.39,-359.87 600.39,-359.87 600.39,-317.87 740.39,-317.87 740.39,-355.87"/>
<polyline fill="none" stroke="black" points="600.39,-355.87 612.39,-355.87 "/>
<text text-anchor="middle" x="670.39" y="-340.67" font-family="Times-Roman" font-size="14.00">Marlowe Validator</text>
<text text-anchor="middle" x="670.39" y="-325.67" font-family="Times-Roman" font-size="14.00">Plutus File</text>
</g>
<!-- ValidatorCommand&#45;&gt;ValidatorFile -->
<g id="edge9" class="edge">
<title>ValidatorCommand&#45;&gt;ValidatorFile</title>
<path fill="none" stroke="black" d="M479.06,-345.43C485.12,-344.86 491.15,-344.33 497,-343.87 527.32,-341.5 560.7,-339.91 589.95,-338.85"/>
<polygon fill="black" stroke="black" points="590.24,-342.34 600.12,-338.5 590,-335.35 590.24,-342.34"/>
<text text-anchor="middle" x="530.5" y="-346.87" font-family="monospace" font-size="10.00">&#45;&#45;out&#45;file</text>
</g>
<!-- ValidatorFile&#45;&gt;CardanoCLI -->
<g id="edge19" class="edge">
<title>ValidatorFile&#45;&gt;CardanoCLI</title>
<path fill="none" stroke="black" d="M740.61,-326.6C789.89,-319.29 857.64,-309.23 917.07,-300.41"/>
<polygon fill="black" stroke="black" points="917.92,-303.83 927.3,-298.9 916.89,-296.9 917.92,-303.83"/>
<text text-anchor="middle" x="840.28" y="-322.87" font-family="monospace" font-size="10.00">&#45;&#45;tx&#45;in&#45;script&#45;file</text>
</g>
<!-- ContractFile -->
<g id="node8" class="node">
<title>ContractFile</title>
<polygon fill="none" stroke="black" points="138,-237.87 12,-237.87 12,-241.87 0,-241.87 0,-199.87 138,-199.87 138,-237.87"/>
<polyline fill="none" stroke="black" points="0,-237.87 12,-237.87 "/>
<text text-anchor="middle" x="69" y="-222.67" font-family="Times-Roman" font-size="14.00">Marlowe Contract</text>
<text text-anchor="middle" x="69" y="-207.67" font-family="Times-Roman" font-size="14.00">JSON File</text>
</g>
<!-- DatumCommand -->
<g id="node10" class="node">
<title>DatumCommand</title>
<polygon fill="none" stroke="black" points="462.5,-239.87 305.5,-239.87 305.5,-203.87 462.5,-203.87 462.5,-239.87"/>
<text text-anchor="middle" x="384" y="-218.17" font-family="monospace" font-size="14.00">marlowe&#45;cli datum</text>
</g>
<!-- ContractFile&#45;&gt;DatumCommand -->
<g id="edge10" class="edge">
<title>ContractFile&#45;&gt;DatumCommand</title>
<path fill="none" stroke="black" d="M138.3,-219.52C184.41,-219.97 245.69,-220.55 295.39,-221.03"/>
<polygon fill="black" stroke="black" points="295.45,-224.53 305.48,-221.13 295.52,-217.53 295.45,-224.53"/>
<text text-anchor="middle" x="213.5" y="-222.87" font-family="monospace" font-size="10.00">&#45;&#45;contract&#45;file</text>
</g>
<!-- StateFile -->
<g id="node9" class="node">
<title>StateFile</title>
<polygon fill="none" stroke="black" points="126.5,-293.87 23.5,-293.87 23.5,-297.87 11.5,-297.87 11.5,-255.87 126.5,-255.87 126.5,-293.87"/>
<polyline fill="none" stroke="black" points="11.5,-293.87 23.5,-293.87 "/>
<text text-anchor="middle" x="69" y="-278.67" font-family="Times-Roman" font-size="14.00">Marlowe State</text>
<text text-anchor="middle" x="69" y="-263.67" font-family="Times-Roman" font-size="14.00">JSON File</text>
</g>
<!-- StateFile&#45;&gt;DatumCommand -->
<g id="edge11" class="edge">
<title>StateFile&#45;&gt;DatumCommand</title>
<path fill="none" stroke="black" d="M126.68,-265.27C173.7,-257.31 241.35,-245.86 295.34,-236.71"/>
<polygon fill="black" stroke="black" points="295.98,-240.16 305.25,-235.03 294.81,-233.25 295.98,-240.16"/>
<text text-anchor="middle" x="213.5" y="-261.87" font-family="monospace" font-size="10.00">&#45;&#45;state&#45;file</text>
</g>
<!-- DatumFile -->
<g id="node11" class="node">
<title>DatumFile</title>
<polygon fill="none" stroke="black" points="732.89,-299.87 619.89,-299.87 619.89,-303.87 607.89,-303.87 607.89,-261.87 732.89,-261.87 732.89,-299.87"/>
<polyline fill="none" stroke="black" points="607.89,-299.87 619.89,-299.87 "/>
<text text-anchor="middle" x="670.39" y="-284.67" font-family="Times-Roman" font-size="14.00">Marlowe Datum</text>
<text text-anchor="middle" x="670.39" y="-269.67" font-family="Times-Roman" font-size="14.00">JSON File</text>
</g>
<!-- DatumCommand&#45;&gt;DatumFile -->
<g id="edge12" class="edge">
<title>DatumCommand&#45;&gt;DatumFile</title>
<path fill="none" stroke="black" d="M462.71,-237.99C504.8,-246.72 556.44,-257.44 597.58,-265.97"/>
<polygon fill="black" stroke="black" points="597.02,-269.43 607.53,-268.04 598.45,-262.58 597.02,-269.43"/>
<text text-anchor="middle" x="530.5" y="-260.87" font-family="monospace" font-size="10.00">&#45;&#45;out&#45;file</text>
</g>
<!-- DatumHash -->
<g id="node12" class="node">
<title>DatumHash</title>
<ellipse fill="none" stroke="black" cx="670.39" cy="-216.87" rx="88.28" ry="26.74"/>
<text text-anchor="middle" x="670.39" y="-220.67" font-family="Times-Roman" font-size="14.00">Marlowe Datum</text>
<text text-anchor="middle" x="670.39" y="-205.67" font-family="Times-Roman" font-size="14.00">Hash</text>
</g>
<!-- DatumCommand&#45;&gt;DatumHash -->
<g id="edge13" class="edge">
<title>DatumCommand&#45;&gt;DatumHash</title>
<path fill="none" stroke="black" d="M462.71,-220.5C496.31,-219.91 536.01,-219.22 571.59,-218.59"/>
<polygon fill="black" stroke="black" points="572.06,-222.08 582,-218.41 571.94,-215.08 572.06,-222.08"/>
<text text-anchor="middle" x="530.5" y="-221.87" font-family="monospace" font-size="10.00">/dev/stdout</text>
</g>
<!-- DatumFile&#45;&gt;CardanoCLI -->
<g id="edge20" class="edge">
<title>DatumFile&#45;&gt;CardanoCLI</title>
<path fill="none" stroke="black" d="M733.28,-280.87C781.52,-280.87 850.32,-280.87 911.38,-280.87"/>
<polygon fill="black" stroke="black" points="911.49,-284.37 921.49,-280.87 911.49,-277.37 911.49,-284.37"/>
<text text-anchor="middle" x="840.28" y="-283.87" font-family="monospace" font-size="10.00">&#45;&#45;tx&#45;in&#45;datum&#45;file</text>
</g>
<!-- DatumHash&#45;&gt;CardanoCLI -->
<g id="edge22" class="edge">
<title>DatumHash&#45;&gt;CardanoCLI</title>
<path fill="none" stroke="black" d="M748.21,-229.9C801.19,-238.88 872.58,-250.99 932.49,-261.15"/>
<polygon fill="black" stroke="black" points="931.94,-264.61 942.38,-262.83 933.11,-257.7 931.94,-264.61"/>
<text text-anchor="middle" x="840.28" y="-256.87" font-family="monospace" font-size="10.00">&#45;&#45;tx&#45;out&#45;datum&#45;hash</text>
</g>
<!-- InputsFile -->
<g id="node13" class="node">
<title>InputsFile</title>
<polygon fill="none" stroke="black" points="130.5,-181.87 19.5,-181.87 19.5,-185.87 7.5,-185.87 7.5,-143.87 130.5,-143.87 130.5,-181.87"/>
<polyline fill="none" stroke="black" points="7.5,-181.87 19.5,-181.87 "/>
<text text-anchor="middle" x="69" y="-166.67" font-family="Times-Roman" font-size="14.00">Marlowe Inputs</text>
<text text-anchor="middle" x="69" y="-151.67" font-family="Times-Roman" font-size="14.00">JSON File</text>
</g>
<!-- RedeemerCommand -->
<g id="node16" class="node">
<title>RedeemerCommand</title>
<polygon fill="none" stroke="black" points="475,-123.87 293,-123.87 293,-87.87 475,-87.87 475,-123.87"/>
<text text-anchor="middle" x="384" y="-102.17" font-family="monospace" font-size="14.00">marlowe&#45;cli redeemer</text>
</g>
<!-- InputsFile&#45;&gt;RedeemerCommand -->
<g id="edge14" class="edge">
<title>InputsFile&#45;&gt;RedeemerCommand</title>
<path fill="none" stroke="black" stroke-dasharray="5,2" d="M130.72,-151.81C173.89,-143.95 232.85,-133.21 282.92,-124.1"/>
<polygon fill="black" stroke="black" points="283.6,-127.53 292.81,-122.3 282.34,-120.64 283.6,-127.53"/>
<text text-anchor="middle" x="213.5" y="-148.87" font-family="monospace" font-size="10.00">&#45;&#45;inputs&#45;file</text>
</g>
<!-- MinSlot -->
<g id="node14" class="node">
<title>MinSlot</title>
<ellipse fill="none" stroke="black" cx="69" cy="-98.87" rx="57.05" ry="26.74"/>
<text text-anchor="middle" x="69" y="-102.67" font-family="Times-Roman" font-size="14.00">Minimum</text>
<text text-anchor="middle" x="69" y="-87.67" font-family="Times-Roman" font-size="14.00">Slot</text>
</g>
<!-- MinSlot&#45;&gt;RedeemerCommand -->
<g id="edge15" class="edge">
<title>MinSlot&#45;&gt;RedeemerCommand</title>
<path fill="none" stroke="black" d="M126.32,-100.13C169.72,-101.1 230.84,-102.47 282.56,-103.62"/>
<polygon fill="black" stroke="black" points="282.69,-107.13 292.77,-103.85 282.85,-100.13 282.69,-107.13"/>
<text text-anchor="middle" x="213.5" y="-105.87" font-family="monospace" font-size="10.00">&#45;&#45;redeemer&#45;min&#45;slot</text>
</g>
<!-- MaxSlot -->
<g id="node15" class="node">
<title>MaxSlot</title>
<ellipse fill="none" stroke="black" cx="69" cy="-26.87" rx="60.21" ry="26.74"/>
<text text-anchor="middle" x="69" y="-30.67" font-family="Times-Roman" font-size="14.00">Maximum</text>
<text text-anchor="middle" x="69" y="-15.67" font-family="Times-Roman" font-size="14.00">Slot</text>
</g>
<!-- MaxSlot&#45;&gt;RedeemerCommand -->
<g id="edge16" class="edge">
<title>MaxSlot&#45;&gt;RedeemerCommand</title>
<path fill="none" stroke="black" d="M121.69,-39.92C170.58,-52.26 244.74,-70.97 301.58,-85.32"/>
<polygon fill="black" stroke="black" points="301.07,-88.8 311.62,-87.85 302.78,-82.01 301.07,-88.8"/>
<text text-anchor="middle" x="213.5" y="-77.87" font-family="monospace" font-size="10.00">&#45;&#45;redeemer&#45;max&#45;slot</text>
</g>
<!-- RedeemerFile -->
<g id="node17" class="node">
<title>RedeemerFile</title>
<polygon fill="none" stroke="black" points="744.89,-157.87 607.89,-157.87 607.89,-161.87 595.89,-161.87 595.89,-119.87 744.89,-119.87 744.89,-157.87"/>
<polyline fill="none" stroke="black" points="595.89,-157.87 607.89,-157.87 "/>
<text text-anchor="middle" x="670.39" y="-142.67" font-family="Times-Roman" font-size="14.00">Marlowe Redeemer</text>
<text text-anchor="middle" x="670.39" y="-127.67" font-family="Times-Roman" font-size="14.00">JSON File</text>
</g>
<!-- RedeemerCommand&#45;&gt;RedeemerFile -->
<g id="edge17" class="edge">
<title>RedeemerCommand&#45;&gt;RedeemerFile</title>
<path fill="none" stroke="black" d="M475.37,-116.36C510.75,-120.46 551.09,-125.14 585.79,-129.17"/>
<polygon fill="black" stroke="black" points="585.55,-132.66 595.89,-130.34 586.36,-125.71 585.55,-132.66"/>
<text text-anchor="middle" x="530.5" y="-128.87" font-family="monospace" font-size="10.00">&#45;&#45;out&#45;file</text>
</g>
<!-- RedeemerFile&#45;&gt;CardanoCLI -->
<g id="edge21" class="edge">
<title>RedeemerFile&#45;&gt;CardanoCLI</title>
<path fill="none" stroke="black" d="M729.53,-158.01C776.76,-173.82 844.95,-197.27 903.78,-219.87 935.48,-232.05 970.59,-246.79 998.32,-258.73"/>
<polygon fill="black" stroke="black" points="997.24,-262.07 1007.81,-262.82 1000.01,-255.64 997.24,-262.07"/>
<text text-anchor="middle" x="840.28" y="-222.87" font-family="monospace" font-size="10.00">&#45;&#45;tx&#45;in&#45;redeemer&#45;file</text>
</g>
<!-- TxBodyFile -->
<g id="node19" class="node">
<title>TxBodyFile</title>
<polygon fill="none" stroke="black" points="1347.78,-299.87 1286.78,-299.87 1286.78,-303.87 1274.78,-303.87 1274.78,-261.87 1347.78,-261.87 1347.78,-299.87"/>
<polyline fill="none" stroke="black" points="1274.78,-299.87 1286.78,-299.87 "/>
<text text-anchor="middle" x="1311.28" y="-284.67" font-family="Times-Roman" font-size="14.00">Tx Body</text>
<text text-anchor="middle" x="1311.28" y="-269.67" font-family="Times-Roman" font-size="14.00">File</text>
</g>
<!-- CardanoCLI&#45;&gt;TxBodyFile -->
<g id="edge23" class="edge">
<title>CardanoCLI&#45;&gt;TxBodyFile</title>
<path fill="none" stroke="black" d="M1177.87,-280.87C1208.85,-280.87 1240.04,-280.87 1264.36,-280.87"/>
<polygon fill="black" stroke="black" points="1264.68,-284.37 1274.68,-280.87 1264.68,-277.37 1264.68,-284.37"/>
<text text-anchor="middle" x="1226.28" y="-283.87" font-family="monospace" font-size="10.00">&#45;&#45;out&#45;file</text>
</g>
</g>
</svg>
