<?xml version="1.0" encoding="UTF-8" standalone="no"?>
<!DOCTYPE svg PUBLIC "-//W3C//DTD SVG 1.1//EN"
 "http://www.w3.org/Graphics/SVG/1.1/DTD/svg11.dtd">
<!-- Generated by graphviz version 2.43.0 (0)
 -->
<!-- Title: %3 Pages: 1 -->
<svg width="1367pt" height="444pt"
 viewBox="0.00 0.00 1367.26 443.74" xmlns="http://www.w3.org/2000/svg" xmlns:xlink="http://www.w3.org/1999/xlink">
<g id="graph0" class="graph" transform="scale(1 1) rotate(0) translate(4 439.74)">
<title>%3</title>
<polygon fill="white" stroke="transparent" points="-4,4 -4,-439.74 1363.26,-439.74 1363.26,4 -4,4"/>
<!-- Network -->
<g id="node1" class="node">
<title>Network</title>
<ellipse fill="none" stroke="black" cx="74.74" cy="-408.87" rx="60.21" ry="26.74"/>
<text text-anchor="middle" x="74.74" y="-412.67" font-family="Times-Roman" font-size="14.00">Mainnet</text>
<text text-anchor="middle" x="74.74" y="-397.67" font-family="Times-Roman" font-size="14.00">or Testnet</text>
</g>
<!-- AddressCommand -->
<g id="node4" class="node">
<title>AddressCommand</title>
<polygon fill="none" stroke="black" points="481.99,-310.87 308.99,-310.87 308.99,-274.87 481.99,-274.87 481.99,-310.87"/>
<text text-anchor="middle" x="395.49" y="-289.17" font-family="monospace" font-size="14.00">marlowe&#45;cli address</text>
</g>
<!-- Network&#45;&gt;AddressCommand -->
<g id="edge1" class="edge">
<title>Network&#45;&gt;AddressCommand</title>
<path fill="none" stroke="black" stroke-dasharray="5,2" d="M125.49,-394.25C184.5,-376.8 275.78,-349.39 282.49,-344.87 292.97,-337.81 290.04,-329.97 300.49,-322.87 304.52,-320.13 308.83,-317.62 313.29,-315.33"/>
<polygon fill="black" stroke="black" points="315.07,-318.37 322.63,-310.95 312.09,-312.03 315.07,-318.37"/>
<text text-anchor="middle" x="224.99" y="-383.87" font-family="monospace" font-size="10.00">&#45;&#45;testnet&#45;magic</text>
</g>
<!-- ValidatorCommand -->
<g id="node6" class="node">
<title>ValidatorCommand</title>
<polygon fill="none" stroke="black" points="490.49,-367.87 300.49,-367.87 300.49,-331.87 490.49,-331.87 490.49,-367.87"/>
<text text-anchor="middle" x="395.49" y="-346.17" font-family="monospace" font-size="14.00">marlowe&#45;cli validator</text>
</g>
<!-- Network&#45;&gt;ValidatorCommand -->
<g id="edge5" class="edge">
<title>Network&#45;&gt;ValidatorCommand</title>
<path fill="none" stroke="black" stroke-dasharray="5,2" d="M134.83,-409.76C176.57,-409.21 233.56,-406.06 282.49,-394.87 305.06,-389.71 329.01,-380.62 348.95,-371.95"/>
<polygon fill="black" stroke="black" points="350.38,-375.15 358.1,-367.89 347.54,-368.75 350.38,-375.15"/>
</g>
<!-- StakeAddress -->
<g id="node2" class="node">
<title>StakeAddress</title>
<ellipse fill="none" stroke="black" cx="74.74" cy="-345.87" rx="74.99" ry="18"/>
<text text-anchor="middle" x="74.74" y="-342.17" font-family="Times-Roman" font-size="14.00">Stake Address</text>
</g>
<!-- StakeAddress&#45;&gt;AddressCommand -->
<g id="edge2" class="edge">
<title>StakeAddress&#45;&gt;AddressCommand</title>
<path fill="none" stroke="black" stroke-dasharray="5,2" d="M136.82,-335.71C182.68,-328.09 246.34,-317.5 298.91,-308.76"/>
<polygon fill="black" stroke="black" points="299.63,-312.19 308.92,-307.1 298.48,-305.29 299.63,-312.19"/>
<text text-anchor="middle" x="224.99" y="-332.87" font-family="monospace" font-size="10.00">&#45;&#45;stake&#45;address</text>
</g>
<!-- StakeAddress&#45;&gt;ValidatorCommand -->
<g id="edge6" class="edge">
<title>StakeAddress&#45;&gt;ValidatorCommand</title>
<path fill="none" stroke="black" stroke-dasharray="5,2" d="M149.67,-346.8C191.39,-347.32 244.2,-347.98 290.08,-348.56"/>
<polygon fill="black" stroke="black" points="290.32,-352.06 300.36,-348.69 290.41,-345.06 290.32,-352.06"/>
</g>
<!-- RolesCurrency -->
<g id="node3" class="node">
<title>RolesCurrency</title>
<ellipse fill="none" stroke="black" cx="74.74" cy="-282.87" rx="55.72" ry="26.74"/>
<text text-anchor="middle" x="74.74" y="-286.67" font-family="Times-Roman" font-size="14.00">Currency</text>
<text text-anchor="middle" x="74.74" y="-271.67" font-family="Times-Roman" font-size="14.00">for Roles</text>
</g>
<!-- RolesCurrency&#45;&gt;AddressCommand -->
<g id="edge3" class="edge">
<title>RolesCurrency&#45;&gt;AddressCommand</title>
<path fill="none" stroke="black" stroke-dasharray="5,2" d="M125.99,-271.85C139.4,-269.37 153.94,-267.11 167.49,-265.87 218.38,-261.19 231.73,-259.84 282.49,-265.87 295.02,-267.36 308.19,-269.76 320.91,-272.52"/>
<polygon fill="black" stroke="black" points="320.47,-276.01 330.99,-274.81 322.02,-269.18 320.47,-276.01"/>
<text text-anchor="middle" x="224.99" y="-268.87" font-family="monospace" font-size="10.00">&#45;&#45;roles&#45;currency</text>
</g>
<!-- RolesCurrency&#45;&gt;ValidatorCommand -->
<g id="edge7" class="edge">
<title>RolesCurrency&#45;&gt;ValidatorCommand</title>
<path fill="none" stroke="black" stroke-dasharray="5,2" d="M121.17,-297.97C135.84,-302.52 152.26,-307.25 167.49,-310.87 207.22,-320.31 251.37,-328.42 290.1,-334.77"/>
<polygon fill="black" stroke="black" points="289.92,-338.28 300.35,-336.42 291.04,-331.37 289.92,-338.28"/>
</g>
<!-- ValidatorAddress -->
<g id="node5" class="node">
<title>ValidatorAddress</title>
<ellipse fill="none" stroke="black" cx="681.88" cy="-290.87" rx="54.39" ry="26.74"/>
<text text-anchor="middle" x="681.88" y="-294.67" font-family="Times-Roman" font-size="14.00">Validator</text>
<text text-anchor="middle" x="681.88" y="-279.67" font-family="Times-Roman" font-size="14.00">Address</text>
</g>
<!-- AddressCommand&#45;&gt;ValidatorAddress -->
<g id="edge4" class="edge">
<title>AddressCommand&#45;&gt;ValidatorAddress</title>
<path fill="none" stroke="black" d="M482.09,-291.18C491.01,-291.06 499.93,-290.95 508.49,-290.87 544.4,-290.55 584.53,-290.53 617.03,-290.6"/>
<polygon fill="black" stroke="black" points="617.29,-294.1 627.29,-290.62 617.3,-287.1 617.29,-294.1"/>
<text text-anchor="middle" x="541.99" y="-293.87" font-family="monospace" font-size="10.00">/dev/stdout</text>
</g>
<!-- CardanoCLI -->
<g id="node17" class="node">
<title>CardanoCLI</title>
<polygon fill="none" stroke="black" points="1189.26,-244.87 933.26,-244.87 933.26,-208.87 1189.26,-208.87 1189.26,-244.87"/>
<text text-anchor="middle" x="1061.26" y="-223.17" font-family="monospace" font-size="14.00">cardano&#45;cli transaction build</text>
</g>
<!-- ValidatorAddress&#45;&gt;CardanoCLI -->
<g id="edge17" class="edge">
<title>ValidatorAddress&#45;&gt;CardanoCLI</title>
<path fill="none" stroke="black" d="M733.77,-282.24C787.27,-273.17 873.27,-258.58 943.58,-246.66"/>
<polygon fill="black" stroke="black" points="944.56,-250.04 953.83,-244.92 943.39,-243.14 944.56,-250.04"/>
<text text-anchor="middle" x="851.76" y="-274.87" font-family="monospace" font-size="10.00">&#45;&#45;tx&#45;out</text>
</g>
<!-- ValidatorCommand&#45;&gt;ValidatorAddress -->
<g id="edge8" class="edge">
<title>ValidatorCommand&#45;&gt;ValidatorAddress</title>
<path fill="none" stroke="black" d="M483.36,-331.85C528.08,-322.57 581.46,-311.5 621.44,-303.2"/>
<polygon fill="black" stroke="black" points="622.22,-306.61 631.3,-301.15 620.8,-299.76 622.22,-306.61"/>
<text text-anchor="middle" x="541.99" y="-327.87" font-family="monospace" font-size="10.00">/dev/stdout</text>
</g>
<!-- ValidatorFile -->
<g id="node7" class="node">
<title>ValidatorFile</title>
<polygon fill="none" stroke="black" points="751.88,-375.87 623.88,-375.87 623.88,-379.87 611.88,-379.87 611.88,-337.87 751.88,-337.87 751.88,-375.87"/>
<polyline fill="none" stroke="black" points="611.88,-375.87 623.88,-375.87 "/>
<text text-anchor="middle" x="681.88" y="-360.67" font-family="Times-Roman" font-size="14.00">Marlowe Validator</text>
<text text-anchor="middle" x="681.88" y="-345.67" font-family="Times-Roman" font-size="14.00">Plutus File</text>
</g>
<!-- ValidatorCommand&#45;&gt;ValidatorFile -->
<g id="edge9" class="edge">
<title>ValidatorCommand&#45;&gt;ValidatorFile</title>
<path fill="none" stroke="black" d="M490.79,-352.19C526.54,-353.07 566.87,-354.06 601.15,-354.91"/>
<polygon fill="black" stroke="black" points="601.5,-358.42 611.58,-355.16 601.67,-351.42 601.5,-358.42"/>
<text text-anchor="middle" x="541.99" y="-356.87" font-family="monospace" font-size="10.00">&#45;&#45;out&#45;file</text>
</g>
<!-- ValidatorFile&#45;&gt;CardanoCLI -->
<g id="edge18" class="edge">
<title>ValidatorFile&#45;&gt;CardanoCLI</title>
<path fill="none" stroke="black" d="M752.1,-337.98C798.62,-324.8 861.09,-306.18 915.26,-286.87 947.29,-275.45 982.54,-260.91 1010.27,-249"/>
<polygon fill="black" stroke="black" points="1011.96,-252.09 1019.75,-244.91 1009.18,-245.66 1011.96,-252.09"/>
<text text-anchor="middle" x="851.76" y="-329.87" font-family="monospace" font-size="10.00">&#45;&#45;tx&#45;in&#45;script&#45;file</text>
</g>
<!-- ContractFile -->
<g id="node8" class="node">
<title>ContractFile</title>
<polygon fill="none" stroke="black" points="143.74,-237.87 17.74,-237.87 17.74,-241.87 5.74,-241.87 5.74,-199.87 143.74,-199.87 143.74,-237.87"/>
<polyline fill="none" stroke="black" points="5.74,-237.87 17.74,-237.87 "/>
<text text-anchor="middle" x="74.74" y="-222.67" font-family="Times-Roman" font-size="14.00">Marlowe Contract</text>
<text text-anchor="middle" x="74.74" y="-207.67" font-family="Times-Roman" font-size="14.00">JSON File</text>
</g>
<!-- DatumCommand -->
<g id="node10" class="node">
<title>DatumCommand</title>
<polygon fill="none" stroke="black" points="473.99,-204.87 316.99,-204.87 316.99,-168.87 473.99,-168.87 473.99,-204.87"/>
<text text-anchor="middle" x="395.49" y="-183.17" font-family="monospace" font-size="14.00">marlowe&#45;cli datum</text>
</g>
<!-- ContractFile&#45;&gt;DatumCommand -->
<g id="edge10" class="edge">
<title>ContractFile&#45;&gt;DatumCommand</title>
<path fill="none" stroke="black" d="M144.12,-212.01C191.71,-207.23 255.58,-200.82 306.89,-195.66"/>
<polygon fill="black" stroke="black" points="307.38,-199.13 316.98,-194.65 306.68,-192.17 307.38,-199.13"/>
<text text-anchor="middle" x="224.99" y="-211.87" font-family="monospace" font-size="10.00">&#45;&#45;contract&#45;file</text>
</g>
<!-- StateFile -->
<g id="node9" class="node">
<title>StateFile</title>
<polygon fill="none" stroke="black" points="132.24,-181.87 29.24,-181.87 29.24,-185.87 17.24,-185.87 17.24,-143.87 132.24,-143.87 132.24,-181.87"/>
<polyline fill="none" stroke="black" points="17.24,-181.87 29.24,-181.87 "/>
<text text-anchor="middle" x="74.74" y="-166.67" font-family="Times-Roman" font-size="14.00">Marlowe State</text>
<text text-anchor="middle" x="74.74" y="-151.67" font-family="Times-Roman" font-size="14.00">JSON File</text>
</g>
<!-- StateFile&#45;&gt;DatumCommand -->
<g id="edge11" class="edge">
<title>StateFile&#45;&gt;DatumCommand</title>
<path fill="none" stroke="black" d="M132.36,-167.13C180.7,-170.77 251.01,-176.07 306.65,-180.26"/>
<polygon fill="black" stroke="black" points="306.63,-183.76 316.86,-181.03 307.15,-176.78 306.63,-183.76"/>
<text text-anchor="middle" x="224.99" y="-180.87" font-family="monospace" font-size="10.00">&#45;&#45;state&#45;file</text>
</g>
<!-- DatumFile -->
<g id="node11" class="node">
<title>DatumFile</title>
<polygon fill="none" stroke="black" points="744.38,-245.87 631.38,-245.87 631.38,-249.87 619.38,-249.87 619.38,-207.87 744.38,-207.87 744.38,-245.87"/>
<polyline fill="none" stroke="black" points="619.38,-245.87 631.38,-245.87 "/>
<text text-anchor="middle" x="681.88" y="-230.67" font-family="Times-Roman" font-size="14.00">Marlowe Datum</text>
<text text-anchor="middle" x="681.88" y="-215.67" font-family="Times-Roman" font-size="14.00">JSON File</text>
</g>
<!-- DatumCommand&#45;&gt;DatumFile -->
<g id="edge12" class="edge">
<title>DatumCommand&#45;&gt;DatumFile</title>
<path fill="none" stroke="black" d="M474.2,-197.8C516.28,-203.72 567.93,-210.98 609.06,-216.77"/>
<polygon fill="black" stroke="black" points="608.62,-220.24 619.01,-218.17 609.6,-213.31 608.62,-220.24"/>
<text text-anchor="middle" x="541.99" y="-213.87" font-family="monospace" font-size="10.00">&#45;&#45;out&#45;file</text>
</g>
<!-- DatumHash -->
<g id="node12" class="node">
<title>DatumHash</title>
<ellipse fill="none" stroke="black" cx="681.88" cy="-162.87" rx="88.28" ry="26.74"/>
<text text-anchor="middle" x="681.88" y="-166.67" font-family="Times-Roman" font-size="14.00">Marlowe Datum</text>
<text text-anchor="middle" x="681.88" y="-151.67" font-family="Times-Roman" font-size="14.00">Hash</text>
</g>
<!-- DatumCommand&#45;&gt;DatumHash -->
<g id="edge13" class="edge">
<title>DatumCommand&#45;&gt;DatumHash</title>
<path fill="none" stroke="black" d="M474.2,-180.31C508.85,-177.39 549.98,-173.92 586.39,-170.84"/>
<polygon fill="black" stroke="black" points="586.85,-174.32 596.52,-169.99 586.26,-167.34 586.85,-174.32"/>
<text text-anchor="middle" x="541.99" y="-179.87" font-family="monospace" font-size="10.00">/dev/stdout</text>
</g>
<!-- DatumFile&#45;&gt;CardanoCLI -->
<g id="edge19" class="edge">
<title>DatumFile&#45;&gt;CardanoCLI</title>
<path fill="none" stroke="black" d="M744.77,-226.87C793,-226.87 861.81,-226.87 922.86,-226.87"/>
<polygon fill="black" stroke="black" points="922.98,-230.37 932.98,-226.87 922.98,-223.37 922.98,-230.37"/>
<text text-anchor="middle" x="851.76" y="-229.87" font-family="monospace" font-size="10.00">&#45;&#45;tx&#45;in&#45;datum&#45;file</text>
</g>
<!-- DatumHash&#45;&gt;CardanoCLI -->
<g id="edge21" class="edge">
<title>DatumHash&#45;&gt;CardanoCLI</title>
<path fill="none" stroke="black" d="M759.7,-175.9C812.68,-184.88 884.07,-196.99 943.98,-207.15"/>
<polygon fill="black" stroke="black" points="943.42,-210.61 953.87,-208.83 944.59,-203.7 943.42,-210.61"/>
<text text-anchor="middle" x="851.76" y="-202.87" font-family="monospace" font-size="10.00">&#45;&#45;tx&#45;out&#45;datum&#45;hash</text>
</g>
<!-- MinSlot -->
<g id="node13" class="node">
<title>MinSlot</title>
<ellipse fill="none" stroke="black" cx="74.74" cy="-98.87" rx="57.05" ry="26.74"/>
<text text-anchor="middle" x="74.74" y="-102.67" font-family="Times-Roman" font-size="14.00">Minimum</text>
<text text-anchor="middle" x="74.74" y="-87.67" font-family="Times-Roman" font-size="14.00">Slot</text>
</g>
<!-- RedeemerCommand -->
<g id="node15" class="node">
<title>RedeemerCommand</title>
<polygon fill="none" stroke="black" points="486.49,-116.87 304.49,-116.87 304.49,-80.87 486.49,-80.87 486.49,-116.87"/>
<text text-anchor="middle" x="395.49" y="-95.17" font-family="monospace" font-size="14.00">marlowe&#45;cli redeemer</text>
</g>
<!-- MinSlot&#45;&gt;RedeemerCommand -->
<g id="edge14" class="edge">
<title>MinSlot&#45;&gt;RedeemerCommand</title>
<path fill="none" stroke="black" d="M132.36,-98.87C177.15,-98.87 240.81,-98.87 294.18,-98.87"/>
<polygon fill="black" stroke="black" points="294.37,-102.37 304.37,-98.87 294.37,-95.37 294.37,-102.37"/>
<text text-anchor="middle" x="224.99" y="-101.87" font-family="monospace" font-size="10.00">&#45;&#45;redeemer&#45;min&#45;slot</text>
</g>
<!-- MaxSlot -->
<g id="node14" class="node">
<title>MaxSlot</title>
<ellipse fill="none" stroke="black" cx="74.74" cy="-26.87" rx="60.21" ry="26.74"/>
<text text-anchor="middle" x="74.74" y="-30.67" font-family="Times-Roman" font-size="14.00">Maximum</text>
<text text-anchor="middle" x="74.74" y="-15.67" font-family="Times-Roman" font-size="14.00">Slot</text>
</g>
<!-- MaxSlot&#45;&gt;RedeemerCommand -->
<g id="edge15" class="edge">
<title>MaxSlot&#45;&gt;RedeemerCommand</title>
<path fill="none" stroke="black" d="M128.74,-38.84C176.58,-49.65 247.96,-65.77 304.71,-78.59"/>
<polygon fill="black" stroke="black" points="304.23,-82.07 314.76,-80.86 305.78,-75.24 304.23,-82.07"/>
<text text-anchor="middle" x="224.99" y="-75.87" font-family="monospace" font-size="10.00">&#45;&#45;redeemer&#45;max&#45;slot</text>
</g>
<!-- RedeemerFile -->
<g id="node16" class="node">
<title>RedeemerFile</title>
<polygon fill="none" stroke="black" points="756.38,-117.87 619.38,-117.87 619.38,-121.87 607.38,-121.87 607.38,-79.87 756.38,-79.87 756.38,-117.87"/>
<polyline fill="none" stroke="black" points="607.38,-117.87 619.38,-117.87 "/>
<text text-anchor="middle" x="681.88" y="-102.67" font-family="Times-Roman" font-size="14.00">Marlowe Redeemer</text>
<text text-anchor="middle" x="681.88" y="-87.67" font-family="Times-Roman" font-size="14.00">JSON File</text>
</g>
<!-- RedeemerCommand&#45;&gt;RedeemerFile -->
<g id="edge16" class="edge">
<title>RedeemerCommand&#45;&gt;RedeemerFile</title>
<path fill="none" stroke="black" d="M486.86,-98.87C522.24,-98.87 562.58,-98.87 597.27,-98.87"/>
<polygon fill="black" stroke="black" points="597.37,-102.37 607.37,-98.87 597.37,-95.37 597.37,-102.37"/>
<text text-anchor="middle" x="541.99" y="-101.87" font-family="monospace" font-size="10.00">&#45;&#45;out&#45;file</text>
</g>
<!-- RedeemerFile&#45;&gt;CardanoCLI -->
<g id="edge20" class="edge">
<title>RedeemerFile&#45;&gt;CardanoCLI</title>
<path fill="none" stroke="black" d="M756.58,-117.74C802.62,-130.11 862.9,-147.38 915.26,-165.87 947.74,-177.34 983.42,-192.31 1011.25,-204.56"/>
<polygon fill="black" stroke="black" points="1010.19,-207.92 1020.75,-208.76 1013.03,-201.51 1010.19,-207.92"/>
<text text-anchor="middle" x="851.76" y="-168.87" font-family="monospace" font-size="10.00">&#45;&#45;tx&#45;in&#45;redeemer&#45;file</text>
</g>
<!-- TxBodyFile -->
<g id="node18" class="node">
<title>TxBodyFile</title>
<polygon fill="none" stroke="black" points="1359.26,-245.87 1298.26,-245.87 1298.26,-249.87 1286.26,-249.87 1286.26,-207.87 1359.26,-207.87 1359.26,-245.87"/>
<polyline fill="none" stroke="black" points="1286.26,-245.87 1298.26,-245.87 "/>
<text text-anchor="middle" x="1322.76" y="-230.67" font-family="Times-Roman" font-size="14.00">Tx Body</text>
<text text-anchor="middle" x="1322.76" y="-215.67" font-family="Times-Roman" font-size="14.00">File</text>
</g>
<!-- CardanoCLI&#45;&gt;TxBodyFile -->
<g id="edge22" class="edge">
<title>CardanoCLI&#45;&gt;TxBodyFile</title>
<path fill="none" stroke="black" d="M1189.35,-226.87C1220.34,-226.87 1251.53,-226.87 1275.85,-226.87"/>
<polygon fill="black" stroke="black" points="1276.17,-230.37 1286.17,-226.87 1276.17,-223.37 1276.17,-230.37"/>
<text text-anchor="middle" x="1237.76" y="-229.87" font-family="monospace" font-size="10.00">&#45;&#45;out&#45;file</text>
</g>
</g>
</svg>
