<?xml version="1.0" encoding="UTF-8" standalone="no"?>
<!DOCTYPE svg PUBLIC "-//W3C//DTD SVG 1.1//EN"
 "http://www.w3.org/Graphics/SVG/1.1/DTD/svg11.dtd">
<!-- Generated by graphviz version 2.43.0 (0)
 -->
<!-- Title: %3 Pages: 1 -->
<svg width="1543pt" height="444pt"
 viewBox="0.00 0.00 1543.26 443.74" xmlns="http://www.w3.org/2000/svg" xmlns:xlink="http://www.w3.org/1999/xlink">
<g id="graph0" class="graph" transform="scale(1 1) rotate(0) translate(4 439.74)">
<title>%3</title>
<polygon fill="white" stroke="transparent" points="-4,4 -4,-439.74 1539.26,-439.74 1539.26,4 -4,4"/>
<!-- Network -->
<g id="node1" class="node">
<title>Network</title>
<ellipse fill="none" stroke="black" cx="74.74" cy="-408.87" rx="60.21" ry="26.74"/>
<text text-anchor="middle" x="74.74" y="-412.67" font-family="Times-Roman" font-size="14.00">Mainnet</text>
<text text-anchor="middle" x="74.74" y="-397.67" font-family="Times-Roman" font-size="14.00">or Testnet</text>
</g>
<!-- ExportCommand -->
<g id="node8" class="node">
<title>ExportCommand</title>
<polygon fill="none" stroke="black" points="465.49,-236.87 300.49,-236.87 300.49,-200.87 465.49,-200.87 465.49,-236.87"/>
<text text-anchor="middle" x="382.99" y="-215.17" font-family="monospace" font-size="14.00">marlowe&#45;cli export</text>
</g>
<!-- Network&#45;&gt;ExportCommand -->
<g id="edge1" class="edge">
<title>Network&#45;&gt;ExportCommand</title>
<path fill="none" stroke="black" stroke-dasharray="5,2" d="M129.3,-397.07C173.21,-385.62 235.55,-365.17 282.49,-332.87 316.75,-309.29 346.69,-271.27 364.55,-245.69"/>
<polygon fill="black" stroke="black" points="367.6,-247.44 370.35,-237.21 361.82,-243.49 367.6,-247.44"/>
<text text-anchor="middle" x="224.99" y="-387.87" font-family="monospace" font-size="10.00">&#45;&#45;testnet&#45;magic</text>
</g>
<!-- StakeAddress -->
<g id="node2" class="node">
<title>StakeAddress</title>
<ellipse fill="none" stroke="black" cx="74.74" cy="-345.87" rx="74.99" ry="18"/>
<text text-anchor="middle" x="74.74" y="-342.17" font-family="Times-Roman" font-size="14.00">Stake Address</text>
</g>
<!-- StakeAddress&#45;&gt;ExportCommand -->
<g id="edge2" class="edge">
<title>StakeAddress&#45;&gt;ExportCommand</title>
<path fill="none" stroke="black" stroke-dasharray="5,2" d="M125.28,-332.46C167.86,-320.2 230.43,-300.43 282.49,-276.87 304.25,-267.02 327.36,-253.74 345.83,-242.37"/>
<polygon fill="black" stroke="black" points="347.87,-245.22 354.5,-236.96 344.16,-239.28 347.87,-245.22"/>
<text text-anchor="middle" x="224.99" y="-320.87" font-family="monospace" font-size="10.00">&#45;&#45;stake&#45;address</text>
</g>
<!-- RolesCurrency -->
<g id="node3" class="node">
<title>RolesCurrency</title>
<ellipse fill="none" stroke="black" cx="74.74" cy="-282.87" rx="55.72" ry="26.74"/>
<text text-anchor="middle" x="74.74" y="-286.67" font-family="Times-Roman" font-size="14.00">Currency</text>
<text text-anchor="middle" x="74.74" y="-271.67" font-family="Times-Roman" font-size="14.00">for Roles</text>
</g>
<!-- RolesCurrency&#45;&gt;ExportCommand -->
<g id="edge3" class="edge">
<title>RolesCurrency&#45;&gt;ExportCommand</title>
<path fill="none" stroke="black" stroke-dasharray="5,2" d="M126.31,-272.3C170.85,-262.99 236.82,-249.21 290.59,-237.97"/>
<polygon fill="black" stroke="black" points="291.41,-241.38 300.48,-235.9 289.98,-234.52 291.41,-241.38"/>
<text text-anchor="middle" x="224.99" y="-264.87" font-family="monospace" font-size="10.00">&#45;&#45;roles&#45;currency</text>
</g>
<!-- ContractFile -->
<g id="node4" class="node">
<title>ContractFile</title>
<polygon fill="none" stroke="black" points="143.74,-237.87 17.74,-237.87 17.74,-241.87 5.74,-241.87 5.74,-199.87 143.74,-199.87 143.74,-237.87"/>
<polyline fill="none" stroke="black" points="5.74,-237.87 17.74,-237.87 "/>
<text text-anchor="middle" x="74.74" y="-222.67" font-family="Times-Roman" font-size="14.00">Marlowe Contract</text>
<text text-anchor="middle" x="74.74" y="-207.67" font-family="Times-Roman" font-size="14.00">JSON File</text>
</g>
<!-- ContractFile&#45;&gt;ExportCommand -->
<g id="edge4" class="edge">
<title>ContractFile&#45;&gt;ExportCommand</title>
<path fill="none" stroke="black" d="M144.09,-218.87C187.12,-218.87 243.19,-218.87 290.09,-218.87"/>
<polygon fill="black" stroke="black" points="290.25,-222.37 300.25,-218.87 290.25,-215.37 290.25,-222.37"/>
<text text-anchor="middle" x="224.99" y="-221.87" font-family="monospace" font-size="10.00">&#45;&#45;contract&#45;file</text>
</g>
<!-- StateFile -->
<g id="node5" class="node">
<title>StateFile</title>
<polygon fill="none" stroke="black" points="132.24,-181.87 29.24,-181.87 29.24,-185.87 17.24,-185.87 17.24,-143.87 132.24,-143.87 132.24,-181.87"/>
<polyline fill="none" stroke="black" points="17.24,-181.87 29.24,-181.87 "/>
<text text-anchor="middle" x="74.74" y="-166.67" font-family="Times-Roman" font-size="14.00">Marlowe State</text>
<text text-anchor="middle" x="74.74" y="-151.67" font-family="Times-Roman" font-size="14.00">JSON File</text>
</g>
<!-- StateFile&#45;&gt;ExportCommand -->
<g id="edge5" class="edge">
<title>StateFile&#45;&gt;ExportCommand</title>
<path fill="none" stroke="black" d="M132.27,-173.21C176.5,-181.3 238.91,-192.71 290.27,-202.1"/>
<polygon fill="black" stroke="black" points="289.92,-205.59 300.39,-203.95 291.18,-198.71 289.92,-205.59"/>
<text text-anchor="middle" x="224.99" y="-201.87" font-family="monospace" font-size="10.00">&#45;&#45;state&#45;file</text>
</g>
<!-- MinSlot -->
<g id="node6" class="node">
<title>MinSlot</title>
<ellipse fill="none" stroke="black" cx="74.74" cy="-98.87" rx="57.05" ry="26.74"/>
<text text-anchor="middle" x="74.74" y="-102.67" font-family="Times-Roman" font-size="14.00">Minimum</text>
<text text-anchor="middle" x="74.74" y="-87.67" font-family="Times-Roman" font-size="14.00">Slot</text>
</g>
<!-- MinSlot&#45;&gt;ExportCommand -->
<g id="edge6" class="edge">
<title>MinSlot&#45;&gt;ExportCommand</title>
<path fill="none" stroke="black" d="M124.66,-112.08C167.12,-124.17 229.87,-143.54 282.49,-165.87 302.74,-174.47 324.39,-185.73 342.31,-195.66"/>
<polygon fill="black" stroke="black" points="340.87,-198.87 351.31,-200.72 344.3,-192.77 340.87,-198.87"/>
<text text-anchor="middle" x="224.99" y="-168.87" font-family="monospace" font-size="10.00">&#45;&#45;redeemer&#45;min&#45;slot</text>
</g>
<!-- MaxSlot -->
<g id="node7" class="node">
<title>MaxSlot</title>
<ellipse fill="none" stroke="black" cx="74.74" cy="-26.87" rx="60.21" ry="26.74"/>
<text text-anchor="middle" x="74.74" y="-30.67" font-family="Times-Roman" font-size="14.00">Maximum</text>
<text text-anchor="middle" x="74.74" y="-15.67" font-family="Times-Roman" font-size="14.00">Slot</text>
</g>
<!-- MaxSlot&#45;&gt;ExportCommand -->
<g id="edge7" class="edge">
<title>MaxSlot&#45;&gt;ExportCommand</title>
<path fill="none" stroke="black" d="M126.85,-40.72C170.7,-54.15 234.25,-77.43 282.49,-110.87 314.96,-133.38 344.58,-168.21 362.9,-192.2"/>
<polygon fill="black" stroke="black" points="360.32,-194.6 369.12,-200.5 365.93,-190.4 360.32,-194.6"/>
<text text-anchor="middle" x="224.99" y="-113.87" font-family="monospace" font-size="10.00">&#45;&#45;redeemer&#45;max&#45;slot</text>
</g>
<!-- MarloweFile -->
<g id="node9" class="node">
<title>MarloweFile</title>
<polygon fill="none" stroke="black" points="641.49,-237.87 574.49,-237.87 574.49,-241.87 562.49,-241.87 562.49,-199.87 641.49,-199.87 641.49,-237.87"/>
<polyline fill="none" stroke="black" points="562.49,-237.87 574.49,-237.87 "/>
<text text-anchor="middle" x="601.99" y="-222.67" font-family="Times-Roman" font-size="14.00">Marlowe</text>
<text text-anchor="middle" x="601.99" y="-207.67" font-family="Times-Roman" font-size="14.00">JSON File</text>
</g>
<!-- ExportCommand&#45;&gt;MarloweFile -->
<g id="edge8" class="edge">
<title>ExportCommand&#45;&gt;MarloweFile</title>
<path fill="none" stroke="black" d="M465.72,-218.87C494.86,-218.87 526.75,-218.87 552.25,-218.87"/>
<polygon fill="black" stroke="black" points="552.4,-222.37 562.4,-218.87 552.4,-215.37 552.4,-222.37"/>
<text text-anchor="middle" x="513.99" y="-221.87" font-family="monospace" font-size="10.00">&#45;&#45;out&#45;file</text>
</g>
<!-- JQ -->
<g id="node10" class="node">
<title>JQ</title>
<polygon fill="none" stroke="black" points="732.49,-236.87 678.49,-236.87 678.49,-200.87 732.49,-200.87 732.49,-236.87"/>
<text text-anchor="middle" x="705.49" y="-215.17" font-family="monospace" font-size="14.00">jq</text>
</g>
<!-- MarloweFile&#45;&gt;JQ -->
<g id="edge9" class="edge">
<title>MarloweFile&#45;&gt;JQ</title>
<path fill="none" stroke="black" d="M641.65,-218.87C650.33,-218.87 659.52,-218.87 668.1,-218.87"/>
<polygon fill="black" stroke="black" points="668.2,-222.37 678.2,-218.87 668.2,-215.37 668.2,-222.37"/>
</g>
<!-- ValidatorAddress -->
<g id="node11" class="node">
<title>ValidatorAddress</title>
<ellipse fill="none" stroke="black" cx="857.88" cy="-338.87" rx="54.39" ry="26.74"/>
<text text-anchor="middle" x="857.88" y="-342.67" font-family="Times-Roman" font-size="14.00">Validator</text>
<text text-anchor="middle" x="857.88" y="-327.67" font-family="Times-Roman" font-size="14.00">Address</text>
</g>
<!-- JQ&#45;&gt;ValidatorAddress -->
<g id="edge10" class="edge">
<title>JQ&#45;&gt;ValidatorAddress</title>
<path fill="none" stroke="black" d="M716.29,-237.21C727.11,-255.95 746.14,-284.79 769.49,-302.87 779.01,-310.25 790.27,-316.36 801.47,-321.32"/>
<polygon fill="black" stroke="black" points="800.25,-324.6 810.83,-325.21 802.94,-318.14 800.25,-324.6"/>
</g>
<!-- ValidatorFile -->
<g id="node12" class="node">
<title>ValidatorFile</title>
<polygon fill="none" stroke="black" points="927.88,-293.87 799.88,-293.87 799.88,-297.87 787.88,-297.87 787.88,-255.87 927.88,-255.87 927.88,-293.87"/>
<polyline fill="none" stroke="black" points="787.88,-293.87 799.88,-293.87 "/>
<text text-anchor="middle" x="857.88" y="-278.67" font-family="Times-Roman" font-size="14.00">Marlowe Validator</text>
<text text-anchor="middle" x="857.88" y="-263.67" font-family="Times-Roman" font-size="14.00">Plutus File</text>
</g>
<!-- JQ&#45;&gt;ValidatorFile -->
<g id="edge11" class="edge">
<title>JQ&#45;&gt;ValidatorFile</title>
<path fill="none" stroke="black" d="M732.58,-231.23C743.82,-236.35 757.18,-242.18 769.49,-246.87 774.51,-248.79 779.73,-250.68 785,-252.53"/>
<polygon fill="black" stroke="black" points="783.93,-255.86 794.53,-255.81 786.21,-249.24 783.93,-255.86"/>
</g>
<!-- DatumFile -->
<g id="node13" class="node">
<title>DatumFile</title>
<polygon fill="none" stroke="black" points="920.38,-237.87 807.38,-237.87 807.38,-241.87 795.38,-241.87 795.38,-199.87 920.38,-199.87 920.38,-237.87"/>
<polyline fill="none" stroke="black" points="795.38,-237.87 807.38,-237.87 "/>
<text text-anchor="middle" x="857.88" y="-222.67" font-family="Times-Roman" font-size="14.00">Marlowe Datum</text>
<text text-anchor="middle" x="857.88" y="-207.67" font-family="Times-Roman" font-size="14.00">JSON File</text>
</g>
<!-- JQ&#45;&gt;DatumFile -->
<g id="edge12" class="edge">
<title>JQ&#45;&gt;DatumFile</title>
<path fill="none" stroke="black" d="M732.68,-218.87C747.31,-218.87 766.31,-218.87 785.03,-218.87"/>
<polygon fill="black" stroke="black" points="785.08,-222.37 795.08,-218.87 785.08,-215.37 785.08,-222.37"/>
</g>
<!-- DatumHash -->
<g id="node14" class="node">
<title>DatumHash</title>
<ellipse fill="none" stroke="black" cx="857.88" cy="-154.87" rx="88.28" ry="26.74"/>
<text text-anchor="middle" x="857.88" y="-158.67" font-family="Times-Roman" font-size="14.00">Marlowe Datum</text>
<text text-anchor="middle" x="857.88" y="-143.67" font-family="Times-Roman" font-size="14.00">Hash</text>
</g>
<!-- JQ&#45;&gt;DatumHash -->
<g id="edge13" class="edge">
<title>JQ&#45;&gt;DatumHash</title>
<path fill="none" stroke="black" d="M732.78,-206.99C744.05,-201.95 757.38,-196.05 769.49,-190.87 777.6,-187.4 786.16,-183.8 794.62,-180.27"/>
<polygon fill="black" stroke="black" points="796.2,-183.4 804.1,-176.34 793.52,-176.94 796.2,-183.4"/>
</g>
<!-- RedeemerFile -->
<g id="node15" class="node">
<title>RedeemerFile</title>
<polygon fill="none" stroke="black" points="932.38,-109.87 795.38,-109.87 795.38,-113.87 783.38,-113.87 783.38,-71.87 932.38,-71.87 932.38,-109.87"/>
<polyline fill="none" stroke="black" points="783.38,-109.87 795.38,-109.87 "/>
<text text-anchor="middle" x="857.88" y="-94.67" font-family="Times-Roman" font-size="14.00">Marlowe Redeemer</text>
<text text-anchor="middle" x="857.88" y="-79.67" font-family="Times-Roman" font-size="14.00">JSON File</text>
</g>
<!-- JQ&#45;&gt;RedeemerFile -->
<g id="edge14" class="edge">
<title>JQ&#45;&gt;RedeemerFile</title>
<path fill="none" stroke="black" d="M713.37,-200.62C722.74,-178.2 741.59,-140.49 769.49,-118.87 771.09,-117.63 772.75,-116.44 774.46,-115.3"/>
<polygon fill="black" stroke="black" points="776.54,-118.14 783.36,-110.03 772.97,-112.11 776.54,-118.14"/>
</g>
<!-- CardanoCLI -->
<g id="node16" class="node">
<title>CardanoCLI</title>
<polygon fill="none" stroke="black" points="1365.26,-236.87 1109.26,-236.87 1109.26,-200.87 1365.26,-200.87 1365.26,-236.87"/>
<text text-anchor="middle" x="1237.26" y="-215.17" font-family="monospace" font-size="14.00">cardano&#45;cli transaction build</text>
</g>
<!-- ValidatorAddress&#45;&gt;CardanoCLI -->
<g id="edge15" class="edge">
<title>ValidatorAddress&#45;&gt;CardanoCLI</title>
<path fill="none" stroke="black" d="M906.39,-326.57C953.59,-314.06 1027.89,-293.63 1091.26,-272.87 1121.16,-263.07 1154.05,-250.94 1180.94,-240.66"/>
<polygon fill="black" stroke="black" points="1182.48,-243.81 1190.55,-236.96 1179.96,-237.28 1182.48,-243.81"/>
<text text-anchor="middle" x="1027.76" y="-312.87" font-family="monospace" font-size="10.00">&#45;&#45;tx&#45;out</text>
</g>
<!-- ValidatorFile&#45;&gt;CardanoCLI -->
<g id="edge16" class="edge">
<title>ValidatorFile&#45;&gt;CardanoCLI</title>
<path fill="none" stroke="black" d="M928.09,-264.6C977.38,-257.29 1045.13,-247.23 1104.56,-238.41"/>
<polygon fill="black" stroke="black" points="1105.41,-241.83 1114.79,-236.9 1104.38,-234.9 1105.41,-241.83"/>
<text text-anchor="middle" x="1027.76" y="-260.87" font-family="monospace" font-size="10.00">&#45;&#45;tx&#45;in&#45;script&#45;file</text>
</g>
<!-- DatumFile&#45;&gt;CardanoCLI -->
<g id="edge17" class="edge">
<title>DatumFile&#45;&gt;CardanoCLI</title>
<path fill="none" stroke="black" d="M920.77,-218.87C969,-218.87 1037.81,-218.87 1098.86,-218.87"/>
<polygon fill="black" stroke="black" points="1098.98,-222.37 1108.98,-218.87 1098.98,-215.37 1098.98,-222.37"/>
<text text-anchor="middle" x="1027.76" y="-221.87" font-family="monospace" font-size="10.00">&#45;&#45;tx&#45;in&#45;datum&#45;file</text>
</g>
<!-- DatumHash&#45;&gt;CardanoCLI -->
<g id="edge19" class="edge">
<title>DatumHash&#45;&gt;CardanoCLI</title>
<path fill="none" stroke="black" d="M935.7,-167.9C988.68,-176.88 1060.07,-188.99 1119.98,-199.15"/>
<polygon fill="black" stroke="black" points="1119.42,-202.61 1129.87,-200.83 1120.59,-195.7 1119.42,-202.61"/>
<text text-anchor="middle" x="1027.76" y="-194.87" font-family="monospace" font-size="10.00">&#45;&#45;tx&#45;out&#45;datum&#45;hash</text>
</g>
<!-- RedeemerFile&#45;&gt;CardanoCLI -->
<g id="edge18" class="edge">
<title>RedeemerFile&#45;&gt;CardanoCLI</title>
<path fill="none" stroke="black" d="M932.58,-109.74C978.62,-122.11 1038.9,-139.38 1091.26,-157.87 1123.74,-169.34 1159.42,-184.31 1187.25,-196.56"/>
<polygon fill="black" stroke="black" points="1186.19,-199.92 1196.75,-200.76 1189.03,-193.51 1186.19,-199.92"/>
<text text-anchor="middle" x="1027.76" y="-160.87" font-family="monospace" font-size="10.00">&#45;&#45;tx&#45;in&#45;redeemer&#45;file</text>
</g>
<!-- TxBodyFile -->
<g id="node17" class="node">
<title>TxBodyFile</title>
<polygon fill="none" stroke="black" points="1535.26,-237.87 1474.26,-237.87 1474.26,-241.87 1462.26,-241.87 1462.26,-199.87 1535.26,-199.87 1535.26,-237.87"/>
<polyline fill="none" stroke="black" points="1462.26,-237.87 1474.26,-237.87 "/>
<text text-anchor="middle" x="1498.76" y="-222.67" font-family="Times-Roman" font-size="14.00">Tx Body</text>
<text text-anchor="middle" x="1498.76" y="-207.67" font-family="Times-Roman" font-size="14.00">File</text>
</g>
<!-- CardanoCLI&#45;&gt;TxBodyFile -->
<g id="edge20" class="edge">
<title>CardanoCLI&#45;&gt;TxBodyFile</title>
<path fill="none" stroke="black" d="M1365.35,-218.87C1396.34,-218.87 1427.53,-218.87 1451.85,-218.87"/>
<polygon fill="black" stroke="black" points="1452.17,-222.37 1462.17,-218.87 1452.17,-215.37 1452.17,-222.37"/>
<text text-anchor="middle" x="1413.76" y="-221.87" font-family="monospace" font-size="10.00">&#45;&#45;out&#45;file</text>
</g>
</g>
</svg>
