<?xml version="1.0" encoding="UTF-8" standalone="no"?>
<!DOCTYPE svg PUBLIC "-//W3C//DTD SVG 1.1//EN"
 "http://www.w3.org/Graphics/SVG/1.1/DTD/svg11.dtd">
<!-- Generated by graphviz version 2.43.0 (0)
 -->
<!-- Title: %3 Pages: 1 -->
<svg width="1543pt" height="500pt"
 viewBox="0.00 0.00 1543.26 499.74" xmlns="http://www.w3.org/2000/svg" xmlns:xlink="http://www.w3.org/1999/xlink">
<g id="graph0" class="graph" transform="scale(1 1) rotate(0) translate(4 495.74)">
<title>%3</title>
<polygon fill="white" stroke="transparent" points="-4,4 -4,-495.74 1539.26,-495.74 1539.26,4 -4,4"/>
<!-- Network -->
<g id="node1" class="node">
<title>Network</title>
<ellipse fill="none" stroke="black" cx="74.74" cy="-464.87" rx="60.21" ry="26.74"/>
<text text-anchor="middle" x="74.74" y="-468.67" font-family="Times-Roman" font-size="14.00">Mainnet</text>
<text text-anchor="middle" x="74.74" y="-453.67" font-family="Times-Roman" font-size="14.00">or Testnet</text>
</g>
<!-- ExportCommand -->
<g id="node9" class="node">
<title>ExportCommand</title>
<polygon fill="none" stroke="black" points="465.49,-264.87 300.49,-264.87 300.49,-228.87 465.49,-228.87 465.49,-264.87"/>
<text text-anchor="middle" x="382.99" y="-243.17" font-family="monospace" font-size="14.00">marlowe&#45;cli export</text>
</g>
<!-- Network&#45;&gt;ExportCommand -->
<g id="edge1" class="edge">
<title>Network&#45;&gt;ExportCommand</title>
<path fill="none" stroke="black" stroke-dasharray="5,2" d="M130.72,-454.58C175.17,-444.13 237.54,-424.43 282.49,-389.87 323.12,-358.63 353.56,-306.08 369.5,-274.13"/>
<polygon fill="black" stroke="black" points="372.75,-275.45 373.97,-264.92 366.45,-272.39 372.75,-275.45"/>
<text text-anchor="middle" x="224.99" y="-445.87" font-family="monospace" font-size="10.00">&#45;&#45;testnet&#45;magic</text>
</g>
<!-- StakeAddress -->
<g id="node2" class="node">
<title>StakeAddress</title>
<ellipse fill="none" stroke="black" cx="74.74" cy="-401.87" rx="74.99" ry="18"/>
<text text-anchor="middle" x="74.74" y="-398.17" font-family="Times-Roman" font-size="14.00">Stake Address</text>
</g>
<!-- StakeAddress&#45;&gt;ExportCommand -->
<g id="edge2" class="edge">
<title>StakeAddress&#45;&gt;ExportCommand</title>
<path fill="none" stroke="black" stroke-dasharray="5,2" d="M126.2,-388.64C169.34,-376.16 232.24,-355.15 282.49,-326.87 309.48,-311.68 336.65,-289.23 355.77,-271.98"/>
<polygon fill="black" stroke="black" points="358.18,-274.52 363.19,-265.18 353.45,-269.36 358.18,-274.52"/>
<text text-anchor="middle" x="224.99" y="-377.87" font-family="monospace" font-size="10.00">&#45;&#45;stake&#45;address</text>
</g>
<!-- RolesCurrency -->
<g id="node3" class="node">
<title>RolesCurrency</title>
<ellipse fill="none" stroke="black" cx="74.74" cy="-338.87" rx="55.72" ry="26.74"/>
<text text-anchor="middle" x="74.74" y="-342.67" font-family="Times-Roman" font-size="14.00">Currency</text>
<text text-anchor="middle" x="74.74" y="-327.67" font-family="Times-Roman" font-size="14.00">for Roles</text>
</g>
<!-- RolesCurrency&#45;&gt;ExportCommand -->
<g id="edge3" class="edge">
<title>RolesCurrency&#45;&gt;ExportCommand</title>
<path fill="none" stroke="black" stroke-dasharray="5,2" d="M123.95,-325.73C165.96,-314.14 228.45,-296.53 282.49,-279.87 294.43,-276.19 307.12,-272.11 319.3,-268.11"/>
<polygon fill="black" stroke="black" points="320.53,-271.39 328.93,-264.93 318.34,-264.74 320.53,-271.39"/>
<text text-anchor="middle" x="224.99" y="-314.87" font-family="monospace" font-size="10.00">&#45;&#45;roles&#45;currency</text>
</g>
<!-- ContractFile -->
<g id="node4" class="node">
<title>ContractFile</title>
<polygon fill="none" stroke="black" points="143.74,-293.87 17.74,-293.87 17.74,-297.87 5.74,-297.87 5.74,-255.87 143.74,-255.87 143.74,-293.87"/>
<polyline fill="none" stroke="black" points="5.74,-293.87 17.74,-293.87 "/>
<text text-anchor="middle" x="74.74" y="-278.67" font-family="Times-Roman" font-size="14.00">Marlowe Contract</text>
<text text-anchor="middle" x="74.74" y="-263.67" font-family="Times-Roman" font-size="14.00">JSON File</text>
</g>
<!-- ContractFile&#45;&gt;ExportCommand -->
<g id="edge4" class="edge">
<title>ContractFile&#45;&gt;ExportCommand</title>
<path fill="none" stroke="black" d="M144.09,-268.62C187.12,-264.69 243.19,-259.56 290.09,-255.27"/>
<polygon fill="black" stroke="black" points="290.61,-258.74 300.25,-254.34 289.98,-251.77 290.61,-258.74"/>
<text text-anchor="middle" x="224.99" y="-267.87" font-family="monospace" font-size="10.00">&#45;&#45;contract&#45;file</text>
</g>
<!-- StateFile -->
<g id="node5" class="node">
<title>StateFile</title>
<polygon fill="none" stroke="black" points="132.24,-237.87 29.24,-237.87 29.24,-241.87 17.24,-241.87 17.24,-199.87 132.24,-199.87 132.24,-237.87"/>
<polyline fill="none" stroke="black" points="17.24,-237.87 29.24,-237.87 "/>
<text text-anchor="middle" x="74.74" y="-222.67" font-family="Times-Roman" font-size="14.00">Marlowe State</text>
<text text-anchor="middle" x="74.74" y="-207.67" font-family="Times-Roman" font-size="14.00">JSON File</text>
</g>
<!-- StateFile&#45;&gt;ExportCommand -->
<g id="edge5" class="edge">
<title>StateFile&#45;&gt;ExportCommand</title>
<path fill="none" stroke="black" d="M132.27,-224.04C176.5,-228.08 238.91,-233.79 290.27,-238.48"/>
<polygon fill="black" stroke="black" points="290.11,-241.98 300.39,-239.41 290.75,-235.01 290.11,-241.98"/>
<text text-anchor="middle" x="224.99" y="-239.87" font-family="monospace" font-size="10.00">&#45;&#45;state&#45;file</text>
</g>
<!-- InputsFile -->
<g id="node6" class="node">
<title>InputsFile</title>
<polygon fill="none" stroke="black" points="136.24,-181.87 25.24,-181.87 25.24,-185.87 13.24,-185.87 13.24,-143.87 136.24,-143.87 136.24,-181.87"/>
<polyline fill="none" stroke="black" points="13.24,-181.87 25.24,-181.87 "/>
<text text-anchor="middle" x="74.74" y="-166.67" font-family="Times-Roman" font-size="14.00">Marlowe Inputs</text>
<text text-anchor="middle" x="74.74" y="-151.67" font-family="Times-Roman" font-size="14.00">JSON File</text>
</g>
<!-- InputsFile&#45;&gt;ExportCommand -->
<g id="edge6" class="edge">
<title>InputsFile&#45;&gt;ExportCommand</title>
<path fill="none" stroke="black" stroke-dasharray="5,2" d="M136.29,-175.97C177.71,-185.31 233.73,-198.68 282.49,-212.87 295.48,-216.65 309.28,-221.09 322.35,-225.5"/>
<polygon fill="black" stroke="black" points="321.57,-228.93 332.17,-228.84 323.83,-222.3 321.57,-228.93"/>
<text text-anchor="middle" x="224.99" y="-215.87" font-family="monospace" font-size="10.00">&#45;&#45;inputs&#45;file</text>
</g>
<!-- MinSlot -->
<g id="node7" class="node">
<title>MinSlot</title>
<ellipse fill="none" stroke="black" cx="74.74" cy="-98.87" rx="57.05" ry="26.74"/>
<text text-anchor="middle" x="74.74" y="-102.67" font-family="Times-Roman" font-size="14.00">Minimum</text>
<text text-anchor="middle" x="74.74" y="-87.67" font-family="Times-Roman" font-size="14.00">Slot</text>
</g>
<!-- MinSlot&#45;&gt;ExportCommand -->
<g id="edge7" class="edge">
<title>MinSlot&#45;&gt;ExportCommand</title>
<path fill="none" stroke="black" d="M126.63,-110.54C169.76,-121.66 232.42,-140.74 282.49,-167.87 309.59,-182.56 336.75,-204.75 355.83,-221.88"/>
<polygon fill="black" stroke="black" points="353.49,-224.48 363.24,-228.64 358.21,-219.31 353.49,-224.48"/>
<text text-anchor="middle" x="224.99" y="-170.87" font-family="monospace" font-size="10.00">&#45;&#45;redeemer&#45;min&#45;slot</text>
</g>
<!-- MaxSlot -->
<g id="node8" class="node">
<title>MaxSlot</title>
<ellipse fill="none" stroke="black" cx="74.74" cy="-26.87" rx="60.21" ry="26.74"/>
<text text-anchor="middle" x="74.74" y="-30.67" font-family="Times-Roman" font-size="14.00">Maximum</text>
<text text-anchor="middle" x="74.74" y="-15.67" font-family="Times-Roman" font-size="14.00">Slot</text>
</g>
<!-- MaxSlot&#45;&gt;ExportCommand -->
<g id="edge8" class="edge">
<title>MaxSlot&#45;&gt;ExportCommand</title>
<path fill="none" stroke="black" d="M129.29,-38.43C173.77,-50.05 236.92,-71.43 282.49,-106.87 322.16,-137.73 352.73,-188.65 368.98,-219.83"/>
<polygon fill="black" stroke="black" points="365.9,-221.5 373.56,-228.83 372.14,-218.33 365.9,-221.5"/>
<text text-anchor="middle" x="224.99" y="-109.87" font-family="monospace" font-size="10.00">&#45;&#45;redeemer&#45;max&#45;slot</text>
</g>
<!-- MarloweFile -->
<g id="node10" class="node">
<title>MarloweFile</title>
<polygon fill="none" stroke="black" points="641.49,-265.87 574.49,-265.87 574.49,-269.87 562.49,-269.87 562.49,-227.87 641.49,-227.87 641.49,-265.87"/>
<polyline fill="none" stroke="black" points="562.49,-265.87 574.49,-265.87 "/>
<text text-anchor="middle" x="601.99" y="-250.67" font-family="Times-Roman" font-size="14.00">Marlowe</text>
<text text-anchor="middle" x="601.99" y="-235.67" font-family="Times-Roman" font-size="14.00">JSON File</text>
</g>
<!-- ExportCommand&#45;&gt;MarloweFile -->
<g id="edge9" class="edge">
<title>ExportCommand&#45;&gt;MarloweFile</title>
<path fill="none" stroke="black" d="M465.72,-246.87C494.86,-246.87 526.75,-246.87 552.25,-246.87"/>
<polygon fill="black" stroke="black" points="552.4,-250.37 562.4,-246.87 552.4,-243.37 552.4,-250.37"/>
<text text-anchor="middle" x="513.99" y="-249.87" font-family="monospace" font-size="10.00">&#45;&#45;out&#45;file</text>
</g>
<!-- JQ -->
<g id="node11" class="node">
<title>JQ</title>
<polygon fill="none" stroke="black" points="732.49,-264.87 678.49,-264.87 678.49,-228.87 732.49,-228.87 732.49,-264.87"/>
<text text-anchor="middle" x="705.49" y="-243.17" font-family="monospace" font-size="14.00">jq</text>
</g>
<!-- MarloweFile&#45;&gt;JQ -->
<g id="edge10" class="edge">
<title>MarloweFile&#45;&gt;JQ</title>
<path fill="none" stroke="black" d="M641.65,-246.87C650.33,-246.87 659.52,-246.87 668.1,-246.87"/>
<polygon fill="black" stroke="black" points="668.2,-250.37 678.2,-246.87 668.2,-243.37 668.2,-250.37"/>
</g>
<!-- ValidatorAddress -->
<g id="node12" class="node">
<title>ValidatorAddress</title>
<ellipse fill="none" stroke="black" cx="857.88" cy="-366.87" rx="54.39" ry="26.74"/>
<text text-anchor="middle" x="857.88" y="-370.67" font-family="Times-Roman" font-size="14.00">Validator</text>
<text text-anchor="middle" x="857.88" y="-355.67" font-family="Times-Roman" font-size="14.00">Address</text>
</g>
<!-- JQ&#45;&gt;ValidatorAddress -->
<g id="edge11" class="edge">
<title>JQ&#45;&gt;ValidatorAddress</title>
<path fill="none" stroke="black" d="M716.29,-265.21C727.11,-283.95 746.14,-312.79 769.49,-330.87 779.01,-338.25 790.27,-344.36 801.47,-349.32"/>
<polygon fill="black" stroke="black" points="800.25,-352.6 810.83,-353.21 802.94,-346.14 800.25,-352.6"/>
</g>
<!-- ValidatorFile -->
<g id="node13" class="node">
<title>ValidatorFile</title>
<polygon fill="none" stroke="black" points="927.88,-321.87 799.88,-321.87 799.88,-325.87 787.88,-325.87 787.88,-283.87 927.88,-283.87 927.88,-321.87"/>
<polyline fill="none" stroke="black" points="787.88,-321.87 799.88,-321.87 "/>
<text text-anchor="middle" x="857.88" y="-306.67" font-family="Times-Roman" font-size="14.00">Marlowe Validator</text>
<text text-anchor="middle" x="857.88" y="-291.67" font-family="Times-Roman" font-size="14.00">Plutus File</text>
</g>
<!-- JQ&#45;&gt;ValidatorFile -->
<g id="edge12" class="edge">
<title>JQ&#45;&gt;ValidatorFile</title>
<path fill="none" stroke="black" d="M732.58,-259.23C743.82,-264.35 757.18,-270.18 769.49,-274.87 774.51,-276.79 779.73,-278.68 785,-280.53"/>
<polygon fill="black" stroke="black" points="783.93,-283.86 794.53,-283.81 786.21,-277.24 783.93,-283.86"/>
</g>
<!-- DatumFile -->
<g id="node14" class="node">
<title>DatumFile</title>
<polygon fill="none" stroke="black" points="920.38,-265.87 807.38,-265.87 807.38,-269.87 795.38,-269.87 795.38,-227.87 920.38,-227.87 920.38,-265.87"/>
<polyline fill="none" stroke="black" points="795.38,-265.87 807.38,-265.87 "/>
<text text-anchor="middle" x="857.88" y="-250.67" font-family="Times-Roman" font-size="14.00">Marlowe Datum</text>
<text text-anchor="middle" x="857.88" y="-235.67" font-family="Times-Roman" font-size="14.00">JSON File</text>
</g>
<!-- JQ&#45;&gt;DatumFile -->
<g id="edge13" class="edge">
<title>JQ&#45;&gt;DatumFile</title>
<path fill="none" stroke="black" d="M732.68,-246.87C747.31,-246.87 766.31,-246.87 785.03,-246.87"/>
<polygon fill="black" stroke="black" points="785.08,-250.37 795.08,-246.87 785.08,-243.37 785.08,-250.37"/>
</g>
<!-- DatumHash -->
<g id="node15" class="node">
<title>DatumHash</title>
<ellipse fill="none" stroke="black" cx="857.88" cy="-182.87" rx="88.28" ry="26.74"/>
<text text-anchor="middle" x="857.88" y="-186.67" font-family="Times-Roman" font-size="14.00">Marlowe Datum</text>
<text text-anchor="middle" x="857.88" y="-171.67" font-family="Times-Roman" font-size="14.00">Hash</text>
</g>
<!-- JQ&#45;&gt;DatumHash -->
<g id="edge14" class="edge">
<title>JQ&#45;&gt;DatumHash</title>
<path fill="none" stroke="black" d="M732.78,-234.99C744.05,-229.95 757.38,-224.05 769.49,-218.87 777.6,-215.4 786.16,-211.8 794.62,-208.27"/>
<polygon fill="black" stroke="black" points="796.2,-211.4 804.1,-204.34 793.52,-204.94 796.2,-211.4"/>
</g>
<!-- RedeemerFile -->
<g id="node16" class="node">
<title>RedeemerFile</title>
<polygon fill="none" stroke="black" points="932.38,-137.87 795.38,-137.87 795.38,-141.87 783.38,-141.87 783.38,-99.87 932.38,-99.87 932.38,-137.87"/>
<polyline fill="none" stroke="black" points="783.38,-137.87 795.38,-137.87 "/>
<text text-anchor="middle" x="857.88" y="-122.67" font-family="Times-Roman" font-size="14.00">Marlowe Redeemer</text>
<text text-anchor="middle" x="857.88" y="-107.67" font-family="Times-Roman" font-size="14.00">JSON File</text>
</g>
<!-- JQ&#45;&gt;RedeemerFile -->
<g id="edge15" class="edge">
<title>JQ&#45;&gt;RedeemerFile</title>
<path fill="none" stroke="black" d="M713.37,-228.62C722.74,-206.2 741.59,-168.49 769.49,-146.87 771.09,-145.63 772.75,-144.44 774.46,-143.3"/>
<polygon fill="black" stroke="black" points="776.54,-146.14 783.36,-138.03 772.97,-140.11 776.54,-146.14"/>
</g>
<!-- CardanoCLI -->
<g id="node17" class="node">
<title>CardanoCLI</title>
<polygon fill="none" stroke="black" points="1365.26,-264.87 1109.26,-264.87 1109.26,-228.87 1365.26,-228.87 1365.26,-264.87"/>
<text text-anchor="middle" x="1237.26" y="-243.17" font-family="monospace" font-size="14.00">cardano&#45;cli transaction build</text>
</g>
<!-- ValidatorAddress&#45;&gt;CardanoCLI -->
<g id="edge16" class="edge">
<title>ValidatorAddress&#45;&gt;CardanoCLI</title>
<path fill="none" stroke="black" d="M906.39,-354.57C953.59,-342.06 1027.89,-321.63 1091.26,-300.87 1121.16,-291.07 1154.05,-278.94 1180.94,-268.66"/>
<polygon fill="black" stroke="black" points="1182.48,-271.81 1190.55,-264.96 1179.96,-265.28 1182.48,-271.81"/>
<text text-anchor="middle" x="1027.76" y="-340.87" font-family="monospace" font-size="10.00">&#45;&#45;tx&#45;out</text>
</g>
<!-- ValidatorFile&#45;&gt;CardanoCLI -->
<g id="edge17" class="edge">
<title>ValidatorFile&#45;&gt;CardanoCLI</title>
<path fill="none" stroke="black" d="M928.09,-292.6C977.38,-285.29 1045.13,-275.23 1104.56,-266.41"/>
<polygon fill="black" stroke="black" points="1105.41,-269.83 1114.79,-264.9 1104.38,-262.9 1105.41,-269.83"/>
<text text-anchor="middle" x="1027.76" y="-288.87" font-family="monospace" font-size="10.00">&#45;&#45;tx&#45;in&#45;script&#45;file</text>
</g>
<!-- DatumFile&#45;&gt;CardanoCLI -->
<g id="edge18" class="edge">
<title>DatumFile&#45;&gt;CardanoCLI</title>
<path fill="none" stroke="black" d="M920.77,-246.87C969,-246.87 1037.81,-246.87 1098.86,-246.87"/>
<polygon fill="black" stroke="black" points="1098.98,-250.37 1108.98,-246.87 1098.98,-243.37 1098.98,-250.37"/>
<text text-anchor="middle" x="1027.76" y="-249.87" font-family="monospace" font-size="10.00">&#45;&#45;tx&#45;in&#45;datum&#45;file</text>
</g>
<!-- DatumHash&#45;&gt;CardanoCLI -->
<g id="edge20" class="edge">
<title>DatumHash&#45;&gt;CardanoCLI</title>
<path fill="none" stroke="black" d="M935.7,-195.9C988.68,-204.88 1060.07,-216.99 1119.98,-227.15"/>
<polygon fill="black" stroke="black" points="1119.42,-230.61 1129.87,-228.83 1120.59,-223.7 1119.42,-230.61"/>
<text text-anchor="middle" x="1027.76" y="-222.87" font-family="monospace" font-size="10.00">&#45;&#45;tx&#45;out&#45;datum&#45;hash</text>
</g>
<!-- RedeemerFile&#45;&gt;CardanoCLI -->
<g id="edge19" class="edge">
<title>RedeemerFile&#45;&gt;CardanoCLI</title>
<path fill="none" stroke="black" d="M932.58,-137.74C978.62,-150.11 1038.9,-167.38 1091.26,-185.87 1123.74,-197.34 1159.42,-212.31 1187.25,-224.56"/>
<polygon fill="black" stroke="black" points="1186.19,-227.92 1196.75,-228.76 1189.03,-221.51 1186.19,-227.92"/>
<text text-anchor="middle" x="1027.76" y="-188.87" font-family="monospace" font-size="10.00">&#45;&#45;tx&#45;in&#45;redeemer&#45;file</text>
</g>
<!-- TxBodyFile -->
<g id="node18" class="node">
<title>TxBodyFile</title>
<polygon fill="none" stroke="black" points="1535.26,-265.87 1474.26,-265.87 1474.26,-269.87 1462.26,-269.87 1462.26,-227.87 1535.26,-227.87 1535.26,-265.87"/>
<polyline fill="none" stroke="black" points="1462.26,-265.87 1474.26,-265.87 "/>
<text text-anchor="middle" x="1498.76" y="-250.67" font-family="Times-Roman" font-size="14.00">Tx Body</text>
<text text-anchor="middle" x="1498.76" y="-235.67" font-family="Times-Roman" font-size="14.00">File</text>
</g>
<!-- CardanoCLI&#45;&gt;TxBodyFile -->
<g id="edge21" class="edge">
<title>CardanoCLI&#45;&gt;TxBodyFile</title>
<path fill="none" stroke="black" d="M1365.35,-246.87C1396.34,-246.87 1427.53,-246.87 1451.85,-246.87"/>
<polygon fill="black" stroke="black" points="1452.17,-250.37 1462.17,-246.87 1452.17,-243.37 1452.17,-250.37"/>
<text text-anchor="middle" x="1413.76" y="-249.87" font-family="monospace" font-size="10.00">&#45;&#45;out&#45;file</text>
</g>
</g>
</svg>
