<?xml version="1.0" encoding="UTF-8" standalone="no"?>
<!DOCTYPE svg PUBLIC "-//W3C//DTD SVG 1.1//EN"
 "http://www.w3.org/Graphics/SVG/1.1/DTD/svg11.dtd">
<!-- Generated by graphviz version 2.43.0 (0)
 -->
<!-- Title: %3 Pages: 1 -->
<svg width="1367pt" height="500pt"
 viewBox="0.00 0.00 1367.26 499.74" xmlns="http://www.w3.org/2000/svg" xmlns:xlink="http://www.w3.org/1999/xlink">
<g id="graph0" class="graph" transform="scale(1 1) rotate(0) translate(4 495.74)">
<title>%3</title>
<polygon fill="white" stroke="transparent" points="-4,4 -4,-495.74 1363.26,-495.74 1363.26,4 -4,4"/>
<!-- Network -->
<g id="node1" class="node">
<title>Network</title>
<ellipse fill="none" stroke="black" cx="74.74" cy="-464.87" rx="60.21" ry="26.74"/>
<text text-anchor="middle" x="74.74" y="-468.67" font-family="Times-Roman" font-size="14.00">Mainnet</text>
<text text-anchor="middle" x="74.74" y="-453.67" font-family="Times-Roman" font-size="14.00">or Testnet</text>
</g>
<!-- AddressCommand -->
<g id="node4" class="node">
<title>AddressCommand</title>
<polygon fill="none" stroke="black" points="481.99,-416.87 308.99,-416.87 308.99,-380.87 481.99,-380.87 481.99,-416.87"/>
<text text-anchor="middle" x="395.49" y="-395.17" font-family="monospace" font-size="14.00">marlowe&#45;cli address</text>
</g>
<!-- Network&#45;&gt;AddressCommand -->
<g id="edge1" class="edge">
<title>Network&#45;&gt;AddressCommand</title>
<path fill="none" stroke="black" stroke-dasharray="5,2" d="M134.84,-462.79C176.58,-460.3 233.58,-454.85 282.49,-442.87 304.2,-437.55 327.32,-428.99 346.89,-420.83"/>
<polygon fill="black" stroke="black" points="348.36,-424.01 356.19,-416.87 345.62,-417.57 348.36,-424.01"/>
<text text-anchor="middle" x="224.99" y="-462.87" font-family="monospace" font-size="10.00">&#45;&#45;testnet&#45;magic</text>
</g>
<!-- ValidatorCommand -->
<g id="node6" class="node">
<title>ValidatorCommand</title>
<polygon fill="none" stroke="black" points="490.49,-356.87 300.49,-356.87 300.49,-320.87 490.49,-320.87 490.49,-356.87"/>
<text text-anchor="middle" x="395.49" y="-335.17" font-family="monospace" font-size="14.00">marlowe&#45;cli validator</text>
</g>
<!-- Network&#45;&gt;ValidatorCommand -->
<g id="edge5" class="edge">
<title>Network&#45;&gt;ValidatorCommand</title>
<path fill="none" stroke="black" stroke-dasharray="5,2" d="M129.36,-453.44C188.62,-440.61 276.57,-420.93 282.49,-415.87 298.54,-402.14 285.17,-386.43 300.49,-371.87 304.31,-368.24 308.55,-365.01 313.06,-362.13"/>
<polygon fill="black" stroke="black" points="315.07,-365.01 322.02,-357.01 311.6,-358.93 315.07,-365.01"/>
</g>
<!-- StakeAddress -->
<g id="node2" class="node">
<title>StakeAddress</title>
<ellipse fill="none" stroke="black" cx="74.74" cy="-401.87" rx="74.99" ry="18"/>
<text text-anchor="middle" x="74.74" y="-398.17" font-family="Times-Roman" font-size="14.00">Stake Address</text>
</g>
<!-- StakeAddress&#45;&gt;AddressCommand -->
<g id="edge2" class="edge">
<title>StakeAddress&#45;&gt;AddressCommand</title>
<path fill="none" stroke="black" stroke-dasharray="5,2" d="M149.67,-401.17C194.05,-400.76 250.99,-400.22 298.78,-399.77"/>
<polygon fill="black" stroke="black" points="298.87,-403.27 308.83,-399.68 298.8,-396.27 298.87,-403.27"/>
<text text-anchor="middle" x="224.99" y="-403.87" font-family="monospace" font-size="10.00">&#45;&#45;stake&#45;address</text>
</g>
<!-- StakeAddress&#45;&gt;ValidatorCommand -->
<g id="edge6" class="edge">
<title>StakeAddress&#45;&gt;ValidatorCommand</title>
<path fill="none" stroke="black" stroke-dasharray="5,2" d="M124.42,-388.26C133.19,-384.66 141.93,-380.24 149.49,-374.87 159.78,-367.55 156.24,-358.63 167.49,-352.87 204.66,-333.83 249.88,-328.13 290.14,-328.01"/>
<polygon fill="black" stroke="black" points="290.23,-331.51 300.26,-328.09 290.29,-324.51 290.23,-331.51"/>
</g>
<!-- RolesCurrency -->
<g id="node3" class="node">
<title>RolesCurrency</title>
<ellipse fill="none" stroke="black" cx="74.74" cy="-338.87" rx="55.72" ry="26.74"/>
<text text-anchor="middle" x="74.74" y="-342.67" font-family="Times-Roman" font-size="14.00">Currency</text>
<text text-anchor="middle" x="74.74" y="-327.67" font-family="Times-Roman" font-size="14.00">for Roles</text>
</g>
<!-- RolesCurrency&#45;&gt;AddressCommand -->
<g id="edge3" class="edge">
<title>RolesCurrency&#45;&gt;AddressCommand</title>
<path fill="none" stroke="black" stroke-dasharray="5,2" d="M126.96,-348.51C173.19,-357.21 242.42,-370.24 298.87,-380.87"/>
<polygon fill="black" stroke="black" points="298.42,-384.35 308.89,-382.76 299.71,-377.47 298.42,-384.35"/>
<text text-anchor="middle" x="224.99" y="-379.87" font-family="monospace" font-size="10.00">&#45;&#45;roles&#45;currency</text>
</g>
<!-- RolesCurrency&#45;&gt;ValidatorCommand -->
<g id="edge7" class="edge">
<title>RolesCurrency&#45;&gt;ValidatorCommand</title>
<path fill="none" stroke="black" stroke-dasharray="5,2" d="M128.53,-331.45C141.26,-329.96 154.84,-328.63 167.49,-327.87 218.51,-324.82 231.44,-325.37 282.49,-327.87 285.05,-328 287.64,-328.14 290.26,-328.29"/>
<polygon fill="black" stroke="black" points="290.22,-331.8 300.43,-328.96 290.68,-324.81 290.22,-331.8"/>
</g>
<!-- ValidatorAddress -->
<g id="node5" class="node">
<title>ValidatorAddress</title>
<ellipse fill="none" stroke="black" cx="681.88" cy="-380.87" rx="54.39" ry="26.74"/>
<text text-anchor="middle" x="681.88" y="-384.67" font-family="Times-Roman" font-size="14.00">Validator</text>
<text text-anchor="middle" x="681.88" y="-369.67" font-family="Times-Roman" font-size="14.00">Address</text>
</g>
<!-- AddressCommand&#45;&gt;ValidatorAddress -->
<g id="edge4" class="edge">
<title>AddressCommand&#45;&gt;ValidatorAddress</title>
<path fill="none" stroke="black" d="M482.2,-393.45C525.68,-390.69 577.57,-387.41 617.42,-384.89"/>
<polygon fill="black" stroke="black" points="617.78,-388.37 627.54,-384.25 617.34,-381.38 617.78,-388.37"/>
<text text-anchor="middle" x="541.99" y="-393.87" font-family="monospace" font-size="10.00">/dev/stdout</text>
</g>
<!-- CardanoCLI -->
<g id="node18" class="node">
<title>CardanoCLI</title>
<polygon fill="none" stroke="black" points="1189.26,-278.87 933.26,-278.87 933.26,-242.87 1189.26,-242.87 1189.26,-278.87"/>
<text text-anchor="middle" x="1061.26" y="-257.17" font-family="monospace" font-size="14.00">cardano&#45;cli transaction build</text>
</g>
<!-- ValidatorAddress&#45;&gt;CardanoCLI -->
<g id="edge18" class="edge">
<title>ValidatorAddress&#45;&gt;CardanoCLI</title>
<path fill="none" stroke="black" d="M730.39,-368.57C777.59,-356.06 851.89,-335.63 915.26,-314.87 945.16,-305.07 978.05,-292.94 1004.94,-282.66"/>
<polygon fill="black" stroke="black" points="1006.48,-285.81 1014.55,-278.96 1003.96,-279.28 1006.48,-285.81"/>
<text text-anchor="middle" x="851.76" y="-354.87" font-family="monospace" font-size="10.00">&#45;&#45;tx&#45;out</text>
</g>
<!-- ValidatorCommand&#45;&gt;ValidatorAddress -->
<g id="edge8" class="edge">
<title>ValidatorCommand&#45;&gt;ValidatorAddress</title>
<path fill="none" stroke="black" d="M490.79,-352.8C533.06,-359.04 581.72,-366.23 619.22,-371.77"/>
<polygon fill="black" stroke="black" points="619.09,-375.28 629.49,-373.28 620.11,-368.36 619.09,-375.28"/>
<text text-anchor="middle" x="541.99" y="-366.87" font-family="monospace" font-size="10.00">/dev/stdout</text>
</g>
<!-- ValidatorFile -->
<g id="node7" class="node">
<title>ValidatorFile</title>
<polygon fill="none" stroke="black" points="751.88,-335.87 623.88,-335.87 623.88,-339.87 611.88,-339.87 611.88,-297.87 751.88,-297.87 751.88,-335.87"/>
<polyline fill="none" stroke="black" points="611.88,-335.87 623.88,-335.87 "/>
<text text-anchor="middle" x="681.88" y="-320.67" font-family="Times-Roman" font-size="14.00">Marlowe Validator</text>
<text text-anchor="middle" x="681.88" y="-305.67" font-family="Times-Roman" font-size="14.00">Plutus File</text>
</g>
<!-- ValidatorCommand&#45;&gt;ValidatorFile -->
<g id="edge9" class="edge">
<title>ValidatorCommand&#45;&gt;ValidatorFile</title>
<path fill="none" stroke="black" d="M490.54,-326.57C496.61,-325.95 502.63,-325.37 508.49,-324.87 538.79,-322.28 572.18,-320.48 601.43,-319.26"/>
<polygon fill="black" stroke="black" points="601.74,-322.75 611.59,-318.85 601.46,-315.76 601.74,-322.75"/>
<text text-anchor="middle" x="541.99" y="-327.87" font-family="monospace" font-size="10.00">&#45;&#45;out&#45;file</text>
</g>
<!-- ValidatorFile&#45;&gt;CardanoCLI -->
<g id="edge19" class="edge">
<title>ValidatorFile&#45;&gt;CardanoCLI</title>
<path fill="none" stroke="black" d="M752.09,-306.6C801.38,-299.29 869.13,-289.23 928.56,-280.41"/>
<polygon fill="black" stroke="black" points="929.41,-283.83 938.79,-278.9 928.38,-276.9 929.41,-283.83"/>
<text text-anchor="middle" x="851.76" y="-302.87" font-family="monospace" font-size="10.00">&#45;&#45;tx&#45;in&#45;script&#45;file</text>
</g>
<!-- ContractFile -->
<g id="node8" class="node">
<title>ContractFile</title>
<polygon fill="none" stroke="black" points="143.74,-237.87 17.74,-237.87 17.74,-241.87 5.74,-241.87 5.74,-199.87 143.74,-199.87 143.74,-237.87"/>
<polyline fill="none" stroke="black" points="5.74,-237.87 17.74,-237.87 "/>
<text text-anchor="middle" x="74.74" y="-222.67" font-family="Times-Roman" font-size="14.00">Marlowe Contract</text>
<text text-anchor="middle" x="74.74" y="-207.67" font-family="Times-Roman" font-size="14.00">JSON File</text>
</g>
<!-- DatumCommand -->
<g id="node10" class="node">
<title>DatumCommand</title>
<polygon fill="none" stroke="black" points="473.99,-249.87 316.99,-249.87 316.99,-213.87 473.99,-213.87 473.99,-249.87"/>
<text text-anchor="middle" x="395.49" y="-228.17" font-family="monospace" font-size="14.00">marlowe&#45;cli datum</text>
</g>
<!-- ContractFile&#45;&gt;DatumCommand -->
<g id="edge10" class="edge">
<title>ContractFile&#45;&gt;DatumCommand</title>
<path fill="none" stroke="black" d="M144.12,-221.66C191.71,-223.6 255.58,-226.2 306.89,-228.3"/>
<polygon fill="black" stroke="black" points="306.85,-231.8 316.98,-228.71 307.13,-224.8 306.85,-231.8"/>
<text text-anchor="middle" x="224.99" y="-229.87" font-family="monospace" font-size="10.00">&#45;&#45;contract&#45;file</text>
</g>
<!-- StateFile -->
<g id="node9" class="node">
<title>StateFile</title>
<polygon fill="none" stroke="black" points="132.24,-293.87 29.24,-293.87 29.24,-297.87 17.24,-297.87 17.24,-255.87 132.24,-255.87 132.24,-293.87"/>
<polyline fill="none" stroke="black" points="17.24,-293.87 29.24,-293.87 "/>
<text text-anchor="middle" x="74.74" y="-278.67" font-family="Times-Roman" font-size="14.00">Marlowe State</text>
<text text-anchor="middle" x="74.74" y="-263.67" font-family="Times-Roman" font-size="14.00">JSON File</text>
</g>
<!-- StateFile&#45;&gt;DatumCommand -->
<g id="edge11" class="edge">
<title>StateFile&#45;&gt;DatumCommand</title>
<path fill="none" stroke="black" d="M132.36,-267.23C180.7,-260.71 251.01,-251.23 306.65,-243.72"/>
<polygon fill="black" stroke="black" points="307.42,-247.15 316.86,-242.34 306.48,-240.21 307.42,-247.15"/>
<text text-anchor="middle" x="224.99" y="-264.87" font-family="monospace" font-size="10.00">&#45;&#45;state&#45;file</text>
</g>
<!-- DatumFile -->
<g id="node11" class="node">
<title>DatumFile</title>
<polygon fill="none" stroke="black" points="744.38,-279.87 631.38,-279.87 631.38,-283.87 619.38,-283.87 619.38,-241.87 744.38,-241.87 744.38,-279.87"/>
<polyline fill="none" stroke="black" points="619.38,-279.87 631.38,-279.87 "/>
<text text-anchor="middle" x="681.88" y="-264.67" font-family="Times-Roman" font-size="14.00">Marlowe Datum</text>
<text text-anchor="middle" x="681.88" y="-249.67" font-family="Times-Roman" font-size="14.00">JSON File</text>
</g>
<!-- DatumCommand&#45;&gt;DatumFile -->
<g id="edge12" class="edge">
<title>DatumCommand&#45;&gt;DatumFile</title>
<path fill="none" stroke="black" d="M474.2,-239.79C516.28,-244.09 567.93,-249.35 609.06,-253.55"/>
<polygon fill="black" stroke="black" points="608.71,-257.03 619.01,-254.56 609.42,-250.07 608.71,-257.03"/>
<text text-anchor="middle" x="541.99" y="-251.87" font-family="monospace" font-size="10.00">&#45;&#45;out&#45;file</text>
</g>
<!-- DatumHash -->
<g id="node12" class="node">
<title>DatumHash</title>
<ellipse fill="none" stroke="black" cx="681.88" cy="-196.87" rx="88.28" ry="26.74"/>
<text text-anchor="middle" x="681.88" y="-200.67" font-family="Times-Roman" font-size="14.00">Marlowe Datum</text>
<text text-anchor="middle" x="681.88" y="-185.67" font-family="Times-Roman" font-size="14.00">Hash</text>
</g>
<!-- DatumCommand&#45;&gt;DatumHash -->
<g id="edge13" class="edge">
<title>DatumCommand&#45;&gt;DatumHash</title>
<path fill="none" stroke="black" d="M474.2,-222.31C509.82,-217.92 552.3,-212.69 589.46,-208.12"/>
<polygon fill="black" stroke="black" points="590.29,-211.55 599.79,-206.85 589.43,-204.6 590.29,-211.55"/>
<text text-anchor="middle" x="541.99" y="-219.87" font-family="monospace" font-size="10.00">/dev/stdout</text>
</g>
<!-- DatumFile&#45;&gt;CardanoCLI -->
<g id="edge20" class="edge">
<title>DatumFile&#45;&gt;CardanoCLI</title>
<path fill="none" stroke="black" d="M744.77,-260.87C793,-260.87 861.81,-260.87 922.86,-260.87"/>
<polygon fill="black" stroke="black" points="922.98,-264.37 932.98,-260.87 922.98,-257.37 922.98,-264.37"/>
<text text-anchor="middle" x="851.76" y="-263.87" font-family="monospace" font-size="10.00">&#45;&#45;tx&#45;in&#45;datum&#45;file</text>
</g>
<!-- DatumHash&#45;&gt;CardanoCLI -->
<g id="edge22" class="edge">
<title>DatumHash&#45;&gt;CardanoCLI</title>
<path fill="none" stroke="black" d="M759.7,-209.9C812.68,-218.88 884.07,-230.99 943.98,-241.15"/>
<polygon fill="black" stroke="black" points="943.42,-244.61 953.87,-242.83 944.59,-237.7 943.42,-244.61"/>
<text text-anchor="middle" x="851.76" y="-236.87" font-family="monospace" font-size="10.00">&#45;&#45;tx&#45;out&#45;datum&#45;hash</text>
</g>
<!-- InputsFile -->
<g id="node13" class="node">
<title>InputsFile</title>
<polygon fill="none" stroke="black" points="136.24,-181.87 25.24,-181.87 25.24,-185.87 13.24,-185.87 13.24,-143.87 136.24,-143.87 136.24,-181.87"/>
<polyline fill="none" stroke="black" points="13.24,-181.87 25.24,-181.87 "/>
<text text-anchor="middle" x="74.74" y="-166.67" font-family="Times-Roman" font-size="14.00">Marlowe Inputs</text>
<text text-anchor="middle" x="74.74" y="-151.67" font-family="Times-Roman" font-size="14.00">JSON File</text>
</g>
<!-- RedeemerCommand -->
<g id="node16" class="node">
<title>RedeemerCommand</title>
<polygon fill="none" stroke="black" points="486.49,-117.87 304.49,-117.87 304.49,-81.87 486.49,-81.87 486.49,-117.87"/>
<text text-anchor="middle" x="395.49" y="-96.17" font-family="monospace" font-size="14.00">marlowe&#45;cli redeemer</text>
</g>
<!-- InputsFile&#45;&gt;RedeemerCommand -->
<g id="edge14" class="edge">
<title>InputsFile&#45;&gt;RedeemerCommand</title>
<path fill="none" stroke="black" stroke-dasharray="5,2" d="M136.45,-150.87C181.08,-142.05 242.72,-129.87 294.57,-119.62"/>
<polygon fill="black" stroke="black" points="295.33,-123.04 304.46,-117.66 293.98,-116.17 295.33,-123.04"/>
<text text-anchor="middle" x="224.99" y="-146.87" font-family="monospace" font-size="10.00">&#45;&#45;inputs&#45;file</text>
</g>
<!-- MinSlot -->
<g id="node14" class="node">
<title>MinSlot</title>
<ellipse fill="none" stroke="black" cx="74.74" cy="-98.87" rx="57.05" ry="26.74"/>
<text text-anchor="middle" x="74.74" y="-102.67" font-family="Times-Roman" font-size="14.00">Minimum</text>
<text text-anchor="middle" x="74.74" y="-87.67" font-family="Times-Roman" font-size="14.00">Slot</text>
</g>
<!-- MinSlot&#45;&gt;RedeemerCommand -->
<g id="edge15" class="edge">
<title>MinSlot&#45;&gt;RedeemerCommand</title>
<path fill="none" stroke="black" d="M132.36,-99.05C177.15,-99.19 240.81,-99.39 294.18,-99.56"/>
<polygon fill="black" stroke="black" points="294.36,-103.06 304.37,-99.59 294.38,-96.06 294.36,-103.06"/>
<text text-anchor="middle" x="224.99" y="-101.87" font-family="monospace" font-size="10.00">&#45;&#45;redeemer&#45;min&#45;slot</text>
</g>
<!-- MaxSlot -->
<g id="node15" class="node">
<title>MaxSlot</title>
<ellipse fill="none" stroke="black" cx="74.74" cy="-26.87" rx="60.21" ry="26.74"/>
<text text-anchor="middle" x="74.74" y="-30.67" font-family="Times-Roman" font-size="14.00">Maximum</text>
<text text-anchor="middle" x="74.74" y="-15.67" font-family="Times-Roman" font-size="14.00">Slot</text>
</g>
<!-- MaxSlot&#45;&gt;RedeemerCommand -->
<g id="edge16" class="edge">
<title>MaxSlot&#45;&gt;RedeemerCommand</title>
<path fill="none" stroke="black" d="M128.74,-39.01C176.83,-50.02 248.71,-66.48 305.6,-79.51"/>
<polygon fill="black" stroke="black" points="305.14,-83 315.67,-81.82 306.7,-76.18 305.14,-83"/>
<text text-anchor="middle" x="224.99" y="-76.87" font-family="monospace" font-size="10.00">&#45;&#45;redeemer&#45;max&#45;slot</text>
</g>
<!-- RedeemerFile -->
<g id="node17" class="node">
<title>RedeemerFile</title>
<polygon fill="none" stroke="black" points="756.38,-141.87 619.38,-141.87 619.38,-145.87 607.38,-145.87 607.38,-103.87 756.38,-103.87 756.38,-141.87"/>
<polyline fill="none" stroke="black" points="607.38,-141.87 619.38,-141.87 "/>
<text text-anchor="middle" x="681.88" y="-126.67" font-family="Times-Roman" font-size="14.00">Marlowe Redeemer</text>
<text text-anchor="middle" x="681.88" y="-111.67" font-family="Times-Roman" font-size="14.00">JSON File</text>
</g>
<!-- RedeemerCommand&#45;&gt;RedeemerFile -->
<g id="edge17" class="edge">
<title>RedeemerCommand&#45;&gt;RedeemerFile</title>
<path fill="none" stroke="black" d="M486.86,-107.18C522.24,-110.04 562.58,-113.3 597.27,-116.11"/>
<polygon fill="black" stroke="black" points="597.12,-119.61 607.37,-116.93 597.69,-112.63 597.12,-119.61"/>
<text text-anchor="middle" x="541.99" y="-116.87" font-family="monospace" font-size="10.00">&#45;&#45;out&#45;file</text>
</g>
<!-- RedeemerFile&#45;&gt;CardanoCLI -->
<g id="edge21" class="edge">
<title>RedeemerFile&#45;&gt;CardanoCLI</title>
<path fill="none" stroke="black" d="M744.99,-141.99C792.06,-156.84 858.16,-178.44 915.26,-199.87 947.17,-211.85 982.42,-226.64 1010.18,-238.66"/>
<polygon fill="black" stroke="black" points="1009.1,-242.01 1019.67,-242.79 1011.89,-235.59 1009.1,-242.01"/>
<text text-anchor="middle" x="851.76" y="-202.87" font-family="monospace" font-size="10.00">&#45;&#45;tx&#45;in&#45;redeemer&#45;file</text>
</g>
<!-- TxBodyFile -->
<g id="node19" class="node">
<title>TxBodyFile</title>
<polygon fill="none" stroke="black" points="1359.26,-279.87 1298.26,-279.87 1298.26,-283.87 1286.26,-283.87 1286.26,-241.87 1359.26,-241.87 1359.26,-279.87"/>
<polyline fill="none" stroke="black" points="1286.26,-279.87 1298.26,-279.87 "/>
<text text-anchor="middle" x="1322.76" y="-264.67" font-family="Times-Roman" font-size="14.00">Tx Body</text>
<text text-anchor="middle" x="1322.76" y="-249.67" font-family="Times-Roman" font-size="14.00">File</text>
</g>
<!-- CardanoCLI&#45;&gt;TxBodyFile -->
<g id="edge23" class="edge">
<title>CardanoCLI&#45;&gt;TxBodyFile</title>
<path fill="none" stroke="black" d="M1189.35,-260.87C1220.34,-260.87 1251.53,-260.87 1275.85,-260.87"/>
<polygon fill="black" stroke="black" points="1276.17,-264.37 1286.17,-260.87 1276.17,-257.37 1276.17,-264.37"/>
<text text-anchor="middle" x="1237.76" y="-263.87" font-family="monospace" font-size="10.00">&#45;&#45;out&#45;file</text>
</g>
</g>
</svg>
