<?xml version="1.0" encoding="UTF-8" standalone="no"?>
<!DOCTYPE svg PUBLIC "-//W3C//DTD SVG 1.1//EN"
 "http://www.w3.org/Graphics/SVG/1.1/DTD/svg11.dtd">
<!-- Generated by graphviz version 2.43.0 (0)
 -->
<!-- Title: %3 Pages: 1 -->
<svg width="1532pt" height="518pt"
 viewBox="0.00 0.00 1531.78 517.74" xmlns="http://www.w3.org/2000/svg" xmlns:xlink="http://www.w3.org/1999/xlink">
<g id="graph0" class="graph" transform="scale(1 1) rotate(0) translate(4 513.74)">
<title>%3</title>
<polygon fill="white" stroke="transparent" points="-4,4 -4,-513.74 1527.78,-513.74 1527.78,4 -4,4"/>
<!-- Network -->
<g id="node1" class="node">
<title>Network</title>
<ellipse fill="none" stroke="black" cx="69" cy="-482.87" rx="60.21" ry="26.74"/>
<text text-anchor="middle" x="69" y="-486.67" font-family="Times-Roman" font-size="14.00">Mainnet</text>
<text text-anchor="middle" x="69" y="-471.67" font-family="Times-Roman" font-size="14.00">or Testnet</text>
</g>
<!-- ExportCommand -->
<g id="node9" class="node">
<title>ExportCommand</title>
<polygon fill="none" stroke="black" points="454,-264.87 289,-264.87 289,-228.87 454,-228.87 454,-264.87"/>
<text text-anchor="middle" x="371.5" y="-243.17" font-family="monospace" font-size="14.00">marlowe&#45;cli export</text>
</g>
<!-- Network&#45;&gt;ExportCommand -->
<g id="edge1" class="edge">
<title>Network&#45;&gt;ExportCommand</title>
<path fill="none" stroke="black" stroke-dasharray="5,2" d="M121.45,-469.53C164.9,-456.31 226.91,-432.65 271,-395.87 311.7,-361.92 342.29,-307.16 358.21,-274.33"/>
<polygon fill="black" stroke="black" points="361.56,-275.43 362.67,-264.89 355.23,-272.44 361.56,-275.43"/>
<text text-anchor="middle" x="213.5" y="-459.87" font-family="monospace" font-size="10.00">&#45;&#45;testnet&#45;magic</text>
</g>
<!-- StakeAddress -->
<g id="node2" class="node">
<title>StakeAddress</title>
<ellipse fill="none" stroke="black" cx="69" cy="-410.87" rx="50.82" ry="26.74"/>
<text text-anchor="middle" x="69" y="-414.67" font-family="Times-Roman" font-size="14.00">Stake</text>
<text text-anchor="middle" x="69" y="-399.67" font-family="Times-Roman" font-size="14.00">Address</text>
</g>
<!-- StakeAddress&#45;&gt;ExportCommand -->
<g id="edge2" class="edge">
<title>StakeAddress&#45;&gt;ExportCommand</title>
<path fill="none" stroke="black" stroke-dasharray="5,2" d="M113.34,-397.44C155.29,-383.48 219.87,-359.4 271,-328.87 298.03,-312.73 325.38,-289.58 344.56,-271.99"/>
<polygon fill="black" stroke="black" points="347.06,-274.44 351.99,-265.07 342.29,-269.32 347.06,-274.44"/>
<text text-anchor="middle" x="213.5" y="-383.87" font-family="monospace" font-size="10.00">&#45;&#45;stake&#45;address</text>
</g>
<!-- RolesCurrency -->
<g id="node3" class="node">
<title>RolesCurrency</title>
<ellipse fill="none" stroke="black" cx="69" cy="-338.87" rx="55.72" ry="26.74"/>
<text text-anchor="middle" x="69" y="-342.67" font-family="Times-Roman" font-size="14.00">Currency</text>
<text text-anchor="middle" x="69" y="-327.67" font-family="Times-Roman" font-size="14.00">for Roles</text>
</g>
<!-- RolesCurrency&#45;&gt;ExportCommand -->
<g id="edge3" class="edge">
<title>RolesCurrency&#45;&gt;ExportCommand</title>
<path fill="none" stroke="black" stroke-dasharray="5,2" d="M118.12,-325.69C158.96,-314.33 219.04,-297.23 271,-280.87 283.56,-276.92 296.94,-272.49 309.68,-268.17"/>
<polygon fill="black" stroke="black" points="310.93,-271.44 319.27,-264.9 308.68,-264.82 310.93,-271.44"/>
<text text-anchor="middle" x="213.5" y="-316.87" font-family="monospace" font-size="10.00">&#45;&#45;roles&#45;currency</text>
</g>
<!-- ContractFile -->
<g id="node4" class="node">
<title>ContractFile</title>
<polygon fill="none" stroke="black" points="138,-293.87 12,-293.87 12,-297.87 0,-297.87 0,-255.87 138,-255.87 138,-293.87"/>
<polyline fill="none" stroke="black" points="0,-293.87 12,-293.87 "/>
<text text-anchor="middle" x="69" y="-278.67" font-family="Times-Roman" font-size="14.00">Marlowe Contract</text>
<text text-anchor="middle" x="69" y="-263.67" font-family="Times-Roman" font-size="14.00">JSON File</text>
</g>
<!-- ContractFile&#45;&gt;ExportCommand -->
<g id="edge4" class="edge">
<title>ContractFile&#45;&gt;ExportCommand</title>
<path fill="none" stroke="black" d="M138.19,-268.52C179.8,-264.64 233.54,-259.63 278.84,-255.41"/>
<polygon fill="black" stroke="black" points="279.33,-258.88 288.97,-254.47 278.68,-251.91 279.33,-258.88"/>
<text text-anchor="middle" x="213.5" y="-268.87" font-family="monospace" font-size="10.00">&#45;&#45;contract&#45;file</text>
</g>
<!-- StateFile -->
<g id="node5" class="node">
<title>StateFile</title>
<polygon fill="none" stroke="black" points="126.5,-237.87 23.5,-237.87 23.5,-241.87 11.5,-241.87 11.5,-199.87 126.5,-199.87 126.5,-237.87"/>
<polyline fill="none" stroke="black" points="11.5,-237.87 23.5,-237.87 "/>
<text text-anchor="middle" x="69" y="-222.67" font-family="Times-Roman" font-size="14.00">Marlowe State</text>
<text text-anchor="middle" x="69" y="-207.67" font-family="Times-Roman" font-size="14.00">JSON File</text>
</g>
<!-- StateFile&#45;&gt;ExportCommand -->
<g id="edge5" class="edge">
<title>StateFile&#45;&gt;ExportCommand</title>
<path fill="none" stroke="black" d="M126.52,-224.14C169.39,-228.13 229.2,-233.7 278.87,-238.33"/>
<polygon fill="black" stroke="black" points="278.71,-241.83 288.99,-239.27 279.35,-234.86 278.71,-241.83"/>
<text text-anchor="middle" x="213.5" y="-239.87" font-family="monospace" font-size="10.00">&#45;&#45;state&#45;file</text>
</g>
<!-- InputsFile -->
<g id="node6" class="node">
<title>InputsFile</title>
<polygon fill="none" stroke="black" points="130.5,-181.87 19.5,-181.87 19.5,-185.87 7.5,-185.87 7.5,-143.87 130.5,-143.87 130.5,-181.87"/>
<polyline fill="none" stroke="black" points="7.5,-181.87 19.5,-181.87 "/>
<text text-anchor="middle" x="69" y="-166.67" font-family="Times-Roman" font-size="14.00">Marlowe Inputs</text>
<text text-anchor="middle" x="69" y="-151.67" font-family="Times-Roman" font-size="14.00">JSON File</text>
</g>
<!-- InputsFile&#45;&gt;ExportCommand -->
<g id="edge6" class="edge">
<title>InputsFile&#45;&gt;ExportCommand</title>
<path fill="none" stroke="black" stroke-dasharray="5,2" d="M130.67,-176.01C170.77,-185.1 224.35,-198.01 271,-211.87 284.56,-215.9 299,-220.68 312.55,-225.4"/>
<polygon fill="black" stroke="black" points="311.64,-228.79 322.23,-228.81 313.96,-222.19 311.64,-228.79"/>
<text text-anchor="middle" x="213.5" y="-214.87" font-family="monospace" font-size="10.00">&#45;&#45;inputs&#45;file</text>
</g>
<!-- MinSlot -->
<g id="node7" class="node">
<title>MinSlot</title>
<ellipse fill="none" stroke="black" cx="69" cy="-98.87" rx="57.05" ry="26.74"/>
<text text-anchor="middle" x="69" y="-102.67" font-family="Times-Roman" font-size="14.00">Minimum</text>
<text text-anchor="middle" x="69" y="-87.67" font-family="Times-Roman" font-size="14.00">Slot</text>
</g>
<!-- MinSlot&#45;&gt;ExportCommand -->
<g id="edge7" class="edge">
<title>MinSlot&#45;&gt;ExportCommand</title>
<path fill="none" stroke="black" d="M120.77,-110.74C162.68,-121.77 222.87,-140.47 271,-166.87 298.33,-181.86 325.66,-204.52 344.74,-221.9"/>
<polygon fill="black" stroke="black" points="342.42,-224.53 352.14,-228.75 347.18,-219.39 342.42,-224.53"/>
<text text-anchor="middle" x="213.5" y="-169.87" font-family="monospace" font-size="10.00">&#45;&#45;redeemer&#45;min&#45;slot</text>
</g>
<!-- MaxSlot -->
<g id="node8" class="node">
<title>MaxSlot</title>
<ellipse fill="none" stroke="black" cx="69" cy="-26.87" rx="60.21" ry="26.74"/>
<text text-anchor="middle" x="69" y="-30.67" font-family="Times-Roman" font-size="14.00">Maximum</text>
<text text-anchor="middle" x="69" y="-15.67" font-family="Times-Roman" font-size="14.00">Slot</text>
</g>
<!-- MaxSlot&#45;&gt;ExportCommand -->
<g id="edge8" class="edge">
<title>MaxSlot&#45;&gt;ExportCommand</title>
<path fill="none" stroke="black" d="M123.39,-38.78C166.58,-50.42 227.2,-71.5 271,-105.87 310.73,-137.05 341.28,-188.3 357.51,-219.67"/>
<polygon fill="black" stroke="black" points="354.45,-221.38 362.08,-228.73 360.7,-218.22 354.45,-221.38"/>
<text text-anchor="middle" x="213.5" y="-108.87" font-family="monospace" font-size="10.00">&#45;&#45;redeemer&#45;max&#45;slot</text>
</g>
<!-- MarloweFile -->
<g id="node10" class="node">
<title>MarloweFile</title>
<polygon fill="none" stroke="black" points="630,-265.87 563,-265.87 563,-269.87 551,-269.87 551,-227.87 630,-227.87 630,-265.87"/>
<polyline fill="none" stroke="black" points="551,-265.87 563,-265.87 "/>
<text text-anchor="middle" x="590.5" y="-250.67" font-family="Times-Roman" font-size="14.00">Marlowe</text>
<text text-anchor="middle" x="590.5" y="-235.67" font-family="Times-Roman" font-size="14.00">JSON File</text>
</g>
<!-- ExportCommand&#45;&gt;MarloweFile -->
<g id="edge9" class="edge">
<title>ExportCommand&#45;&gt;MarloweFile</title>
<path fill="none" stroke="black" d="M454.23,-246.87C483.37,-246.87 515.27,-246.87 540.76,-246.87"/>
<polygon fill="black" stroke="black" points="540.91,-250.37 550.91,-246.87 540.91,-243.37 540.91,-250.37"/>
<text text-anchor="middle" x="502.5" y="-249.87" font-family="monospace" font-size="10.00">&#45;&#45;out&#45;file</text>
</g>
<!-- JQ -->
<g id="node11" class="node">
<title>JQ</title>
<polygon fill="none" stroke="black" points="721,-264.87 667,-264.87 667,-228.87 721,-228.87 721,-264.87"/>
<text text-anchor="middle" x="694" y="-243.17" font-family="monospace" font-size="14.00">jq</text>
</g>
<!-- MarloweFile&#45;&gt;JQ -->
<g id="edge10" class="edge">
<title>MarloweFile&#45;&gt;JQ</title>
<path fill="none" stroke="black" d="M630.16,-246.87C638.85,-246.87 648.03,-246.87 656.62,-246.87"/>
<polygon fill="black" stroke="black" points="656.72,-250.37 666.72,-246.87 656.72,-243.37 656.72,-250.37"/>
</g>
<!-- ValidatorAddress -->
<g id="node12" class="node">
<title>ValidatorAddress</title>
<ellipse fill="none" stroke="black" cx="846.39" cy="-366.87" rx="54.39" ry="26.74"/>
<text text-anchor="middle" x="846.39" y="-370.67" font-family="Times-Roman" font-size="14.00">Validator</text>
<text text-anchor="middle" x="846.39" y="-355.67" font-family="Times-Roman" font-size="14.00">Address</text>
</g>
<!-- JQ&#45;&gt;ValidatorAddress -->
<g id="edge11" class="edge">
<title>JQ&#45;&gt;ValidatorAddress</title>
<path fill="none" stroke="black" d="M704.8,-265.21C715.63,-283.95 734.65,-312.79 758,-330.87 767.53,-338.25 778.78,-344.36 789.98,-349.32"/>
<polygon fill="black" stroke="black" points="788.77,-352.6 799.34,-353.21 791.46,-346.14 788.77,-352.6"/>
</g>
<!-- ValidatorFile -->
<g id="node13" class="node">
<title>ValidatorFile</title>
<polygon fill="none" stroke="black" points="916.39,-321.87 788.39,-321.87 788.39,-325.87 776.39,-325.87 776.39,-283.87 916.39,-283.87 916.39,-321.87"/>
<polyline fill="none" stroke="black" points="776.39,-321.87 788.39,-321.87 "/>
<text text-anchor="middle" x="846.39" y="-306.67" font-family="Times-Roman" font-size="14.00">Marlowe Validator</text>
<text text-anchor="middle" x="846.39" y="-291.67" font-family="Times-Roman" font-size="14.00">Plutus File</text>
</g>
<!-- JQ&#45;&gt;ValidatorFile -->
<g id="edge12" class="edge">
<title>JQ&#45;&gt;ValidatorFile</title>
<path fill="none" stroke="black" d="M721.1,-259.23C732.34,-264.35 745.7,-270.18 758,-274.87 763.02,-276.79 768.24,-278.68 773.52,-280.53"/>
<polygon fill="black" stroke="black" points="772.45,-283.86 783.04,-283.81 774.72,-277.24 772.45,-283.86"/>
</g>
<!-- DatumFile -->
<g id="node14" class="node">
<title>DatumFile</title>
<polygon fill="none" stroke="black" points="908.89,-265.87 795.89,-265.87 795.89,-269.87 783.89,-269.87 783.89,-227.87 908.89,-227.87 908.89,-265.87"/>
<polyline fill="none" stroke="black" points="783.89,-265.87 795.89,-265.87 "/>
<text text-anchor="middle" x="846.39" y="-250.67" font-family="Times-Roman" font-size="14.00">Marlowe Datum</text>
<text text-anchor="middle" x="846.39" y="-235.67" font-family="Times-Roman" font-size="14.00">JSON File</text>
</g>
<!-- JQ&#45;&gt;DatumFile -->
<g id="edge13" class="edge">
<title>JQ&#45;&gt;DatumFile</title>
<path fill="none" stroke="black" d="M721.2,-246.87C735.82,-246.87 754.82,-246.87 773.55,-246.87"/>
<polygon fill="black" stroke="black" points="773.59,-250.37 783.59,-246.87 773.59,-243.37 773.59,-250.37"/>
</g>
<!-- DatumHash -->
<g id="node15" class="node">
<title>DatumHash</title>
<ellipse fill="none" stroke="black" cx="846.39" cy="-182.87" rx="88.28" ry="26.74"/>
<text text-anchor="middle" x="846.39" y="-186.67" font-family="Times-Roman" font-size="14.00">Marlowe Datum</text>
<text text-anchor="middle" x="846.39" y="-171.67" font-family="Times-Roman" font-size="14.00">Hash</text>
</g>
<!-- JQ&#45;&gt;DatumHash -->
<g id="edge14" class="edge">
<title>JQ&#45;&gt;DatumHash</title>
<path fill="none" stroke="black" d="M721.29,-234.99C732.56,-229.95 745.9,-224.05 758,-218.87 766.11,-215.4 774.67,-211.8 783.13,-208.27"/>
<polygon fill="black" stroke="black" points="784.71,-211.4 792.61,-204.34 782.03,-204.94 784.71,-211.4"/>
</g>
<!-- RedeemerFile -->
<g id="node16" class="node">
<title>RedeemerFile</title>
<polygon fill="none" stroke="black" points="920.89,-137.87 783.89,-137.87 783.89,-141.87 771.89,-141.87 771.89,-99.87 920.89,-99.87 920.89,-137.87"/>
<polyline fill="none" stroke="black" points="771.89,-137.87 783.89,-137.87 "/>
<text text-anchor="middle" x="846.39" y="-122.67" font-family="Times-Roman" font-size="14.00">Marlowe Redeemer</text>
<text text-anchor="middle" x="846.39" y="-107.67" font-family="Times-Roman" font-size="14.00">JSON File</text>
</g>
<!-- JQ&#45;&gt;RedeemerFile -->
<g id="edge15" class="edge">
<title>JQ&#45;&gt;RedeemerFile</title>
<path fill="none" stroke="black" d="M701.89,-228.62C711.25,-206.2 730.1,-168.49 758,-146.87 759.61,-145.63 761.27,-144.44 762.98,-143.3"/>
<polygon fill="black" stroke="black" points="765.05,-146.14 771.87,-138.03 761.49,-140.11 765.05,-146.14"/>
</g>
<!-- CardanoCLI -->
<g id="node17" class="node">
<title>CardanoCLI</title>
<polygon fill="none" stroke="black" points="1353.78,-264.87 1097.78,-264.87 1097.78,-228.87 1353.78,-228.87 1353.78,-264.87"/>
<text text-anchor="middle" x="1225.78" y="-243.17" font-family="monospace" font-size="14.00">cardano&#45;cli transaction build</text>
</g>
<!-- ValidatorAddress&#45;&gt;CardanoCLI -->
<g id="edge16" class="edge">
<title>ValidatorAddress&#45;&gt;CardanoCLI</title>
<path fill="none" stroke="black" d="M894.9,-354.57C942.11,-342.06 1016.41,-321.63 1079.78,-300.87 1109.67,-291.07 1142.56,-278.94 1169.45,-268.66"/>
<polygon fill="black" stroke="black" points="1170.99,-271.81 1179.07,-264.96 1168.48,-265.28 1170.99,-271.81"/>
<text text-anchor="middle" x="1016.28" y="-340.87" font-family="monospace" font-size="10.00">&#45;&#45;tx&#45;out</text>
</g>
<!-- ValidatorFile&#45;&gt;CardanoCLI -->
<g id="edge17" class="edge">
<title>ValidatorFile&#45;&gt;CardanoCLI</title>
<path fill="none" stroke="black" d="M916.61,-292.6C965.89,-285.29 1033.64,-275.23 1093.07,-266.41"/>
<polygon fill="black" stroke="black" points="1093.92,-269.83 1103.3,-264.9 1092.89,-262.9 1093.92,-269.83"/>
<text text-anchor="middle" x="1016.28" y="-288.87" font-family="monospace" font-size="10.00">&#45;&#45;tx&#45;in&#45;script&#45;file</text>
</g>
<!-- DatumFile&#45;&gt;CardanoCLI -->
<g id="edge18" class="edge">
<title>DatumFile&#45;&gt;CardanoCLI</title>
<path fill="none" stroke="black" d="M909.28,-246.87C957.52,-246.87 1026.32,-246.87 1087.38,-246.87"/>
<polygon fill="black" stroke="black" points="1087.49,-250.37 1097.49,-246.87 1087.49,-243.37 1087.49,-250.37"/>
<text text-anchor="middle" x="1016.28" y="-249.87" font-family="monospace" font-size="10.00">&#45;&#45;tx&#45;in&#45;datum&#45;file</text>
</g>
<!-- DatumHash&#45;&gt;CardanoCLI -->
<g id="edge20" class="edge">
<title>DatumHash&#45;&gt;CardanoCLI</title>
<path fill="none" stroke="black" d="M924.21,-195.9C977.19,-204.88 1048.58,-216.99 1108.49,-227.15"/>
<polygon fill="black" stroke="black" points="1107.94,-230.61 1118.38,-228.83 1109.11,-223.7 1107.94,-230.61"/>
<text text-anchor="middle" x="1016.28" y="-222.87" font-family="monospace" font-size="10.00">&#45;&#45;tx&#45;out&#45;datum&#45;hash</text>
</g>
<!-- RedeemerFile&#45;&gt;CardanoCLI -->
<g id="edge19" class="edge">
<title>RedeemerFile&#45;&gt;CardanoCLI</title>
<path fill="none" stroke="black" d="M921.09,-137.74C967.14,-150.11 1027.42,-167.38 1079.78,-185.87 1112.26,-197.34 1147.93,-212.31 1175.77,-224.56"/>
<polygon fill="black" stroke="black" points="1174.7,-227.92 1185.27,-228.76 1177.54,-221.51 1174.7,-227.92"/>
<text text-anchor="middle" x="1016.28" y="-188.87" font-family="monospace" font-size="10.00">&#45;&#45;tx&#45;in&#45;redeemer&#45;file</text>
</g>
<!-- TxBodyFile -->
<g id="node18" class="node">
<title>TxBodyFile</title>
<polygon fill="none" stroke="black" points="1523.78,-265.87 1462.78,-265.87 1462.78,-269.87 1450.78,-269.87 1450.78,-227.87 1523.78,-227.87 1523.78,-265.87"/>
<polyline fill="none" stroke="black" points="1450.78,-265.87 1462.78,-265.87 "/>
<text text-anchor="middle" x="1487.28" y="-250.67" font-family="Times-Roman" font-size="14.00">Tx Body</text>
<text text-anchor="middle" x="1487.28" y="-235.67" font-family="Times-Roman" font-size="14.00">File</text>
</g>
<!-- CardanoCLI&#45;&gt;TxBodyFile -->
<g id="edge21" class="edge">
<title>CardanoCLI&#45;&gt;TxBodyFile</title>
<path fill="none" stroke="black" d="M1353.87,-246.87C1384.85,-246.87 1416.04,-246.87 1440.36,-246.87"/>
<polygon fill="black" stroke="black" points="1440.68,-250.37 1450.68,-246.87 1440.68,-243.37 1440.68,-250.37"/>
<text text-anchor="middle" x="1402.28" y="-249.87" font-family="monospace" font-size="10.00">&#45;&#45;out&#45;file</text>
</g>
</g>
</svg>
