<?xml version="1.0" encoding="UTF-8" standalone="no"?>
<!DOCTYPE svg PUBLIC "-//W3C//DTD SVG 1.1//EN"
 "http://www.w3.org/Graphics/SVG/1.1/DTD/svg11.dtd">
<!-- Generated by graphviz version 2.49.3 (0)
 -->
<!-- Pages: 1 -->
<svg width="1582pt" height="833pt"
 viewBox="0.00 0.00 1582.00 833.00" xmlns="http://www.w3.org/2000/svg" xmlns:xlink="http://www.w3.org/1999/xlink">
<g id="graph0" class="graph" transform="scale(1 1) rotate(0) translate(4 829)">
<polygon fill="white" stroke="transparent" points="-4,4 -4,-829 1578,-829 1578,4 -4,4"/>
<g id="clust1" class="cluster">
<title>cluster_cardano_node</title>
<polygon fill="none" stroke="black" points="1362,-200 1362,-316 1566,-316 1566,-200 1362,-200"/>
<text text-anchor="middle" x="1464" y="-300.8" font-family="Times,serif" font-size="14.00">cardano&#45;node</text>
</g>
<g id="clust2" class="cluster">
<title>cluster_cardano_node_inp</title>
<polygon fill="none" stroke="black" points="1370,-208 1370,-285 1558,-285 1558,-208 1370,-208"/>
<text text-anchor="middle" x="1464" y="-269.8" font-family="Times,serif" font-size="14.00">Server</text>
</g>
<g id="clust4" class="cluster">
<title>cluster_chain_sync</title>
<polygon fill="none" stroke="black" points="1046,-200 1046,-511 1250,-511 1250,-200 1046,-200"/>
<text text-anchor="middle" x="1148" y="-495.8" font-family="Times,serif" font-size="14.00">chain&#45;sync</text>
</g>
<g id="clust5" class="cluster">
<title>cluster_chain_sync_inp</title>
<polygon fill="none" stroke="black" points="1062.5,-293 1062.5,-480 1233.5,-480 1233.5,-293 1062.5,-293"/>
<text text-anchor="middle" x="1148" y="-464.8" font-family="Times,serif" font-size="14.00">Server</text>
</g>
<g id="clust6" class="cluster">
<title>cluster_chain_sync_out</title>
<polygon fill="none" stroke="black" points="1054,-208 1054,-285 1242,-285 1242,-208 1054,-208"/>
<text text-anchor="middle" x="1148" y="-269.8" font-family="Times,serif" font-size="14.00">Client</text>
</g>
<g id="clust7" class="cluster">
<title>cluster_marlowe_history</title>
<polygon fill="none" stroke="black" points="685,-448 685,-814 934,-814 934,-448 685,-448"/>
<text text-anchor="middle" x="809.5" y="-798.8" font-family="Times,serif" font-size="14.00">marlowe&#45;history</text>
</g>
<g id="clust8" class="cluster">
<title>cluster_marlowe_history_inp</title>
<polygon fill="none" stroke="black" points="735.5,-596 735.5,-783 883.5,-783 883.5,-596 735.5,-596"/>
<text text-anchor="middle" x="809.5" y="-767.8" font-family="Times,serif" font-size="14.00">Server</text>
</g>
<g id="clust9" class="cluster">
<title>cluster_marlowe_history_out</title>
<polygon fill="none" stroke="black" points="693,-456 693,-588 926,-588 926,-456 693,-456"/>
<text text-anchor="middle" x="809.5" y="-572.8" font-family="Times,serif" font-size="14.00">Client</text>
</g>
<g id="clust10" class="cluster">
<title>cluster_marlowe_tx</title>
<polygon fill="none" stroke="black" points="300,-276 300,-642 573,-642 573,-276 300,-276"/>
<text text-anchor="middle" x="436.5" y="-626.8" font-family="Times,serif" font-size="14.00">marlowe&#45;tx</text>
</g>
<g id="clust11" class="cluster">
<title>cluster_marlowe_tx_inp</title>
<polygon fill="none" stroke="black" points="362.5,-534 362.5,-611 510.5,-611 510.5,-534 362.5,-534"/>
<text text-anchor="middle" x="436.5" y="-595.8" font-family="Times,serif" font-size="14.00">Server</text>
</g>
<g id="clust12" class="cluster">
<title>cluster_marlowe_tx_out</title>
<polygon fill="none" stroke="black" points="308,-284 308,-526 565,-526 565,-284 308,-284"/>
<text text-anchor="middle" x="436.5" y="-510.8" font-family="Times,serif" font-size="14.00">Client</text>
</g>
<g id="clust13" class="cluster">
<title>cluster_marlowe_discovery</title>
<polygon fill="none" stroke="black" points="685,-8 685,-319 934,-319 934,-8 685,-8"/>
<text text-anchor="middle" x="809.5" y="-303.8" font-family="Times,serif" font-size="14.00">marlowe&#45;discovery</text>
</g>
<g id="clust14" class="cluster">
<title>cluster_marlowe_discovery_inp</title>
<polygon fill="none" stroke="black" points="747.5,-156 747.5,-288 871.5,-288 871.5,-156 747.5,-156"/>
<text text-anchor="middle" x="809.5" y="-272.8" font-family="Times,serif" font-size="14.00">Server</text>
</g>
<g id="clust15" class="cluster">
<title>cluster_marlowe_discovery_out</title>
<polygon fill="none" stroke="black" points="693,-16 693,-148 926,-148 926,-16 693,-16"/>
<text text-anchor="middle" x="809.5" y="-132.8" font-family="Times,serif" font-size="14.00">Client</text>
</g>
<g id="clust16" class="cluster">
<title>cluster_marlowe</title>
<polygon fill="none" stroke="black" points="8,-481 8,-817 188,-817 188,-481 8,-481"/>
<text text-anchor="middle" x="98" y="-801.8" font-family="Times,serif" font-size="14.00">marlowe (runtime cli)</text>
</g>
<g id="clust18" class="cluster">
<title>cluster_marlowe_out</title>
<polygon fill="none" stroke="black" points="16,-489 16,-786 180,-786 180,-489 16,-489"/>
<text text-anchor="middle" x="98" y="-770.8" font-family="Times,serif" font-size="14.00">Client</text>
</g>
<!-- cn_unix_socket -->
<g id="node1" class="node">
<title>cn_unix_socket</title>
<polygon fill="none" stroke="black" points="1378,-217 1378,-253 1550,-253 1550,-217 1378,-217"/>
<text text-anchor="middle" x="1464" y="-231.3" font-family="Times,serif" font-size="14.00">cardano_node: UNIX socket</text>
</g>
<!-- cs_port_number -->
<g id="node2" class="node">
<title>cs_port_number</title>
<polygon fill="none" stroke="black" points="1088.5,-412 1088.5,-448 1207.5,-448 1207.5,-412 1088.5,-412"/>
<text text-anchor="middle" x="1148" y="-426.3" font-family="Times,serif" font-size="14.00">port&#45;number: 3715</text>
</g>
<!-- cs_query_port_number -->
<g id="node3" class="node">
<title>cs_query_port_number</title>
<polygon fill="none" stroke="black" points="1070.5,-357 1070.5,-393 1225.5,-393 1225.5,-357 1070.5,-357"/>
<text text-anchor="middle" x="1148" y="-371.3" font-family="Times,serif" font-size="14.00">query&#45;port&#45;number: 3716</text>
</g>
<!-- cs_job_port_number -->
<g id="node4" class="node">
<title>cs_job_port_number</title>
<polygon fill="none" stroke="black" points="1077.5,-302 1077.5,-338 1218.5,-338 1218.5,-302 1077.5,-302"/>
<text text-anchor="middle" x="1148" y="-316.3" font-family="Times,serif" font-size="14.00">job&#45;port&#45;number: 3720</text>
</g>
<!-- cs_cn_unix_socket -->
<g id="node5" class="node">
<title>cs_cn_unix_socket</title>
<polygon fill="none" stroke="black" points="1062,-217 1062,-253 1234,-253 1234,-217 1062,-217"/>
<text text-anchor="middle" x="1148" y="-231.3" font-family="Times,serif" font-size="14.00">cardano_node: UNIX socket</text>
</g>
<!-- cs_cn_unix_socket&#45;&gt;cn_unix_socket -->
<g id="edge1" class="edge">
<title>cs_cn_unix_socket&#45;&gt;cn_unix_socket</title>
<path fill="none" stroke="black" d="M1234.39,-235C1275.66,-235 1325.34,-235 1367.83,-235"/>
<polygon fill="black" stroke="black" points="1367.9,-238.5 1377.9,-235 1367.9,-231.5 1367.9,-238.5"/>
</g>
<!-- mh_command_port -->
<g id="node6" class="node">
<title>mh_command_port</title>
<polygon fill="none" stroke="black" points="743.5,-715 743.5,-751 875.5,-751 875.5,-715 743.5,-715"/>
<text text-anchor="middle" x="809.5" y="-729.3" font-family="Times,serif" font-size="14.00">command&#45;port: 3717</text>
</g>
<!-- mh_query_port -->
<g id="node7" class="node">
<title>mh_query_port</title>
<polygon fill="none" stroke="black" points="755.5,-660 755.5,-696 863.5,-696 863.5,-660 755.5,-660"/>
<text text-anchor="middle" x="809.5" y="-674.3" font-family="Times,serif" font-size="14.00">query&#45;port: 3718</text>
</g>
<!-- mh_sync_port -->
<g id="node8" class="node">
<title>mh_sync_port</title>
<polygon fill="none" stroke="black" points="758.5,-605 758.5,-641 860.5,-641 860.5,-605 758.5,-605"/>
<text text-anchor="middle" x="809.5" y="-619.3" font-family="Times,serif" font-size="14.00">sync&#45;port: 3719</text>
</g>
<!-- mh_cs_port_number -->
<g id="node9" class="node">
<title>mh_cs_port_number</title>
<polygon fill="none" stroke="black" points="718.5,-520 718.5,-556 900.5,-556 900.5,-520 718.5,-520"/>
<text text-anchor="middle" x="809.5" y="-534.3" font-family="Times,serif" font-size="14.00">chain&#45;sync&#45;port&#45;number: 3715</text>
</g>
<!-- mh_cs_port_number&#45;&gt;cs_port_number -->
<g id="edge2" class="edge">
<title>mh_cs_port_number&#45;&gt;cs_port_number</title>
<path fill="none" stroke="black" d="M900.61,-519.93C911.92,-517.19 923.27,-514.19 934,-511 990.4,-494.21 1053.17,-469.58 1095.87,-451.9"/>
<polygon fill="black" stroke="black" points="1097.32,-455.09 1105.2,-448.01 1094.62,-448.63 1097.32,-455.09"/>
</g>
<!-- mh_cs_query_server -->
<g id="node10" class="node">
<title>mh_cs_query_server</title>
<polygon fill="none" stroke="black" points="701,-465 701,-501 918,-501 918,-465 701,-465"/>
<text text-anchor="middle" x="809.5" y="-479.3" font-family="Times,serif" font-size="14.00">chain&#45;sync&#45;query&#45;port&#45;number: 3716</text>
</g>
<!-- mh_cs_query_server&#45;&gt;cs_query_port_number -->
<g id="edge3" class="edge">
<title>mh_cs_query_server&#45;&gt;cs_query_port_number</title>
<path fill="none" stroke="black" d="M860.76,-465C908.26,-448.21 981.63,-422.84 1046,-403 1053.73,-400.62 1061.81,-398.22 1069.9,-395.88"/>
<polygon fill="black" stroke="black" points="1071.1,-399.18 1079.75,-393.07 1069.17,-392.45 1071.1,-399.18"/>
</g>
<!-- mt_command_port -->
<g id="node11" class="node">
<title>mt_command_port</title>
<polygon fill="none" stroke="black" points="370.5,-543 370.5,-579 502.5,-579 502.5,-543 370.5,-543"/>
<text text-anchor="middle" x="436.5" y="-557.3" font-family="Times,serif" font-size="14.00">command&#45;port: 3723</text>
</g>
<!-- mt_cs_port_number -->
<g id="node12" class="node">
<title>mt_cs_port_number</title>
<polygon fill="none" stroke="black" points="345.5,-403 345.5,-439 527.5,-439 527.5,-403 345.5,-403"/>
<text text-anchor="middle" x="436.5" y="-417.3" font-family="Times,serif" font-size="14.00">chain&#45;sync&#45;port&#45;number: 3715</text>
</g>
<!-- mt_cs_port_number&#45;&gt;cs_port_number -->
<g id="edge4" class="edge">
<title>mt_cs_port_number&#45;&gt;cs_port_number</title>
<path fill="none" stroke="black" d="M527.72,-422.14C671.44,-423.97 949.27,-427.49 1078.19,-429.13"/>
<polygon fill="black" stroke="black" points="1078.29,-432.63 1088.33,-429.26 1078.38,-425.63 1078.29,-432.63"/>
</g>
<!-- mt_cs_query_server -->
<g id="node13" class="node">
<title>mt_cs_query_server</title>
<polygon fill="none" stroke="black" points="328,-348 328,-384 545,-384 545,-348 328,-348"/>
<text text-anchor="middle" x="436.5" y="-362.3" font-family="Times,serif" font-size="14.00">chain&#45;sync&#45;query&#45;port&#45;number: 3716</text>
</g>
<!-- mt_cs_query_server&#45;&gt;cs_query_port_number -->
<g id="edge5" class="edge">
<title>mt_cs_query_server&#45;&gt;cs_query_port_number</title>
<path fill="none" stroke="black" d="M545.26,-367.37C686.14,-369.15 930.18,-372.25 1059.97,-373.9"/>
<polygon fill="black" stroke="black" points="1060.21,-377.4 1070.26,-374.03 1060.3,-370.4 1060.21,-377.4"/>
</g>
<!-- mt_cs_command_port -->
<g id="node14" class="node">
<title>mt_cs_command_port</title>
<polygon fill="none" stroke="black" points="316,-293 316,-329 557,-329 557,-293 316,-293"/>
<text text-anchor="middle" x="436.5" y="-307.3" font-family="Times,serif" font-size="14.00">chain&#45;sync&#45;command&#45;port&#45;number: 3720</text>
</g>
<!-- mt_cs_command_port&#45;&gt;cs_job_port_number -->
<g id="edge6" class="edge">
<title>mt_cs_command_port&#45;&gt;cs_job_port_number</title>
<path fill="none" stroke="black" d="M557.05,-312.52C702.06,-314.36 942.49,-317.41 1066.91,-318.98"/>
<polygon fill="black" stroke="black" points="1067.08,-322.49 1077.12,-319.11 1067.16,-315.49 1067.08,-322.49"/>
</g>
<!-- mt_mh_history_sync_port -->
<g id="node15" class="node">
<title>mt_mh_history_sync_port</title>
<polygon fill="none" stroke="black" points="364.5,-458 364.5,-494 508.5,-494 508.5,-458 364.5,-458"/>
<text text-anchor="middle" x="436.5" y="-472.3" font-family="Times,serif" font-size="14.00">history&#45;sync&#45;port: 3719</text>
</g>
<!-- mt_mh_history_sync_port&#45;&gt;mh_sync_port -->
<g id="edge7" class="edge">
<title>mt_mh_history_sync_port&#45;&gt;mh_sync_port</title>
<path fill="none" stroke="black" d="M487.06,-494.03C513,-503.89 545.08,-516.77 573,-530 624.42,-554.36 632.07,-571.12 685,-592 705.15,-599.95 727.96,-606.35 748.45,-611.23"/>
<polygon fill="black" stroke="black" points="747.77,-614.67 758.3,-613.5 749.34,-607.84 747.77,-614.67"/>
</g>
<!-- md_query_port -->
<g id="node16" class="node">
<title>md_query_port</title>
<polygon fill="none" stroke="black" points="755.5,-220 755.5,-256 863.5,-256 863.5,-220 755.5,-220"/>
<text text-anchor="middle" x="809.5" y="-234.3" font-family="Times,serif" font-size="14.00">query&#45;port: 3721</text>
</g>
<!-- md_sync_server -->
<g id="node17" class="node">
<title>md_sync_server</title>
<polygon fill="none" stroke="black" points="758.5,-165 758.5,-201 860.5,-201 860.5,-165 758.5,-165"/>
<text text-anchor="middle" x="809.5" y="-179.3" font-family="Times,serif" font-size="14.00">sync&#45;port: 3722</text>
</g>
<!-- md_cs_port_number -->
<g id="node18" class="node">
<title>md_cs_port_number</title>
<polygon fill="none" stroke="black" points="718.5,-80 718.5,-116 900.5,-116 900.5,-80 718.5,-80"/>
<text text-anchor="middle" x="809.5" y="-94.3" font-family="Times,serif" font-size="14.00">chain&#45;sync&#45;port&#45;number: 3715</text>
</g>
<!-- md_cs_port_number&#45;&gt;cs_port_number -->
<g id="edge8" class="edge">
<title>md_cs_port_number&#45;&gt;cs_port_number</title>
<path fill="none" stroke="black" d="M875.6,-116.11C896.26,-124.38 917.89,-136.01 934,-152 1020.7,-238.05 953.06,-323.73 1046,-403 1055.28,-410.91 1066.64,-416.53 1078.36,-420.52"/>
<polygon fill="black" stroke="black" points="1077.66,-423.96 1088.25,-423.49 1079.68,-417.26 1077.66,-423.96"/>
</g>
<!-- md_cs_query_server -->
<g id="node19" class="node">
<title>md_cs_query_server</title>
<polygon fill="none" stroke="black" points="701,-25 701,-61 918,-61 918,-25 701,-25"/>
<text text-anchor="middle" x="809.5" y="-39.3" font-family="Times,serif" font-size="14.00">chain&#45;sync&#45;query&#45;port&#45;number: 3716</text>
</g>
<!-- md_cs_query_server&#45;&gt;cs_query_port_number -->
<g id="edge9" class="edge">
<title>md_cs_query_server&#45;&gt;cs_query_port_number</title>
<path fill="none" stroke="black" d="M918.15,-60.26C923.8,-63.32 929.14,-66.87 934,-71 1035.16,-157.03 946.51,-260.05 1046,-348 1050.53,-352 1055.59,-355.42 1060.97,-358.34"/>
<polygon fill="black" stroke="black" points="1059.75,-361.64 1070.28,-362.8 1062.77,-355.32 1059.75,-361.64"/>
</g>
<!-- m_history_command -->
<g id="node20" class="node">
<title>m_history_command</title>
<polygon fill="none" stroke="black" points="24,-718 24,-754 172,-754 172,-718 24,-718"/>
<text text-anchor="middle" x="98" y="-732.3" font-family="Times,serif" font-size="14.00">history&#45;command: 3717</text>
</g>
<!-- m_history_command&#45;&gt;mh_command_port -->
<g id="edge10" class="edge">
<title>m_history_command&#45;&gt;mh_command_port</title>
<path fill="none" stroke="black" d="M172.26,-735.69C307.69,-735.12 595.91,-733.9 733.01,-733.32"/>
<polygon fill="black" stroke="black" points="733.43,-736.82 743.41,-733.28 733.4,-729.82 733.43,-736.82"/>
</g>
<!-- m_history_query -->
<g id="node21" class="node">
<title>m_history_query</title>
<polygon fill="none" stroke="black" points="36,-663 36,-699 160,-699 160,-663 36,-663"/>
<text text-anchor="middle" x="98" y="-677.3" font-family="Times,serif" font-size="14.00">history&#45;query: 3718</text>
</g>
<!-- m_history_query&#45;&gt;mh_query_port -->
<g id="edge11" class="edge">
<title>m_history_query&#45;&gt;mh_query_port</title>
<path fill="none" stroke="black" d="M160.11,-680.74C293.44,-680.18 609.35,-678.84 744.92,-678.27"/>
<polygon fill="black" stroke="black" points="745.15,-681.77 755.14,-678.23 745.12,-674.77 745.15,-681.77"/>
</g>
<!-- m_history_sync -->
<g id="node22" class="node">
<title>m_history_sync</title>
<polygon fill="none" stroke="black" points="39,-608 39,-644 157,-644 157,-608 39,-608"/>
<text text-anchor="middle" x="98" y="-622.3" font-family="Times,serif" font-size="14.00">history&#45;sync: 3719</text>
</g>
<!-- m_history_sync&#45;&gt;mh_sync_port -->
<g id="edge12" class="edge">
<title>m_history_sync&#45;&gt;mh_sync_port</title>
<path fill="none" stroke="black" d="M157.06,-625.75C289.63,-625.19 613.5,-623.82 748.2,-623.25"/>
<polygon fill="black" stroke="black" points="748.35,-626.75 758.33,-623.21 748.32,-619.75 748.35,-626.75"/>
</g>
<!-- m_discovery_query -->
<g id="node23" class="node">
<title>m_discovery_query</title>
<polygon fill="none" stroke="black" points="28.5,-498 28.5,-534 167.5,-534 167.5,-498 28.5,-498"/>
<text text-anchor="middle" x="98" y="-512.3" font-family="Times,serif" font-size="14.00">discovery&#45;query: 3721</text>
</g>
<!-- m_discovery_query&#45;&gt;md_query_port -->
<g id="edge13" class="edge">
<title>m_discovery_query&#45;&gt;md_query_port</title>
<path fill="none" stroke="black" d="M107.89,-497.96C131.65,-451.99 201.59,-330.47 300,-280 445.17,-205.55 644.65,-216.49 745.16,-228.48"/>
<polygon fill="black" stroke="black" points="744.8,-231.96 755.16,-229.72 745.66,-225.02 744.8,-231.96"/>
</g>
<!-- m_tx_command -->
<g id="node24" class="node">
<title>m_tx_command</title>
<polygon fill="none" stroke="black" points="37.5,-553 37.5,-589 158.5,-589 158.5,-553 37.5,-553"/>
<text text-anchor="middle" x="98" y="-567.3" font-family="Times,serif" font-size="14.00">tx&#45;command: 3723</text>
</g>
<!-- m_tx_command&#45;&gt;mt_command_port -->
<g id="edge14" class="edge">
<title>m_tx_command&#45;&gt;mt_command_port</title>
<path fill="none" stroke="black" d="M158.77,-569.22C214.92,-567.56 299.17,-565.05 359.95,-563.25"/>
<polygon fill="black" stroke="black" points="360.36,-566.73 370.25,-562.94 360.15,-559.74 360.36,-566.73"/>
</g>
</g>
</svg>
