<?xml version="1.0" encoding="UTF-8" standalone="no"?>
<!DOCTYPE svg PUBLIC "-//W3C//DTD SVG 1.1//EN"
 "http://www.w3.org/Graphics/SVG/1.1/DTD/svg11.dtd">
<!-- Generated by graphviz version 2.43.0 (0)
 -->
<!-- Title: MarloweRun Pages: 1 -->
<svg width="1539pt" height="827pt"
 viewBox="0.00 0.00 1538.50 826.50" xmlns="http://www.w3.org/2000/svg" xmlns:xlink="http://www.w3.org/1999/xlink">
<g id="graph0" class="graph" transform="scale(1 1) rotate(0) translate(4 822.5)">
<title>MarloweRun</title>
<polygon fill="white" stroke="transparent" points="-4,4 -4,-822.5 1534.5,-822.5 1534.5,4 -4,4"/>
<!-- CNode -->
<g id="node1" class="node">
<title>CNode</title>
<polygon fill="none" stroke="black" points="837,-304.38 724,-304.38 724,-268.38 837,-268.38 837,-304.38"/>
<text text-anchor="middle" x="780.5" y="-282.68" font-family="Times-Roman" font-size="14.00">cardano&#45;node</text>
</g>
<!-- NodeDB -->
<g id="node2" class="node">
<title>NodeDB</title>
<path fill="none" stroke="black" d="M749.5,-189.6C749.5,-192.24 731.12,-194.38 708.5,-194.38 685.88,-194.38 667.5,-192.24 667.5,-189.6 667.5,-189.6 667.5,-146.65 667.5,-146.65 667.5,-144.01 685.88,-141.87 708.5,-141.87 731.12,-141.87 749.5,-144.01 749.5,-146.65 749.5,-146.65 749.5,-189.6 749.5,-189.6"/>
<path fill="none" stroke="black" d="M749.5,-189.6C749.5,-186.97 731.12,-184.83 708.5,-184.83 685.88,-184.83 667.5,-186.97 667.5,-189.6"/>
<text text-anchor="middle" x="708.5" y="-171.93" font-family="Times-Roman" font-size="14.00">Node</text>
<text text-anchor="middle" x="708.5" y="-156.93" font-family="Times-Roman" font-size="14.00">Database</text>
</g>
<!-- CNode&#45;&gt;NodeDB -->
<g id="edge1" class="edge">
<title>CNode&#45;&gt;NodeDB</title>
<path fill="none" stroke="black" d="M749.88,-268.33C740.06,-261.44 730.05,-252.64 723.5,-242.25 716.48,-231.12 712.67,-217.31 710.62,-204.7"/>
<polygon fill="black" stroke="black" points="714.05,-203.94 709.29,-194.47 707.11,-204.84 714.05,-203.94"/>
<text text-anchor="middle" x="754.5" y="-223.55" font-family="Times-Roman" font-size="14.00">node.db/</text>
</g>
<!-- Topology -->
<g id="node3" class="node">
<title>Topology</title>
<polygon fill="none" stroke="black" points="845,-187.12 768,-187.12 768,-183.12 764,-183.12 764,-179.12 768,-179.12 768,-157.12 764,-157.12 764,-153.12 768,-153.12 768,-149.12 845,-149.12 845,-187.12"/>
<polyline fill="none" stroke="black" points="768,-183.12 772,-183.12 772,-179.12 768,-179.12 "/>
<polyline fill="none" stroke="black" points="768,-157.12 772,-157.12 772,-153.12 768,-153.12 "/>
<text text-anchor="middle" x="806.5" y="-171.93" font-family="Times-Roman" font-size="14.00">Network</text>
<text text-anchor="middle" x="806.5" y="-156.93" font-family="Times-Roman" font-size="14.00">Topology</text>
</g>
<!-- CNode&#45;&gt;Topology -->
<g id="edge2" class="edge">
<title>CNode&#45;&gt;Topology</title>
<path fill="none" stroke="black" d="M784.34,-268.22C788.51,-249.58 795.24,-219.48 800.19,-197.34"/>
<polygon fill="black" stroke="black" points="803.62,-198.02 802.39,-187.5 796.79,-196.5 803.62,-198.02"/>
<text text-anchor="middle" x="896.5" y="-231.05" font-family="Times-Roman" font-size="14.00">marlowe&#45;cardano/bitte/node/</text>
<text text-anchor="middle" x="896.5" y="-216.05" font-family="Times-Roman" font-size="14.00">config/topology.yaml</text>
</g>
<!-- NodeConfig -->
<g id="node4" class="node">
<title>NodeConfig</title>
<polygon fill="none" stroke="black" points="544,-187.12 433,-187.12 433,-183.12 429,-183.12 429,-179.12 433,-179.12 433,-157.12 429,-157.12 429,-153.12 433,-153.12 433,-149.12 544,-149.12 544,-187.12"/>
<polyline fill="none" stroke="black" points="433,-183.12 437,-183.12 437,-179.12 433,-179.12 "/>
<polyline fill="none" stroke="black" points="433,-157.12 437,-157.12 437,-153.12 433,-153.12 "/>
<text text-anchor="middle" x="488.5" y="-171.93" font-family="Times-Roman" font-size="14.00">Node</text>
<text text-anchor="middle" x="488.5" y="-156.93" font-family="Times-Roman" font-size="14.00">Configuration</text>
</g>
<!-- CNode&#45;&gt;NodeConfig -->
<g id="edge3" class="edge">
<title>CNode&#45;&gt;NodeConfig</title>
<path fill="none" stroke="black" d="M723.98,-275.44C696.41,-270.68 662.75,-265 632.5,-260.25 604.77,-255.9 528.42,-260.96 507.5,-242.25 495.03,-231.09 490.27,-212.9 488.63,-197.45"/>
<polygon fill="black" stroke="black" points="492.11,-197.05 487.94,-187.31 485.13,-197.53 492.11,-197.05"/>
<text text-anchor="middle" x="607.5" y="-231.05" font-family="Times-Roman" font-size="14.00">marlowe&#45;cardano/bitte/node/</text>
<text text-anchor="middle" x="607.5" y="-216.05" font-family="Times-Roman" font-size="14.00">config/config.json</text>
</g>
<!-- Byron -->
<g id="node5" class="node">
<title>Byron</title>
<polygon fill="none" stroke="black" points="975.5,-56 841.5,-56 841.5,-52 837.5,-52 837.5,-48 841.5,-48 841.5,-28 837.5,-28 837.5,-24 841.5,-24 841.5,-20 975.5,-20 975.5,-56"/>
<polyline fill="none" stroke="black" points="841.5,-52 845.5,-52 845.5,-48 841.5,-48 "/>
<polyline fill="none" stroke="black" points="841.5,-28 845.5,-28 845.5,-24 841.5,-24 "/>
<text text-anchor="middle" x="908.5" y="-34.3" font-family="Times-Roman" font-size="14.00">ByronGenesisFile</text>
</g>
<!-- NodeConfig&#45;&gt;Byron -->
<g id="edge4" class="edge">
<title>NodeConfig&#45;&gt;Byron</title>
<path fill="none" stroke="black" d="M544.27,-158.81C623.7,-146.9 760.45,-126.2 765.5,-124 785.22,-115.4 785.45,-105.71 803.5,-94 822.19,-81.87 843.86,-70.17 862.64,-60.69"/>
<polygon fill="black" stroke="black" points="864.21,-63.82 871.6,-56.23 861.09,-57.55 864.21,-63.82"/>
<text text-anchor="middle" x="903.5" y="-112.8" font-family="Times-Roman" font-size="14.00">marlowe&#45;cardano/bitte/node/</text>
<text text-anchor="middle" x="903.5" y="-97.8" font-family="Times-Roman" font-size="14.00">config/byron&#45;genesis.json</text>
</g>
<!-- Shelley -->
<g id="node6" class="node">
<title>Shelley</title>
<polygon fill="none" stroke="black" points="419.5,-56 275.5,-56 275.5,-52 271.5,-52 271.5,-48 275.5,-48 275.5,-28 271.5,-28 271.5,-24 275.5,-24 275.5,-20 419.5,-20 419.5,-56"/>
<polyline fill="none" stroke="black" points="275.5,-52 279.5,-52 279.5,-48 275.5,-48 "/>
<polyline fill="none" stroke="black" points="275.5,-28 279.5,-28 279.5,-24 275.5,-24 "/>
<text text-anchor="middle" x="347.5" y="-34.3" font-family="Times-Roman" font-size="14.00">ShelleyGenesisFile</text>
</g>
<!-- NodeConfig&#45;&gt;Shelley -->
<g id="edge5" class="edge">
<title>NodeConfig&#45;&gt;Shelley</title>
<path fill="none" stroke="black" d="M432.91,-165.85C401.58,-161.91 364.76,-151.21 344.5,-124 332.28,-107.59 334.17,-84.04 338.47,-65.89"/>
<polygon fill="black" stroke="black" points="341.87,-66.75 341.12,-56.18 335.11,-64.91 341.87,-66.75"/>
<text text-anchor="middle" x="444.5" y="-112.8" font-family="Times-Roman" font-size="14.00">marlowe&#45;cardano/bitte/node/</text>
<text text-anchor="middle" x="444.5" y="-97.8" font-family="Times-Roman" font-size="14.00">config/shelley&#45;genesis.json</text>
</g>
<!-- Alonzo -->
<g id="node7" class="node">
<title>Alonzo</title>
<polygon fill="none" stroke="black" points="640.5,-56 500.5,-56 500.5,-52 496.5,-52 496.5,-48 500.5,-48 500.5,-28 496.5,-28 496.5,-24 500.5,-24 500.5,-20 640.5,-20 640.5,-56"/>
<polyline fill="none" stroke="black" points="500.5,-52 504.5,-52 504.5,-48 500.5,-48 "/>
<polyline fill="none" stroke="black" points="500.5,-28 504.5,-28 504.5,-24 500.5,-24 "/>
<text text-anchor="middle" x="570.5" y="-34.3" font-family="Times-Roman" font-size="14.00">AlonzoGenesisFile</text>
</g>
<!-- NodeConfig&#45;&gt;Alonzo -->
<g id="edge6" class="edge">
<title>NodeConfig&#45;&gt;Alonzo</title>
<path fill="none" stroke="black" d="M522.3,-148.91C532,-142.23 541.76,-133.84 548.5,-124 560.25,-106.84 565.73,-83.82 568.28,-66.07"/>
<polygon fill="black" stroke="black" points="571.76,-66.4 569.49,-56.05 564.81,-65.56 571.76,-66.4"/>
<text text-anchor="middle" x="661.5" y="-112.8" font-family="Times-Roman" font-size="14.00">marlowe&#45;cardano/bitte/node/</text>
<text text-anchor="middle" x="661.5" y="-97.8" font-family="Times-Roman" font-size="14.00">config/alonzo&#45;genesis.json</text>
</g>
<!-- Magic -->
<g id="node16" class="node">
<title>Magic</title>
<polygon fill="none" stroke="black" points="182.5,-76 108.5,-38 182.5,0 256.5,-38 182.5,-76"/>
<text text-anchor="middle" x="182.5" y="-41.8" font-family="Times-Roman" font-size="14.00">Network</text>
<text text-anchor="middle" x="182.5" y="-26.8" font-family="Times-Roman" font-size="14.00">Magic</text>
</g>
<!-- NodeConfig&#45;&gt;Magic -->
<g id="edge18" class="edge">
<title>NodeConfig&#45;&gt;Magic</title>
<path fill="none" stroke="black" d="M432.74,-162.98C389.85,-158.04 330.08,-147.3 282.5,-124 256.36,-111.2 231.41,-90 212.96,-71.98"/>
<polygon fill="black" stroke="black" points="215.02,-69.09 205.47,-64.49 210.07,-74.04 215.02,-69.09"/>
<text text-anchor="middle" x="307" y="-112.8" font-family="Times-Roman" font-size="14.00">testnet</text>
<text text-anchor="middle" x="307" y="-97.8" font-family="Times-Roman" font-size="14.00">1564</text>
</g>
<!-- ChainIndex -->
<g id="node8" class="node">
<title>ChainIndex</title>
<polygon fill="none" stroke="black" points="822,-445.5 663,-445.5 663,-409.5 822,-409.5 822,-445.5"/>
<text text-anchor="middle" x="742.5" y="-423.8" font-family="Times-Roman" font-size="14.00">cardano&#45;chain&#45;index</text>
</g>
<!-- ChainIndex&#45;&gt;CNode -->
<g id="edge7" class="edge">
<title>ChainIndex&#45;&gt;CNode</title>
<path fill="none" stroke="black" d="M744.11,-409.16C746.25,-389.65 750.82,-357.22 759.5,-330.5 761.3,-324.96 763.69,-319.22 766.2,-313.81"/>
<polygon fill="black" stroke="black" points="769.49,-315.06 770.78,-304.54 763.22,-311.96 769.49,-315.06"/>
<text text-anchor="middle" x="801.5" y="-349.3" font-family="Times-Roman" font-size="14.00">node.socket</text>
</g>
<!-- ChainIndexDB -->
<g id="node9" class="node">
<title>ChainIndexDB</title>
<path fill="none" stroke="black" d="M623.5,-307.85C623.5,-310.49 601.09,-312.63 573.5,-312.63 545.91,-312.63 523.5,-310.49 523.5,-307.85 523.5,-307.85 523.5,-264.9 523.5,-264.9 523.5,-262.26 545.91,-260.12 573.5,-260.12 601.09,-260.12 623.5,-262.26 623.5,-264.9 623.5,-264.9 623.5,-307.85 623.5,-307.85"/>
<path fill="none" stroke="black" d="M623.5,-307.85C623.5,-305.22 601.09,-303.08 573.5,-303.08 545.91,-303.08 523.5,-305.22 523.5,-307.85"/>
<text text-anchor="middle" x="573.5" y="-290.18" font-family="Times-Roman" font-size="14.00">Chain Index</text>
<text text-anchor="middle" x="573.5" y="-275.18" font-family="Times-Roman" font-size="14.00">Database</text>
</g>
<!-- ChainIndex&#45;&gt;ChainIndexDB -->
<g id="edge8" class="edge">
<title>ChainIndex&#45;&gt;ChainIndexDB</title>
<path fill="none" stroke="black" d="M662.97,-419.39C633.34,-412.6 602.16,-399.72 582.5,-375.5 570.67,-360.93 568.07,-340.22 568.6,-322.54"/>
<polygon fill="black" stroke="black" points="572.09,-322.75 569.22,-312.55 565.1,-322.31 572.09,-322.75"/>
<text text-anchor="middle" x="663.5" y="-349.3" font-family="Times-Roman" font-size="14.00">chain&#45;index.db/ci.sqlite</text>
</g>
<!-- Wallet -->
<g id="node10" class="node">
<title>Wallet</title>
<polygon fill="none" stroke="black" points="1079,-445.5 960,-445.5 960,-409.5 1079,-409.5 1079,-445.5"/>
<text text-anchor="middle" x="1019.5" y="-423.8" font-family="Times-Roman" font-size="14.00">cardano&#45;wallet</text>
</g>
<!-- Wallet&#45;&gt;CNode -->
<g id="edge9" class="edge">
<title>Wallet&#45;&gt;CNode</title>
<path fill="none" stroke="black" d="M979.57,-409.31C960.65,-400.39 938.16,-388.61 919.5,-375.5 895.57,-358.69 895.67,-346.96 871.5,-330.5 859.64,-322.42 846.03,-315.09 833.01,-308.86"/>
<polygon fill="black" stroke="black" points="834.21,-305.56 823.67,-304.52 831.27,-311.91 834.21,-305.56"/>
<text text-anchor="middle" x="961.5" y="-349.3" font-family="Times-Roman" font-size="14.00">node.socket</text>
</g>
<!-- Wallet&#45;&gt;Byron -->
<g id="edge11" class="edge">
<title>Wallet&#45;&gt;Byron</title>
<path fill="none" stroke="black" d="M1020.77,-409.43C1024.93,-349.23 1036.12,-147.55 1003.5,-94 994.96,-79.98 981.42,-69.17 967.2,-61"/>
<polygon fill="black" stroke="black" points="968.77,-57.87 958.3,-56.24 965.47,-64.04 968.77,-57.87"/>
</g>
<!-- WalletDB -->
<g id="node11" class="node">
<title>WalletDB</title>
<path fill="none" stroke="black" d="M1127.5,-307.85C1127.5,-310.49 1109.12,-312.63 1086.5,-312.63 1063.88,-312.63 1045.5,-310.49 1045.5,-307.85 1045.5,-307.85 1045.5,-264.9 1045.5,-264.9 1045.5,-262.26 1063.88,-260.12 1086.5,-260.12 1109.12,-260.12 1127.5,-262.26 1127.5,-264.9 1127.5,-264.9 1127.5,-307.85 1127.5,-307.85"/>
<path fill="none" stroke="black" d="M1127.5,-307.85C1127.5,-305.22 1109.12,-303.08 1086.5,-303.08 1063.88,-303.08 1045.5,-305.22 1045.5,-307.85"/>
<text text-anchor="middle" x="1086.5" y="-290.18" font-family="Times-Roman" font-size="14.00">Wallet</text>
<text text-anchor="middle" x="1086.5" y="-275.18" font-family="Times-Roman" font-size="14.00">Database</text>
</g>
<!-- Wallet&#45;&gt;WalletDB -->
<g id="edge10" class="edge">
<title>Wallet&#45;&gt;WalletDB</title>
<path fill="none" stroke="black" d="M1027.72,-409.44C1038.2,-387.67 1056.59,-349.49 1070.01,-321.61"/>
<polygon fill="black" stroke="black" points="1073.17,-323.12 1074.36,-312.59 1066.86,-320.08 1073.17,-323.12"/>
<text text-anchor="middle" x="1098.5" y="-349.3" font-family="Times-Roman" font-size="14.00">wallet.db/</text>
</g>
<!-- MarlowePAB -->
<g id="node12" class="node">
<title>MarlowePAB</title>
<polygon fill="none" stroke="black" points="1032,-580.5 925,-580.5 925,-542.5 1032,-542.5 1032,-580.5"/>
<text text-anchor="middle" x="978.5" y="-565.3" font-family="Times-Roman" font-size="14.00">marlowe&#45;pab</text>
<text text-anchor="middle" x="978.5" y="-550.3" font-family="Times-Roman" font-size="14.00">webserver</text>
</g>
<!-- MarlowePAB&#45;&gt;CNode -->
<g id="edge12" class="edge">
<title>MarlowePAB&#45;&gt;CNode</title>
<path fill="none" stroke="black" d="M948.95,-542.39C923.19,-524.95 886.98,-496.17 867.5,-461.5 838.51,-409.89 875.73,-380.14 843.5,-330.5 838.46,-322.74 831.49,-316.01 824.02,-310.32"/>
<polygon fill="black" stroke="black" points="825.98,-307.42 815.78,-304.56 821.97,-313.16 825.98,-307.42"/>
<text text-anchor="middle" x="909.5" y="-423.8" font-family="Times-Roman" font-size="14.00">node.socket</text>
</g>
<!-- MarlowePAB&#45;&gt;ChainIndex -->
<g id="edge14" class="edge">
<title>MarlowePAB&#45;&gt;ChainIndex</title>
<path fill="none" stroke="black" d="M924.85,-553.27C888.95,-546.44 841.96,-533.51 806.5,-509.5 785.65,-495.38 768.41,-472.36 757.09,-454.46"/>
<polygon fill="black" stroke="black" points="759.92,-452.37 751.73,-445.64 753.94,-456.01 759.92,-452.37"/>
<text text-anchor="middle" x="825" y="-498.3" font-family="Times-Roman" font-size="14.00">HTTP</text>
<text text-anchor="middle" x="825" y="-483.3" font-family="Times-Roman" font-size="14.00">9083</text>
</g>
<!-- MarlowePAB&#45;&gt;Wallet -->
<g id="edge13" class="edge">
<title>MarlowePAB&#45;&gt;Wallet</title>
<path fill="none" stroke="black" d="M981.82,-542.23C985.07,-525.64 990.53,-500.62 997.5,-479.5 1000.18,-471.39 1003.64,-462.78 1007.02,-455"/>
<polygon fill="black" stroke="black" points="1010.3,-456.23 1011.19,-445.67 1003.91,-453.37 1010.3,-456.23"/>
<text text-anchor="middle" x="1016" y="-498.3" font-family="Times-Roman" font-size="14.00">HTTP</text>
<text text-anchor="middle" x="1016" y="-483.3" font-family="Times-Roman" font-size="14.00">8090</text>
</g>
<!-- MarloweConfig -->
<g id="node13" class="node">
<title>MarloweConfig</title>
<polygon fill="none" stroke="black" points="283,-446.5 172,-446.5 172,-442.5 168,-442.5 168,-438.5 172,-438.5 172,-416.5 168,-416.5 168,-412.5 172,-412.5 172,-408.5 283,-408.5 283,-446.5"/>
<polyline fill="none" stroke="black" points="172,-442.5 176,-442.5 176,-438.5 172,-438.5 "/>
<polyline fill="none" stroke="black" points="172,-416.5 176,-416.5 176,-412.5 172,-412.5 "/>
<text text-anchor="middle" x="227.5" y="-431.3" font-family="Times-Roman" font-size="14.00">Marlowe PAB</text>
<text text-anchor="middle" x="227.5" y="-416.3" font-family="Times-Roman" font-size="14.00">Configuration</text>
</g>
<!-- MarlowePAB&#45;&gt;MarloweConfig -->
<g id="edge15" class="edge">
<title>MarlowePAB&#45;&gt;MarloweConfig</title>
<path fill="none" stroke="black" d="M924.98,-553.13C858.41,-543.79 741.34,-526.81 641.5,-509.5 518.15,-488.11 374.94,-459.17 293.39,-442.3"/>
<polygon fill="black" stroke="black" points="293.78,-438.81 283.27,-440.2 292.35,-445.66 293.78,-438.81"/>
<text text-anchor="middle" x="706.5" y="-490.8" font-family="Times-Roman" font-size="14.00">marlowe&#45;pab.yaml</text>
</g>
<!-- Passphrase -->
<g id="node23" class="node">
<title>Passphrase</title>
<polygon fill="none" stroke="black" points="1313.5,-445.5 1226.36,-427.5 1313.5,-409.5 1400.64,-427.5 1313.5,-445.5"/>
<text text-anchor="middle" x="1313.5" y="-423.8" font-family="Times-Roman" font-size="14.00">Passphrase</text>
</g>
<!-- MarlowePAB&#45;&gt;Passphrase -->
<g id="edge29" class="edge">
<title>MarlowePAB&#45;&gt;Passphrase</title>
<path fill="none" stroke="black" d="M998.36,-542.27C1023.84,-518.98 1065.26,-481.42 1069.5,-479.5 1129.89,-452.23 1152.92,-476.35 1217.5,-461.5 1237.03,-457.01 1258.14,-450 1275.59,-443.59"/>
<polygon fill="black" stroke="black" points="1277.26,-446.7 1285.39,-439.91 1274.8,-440.15 1277.26,-446.7"/>
</g>
<!-- MarloweDB -->
<g id="node14" class="node">
<title>MarloweDB</title>
<path fill="none" stroke="black" d="M489.5,-307.85C489.5,-310.49 465.74,-312.63 436.5,-312.63 407.26,-312.63 383.5,-310.49 383.5,-307.85 383.5,-307.85 383.5,-264.9 383.5,-264.9 383.5,-262.26 407.26,-260.12 436.5,-260.12 465.74,-260.12 489.5,-262.26 489.5,-264.9 489.5,-264.9 489.5,-307.85 489.5,-307.85"/>
<path fill="none" stroke="black" d="M489.5,-307.85C489.5,-305.22 465.74,-303.08 436.5,-303.08 407.26,-303.08 383.5,-305.22 383.5,-307.85"/>
<text text-anchor="middle" x="436.5" y="-290.18" font-family="Times-Roman" font-size="14.00">Marlowe PAB</text>
<text text-anchor="middle" x="436.5" y="-275.18" font-family="Times-Roman" font-size="14.00">Database</text>
</g>
<!-- MarloweConfig&#45;&gt;MarloweDB -->
<g id="edge16" class="edge">
<title>MarloweConfig&#45;&gt;MarloweDB</title>
<path fill="none" stroke="black" d="M283.23,-425.72C324.91,-422.1 380.37,-410.37 414.5,-375.5 428.05,-361.65 433.66,-340.79 435.83,-322.84"/>
<polygon fill="black" stroke="black" points="439.34,-322.96 436.75,-312.69 432.37,-322.33 439.34,-322.96"/>
<text text-anchor="middle" x="490.5" y="-349.3" font-family="Times-Roman" font-size="14.00">marlowe&#45;pab.db</text>
</g>
<!-- Protocol -->
<g id="node15" class="node">
<title>Protocol</title>
<polygon fill="none" stroke="black" points="95,-305.38 0,-305.38 0,-301.38 -4,-301.38 -4,-297.38 0,-297.38 0,-275.38 -4,-275.38 -4,-271.38 0,-271.38 0,-267.38 95,-267.38 95,-305.38"/>
<polyline fill="none" stroke="black" points="0,-301.38 4,-301.38 4,-297.38 0,-297.38 "/>
<polyline fill="none" stroke="black" points="0,-275.38 4,-275.38 4,-271.38 0,-271.38 "/>
<text text-anchor="middle" x="47.5" y="-290.18" font-family="Times-Roman" font-size="14.00">Protocol</text>
<text text-anchor="middle" x="47.5" y="-275.18" font-family="Times-Roman" font-size="14.00">Parameters</text>
</g>
<!-- MarloweConfig&#45;&gt;Protocol -->
<g id="edge17" class="edge">
<title>MarloweConfig&#45;&gt;Protocol</title>
<path fill="none" stroke="black" d="M171.63,-418C124.91,-409.62 63.55,-395.21 48.5,-375.5 35.65,-358.67 36.4,-334.29 39.8,-315.44"/>
<polygon fill="black" stroke="black" points="43.23,-316.12 41.89,-305.61 36.39,-314.66 43.23,-316.12"/>
<text text-anchor="middle" x="103" y="-349.3" font-family="Times-Roman" font-size="14.00">testnet.protocol</text>
</g>
<!-- MarloweConfig&#45;&gt;Magic -->
<g id="edge19" class="edge">
<title>MarloweConfig&#45;&gt;Magic</title>
<path fill="none" stroke="black" d="M219.59,-408.37C210.37,-386.24 195.63,-347.43 189.5,-312.5 175.66,-233.61 177.02,-139.98 179.55,-85.26"/>
<polygon fill="black" stroke="black" points="183.05,-85.34 180.05,-75.18 176.06,-84.99 183.05,-85.34"/>
<text text-anchor="middle" x="206" y="-231.05" font-family="Times-Roman" font-size="14.00">testnet</text>
<text text-anchor="middle" x="206" y="-216.05" font-family="Times-Roman" font-size="14.00">1564</text>
</g>
<!-- Static -->
<g id="node17" class="node">
<title>Static</title>
<path fill="none" stroke="black" d="M366,-307.85C366,-310.49 328.57,-312.63 282.5,-312.63 236.43,-312.63 199,-310.49 199,-307.85 199,-307.85 199,-264.9 199,-264.9 199,-262.26 236.43,-260.12 282.5,-260.12 328.57,-260.12 366,-262.26 366,-264.9 366,-264.9 366,-307.85 366,-307.85"/>
<path fill="none" stroke="black" d="M366,-307.85C366,-305.22 328.57,-303.08 282.5,-303.08 236.43,-303.08 199,-305.22 199,-307.85"/>
<text text-anchor="middle" x="282.5" y="-290.18" font-family="Times-Roman" font-size="14.00">pabWebserverConfig.</text>
<text text-anchor="middle" x="282.5" y="-275.18" font-family="Times-Roman" font-size="14.00">staticDir</text>
</g>
<!-- MarloweConfig&#45;&gt;Static -->
<g id="edge20" class="edge">
<title>MarloweConfig&#45;&gt;Static</title>
<path fill="none" stroke="black" d="M223.29,-408.47C219.55,-388.35 216.37,-355.37 228.5,-330.5 230.28,-326.84 232.54,-323.4 235.12,-320.17"/>
<polygon fill="black" stroke="black" points="237.88,-322.34 242.08,-312.62 232.73,-317.6 237.88,-322.34"/>
<text text-anchor="middle" x="321.5" y="-364.3" font-family="Times-Roman" font-size="14.00">marlowe&#45;cardano/</text>
<text text-anchor="middle" x="321.5" y="-349.3" font-family="Times-Roman" font-size="14.00">marlowe&#45;dashboard&#45;client/</text>
<text text-anchor="middle" x="321.5" y="-334.3" font-family="Times-Roman" font-size="14.00">dist</text>
</g>
<!-- MarloweServer -->
<g id="node18" class="node">
<title>MarloweServer</title>
<polygon fill="none" stroke="black" points="1254.5,-580.5 1050.5,-580.5 1050.5,-542.5 1254.5,-542.5 1254.5,-580.5"/>
<text text-anchor="middle" x="1152.5" y="-565.3" font-family="Times-Roman" font-size="14.00">marlowe&#45;dashboard&#45;server</text>
<text text-anchor="middle" x="1152.5" y="-550.3" font-family="Times-Roman" font-size="14.00">webserver</text>
</g>
<!-- MarloweServer&#45;&gt;Wallet -->
<g id="edge21" class="edge">
<title>MarloweServer&#45;&gt;Wallet</title>
<path fill="none" stroke="black" d="M1134.29,-542.42C1110.85,-519.16 1070.04,-478.66 1043.93,-452.74"/>
<polygon fill="black" stroke="black" points="1046.22,-450.08 1036.65,-445.52 1041.28,-455.05 1046.22,-450.08"/>
<text text-anchor="middle" x="1116" y="-498.3" font-family="Times-Roman" font-size="14.00">HTTP</text>
<text text-anchor="middle" x="1116" y="-483.3" font-family="Times-Roman" font-size="14.00">8090</text>
</g>
<!-- ServerConfig -->
<g id="node19" class="node">
<title>ServerConfig</title>
<polygon fill="none" stroke="black" points="1208,-461.5 1097,-461.5 1097,-457.5 1093,-457.5 1093,-453.5 1097,-453.5 1097,-401.5 1093,-401.5 1093,-397.5 1097,-397.5 1097,-393.5 1208,-393.5 1208,-461.5"/>
<polyline fill="none" stroke="black" points="1097,-457.5 1101,-457.5 1101,-453.5 1097,-453.5 "/>
<polyline fill="none" stroke="black" points="1097,-401.5 1101,-401.5 1101,-397.5 1097,-397.5 "/>
<text text-anchor="middle" x="1152.5" y="-446.3" font-family="Times-Roman" font-size="14.00">Marlowe</text>
<text text-anchor="middle" x="1152.5" y="-431.3" font-family="Times-Roman" font-size="14.00">Dashboard</text>
<text text-anchor="middle" x="1152.5" y="-416.3" font-family="Times-Roman" font-size="14.00">Server</text>
<text text-anchor="middle" x="1152.5" y="-401.3" font-family="Times-Roman" font-size="14.00">Configuration</text>
</g>
<!-- MarloweServer&#45;&gt;ServerConfig -->
<g id="edge22" class="edge">
<title>MarloweServer&#45;&gt;ServerConfig</title>
<path fill="none" stroke="black" d="M1152.5,-542.42C1152.5,-524.34 1152.5,-495.84 1152.5,-471.88"/>
<polygon fill="black" stroke="black" points="1156,-471.58 1152.5,-461.58 1149,-471.58 1156,-471.58"/>
<text text-anchor="middle" x="1213.5" y="-490.8" font-family="Times-Roman" font-size="14.00">marlowe&#45;run.json</text>
</g>
<!-- MarloweClient -->
<g id="node20" class="node">
<title>MarloweClient</title>
<polygon fill="none" stroke="black" points="1253.5,-714.5 1051.5,-714.5 1051.5,-676.5 1253.5,-676.5 1253.5,-714.5"/>
<text text-anchor="middle" x="1152.5" y="-699.3" font-family="Times-Roman" font-size="14.00">marlowe&#45;dashboard&#45;client/</text>
<text text-anchor="middle" x="1152.5" y="-684.3" font-family="Times-Roman" font-size="14.00">npm run start</text>
</g>
<!-- MarloweClient&#45;&gt;MarlowePAB -->
<g id="edge23" class="edge">
<title>MarloweClient&#45;&gt;MarlowePAB</title>
<path fill="none" stroke="black" d="M1131.56,-676.28C1125.1,-670.61 1117.98,-664.32 1111.5,-658.5 1089.5,-638.74 1086.14,-631.26 1062.5,-613.5 1049.41,-603.67 1034.33,-594.04 1020.59,-585.84"/>
<polygon fill="black" stroke="black" points="1022.18,-582.72 1011.79,-580.68 1018.64,-588.76 1022.18,-582.72"/>
<text text-anchor="middle" x="1130" y="-639.8" font-family="Times-Roman" font-size="14.00">HTTP</text>
<text text-anchor="middle" x="1130" y="-624.8" font-family="Times-Roman" font-size="14.00">9080</text>
</g>
<!-- MarloweClient&#45;&gt;MarlowePAB -->
<g id="edge24" class="edge">
<title>MarloweClient&#45;&gt;MarlowePAB</title>
<path fill="none" stroke="black" d="M1051.36,-683.6C1020.59,-678.11 992.29,-670.08 982.5,-658.5 966.93,-640.08 967.67,-611.85 971.26,-590.76"/>
<polygon fill="black" stroke="black" points="974.73,-591.26 973.27,-580.77 967.87,-589.89 974.73,-591.26"/>
<text text-anchor="middle" x="1020.5" y="-639.8" font-family="Times-Roman" font-size="14.00">WebSocket</text>
<text text-anchor="middle" x="1020.5" y="-624.8" font-family="Times-Roman" font-size="14.00">9080</text>
</g>
<!-- MarloweClient&#45;&gt;MarloweServer -->
<g id="edge25" class="edge">
<title>MarloweClient&#45;&gt;MarloweServer</title>
<path fill="none" stroke="black" d="M1152.5,-676.42C1152.5,-654.43 1152.5,-617.03 1152.5,-591.11"/>
<polygon fill="black" stroke="black" points="1156,-590.78 1152.5,-580.78 1149,-590.78 1156,-590.78"/>
<text text-anchor="middle" x="1171" y="-639.8" font-family="Times-Roman" font-size="14.00">HTTP</text>
<text text-anchor="middle" x="1171" y="-624.8" font-family="Times-Roman" font-size="14.00">8080</text>
</g>
<!-- ClientConfig -->
<g id="node21" class="node">
<title>ClientConfig</title>
<polygon fill="none" stroke="black" points="1429,-595.5 1318,-595.5 1318,-591.5 1314,-591.5 1314,-587.5 1318,-587.5 1318,-535.5 1314,-535.5 1314,-531.5 1318,-531.5 1318,-527.5 1429,-527.5 1429,-595.5"/>
<polyline fill="none" stroke="black" points="1318,-591.5 1322,-591.5 1322,-587.5 1318,-587.5 "/>
<polyline fill="none" stroke="black" points="1318,-535.5 1322,-535.5 1322,-531.5 1318,-531.5 "/>
<text text-anchor="middle" x="1373.5" y="-580.3" font-family="Times-Roman" font-size="14.00">Marlowe</text>
<text text-anchor="middle" x="1373.5" y="-565.3" font-family="Times-Roman" font-size="14.00">Dashboard</text>
<text text-anchor="middle" x="1373.5" y="-550.3" font-family="Times-Roman" font-size="14.00">Client</text>
<text text-anchor="middle" x="1373.5" y="-535.3" font-family="Times-Roman" font-size="14.00">Configuration</text>
</g>
<!-- MarloweClient&#45;&gt;ClientConfig -->
<g id="edge26" class="edge">
<title>MarloweClient&#45;&gt;ClientConfig</title>
<path fill="none" stroke="black" d="M1253.7,-680.85C1271.23,-675.63 1288.58,-668.43 1303.5,-658.5 1323.75,-645.02 1340.2,-623.58 1352.05,-604.38"/>
<polygon fill="black" stroke="black" points="1355.08,-606.14 1357.17,-595.76 1349.06,-602.57 1355.08,-606.14"/>
<text text-anchor="middle" x="1437.5" y="-647.3" font-family="Times-Roman" font-size="14.00">marlowe&#45;cardano/</text>
<text text-anchor="middle" x="1437.5" y="-632.3" font-family="Times-Roman" font-size="14.00">marlowe&#45;dashboard&#45;client/</text>
<text text-anchor="middle" x="1437.5" y="-617.3" font-family="Times-Roman" font-size="14.00">webpack.config.js</text>
</g>
<!-- MarloweClient&#45;&gt;Passphrase -->
<g id="edge30" class="edge">
<title>MarloweClient&#45;&gt;Passphrase</title>
<path fill="none" stroke="black" d="M1180.7,-676.22C1205.91,-658.48 1242.09,-629.32 1263.5,-595.5 1291.55,-551.2 1304.53,-490.37 1310,-455.68"/>
<polygon fill="black" stroke="black" points="1313.52,-455.79 1311.52,-445.39 1306.59,-454.77 1313.52,-455.79"/>
</g>
<!-- Browser -->
<g id="node22" class="node">
<title>Browser</title>
<polygon fill="none" stroke="black" points="1206,-818.5 1099,-818.5 1099,-780.5 1206,-780.5 1206,-818.5"/>
<text text-anchor="middle" x="1152.5" y="-803.3" font-family="Times-Roman" font-size="14.00">Web Browser</text>
<text text-anchor="middle" x="1152.5" y="-788.3" font-family="Times-Roman" font-size="14.00">Marlowe Run</text>
</g>
<!-- Browser&#45;&gt;MarloweClient -->
<g id="edge27" class="edge">
<title>Browser&#45;&gt;MarloweClient</title>
<path fill="none" stroke="black" d="M1133.85,-780.19C1129.64,-774.92 1125.74,-768.86 1123.5,-762.5 1119.07,-749.93 1119.07,-745.07 1123.5,-732.5 1124.62,-729.32 1126.15,-726.22 1127.94,-723.25"/>
<polygon fill="black" stroke="black" points="1130.98,-725 1133.85,-714.81 1125.25,-720.98 1130.98,-725"/>
<text text-anchor="middle" x="1142" y="-751.3" font-family="Times-Roman" font-size="14.00">HTTP</text>
<text text-anchor="middle" x="1142" y="-736.3" font-family="Times-Roman" font-size="14.00">8009</text>
</g>
<!-- Browser&#45;&gt;MarloweClient -->
<g id="edge28" class="edge">
<title>Browser&#45;&gt;MarloweClient</title>
<path fill="none" stroke="black" d="M1157.35,-780.32C1158.64,-774.65 1159.86,-768.36 1160.5,-762.5 1161.95,-749.25 1161.95,-745.75 1160.5,-732.5 1160.22,-729.94 1159.83,-727.29 1159.37,-724.65"/>
<polygon fill="black" stroke="black" points="1162.77,-723.79 1157.35,-714.68 1155.91,-725.18 1162.77,-723.79"/>
<text text-anchor="middle" x="1199.5" y="-751.3" font-family="Times-Roman" font-size="14.00">WebSocket</text>
<text text-anchor="middle" x="1199.5" y="-736.3" font-family="Times-Roman" font-size="14.00">8009</text>
</g>
</g>
</svg>
