<?xml version="1.0" encoding="UTF-8" standalone="no"?><svg xmlns="http://www.w3.org/2000/svg" xmlns:xlink="http://www.w3.org/1999/xlink" contentStyleType="text/css" height="828px" preserveAspectRatio="none" style="width:734px;height:828px;background:#FFFFFF;" version="1.1" viewBox="0 0 734 828" width="734px" zoomAndPan="magnify"><defs/><g><line style="stroke:#181818;stroke-width:0.5;stroke-dasharray:5.0,5.0;" x1="58" x2="58" y1="81.2969" y2="748.1016"/><line style="stroke:#181818;stroke-width:0.5;stroke-dasharray:5.0,5.0;" x1="158" x2="158" y1="81.2969" y2="748.1016"/><line style="stroke:#181818;stroke-width:0.5;stroke-dasharray:5.0,5.0;" x1="245" x2="245" y1="81.2969" y2="748.1016"/><line style="stroke:#181818;stroke-width:0.5;stroke-dasharray:5.0,5.0;" x1="332" x2="332" y1="81.2969" y2="748.1016"/><line style="stroke:#181818;stroke-width:0.5;stroke-dasharray:5.0,5.0;" x1="423" x2="423" y1="81.2969" y2="748.1016"/><line style="stroke:#181818;stroke-width:0.5;stroke-dasharray:5.0,5.0;" x1="518" x2="518" y1="81.2969" y2="748.1016"/><line style="stroke:#181818;stroke-width:0.5;stroke-dasharray:5.0,5.0;" x1="660" x2="660" y1="81.2969" y2="748.1016"/><text fill="#000000" font-family="sans-serif" font-size="14" lengthAdjust="spacing" textLength="100" x="5" y="77.9951">Administrator</text><ellipse cx="58" cy="13.5" fill="#E2E2F0" rx="8" ry="8" style="stroke:#181818;stroke-width:0.5;"/><path d="M58,21.5 L58,48.5 M45,29.5 L71,29.5 M58,48.5 L45,63.5 M58,48.5 L71,63.5 " fill="none" style="stroke:#181818;stroke-width:0.5;"/><text fill="#000000" font-family="sans-serif" font-size="14" lengthAdjust="spacing" textLength="100" x="5" y="760.0967">Administrator</text><ellipse cx="58" cy="771.8984" fill="#E2E2F0" rx="8" ry="8" style="stroke:#181818;stroke-width:0.5;"/><path d="M58,779.8984 L58,806.8984 M45,787.8984 L71,787.8984 M58,806.8984 L45,821.8984 M58,806.8984 L71,821.8984 " fill="none" style="stroke:#181818;stroke-width:0.5;"/><text fill="#000000" font-family="sans-serif" font-size="14" lengthAdjust="spacing" textLength="69" x="121" y="77.9951">Stabilizer</text><ellipse cx="158.5" cy="13.5" fill="#E2E2F0" rx="8" ry="8" style="stroke:#181818;stroke-width:0.5;"/><path d="M158.5,21.5 L158.5,48.5 M145.5,29.5 L171.5,29.5 M158.5,48.5 L145.5,63.5 M158.5,48.5 L171.5,63.5 " fill="none" style="stroke:#181818;stroke-width:0.5;"/><text fill="#000000" font-family="sans-serif" font-size="14" lengthAdjust="spacing" textLength="69" x="121" y="760.0967">Stabilizer</text><ellipse cx="158.5" cy="771.8984" fill="#E2E2F0" rx="8" ry="8" style="stroke:#181818;stroke-width:0.5;"/><path d="M158.5,779.8984 L158.5,806.8984 M145.5,787.8984 L171.5,787.8984 M158.5,806.8984 L145.5,821.8984 M158.5,806.8984 L171.5,821.8984 " fill="none" style="stroke:#181818;stroke-width:0.5;"/><text fill="#000000" font-family="sans-serif" font-size="14" lengthAdjust="spacing" textLength="72" x="206" y="77.9951">Investor 1</text><ellipse cx="245" cy="13.5" fill="#E2E2F0" rx="8" ry="8" style="stroke:#181818;stroke-width:0.5;"/><path d="M245,21.5 L245,48.5 M232,29.5 L258,29.5 M245,48.5 L232,63.5 M245,48.5 L258,63.5 " fill="none" style="stroke:#181818;stroke-width:0.5;"/><text fill="#000000" font-family="sans-serif" font-size="14" lengthAdjust="spacing" textLength="72" x="206" y="760.0967">Investor 1</text><ellipse cx="245" cy="771.8984" fill="#E2E2F0" rx="8" ry="8" style="stroke:#181818;stroke-width:0.5;"/><path d="M245,779.8984 L245,806.8984 M232,787.8984 L258,787.8984 M245,806.8984 L232,821.8984 M245,806.8984 L258,821.8984 " fill="none" style="stroke:#181818;stroke-width:0.5;"/><text fill="#000000" font-family="sans-serif" font-size="14" lengthAdjust="spacing" textLength="71" x="294" y="77.9951">Investor 2</text><ellipse cx="332.5" cy="13.5" fill="#E2E2F0" rx="8" ry="8" style="stroke:#181818;stroke-width:0.5;"/><path d="M332.5,21.5 L332.5,48.5 M319.5,29.5 L345.5,29.5 M332.5,48.5 L319.5,63.5 M332.5,48.5 L345.5,63.5 " fill="none" style="stroke:#181818;stroke-width:0.5;"/><text fill="#000000" font-family="sans-serif" font-size="14" lengthAdjust="spacing" textLength="71" x="294" y="760.0967">Investor 2</text><ellipse cx="332.5" cy="771.8984" fill="#E2E2F0" rx="8" ry="8" style="stroke:#181818;stroke-width:0.5;"/><path d="M332.5,779.8984 L332.5,806.8984 M319.5,787.8984 L345.5,787.8984 M332.5,806.8984 L319.5,821.8984 M332.5,806.8984 L345.5,821.8984 " fill="none" style="stroke:#181818;stroke-width:0.5;"/><text fill="#000000" font-family="sans-serif" font-size="14" lengthAdjust="spacing" textLength="79" x="381" y="77.9951">Borrower 1</text><ellipse cx="423.5" cy="13.5" fill="#E2E2F0" rx="8" ry="8" style="stroke:#181818;stroke-width:0.5;"/><path d="M423.5,21.5 L423.5,48.5 M410.5,29.5 L436.5,29.5 M423.5,48.5 L410.5,63.5 M423.5,48.5 L436.5,63.5 " fill="none" style="stroke:#181818;stroke-width:0.5;"/><text fill="#000000" font-family="sans-serif" font-size="14" lengthAdjust="spacing" textLength="79" x="381" y="760.0967">Borrower 1</text><ellipse cx="423.5" cy="771.8984" fill="#E2E2F0" rx="8" ry="8" style="stroke:#181818;stroke-width:0.5;"/><path d="M423.5,779.8984 L423.5,806.8984 M410.5,787.8984 L436.5,787.8984 M423.5,806.8984 L410.5,821.8984 M423.5,806.8984 L436.5,821.8984 " fill="none" style="stroke:#181818;stroke-width:0.5;"/><text fill="#000000" font-family="sans-serif" font-size="14" lengthAdjust="spacing" textLength="78" x="476" y="77.9951">Borrower 2</text><ellipse cx="518" cy="13.5" fill="#E2E2F0" rx="8" ry="8" style="stroke:#181818;stroke-width:0.5;"/><path d="M518,21.5 L518,48.5 M505,29.5 L531,29.5 M518,48.5 L505,63.5 M518,48.5 L531,63.5 " fill="none" style="stroke:#181818;stroke-width:0.5;"/><text fill="#000000" font-family="sans-serif" font-size="14" lengthAdjust="spacing" textLength="78" x="476" y="760.0967">Borrower 2</text><ellipse cx="518" cy="771.8984" fill="#E2E2F0" rx="8" ry="8" style="stroke:#181818;stroke-width:0.5;"/><path d="M518,779.8984 L518,806.8984 M505,787.8984 L531,787.8984 M518,806.8984 L505,821.8984 M518,806.8984 L531,821.8984 " fill="none" style="stroke:#181818;stroke-width:0.5;"/><rect fill="#E2E2F0" height="30.2969" rx="2.5" ry="2.5" style="stroke:#181818;stroke-width:0.5;" width="124" x="598" y="50"/><text fill="#000000" font-family="sans-serif" font-size="14" lengthAdjust="spacing" textLength="110" x="605" y="69.9951">Collective Loan</text><rect fill="#E2E2F0" height="30.2969" rx="2.5" ry="2.5" style="stroke:#181818;stroke-width:0.5;" width="124" x="598" y="747.1016"/><text fill="#000000" font-family="sans-serif" font-size="14" lengthAdjust="spacing" textLength="110" x="605" y="767.0967">Collective Loan</text><rect fill="#EEEEEE" height="3" style="stroke:#EEEEEE;stroke-width:1.0;" width="727" x="0" y="114.1914"/><line style="stroke:#000000;stroke-width:1.0;" x1="0" x2="727" y1="114.1914" y2="114.1914"/><line style="stroke:#000000;stroke-width:1.0;" x1="0" x2="727" y1="117.1914" y2="117.1914"/><rect fill="#EEEEEE" height="27.7891" style="stroke:#000000;stroke-width:2.0;" width="137" x="295" y="101.2969"/><text fill="#000000" font-family="sans-serif" font-size="17" font-weight="bold" lengthAdjust="spacing" textLength="123" x="301" y="121.0767">Stabilization</text><polygon fill="#181818" points="648,156.2188,658,160.2188,648,164.2188,652,160.2188" style="stroke:#181818;stroke-width:1.0;"/><line style="stroke:#181818;stroke-width:1.0;" x1="58" x2="654" y1="160.2188" y2="160.2188"/><text fill="#000000" font-family="sans-serif" font-size="13" font-weight="bold" lengthAdjust="spacing" textLength="9" x="65" y="155.1528">1</text><text fill="#000000" font-family="sans-serif" font-size="13" lengthAdjust="spacing" textLength="51" x="78" y="155.1528">initialize</text><polygon fill="#181818" points="648,185.3516,658,189.3516,648,193.3516,652,189.3516" style="stroke:#181818;stroke-width:1.0;"/><line style="stroke:#181818;stroke-width:1.0;" x1="158.5" x2="654" y1="189.3516" y2="189.3516"/><text fill="#000000" font-family="sans-serif" font-size="13" font-weight="bold" lengthAdjust="spacing" textLength="9" x="165.5" y="184.2856">2</text><text fill="#000000" font-family="sans-serif" font-size="13" lengthAdjust="spacing" textLength="123" x="178.5" y="184.2856">deposit 5000k Djed</text><rect fill="#EEEEEE" height="3" style="stroke:#EEEEEE;stroke-width:1.0;" width="727" x="0" y="220.2461"/><line style="stroke:#000000;stroke-width:1.0;" x1="0" x2="727" y1="220.2461" y2="220.2461"/><line style="stroke:#000000;stroke-width:1.0;" x1="0" x2="727" y1="223.2461" y2="223.2461"/><rect fill="#EEEEEE" height="27.7891" style="stroke:#000000;stroke-width:2.0;" width="125" x="301" y="207.3516"/><text fill="#000000" font-family="sans-serif" font-size="17" font-weight="bold" lengthAdjust="spacing" textLength="111" x="307" y="227.1313">Investment</text><polygon fill="#181818" points="648,262.2734,658,266.2734,648,270.2734,652,266.2734" style="stroke:#181818;stroke-width:1.0;"/><line style="stroke:#181818;stroke-width:1.0;" x1="245" x2="654" y1="266.2734" y2="266.2734"/><text fill="#000000" font-family="sans-serif" font-size="13" font-weight="bold" lengthAdjust="spacing" textLength="8" x="252" y="261.2075">3</text><text fill="#000000" font-family="sans-serif" font-size="13" lengthAdjust="spacing" textLength="123" x="264" y="261.2075">deposit 1000k Djed</text><polygon fill="#181818" points="648,291.4063,658,295.4063,648,299.4063,652,295.4063" style="stroke:#181818;stroke-width:1.0;"/><line style="stroke:#181818;stroke-width:1.0;" x1="332.5" x2="654" y1="295.4063" y2="295.4063"/><text fill="#000000" font-family="sans-serif" font-size="13" font-weight="bold" lengthAdjust="spacing" textLength="9" x="339.5" y="290.3403">4</text><text fill="#000000" font-family="sans-serif" font-size="13" lengthAdjust="spacing" textLength="115" x="352.5" y="290.3403">deposit 500k Djed</text><rect fill="#EEEEEE" height="3" style="stroke:#EEEEEE;stroke-width:1.0;" width="727" x="0" y="326.3008"/><line style="stroke:#000000;stroke-width:1.0;" x1="0" x2="727" y1="326.3008" y2="326.3008"/><line style="stroke:#000000;stroke-width:1.0;" x1="0" x2="727" y1="329.3008" y2="329.3008"/><rect fill="#EEEEEE" height="27.7891" style="stroke:#000000;stroke-width:2.0;" width="90" x="318.5" y="313.4063"/><text fill="#000000" font-family="sans-serif" font-size="17" font-weight="bold" lengthAdjust="spacing" textLength="76" x="324.5" y="333.186">Lending</text><polygon fill="#181818" points="648,368.3281,658,372.3281,648,376.3281,652,372.3281" style="stroke:#181818;stroke-width:1.0;"/><line style="stroke:#181818;stroke-width:1.0;" x1="58" x2="654" y1="372.3281" y2="372.3281"/><text fill="#000000" font-family="sans-serif" font-size="13" font-weight="bold" lengthAdjust="spacing" textLength="9" x="65" y="367.2622">5</text><text fill="#000000" font-family="sans-serif" font-size="13" lengthAdjust="spacing" textLength="219" x="78" y="367.2622">authorize 900k Djed to Borrower 1</text><polygon fill="#181818" points="434.5,397.4609,424.5,401.4609,434.5,405.4609,430.5,401.4609" style="stroke:#181818;stroke-width:1.0;"/><line style="stroke:#181818;stroke-width:1.0;" x1="428.5" x2="659" y1="401.4609" y2="401.4609"/><text fill="#000000" font-family="sans-serif" font-size="13" font-weight="bold" lengthAdjust="spacing" textLength="9" x="440.5" y="396.395">6</text><text fill="#000000" font-family="sans-serif" font-size="13" lengthAdjust="spacing" textLength="92" x="453.5" y="396.395">pay 900k Djed</text><polygon fill="#181818" points="648,426.5938,658,430.5938,648,434.5938,652,430.5938" style="stroke:#181818;stroke-width:1.0;"/><line style="stroke:#181818;stroke-width:1.0;" x1="58" x2="654" y1="430.5938" y2="430.5938"/><text fill="#000000" font-family="sans-serif" font-size="13" font-weight="bold" lengthAdjust="spacing" textLength="9" x="65" y="425.5278">7</text><text fill="#000000" font-family="sans-serif" font-size="13" lengthAdjust="spacing" textLength="219" x="78" y="425.5278">authorize 600k Djed to Borrower 2</text><polygon fill="#181818" points="529,455.7266,519,459.7266,529,463.7266,525,459.7266" style="stroke:#181818;stroke-width:1.0;"/><line style="stroke:#181818;stroke-width:1.0;" x1="523" x2="659" y1="459.7266" y2="459.7266"/><text fill="#000000" font-family="sans-serif" font-size="13" font-weight="bold" lengthAdjust="spacing" textLength="9" x="535" y="454.6606">8</text><text fill="#000000" font-family="sans-serif" font-size="13" lengthAdjust="spacing" textLength="92" x="548" y="454.6606">pay 600k Djed</text><rect fill="#EEEEEE" height="3" style="stroke:#EEEEEE;stroke-width:1.0;" width="727" x="0" y="490.6211"/><line style="stroke:#000000;stroke-width:1.0;" x1="0" x2="727" y1="490.6211" y2="490.6211"/><line style="stroke:#000000;stroke-width:1.0;" x1="0" x2="727" y1="493.6211" y2="493.6211"/><rect fill="#EEEEEE" height="27.7891" style="stroke:#000000;stroke-width:2.0;" width="124" x="301.5" y="477.7266"/><text fill="#000000" font-family="sans-serif" font-size="17" font-weight="bold" lengthAdjust="spacing" textLength="110" x="307.5" y="497.5063">Repayment</text><polygon fill="#181818" points="648,532.6484,658,536.6484,648,540.6484,652,536.6484" style="stroke:#181818;stroke-width:1.0;"/><line style="stroke:#181818;stroke-width:1.0;" x1="518" x2="654" y1="536.6484" y2="536.6484"/><text fill="#000000" font-family="sans-serif" font-size="13" font-weight="bold" lengthAdjust="spacing" textLength="9" x="525" y="531.5825">9</text><text fill="#000000" font-family="sans-serif" font-size="13" lengthAdjust="spacing" textLength="105" x="538" y="531.5825">repay 720k Djed</text><polygon fill="#181818" points="648,561.7813,658,565.7813,648,569.7813,652,565.7813" style="stroke:#181818;stroke-width:1.0;"/><line style="stroke:#181818;stroke-width:1.0;" x1="423.5" x2="654" y1="565.7813" y2="565.7813"/><text fill="#000000" font-family="sans-serif" font-size="13" font-weight="bold" lengthAdjust="spacing" textLength="19" x="430.5" y="560.7153">10</text><text fill="#000000" font-family="sans-serif" font-size="13" lengthAdjust="spacing" textLength="136" x="453.5" y="560.7153">repay only 840k Djed</text><rect fill="#EEEEEE" height="3" style="stroke:#EEEEEE;stroke-width:1.0;" width="727" x="0" y="596.6758"/><line style="stroke:#000000;stroke-width:1.0;" x1="0" x2="727" y1="596.6758" y2="596.6758"/><line style="stroke:#000000;stroke-width:1.0;" x1="0" x2="727" y1="599.6758" y2="599.6758"/><rect fill="#EEEEEE" height="27.7891" style="stroke:#000000;stroke-width:2.0;" width="178" x="274.5" y="583.7813"/><text fill="#000000" font-family="sans-serif" font-size="17" font-weight="bold" lengthAdjust="spacing" textLength="164" x="280.5" y="603.561">Final Settlement</text><polygon fill="#181818" points="648,638.7031,658,642.7031,648,646.7031,652,642.7031" style="stroke:#181818;stroke-width:1.0;"/><line style="stroke:#181818;stroke-width:1.0;" x1="58" x2="654" y1="642.7031" y2="642.7031"/><text fill="#000000" font-family="sans-serif" font-size="13" font-weight="bold" lengthAdjust="spacing" textLength="18" x="65" y="637.6372">11</text><text fill="#000000" font-family="sans-serif" font-size="13" lengthAdjust="spacing" textLength="120" x="87" y="637.6372">terminate contract</text><polygon fill="#181818" points="169.5,667.8359,159.5,671.8359,169.5,675.8359,165.5,671.8359" style="stroke:#181818;stroke-width:1.0;"/><line style="stroke:#181818;stroke-width:1.0;" x1="163.5" x2="659" y1="671.8359" y2="671.8359"/><text fill="#000000" font-family="sans-serif" font-size="13" font-weight="bold" lengthAdjust="spacing" textLength="18" x="175.5" y="666.77">12</text><text fill="#000000" font-family="sans-serif" font-size="13" lengthAdjust="spacing" textLength="100" x="197.5" y="666.77">pay 4910k Djed</text><polygon fill="#181818" points="256,696.9688,246,700.9688,256,704.9688,252,700.9688" style="stroke:#181818;stroke-width:1.0;"/><line style="stroke:#181818;stroke-width:1.0;" x1="250" x2="659" y1="700.9688" y2="700.9688"/><text fill="#000000" font-family="sans-serif" font-size="13" font-weight="bold" lengthAdjust="spacing" textLength="17" x="262" y="695.9028">13</text><text fill="#000000" font-family="sans-serif" font-size="13" lengthAdjust="spacing" textLength="100" x="283" y="695.9028">pay 1100k Djed</text><polygon fill="#181818" points="343.5,726.1016,333.5,730.1016,343.5,734.1016,339.5,730.1016" style="stroke:#181818;stroke-width:1.0;"/><line style="stroke:#181818;stroke-width:1.0;" x1="337.5" x2="659" y1="730.1016" y2="730.1016"/><text fill="#000000" font-family="sans-serif" font-size="13" font-weight="bold" lengthAdjust="spacing" textLength="18" x="349.5" y="725.0356">14</text><text fill="#000000" font-family="sans-serif" font-size="13" lengthAdjust="spacing" textLength="92" x="371.5" y="725.0356">pay 550k Djed</text><!--MD5=[830f24633a3845a8bfd24da8bb16847a]
@startuml
'https://plantuml.com/sequence-diagram

autonumber


actor Administrator as administrator
actor Stabilizer    as stabilizer
actor "Investor 1"  as investor1
actor "Investor 2"  as investor2
actor "Borrower 1"  as borrower1
actor "Borrower 2"  as borrower2
participant "Collective Loan" as pool

=== Stabilization ==

administrator -> pool: initialize

stabilizer -> pool: deposit 5000k Djed

=== Investment ==

investor1 -> pool: deposit 1000k Djed
investor2 -> pool: deposit 500k Djed

=== Lending ==

administrator -> pool: authorize 900k Djed to Borrower 1
pool -> borrower1: pay 900k Djed

administrator -> pool: authorize 600k Djed to Borrower 2
pool -> borrower2: pay 600k Djed

=== Repayment ==

borrower2 -> pool: repay 720k Djed

borrower1 -> pool: repay only 840k Djed

=== Final Settlement ==

administrator -> pool: terminate contract

pool -> stabilizer: pay 4910k Djed
pool -> investor1:  pay 1100k Djed
pool -> investor2:  pay 550k Djed
@enduml

@startuml

autonumber


actor Administrator as administrator
actor Stabilizer    as stabilizer
actor "Investor 1"  as investor1
actor "Investor 2"  as investor2
actor "Borrower 1"  as borrower1
actor "Borrower 2"  as borrower2
participant "Collective Loan" as pool

=== Stabilization ==

administrator -> pool: initialize

stabilizer -> pool: deposit 5000k Djed

=== Investment ==

investor1 -> pool: deposit 1000k Djed
investor2 -> pool: deposit 500k Djed

=== Lending ==

administrator -> pool: authorize 900k Djed to Borrower 1
pool -> borrower1: pay 900k Djed

administrator -> pool: authorize 600k Djed to Borrower 2
pool -> borrower2: pay 600k Djed

=== Repayment ==

borrower2 -> pool: repay 720k Djed

borrower1 -> pool: repay only 840k Djed

=== Final Settlement ==

administrator -> pool: terminate contract

pool -> stabilizer: pay 4910k Djed
pool -> investor1:  pay 1100k Djed
pool -> investor2:  pay 550k Djed
@enduml

PlantUML version 1.2022.8beta2(Unknown compile time)
(GPL source distribution)
Java Runtime: Java(TM) SE Runtime Environment
JVM: Java HotSpot(TM) 64-Bit Server VM
Default Encoding: UTF-8
Language: en
Country: US
--></g></svg>